<?xml version="1.0" encoding="utf-8" standalone="no"?>
<!DOCTYPE svg PUBLIC "-//W3C//DTD SVG 1.1//EN"
  "http://www.w3.org/Graphics/SVG/1.1/DTD/svg11.dtd">
<svg xmlns:xlink="http://www.w3.org/1999/xlink" width="576pt" height="360pt" viewBox="0 0 576 360" xmlns="http://www.w3.org/2000/svg" version="1.1">
 <metadata>
  <rdf:RDF xmlns:dc="http://purl.org/dc/elements/1.1/" xmlns:cc="http://creativecommons.org/ns#" xmlns:rdf="http://www.w3.org/1999/02/22-rdf-syntax-ns#">
   <cc:Work>
    <dc:type rdf:resource="http://purl.org/dc/dcmitype/StillImage"/>
    <dc:date>2022-08-27T14:02:06.337659</dc:date>
    <dc:format>image/svg+xml</dc:format>
    <dc:creator>
     <cc:Agent>
      <dc:title>Matplotlib v3.5.1, https://matplotlib.org/</dc:title>
     </cc:Agent>
    </dc:creator>
   </cc:Work>
  </rdf:RDF>
 </metadata>
 <defs>
  <style type="text/css">*{stroke-linejoin: round; stroke-linecap: butt}</style>
 </defs>
 <g id="figure_1">
  <g id="patch_1">
   <path d="M 0 360 
L 576 360 
L 576 0 
L 0 0 
L 0 360 
z
" style="fill: none"/>
  </g>
  <g id="axes_1">
   <g id="patch_2">
    <path d="M 72 315 
L 518.4 315 
L 518.4 43.2 
L 72 43.2 
z
" style="fill: #ffffff"/>
   </g>
   <g id="PathCollection_1">
    <defs>
     <path id="m6fad468139" d="M 0 0.559017 
C 0.148253 0.559017 0.290454 0.500115 0.395285 0.395285 
C 0.500115 0.290454 0.559017 0.148253 0.559017 0 
C 0.559017 -0.148253 0.500115 -0.290454 0.395285 -0.395285 
C 0.290454 -0.500115 0.148253 -0.559017 0 -0.559017 
C -0.148253 -0.559017 -0.290454 -0.500115 -0.395285 -0.395285 
C -0.500115 -0.290454 -0.559017 -0.148253 -0.559017 0 
C -0.559017 0.148253 -0.500115 0.290454 -0.395285 0.395285 
C -0.290454 0.500115 -0.148253 0.559017 0 0.559017 
z
" style="stroke: #ffa500"/>
    </defs>
    <g clip-path="url(#p6feaa0511b)">
     <use xlink:href="#m6fad468139" x="92.290909" y="85.205455" style="fill: #ffa500; stroke: #ffa500"/>
     <use xlink:href="#m6fad468139" x="98.006658" y="75.321818" style="fill: #ffa500; stroke: #ffa500"/>
     <use xlink:href="#m6fad468139" x="103.722407" y="75.321818" style="fill: #ffa500; stroke: #ffa500"/>
     <use xlink:href="#m6fad468139" x="109.438156" y="95.089091" style="fill: #ffa500; stroke: #ffa500"/>
     <use xlink:href="#m6fad468139" x="115.153905" y="124.74" style="fill: #ffa500; stroke: #ffa500"/>
     <use xlink:href="#m6fad468139" x="120.869654" y="193.925455" style="fill: #ffa500; stroke: #ffa500"/>
     <use xlink:href="#m6fad468139" x="126.585403" y="223.576364" style="fill: #ffa500; stroke: #ffa500"/>
     <use xlink:href="#m6fad468139" x="132.301152" y="243.343636" style="fill: #ffa500; stroke: #ffa500"/>
     <use xlink:href="#m6fad468139" x="138.016901" y="253.227273" style="fill: #ffa500; stroke: #ffa500"/>
     <use xlink:href="#m6fad468139" x="143.73265" y="272.994545" style="fill: #ffa500; stroke: #ffa500"/>
    </g>
   </g>
   <g id="PathCollection_2">
    <defs>
     <path id="m3fc8ce2531" d="M 0 -2.738613 
L -2.738613 2.738613 
L 2.738613 2.738613 
z
" style="stroke: #ff0000"/>
    </defs>
    <g clip-path="url(#p6feaa0511b)">
     <use xlink:href="#m3fc8ce2531" x="149.448399" y="282.878182" style="fill: #ff0000; stroke: #ff0000"/>
     <use xlink:href="#m3fc8ce2531" x="155.164149" y="292.761818" style="fill: #ff0000; stroke: #ff0000"/>
     <use xlink:href="#m3fc8ce2531" x="160.879898" y="292.761818" style="fill: #ff0000; stroke: #ff0000"/>
     <use xlink:href="#m3fc8ce2531" x="166.595647" y="282.878182" style="fill: #ff0000; stroke: #ff0000"/>
     <use xlink:href="#m3fc8ce2531" x="172.311396" y="282.878182" style="fill: #ff0000; stroke: #ff0000"/>
     <use xlink:href="#m3fc8ce2531" x="178.027145" y="302.645455" style="fill: #ff0000; stroke: #ff0000"/>
     <use xlink:href="#m3fc8ce2531" x="183.742894" y="282.878182" style="fill: #ff0000; stroke: #ff0000"/>
     <use xlink:href="#m3fc8ce2531" x="189.458643" y="213.692727" style="fill: #ff0000; stroke: #ff0000"/>
     <use xlink:href="#m3fc8ce2531" x="195.174392" y="154.390909" style="fill: #ff0000; stroke: #ff0000"/>
     <use xlink:href="#m3fc8ce2531" x="200.890141" y="124.74" style="fill: #ff0000; stroke: #ff0000"/>
     <use xlink:href="#m3fc8ce2531" x="206.60589" y="104.972727" style="fill: #ff0000; stroke: #ff0000"/>
     <use xlink:href="#m3fc8ce2531" x="212.321639" y="85.205455" style="fill: #ff0000; stroke: #ff0000"/>
     <use xlink:href="#m3fc8ce2531" x="218.037388" y="95.089091" style="fill: #ff0000; stroke: #ff0000"/>
     <use xlink:href="#m3fc8ce2531" x="223.753137" y="75.321818" style="fill: #ff0000; stroke: #ff0000"/>
     <use xlink:href="#m3fc8ce2531" x="229.468886" y="85.205455" style="fill: #ff0000; stroke: #ff0000"/>
     <use xlink:href="#m3fc8ce2531" x="235.184635" y="65.438182" style="fill: #ff0000; stroke: #ff0000"/>
     <use xlink:href="#m3fc8ce2531" x="240.900384" y="75.321818" style="fill: #ff0000; stroke: #ff0000"/>
     <use xlink:href="#m3fc8ce2531" x="246.616133" y="75.321818" style="fill: #ff0000; stroke: #ff0000"/>
     <use xlink:href="#m3fc8ce2531" x="252.331882" y="114.856364" style="fill: #ff0000; stroke: #ff0000"/>
     <use xlink:href="#m3fc8ce2531" x="258.047631" y="174.158182" style="fill: #ff0000; stroke: #ff0000"/>
     <use xlink:href="#m3fc8ce2531" x="263.76338" y="213.692727" style="fill: #ff0000; stroke: #ff0000"/>
     <use xlink:href="#m3fc8ce2531" x="269.479129" y="223.576364" style="fill: #ff0000; stroke: #ff0000"/>
     <use xlink:href="#m3fc8ce2531" x="275.194878" y="243.343636" style="fill: #ff0000; stroke: #ff0000"/>
     <use xlink:href="#m3fc8ce2531" x="280.910627" y="243.343636" style="fill: #ff0000; stroke: #ff0000"/>
    </g>
   </g>
   <g id="PathCollection_3">
    <defs>
     <path id="m4caaf33fca" d="M -0 7.071068 
L 7.071068 0 
L 0 -7.071068 
L -7.071068 -0 
z
" style="stroke: #000000"/>
    </defs>
    <g clip-path="url(#p6feaa0511b)">
     <use xlink:href="#m4caaf33fca" x="286.626376" y="253.227273" style="stroke: #000000"/>
     <use xlink:href="#m4caaf33fca" x="292.342125" y="263.110909" style="stroke: #000000"/>
     <use xlink:href="#m4caaf33fca" x="298.057875" y="272.994545" style="stroke: #000000"/>
     <use xlink:href="#m4caaf33fca" x="303.773624" y="282.878182" style="stroke: #000000"/>
     <use xlink:href="#m4caaf33fca" x="309.489373" y="292.761818" style="stroke: #000000"/>
     <use xlink:href="#m4caaf33fca" x="315.205122" y="292.761818" style="stroke: #000000"/>
     <use xlink:href="#m4caaf33fca" x="320.920871" y="243.343636" style="stroke: #000000"/>
     <use xlink:href="#m4caaf33fca" x="326.63662" y="213.692727" style="stroke: #000000"/>
     <use xlink:href="#m4caaf33fca" x="332.352369" y="203.809091" style="stroke: #000000"/>
     <use xlink:href="#m4caaf33fca" x="338.068118" y="174.158182" style="stroke: #000000"/>
     <use xlink:href="#m4caaf33fca" x="343.783867" y="144.507273" style="stroke: #000000"/>
     <use xlink:href="#m4caaf33fca" x="349.499616" y="104.972727" style="stroke: #000000"/>
     <use xlink:href="#m4caaf33fca" x="355.215365" y="95.089091" style="stroke: #000000"/>
     <use xlink:href="#m4caaf33fca" x="360.931114" y="65.438182" style="stroke: #000000"/>
     <use xlink:href="#m4caaf33fca" x="366.646863" y="65.438182" style="stroke: #000000"/>
     <use xlink:href="#m4caaf33fca" x="372.362612" y="55.554545" style="stroke: #000000"/>
     <use xlink:href="#m4caaf33fca" x="378.078361" y="75.321818" style="stroke: #000000"/>
     <use xlink:href="#m4caaf33fca" x="383.79411" y="124.74" style="stroke: #000000"/>
     <use xlink:href="#m4caaf33fca" x="389.509859" y="154.390909" style="stroke: #000000"/>
     <use xlink:href="#m4caaf33fca" x="395.225608" y="164.274545" style="stroke: #000000"/>
     <use xlink:href="#m4caaf33fca" x="400.941357" y="164.274545" style="stroke: #000000"/>
     <use xlink:href="#m4caaf33fca" x="406.657106" y="193.925455" style="stroke: #000000"/>
     <use xlink:href="#m4caaf33fca" x="412.372855" y="193.925455" style="stroke: #000000"/>
     <use xlink:href="#m4caaf33fca" x="418.088604" y="184.041818" style="stroke: #000000"/>
    </g>
   </g>
   <g id="PathCollection_4">
    <defs>
     <path id="m320083f330" d="M 0 -7.071068 
L -1.587554 -2.18508 
L -6.724985 -2.18508 
L -2.568716 0.834626 
L -4.156269 5.720614 
L -0 2.700907 
L 4.156269 5.720614 
L 2.568716 0.834626 
L 6.724985 -2.18508 
L 1.587554 -2.18508 
z
" style="stroke: #0000ff"/>
    </defs>
    <g clip-path="url(#p6feaa0511b)">
     <use xlink:href="#m320083f330" x="423.804353" y="193.925455" style="fill: #0000ff; stroke: #0000ff"/>
     <use xlink:href="#m320083f330" x="429.520102" y="223.576364" style="fill: #0000ff; stroke: #0000ff"/>
     <use xlink:href="#m320083f330" x="435.235851" y="233.46" style="fill: #0000ff; stroke: #0000ff"/>
     <use xlink:href="#m320083f330" x="440.951601" y="233.46" style="fill: #0000ff; stroke: #0000ff"/>
     <use xlink:href="#m320083f330" x="446.66735" y="253.227273" style="fill: #0000ff; stroke: #0000ff"/>
     <use xlink:href="#m320083f330" x="452.383099" y="243.343636" style="fill: #0000ff; stroke: #0000ff"/>
     <use xlink:href="#m320083f330" x="458.098848" y="213.692727" style="fill: #0000ff; stroke: #0000ff"/>
     <use xlink:href="#m320083f330" x="463.814597" y="184.041818" style="fill: #0000ff; stroke: #0000ff"/>
     <use xlink:href="#m320083f330" x="469.530346" y="164.274545" style="fill: #0000ff; stroke: #0000ff"/>
     <use xlink:href="#m320083f330" x="475.246095" y="144.507273" style="fill: #0000ff; stroke: #0000ff"/>
     <use xlink:href="#m320083f330" x="480.961844" y="104.972727" style="fill: #0000ff; stroke: #0000ff"/>
     <use xlink:href="#m320083f330" x="486.677593" y="95.089091" style="fill: #0000ff; stroke: #0000ff"/>
     <use xlink:href="#m320083f330" x="492.393342" y="95.089091" style="fill: #0000ff; stroke: #0000ff"/>
     <use xlink:href="#m320083f330" x="498.109091" y="85.205455" style="fill: #0000ff; stroke: #0000ff"/>
    </g>
   </g>
   <g id="matplotlib.axis_1">
    <g id="xtick_1">
     <g id="line2d_1">
      <defs>
       <path id="m6a7ce3c398" d="M 0 0 
L 0 3.5 
" style="stroke: #000000; stroke-width: 0.8"/>
      </defs>
      <g>
       <use xlink:href="#m6a7ce3c398" x="92.290909" y="315" style="stroke: #000000; stroke-width: 0.8"/>
      </g>
     </g>
     <g id="text_1">
      <!-- Aug 23 -->
      <g transform="translate(74.576065 329.598437)scale(0.1 -0.1)">
       <defs>
        <path id="DejaVuSans-41" d="M 2188 4044 
L 1331 1722 
L 3047 1722 
L 2188 4044 
z
M 1831 4666 
L 2547 4666 
L 4325 0 
L 3669 0 
L 3244 1197 
L 1141 1197 
L 716 0 
L 50 0 
L 1831 4666 
z
" transform="scale(0.015625)"/>
        <path id="DejaVuSans-75" d="M 544 1381 
L 544 3500 
L 1119 3500 
L 1119 1403 
Q 1119 906 1312 657 
Q 1506 409 1894 409 
Q 2359 409 2629 706 
Q 2900 1003 2900 1516 
L 2900 3500 
L 3475 3500 
L 3475 0 
L 2900 0 
L 2900 538 
Q 2691 219 2414 64 
Q 2138 -91 1772 -91 
Q 1169 -91 856 284 
Q 544 659 544 1381 
z
M 1991 3584 
L 1991 3584 
z
" transform="scale(0.015625)"/>
        <path id="DejaVuSans-67" d="M 2906 1791 
Q 2906 2416 2648 2759 
Q 2391 3103 1925 3103 
Q 1463 3103 1205 2759 
Q 947 2416 947 1791 
Q 947 1169 1205 825 
Q 1463 481 1925 481 
Q 2391 481 2648 825 
Q 2906 1169 2906 1791 
z
M 3481 434 
Q 3481 -459 3084 -895 
Q 2688 -1331 1869 -1331 
Q 1566 -1331 1297 -1286 
Q 1028 -1241 775 -1147 
L 775 -588 
Q 1028 -725 1275 -790 
Q 1522 -856 1778 -856 
Q 2344 -856 2625 -561 
Q 2906 -266 2906 331 
L 2906 616 
Q 2728 306 2450 153 
Q 2172 0 1784 0 
Q 1141 0 747 490 
Q 353 981 353 1791 
Q 353 2603 747 3093 
Q 1141 3584 1784 3584 
Q 2172 3584 2450 3431 
Q 2728 3278 2906 2969 
L 2906 3500 
L 3481 3500 
L 3481 434 
z
" transform="scale(0.015625)"/>
        <path id="DejaVuSans-20" transform="scale(0.015625)"/>
        <path id="DejaVuSans-32" d="M 1228 531 
L 3431 531 
L 3431 0 
L 469 0 
L 469 531 
Q 828 903 1448 1529 
Q 2069 2156 2228 2338 
Q 2531 2678 2651 2914 
Q 2772 3150 2772 3378 
Q 2772 3750 2511 3984 
Q 2250 4219 1831 4219 
Q 1534 4219 1204 4116 
Q 875 4013 500 3803 
L 500 4441 
Q 881 4594 1212 4672 
Q 1544 4750 1819 4750 
Q 2544 4750 2975 4387 
Q 3406 4025 3406 3419 
Q 3406 3131 3298 2873 
Q 3191 2616 2906 2266 
Q 2828 2175 2409 1742 
Q 1991 1309 1228 531 
z
" transform="scale(0.015625)"/>
        <path id="DejaVuSans-33" d="M 2597 2516 
Q 3050 2419 3304 2112 
Q 3559 1806 3559 1356 
Q 3559 666 3084 287 
Q 2609 -91 1734 -91 
Q 1441 -91 1130 -33 
Q 819 25 488 141 
L 488 750 
Q 750 597 1062 519 
Q 1375 441 1716 441 
Q 2309 441 2620 675 
Q 2931 909 2931 1356 
Q 2931 1769 2642 2001 
Q 2353 2234 1838 2234 
L 1294 2234 
L 1294 2753 
L 1863 2753 
Q 2328 2753 2575 2939 
Q 2822 3125 2822 3475 
Q 2822 3834 2567 4026 
Q 2313 4219 1838 4219 
Q 1578 4219 1281 4162 
Q 984 4106 628 3988 
L 628 4550 
Q 988 4650 1302 4700 
Q 1616 4750 1894 4750 
Q 2613 4750 3031 4423 
Q 3450 4097 3450 3541 
Q 3450 3153 3228 2886 
Q 3006 2619 2597 2516 
z
" transform="scale(0.015625)"/>
       </defs>
       <use xlink:href="#DejaVuSans-41"/>
       <use xlink:href="#DejaVuSans-75" x="68.408203"/>
       <use xlink:href="#DejaVuSans-67" x="131.787109"/>
       <use xlink:href="#DejaVuSans-20" x="195.263672"/>
       <use xlink:href="#DejaVuSans-32" x="227.050781"/>
       <use xlink:href="#DejaVuSans-33" x="290.673828"/>
      </g>
      <!-- 14:53 -->
      <g transform="translate(77.881534 340.79625)scale(0.1 -0.1)">
       <defs>
        <path id="DejaVuSans-31" d="M 794 531 
L 1825 531 
L 1825 4091 
L 703 3866 
L 703 4441 
L 1819 4666 
L 2450 4666 
L 2450 531 
L 3481 531 
L 3481 0 
L 794 0 
L 794 531 
z
" transform="scale(0.015625)"/>
        <path id="DejaVuSans-34" d="M 2419 4116 
L 825 1625 
L 2419 1625 
L 2419 4116 
z
M 2253 4666 
L 3047 4666 
L 3047 1625 
L 3713 1625 
L 3713 1100 
L 3047 1100 
L 3047 0 
L 2419 0 
L 2419 1100 
L 313 1100 
L 313 1709 
L 2253 4666 
z
" transform="scale(0.015625)"/>
        <path id="DejaVuSans-3a" d="M 750 794 
L 1409 794 
L 1409 0 
L 750 0 
L 750 794 
z
M 750 3309 
L 1409 3309 
L 1409 2516 
L 750 2516 
L 750 3309 
z
" transform="scale(0.015625)"/>
        <path id="DejaVuSans-35" d="M 691 4666 
L 3169 4666 
L 3169 4134 
L 1269 4134 
L 1269 2991 
Q 1406 3038 1543 3061 
Q 1681 3084 1819 3084 
Q 2600 3084 3056 2656 
Q 3513 2228 3513 1497 
Q 3513 744 3044 326 
Q 2575 -91 1722 -91 
Q 1428 -91 1123 -41 
Q 819 9 494 109 
L 494 744 
Q 775 591 1075 516 
Q 1375 441 1709 441 
Q 2250 441 2565 725 
Q 2881 1009 2881 1497 
Q 2881 1984 2565 2268 
Q 2250 2553 1709 2553 
Q 1456 2553 1204 2497 
Q 953 2441 691 2322 
L 691 4666 
z
" transform="scale(0.015625)"/>
       </defs>
       <use xlink:href="#DejaVuSans-31"/>
       <use xlink:href="#DejaVuSans-34" x="63.623047"/>
       <use xlink:href="#DejaVuSans-3a" x="127.246094"/>
       <use xlink:href="#DejaVuSans-35" x="160.9375"/>
       <use xlink:href="#DejaVuSans-33" x="224.560547"/>
      </g>
     </g>
    </g>
    <g id="xtick_2">
     <g id="line2d_2">
      <g>
       <use xlink:href="#m6a7ce3c398" x="149.448399" y="315" style="stroke: #000000; stroke-width: 0.8"/>
      </g>
     </g>
     <g id="text_2">
      <!-- Aug 24 -->
      <g transform="translate(131.733556 329.598437)scale(0.1 -0.1)">
       <use xlink:href="#DejaVuSans-41"/>
       <use xlink:href="#DejaVuSans-75" x="68.408203"/>
       <use xlink:href="#DejaVuSans-67" x="131.787109"/>
       <use xlink:href="#DejaVuSans-20" x="195.263672"/>
       <use xlink:href="#DejaVuSans-32" x="227.050781"/>
       <use xlink:href="#DejaVuSans-34" x="290.673828"/>
      </g>
      <!-- 0:53 -->
      <g transform="translate(138.220274 340.79625)scale(0.1 -0.1)">
       <defs>
        <path id="DejaVuSans-30" d="M 2034 4250 
Q 1547 4250 1301 3770 
Q 1056 3291 1056 2328 
Q 1056 1369 1301 889 
Q 1547 409 2034 409 
Q 2525 409 2770 889 
Q 3016 1369 3016 2328 
Q 3016 3291 2770 3770 
Q 2525 4250 2034 4250 
z
M 2034 4750 
Q 2819 4750 3233 4129 
Q 3647 3509 3647 2328 
Q 3647 1150 3233 529 
Q 2819 -91 2034 -91 
Q 1250 -91 836 529 
Q 422 1150 422 2328 
Q 422 3509 836 4129 
Q 1250 4750 2034 4750 
z
" transform="scale(0.015625)"/>
       </defs>
       <use xlink:href="#DejaVuSans-30"/>
       <use xlink:href="#DejaVuSans-3a" x="63.623047"/>
       <use xlink:href="#DejaVuSans-35" x="97.314453"/>
       <use xlink:href="#DejaVuSans-33" x="160.9375"/>
      </g>
     </g>
    </g>
    <g id="xtick_3">
     <g id="line2d_3">
      <g>
       <use xlink:href="#m6a7ce3c398" x="286.626376" y="315" style="stroke: #000000; stroke-width: 0.8"/>
      </g>
     </g>
     <g id="text_3">
      <!-- Aug 25 -->
      <g transform="translate(268.911533 329.598437)scale(0.1 -0.1)">
       <use xlink:href="#DejaVuSans-41"/>
       <use xlink:href="#DejaVuSans-75" x="68.408203"/>
       <use xlink:href="#DejaVuSans-67" x="131.787109"/>
       <use xlink:href="#DejaVuSans-20" x="195.263672"/>
       <use xlink:href="#DejaVuSans-32" x="227.050781"/>
       <use xlink:href="#DejaVuSans-35" x="290.673828"/>
      </g>
      <!-- 0:53 -->
      <g transform="translate(275.398251 340.79625)scale(0.1 -0.1)">
       <use xlink:href="#DejaVuSans-30"/>
       <use xlink:href="#DejaVuSans-3a" x="63.623047"/>
       <use xlink:href="#DejaVuSans-35" x="97.314453"/>
       <use xlink:href="#DejaVuSans-33" x="160.9375"/>
      </g>
     </g>
    </g>
    <g id="xtick_4">
     <g id="line2d_4">
      <g>
       <use xlink:href="#m6a7ce3c398" x="423.804353" y="315" style="stroke: #000000; stroke-width: 0.8"/>
      </g>
     </g>
     <g id="text_4">
      <!-- Aug 26 -->
      <g transform="translate(406.08951 329.598437)scale(0.1 -0.1)">
       <defs>
        <path id="DejaVuSans-36" d="M 2113 2584 
Q 1688 2584 1439 2293 
Q 1191 2003 1191 1497 
Q 1191 994 1439 701 
Q 1688 409 2113 409 
Q 2538 409 2786 701 
Q 3034 994 3034 1497 
Q 3034 2003 2786 2293 
Q 2538 2584 2113 2584 
z
M 3366 4563 
L 3366 3988 
Q 3128 4100 2886 4159 
Q 2644 4219 2406 4219 
Q 1781 4219 1451 3797 
Q 1122 3375 1075 2522 
Q 1259 2794 1537 2939 
Q 1816 3084 2150 3084 
Q 2853 3084 3261 2657 
Q 3669 2231 3669 1497 
Q 3669 778 3244 343 
Q 2819 -91 2113 -91 
Q 1303 -91 875 529 
Q 447 1150 447 2328 
Q 447 3434 972 4092 
Q 1497 4750 2381 4750 
Q 2619 4750 2861 4703 
Q 3103 4656 3366 4563 
z
" transform="scale(0.015625)"/>
       </defs>
       <use xlink:href="#DejaVuSans-41"/>
       <use xlink:href="#DejaVuSans-75" x="68.408203"/>
       <use xlink:href="#DejaVuSans-67" x="131.787109"/>
       <use xlink:href="#DejaVuSans-20" x="195.263672"/>
       <use xlink:href="#DejaVuSans-32" x="227.050781"/>
       <use xlink:href="#DejaVuSans-36" x="290.673828"/>
      </g>
      <!-- 0:53 -->
      <g transform="translate(412.576228 340.79625)scale(0.1 -0.1)">
       <use xlink:href="#DejaVuSans-30"/>
       <use xlink:href="#DejaVuSans-3a" x="63.623047"/>
       <use xlink:href="#DejaVuSans-35" x="97.314453"/>
       <use xlink:href="#DejaVuSans-33" x="160.9375"/>
      </g>
     </g>
    </g>
   </g>
   <g id="matplotlib.axis_2">
    <g id="ytick_1">
     <g id="line2d_5">
      <defs>
       <path id="m1528fca2e3" d="M 0 0 
L -3.5 0 
" style="stroke: #000000; stroke-width: 0.8"/>
      </defs>
      <g>
       <use xlink:href="#m1528fca2e3" x="72" y="282.878182" style="stroke: #000000; stroke-width: 0.8"/>
      </g>
     </g>
     <g id="text_5">
      <!-- 60 -->
      <g transform="translate(52.275 286.677401)scale(0.1 -0.1)">
       <use xlink:href="#DejaVuSans-36"/>
       <use xlink:href="#DejaVuSans-30" x="63.623047"/>
      </g>
     </g>
    </g>
    <g id="ytick_2">
     <g id="line2d_6">
      <g>
       <use xlink:href="#m1528fca2e3" x="72" y="233.46" style="stroke: #000000; stroke-width: 0.8"/>
      </g>
     </g>
     <g id="text_6">
      <!-- 65 -->
      <g transform="translate(52.275 237.259219)scale(0.1 -0.1)">
       <use xlink:href="#DejaVuSans-36"/>
       <use xlink:href="#DejaVuSans-35" x="63.623047"/>
      </g>
     </g>
    </g>
    <g id="ytick_3">
     <g id="line2d_7">
      <g>
       <use xlink:href="#m1528fca2e3" x="72" y="184.041818" style="stroke: #000000; stroke-width: 0.8"/>
      </g>
     </g>
     <g id="text_7">
      <!-- 70 -->
      <g transform="translate(52.275 187.841037)scale(0.1 -0.1)">
       <defs>
        <path id="DejaVuSans-37" d="M 525 4666 
L 3525 4666 
L 3525 4397 
L 1831 0 
L 1172 0 
L 2766 4134 
L 525 4134 
L 525 4666 
z
" transform="scale(0.015625)"/>
       </defs>
       <use xlink:href="#DejaVuSans-37"/>
       <use xlink:href="#DejaVuSans-30" x="63.623047"/>
      </g>
     </g>
    </g>
    <g id="ytick_4">
     <g id="line2d_8">
      <g>
       <use xlink:href="#m1528fca2e3" x="72" y="134.623636" style="stroke: #000000; stroke-width: 0.8"/>
      </g>
     </g>
     <g id="text_8">
      <!-- 75 -->
      <g transform="translate(52.275 138.422855)scale(0.1 -0.1)">
       <use xlink:href="#DejaVuSans-37"/>
       <use xlink:href="#DejaVuSans-35" x="63.623047"/>
      </g>
     </g>
    </g>
    <g id="ytick_5">
     <g id="line2d_9">
      <g>
       <use xlink:href="#m1528fca2e3" x="72" y="85.205455" style="stroke: #000000; stroke-width: 0.8"/>
      </g>
     </g>
     <g id="text_9">
      <!-- 80 -->
      <g transform="translate(52.275 89.004673)scale(0.1 -0.1)">
       <defs>
        <path id="DejaVuSans-38" d="M 2034 2216 
Q 1584 2216 1326 1975 
Q 1069 1734 1069 1313 
Q 1069 891 1326 650 
Q 1584 409 2034 409 
Q 2484 409 2743 651 
Q 3003 894 3003 1313 
Q 3003 1734 2745 1975 
Q 2488 2216 2034 2216 
z
M 1403 2484 
Q 997 2584 770 2862 
Q 544 3141 544 3541 
Q 544 4100 942 4425 
Q 1341 4750 2034 4750 
Q 2731 4750 3128 4425 
Q 3525 4100 3525 3541 
Q 3525 3141 3298 2862 
Q 3072 2584 2669 2484 
Q 3125 2378 3379 2068 
Q 3634 1759 3634 1313 
Q 3634 634 3220 271 
Q 2806 -91 2034 -91 
Q 1263 -91 848 271 
Q 434 634 434 1313 
Q 434 1759 690 2068 
Q 947 2378 1403 2484 
z
M 1172 3481 
Q 1172 3119 1398 2916 
Q 1625 2713 2034 2713 
Q 2441 2713 2670 2916 
Q 2900 3119 2900 3481 
Q 2900 3844 2670 4047 
Q 2441 4250 2034 4250 
Q 1625 4250 1398 4047 
Q 1172 3844 1172 3481 
z
" transform="scale(0.015625)"/>
       </defs>
       <use xlink:href="#DejaVuSans-38"/>
       <use xlink:href="#DejaVuSans-30" x="63.623047"/>
      </g>
     </g>
    </g>
   </g>
   <g id="patch_3">
    <path d="M 72 315 
L 72 43.2 
" style="fill: none; stroke: #000000; stroke-width: 0.8; stroke-linejoin: miter; stroke-linecap: square"/>
   </g>
   <g id="patch_4">
    <path d="M 518.4 315 
L 518.4 43.2 
" style="fill: none; stroke: #000000; stroke-width: 0.8; stroke-linejoin: miter; stroke-linecap: square"/>
   </g>
   <g id="patch_5">
    <path d="M 72 315 
L 518.4 315 
" style="fill: none; stroke: #000000; stroke-width: 0.8; stroke-linejoin: miter; stroke-linecap: square"/>
   </g>
   <g id="patch_6">
    <path d="M 72 43.2 
L 518.4 43.2 
" style="fill: none; stroke: #000000; stroke-width: 0.8; stroke-linejoin: miter; stroke-linecap: square"/>
   </g>
  </g>
 </g>
 <defs>
  <clipPath id="p6feaa0511b">
   <rect x="72" y="43.2" width="446.4" height="271.8"/>
  </clipPath>
 </defs>
</svg>
