<?xml version="1.0" encoding="utf-8" standalone="no"?>
<!DOCTYPE svg PUBLIC "-//W3C//DTD SVG 1.1//EN"
  "http://www.w3.org/Graphics/SVG/1.1/DTD/svg11.dtd">
<!-- Created with matplotlib (https://matplotlib.org/) -->
<svg height="360pt" version="1.1" viewBox="0 0 360 360" width="360pt" xmlns="http://www.w3.org/2000/svg" xmlns:xlink="http://www.w3.org/1999/xlink">
 <metadata>
  <rdf:RDF xmlns:cc="http://creativecommons.org/ns#" xmlns:dc="http://purl.org/dc/elements/1.1/" xmlns:rdf="http://www.w3.org/1999/02/22-rdf-syntax-ns#">
   <cc:Work>
    <dc:type rdf:resource="http://purl.org/dc/dcmitype/StillImage"/>
    <dc:date>2022-11-13T02:35:38.014576</dc:date>
    <dc:format>image/svg+xml</dc:format>
    <dc:creator>
     <cc:Agent>
      <dc:title>Matplotlib v3.3.2, https://matplotlib.org/</dc:title>
     </cc:Agent>
    </dc:creator>
   </cc:Work>
  </rdf:RDF>
 </metadata>
 <defs>
  <style type="text/css">*{stroke-linecap:butt;stroke-linejoin:round;}</style>
 </defs>
 <g id="figure_1">
  <g id="patch_1">
   <path d="M 0 360 
L 360 360 
L 360 0 
L 0 0 
z
" style="fill:none;"/>
  </g>
  <g id="axes_1">
   <g id="patch_2">
    <path d="M 45 312.30715 
L 324 312.30715 
L 324 45.89285 
L 45 45.89285 
z
" style="fill:#ffffff;"/>
   </g>
   <g id="patch_3">
    <path clip-path="url(#p9a2ce8a530)" d="M 75.008461 184.750321 
L 113.103232 263.476939 
" style="fill:none;stroke:#444444;stroke-linejoin:miter;stroke-width:2;"/>
   </g>
   <g id="patch_4">
    <path clip-path="url(#p9a2ce8a530)" d="M 120.056828 277.847234 
L 119.865379 260.204825 
L 106.341084 266.749053 
z
" style="fill:#444444;"/>
   </g>
   <g id="patch_5">
    <path clip-path="url(#p9a2ce8a530)" d="M 75.008461 184.750321 
L 70.784285 97.459049 
" style="fill:none;stroke:#444444;stroke-linejoin:miter;stroke-width:2;"/>
   </g>
   <g id="patch_6">
    <path clip-path="url(#p9a2ce8a530)" d="M 70.012649 81.51344 
L 63.280851 97.822153 
L 78.287719 97.095945 
z
" style="fill:#444444;"/>
   </g>
   <g id="matplotlib.axis_1"/>
   <g id="matplotlib.axis_2"/>
   <g id="patch_7">
    <path clip-path="url(#p9a2ce8a530)" d="M 75.008461 196.51262 
C 78.127859 196.51262 81.119915 195.27327 83.325662 193.067522 
C 85.53141 190.861775 86.77076 187.869719 86.77076 184.750321 
C 86.77076 181.630923 85.53141 178.638868 83.325662 176.43312 
C 81.119915 174.227373 78.127859 172.988023 75.008461 172.988023 
C 71.889063 172.988023 68.897008 174.227373 66.69126 176.43312 
C 64.485513 178.638868 63.246163 181.630923 63.246163 184.750321 
C 63.246163 187.869719 64.485513 190.861775 66.69126 193.067522 
C 68.897008 195.27327 71.889063 196.51262 75.008461 196.51262 
z
" style="fill:#bebebe;stroke:#000000;stroke-linejoin:miter;"/>
   </g>
   <g id="patch_8">
    <path clip-path="url(#p9a2ce8a530)" d="M 125.180161 300.197409 
C 128.299559 300.197409 131.291615 298.958059 133.497362 296.752311 
C 135.70311 294.546564 136.94246 291.554508 136.94246 288.43511 
C 136.94246 285.315712 135.70311 282.323657 133.497362 280.117909 
C 131.291615 277.912162 128.299559 276.672812 125.180161 276.672812 
C 122.060763 276.672812 119.068708 277.912162 116.86296 280.117909 
C 114.657213 282.323657 113.417863 285.315712 113.417863 288.43511 
C 113.417863 291.554508 114.657213 294.546564 116.86296 296.752311 
C 119.068708 298.958059 122.060763 300.197409 125.180161 300.197409 
z
" style="fill:#bebebe;stroke:#000000;stroke-linejoin:miter;"/>
   </g>
   <g id="patch_9">
    <path clip-path="url(#p9a2ce8a530)" d="M 69.444117 81.527188 
C 72.563515 81.527188 75.55557 80.287838 77.761318 78.082091 
C 79.967065 75.876343 81.206415 72.884288 81.206415 69.76489 
C 81.206415 66.645492 79.967065 63.653436 77.761318 61.447689 
C 75.55557 59.241941 72.563515 58.002591 69.444117 58.002591 
C 66.324719 58.002591 63.332663 59.241941 61.126916 61.447689 
C 58.921168 63.653436 57.681818 66.645492 57.681818 69.76489 
C 57.681818 72.884288 58.921168 75.876343 61.126916 78.082091 
C 63.332663 80.287838 66.324719 81.527188 69.444117 81.527188 
z
" style="fill:#bebebe;stroke:#000000;stroke-linejoin:miter;"/>
   </g>
   <g id="patch_10">
    <path clip-path="url(#p9a2ce8a530)" d="M 299.555883 139.309627 
C 302.675281 139.309627 305.667337 138.070277 307.873084 135.86453 
C 310.078832 133.658782 311.318182 130.666727 311.318182 127.547329 
C 311.318182 124.427931 310.078832 121.435875 307.873084 119.230128 
C 305.667337 117.02438 302.675281 115.78503 299.555883 115.78503 
C 296.436485 115.78503 293.44443 117.02438 291.238682 119.230128 
C 289.032935 121.435875 287.793585 124.427931 287.793585 127.547329 
C 287.793585 130.666727 289.032935 133.658782 291.238682 135.86453 
C 293.44443 138.070277 296.436485 139.309627 299.555883 139.309627 
z
" style="fill:#bebebe;stroke:#000000;stroke-linejoin:miter;"/>
   </g>
   <g id="text_1">
    <!-- 0 -->
    <g transform="translate(71.190961 188.061571)scale(0.12 -0.12)">
     <defs>
      <path d="M 31.78125 66.40625 
Q 24.171875 66.40625 20.328125 58.90625 
Q 16.5 51.421875 16.5 36.375 
Q 16.5 21.390625 20.328125 13.890625 
Q 24.171875 6.390625 31.78125 6.390625 
Q 39.453125 6.390625 43.28125 13.890625 
Q 47.125 21.390625 47.125 36.375 
Q 47.125 51.421875 43.28125 58.90625 
Q 39.453125 66.40625 31.78125 66.40625 
z
M 31.78125 74.21875 
Q 44.046875 74.21875 50.515625 64.515625 
Q 56.984375 54.828125 56.984375 36.375 
Q 56.984375 17.96875 50.515625 8.265625 
Q 44.046875 -1.421875 31.78125 -1.421875 
Q 19.53125 -1.421875 13.0625 8.265625 
Q 6.59375 17.96875 6.59375 36.375 
Q 6.59375 54.828125 13.0625 64.515625 
Q 19.53125 74.21875 31.78125 74.21875 
z
" id="DejaVuSans-48"/>
     </defs>
     <use xlink:href="#DejaVuSans-48"/>
    </g>
   </g>
   <g id="text_2">
    <!-- 1 -->
    <g transform="translate(121.362661 291.74636)scale(0.12 -0.12)">
     <defs>
      <path d="M 12.40625 8.296875 
L 28.515625 8.296875 
L 28.515625 63.921875 
L 10.984375 60.40625 
L 10.984375 69.390625 
L 28.421875 72.90625 
L 38.28125 72.90625 
L 38.28125 8.296875 
L 54.390625 8.296875 
L 54.390625 0 
L 12.40625 0 
z
" id="DejaVuSans-49"/>
     </defs>
     <use xlink:href="#DejaVuSans-49"/>
    </g>
   </g>
   <g id="text_3">
    <!-- 2 -->
    <g transform="translate(65.626617 73.07614)scale(0.12 -0.12)">
     <defs>
      <path d="M 19.1875 8.296875 
L 53.609375 8.296875 
L 53.609375 0 
L 7.328125 0 
L 7.328125 8.296875 
Q 12.9375 14.109375 22.625 23.890625 
Q 32.328125 33.6875 34.8125 36.53125 
Q 39.546875 41.84375 41.421875 45.53125 
Q 43.3125 49.21875 43.3125 52.78125 
Q 43.3125 58.59375 39.234375 62.25 
Q 35.15625 65.921875 28.609375 65.921875 
Q 23.96875 65.921875 18.8125 64.3125 
Q 13.671875 62.703125 7.8125 59.421875 
L 7.8125 69.390625 
Q 13.765625 71.78125 18.9375 73 
Q 24.125 74.21875 28.421875 74.21875 
Q 39.75 74.21875 46.484375 68.546875 
Q 53.21875 62.890625 53.21875 53.421875 
Q 53.21875 48.921875 51.53125 44.890625 
Q 49.859375 40.875 45.40625 35.40625 
Q 44.1875 33.984375 37.640625 27.21875 
Q 31.109375 20.453125 19.1875 8.296875 
z
" id="DejaVuSans-50"/>
     </defs>
     <use xlink:href="#DejaVuSans-50"/>
    </g>
   </g>
   <g id="text_4">
    <!-- 3 -->
    <g transform="translate(295.738383 130.858579)scale(0.12 -0.12)">
     <defs>
      <path d="M 40.578125 39.3125 
Q 47.65625 37.796875 51.625 33 
Q 55.609375 28.21875 55.609375 21.1875 
Q 55.609375 10.40625 48.1875 4.484375 
Q 40.765625 -1.421875 27.09375 -1.421875 
Q 22.515625 -1.421875 17.65625 -0.515625 
Q 12.796875 0.390625 7.625 2.203125 
L 7.625 11.71875 
Q 11.71875 9.328125 16.59375 8.109375 
Q 21.484375 6.890625 26.8125 6.890625 
Q 36.078125 6.890625 40.9375 10.546875 
Q 45.796875 14.203125 45.796875 21.1875 
Q 45.796875 27.640625 41.28125 31.265625 
Q 36.765625 34.90625 28.71875 34.90625 
L 20.21875 34.90625 
L 20.21875 43.015625 
L 29.109375 43.015625 
Q 36.375 43.015625 40.234375 45.921875 
Q 44.09375 48.828125 44.09375 54.296875 
Q 44.09375 59.90625 40.109375 62.90625 
Q 36.140625 65.921875 28.71875 65.921875 
Q 24.65625 65.921875 20.015625 65.03125 
Q 15.375 64.15625 9.8125 62.3125 
L 9.8125 71.09375 
Q 15.4375 72.65625 20.34375 73.4375 
Q 25.25 74.21875 29.59375 74.21875 
Q 40.828125 74.21875 47.359375 69.109375 
Q 53.90625 64.015625 53.90625 55.328125 
Q 53.90625 49.265625 50.4375 45.09375 
Q 46.96875 40.921875 40.578125 39.3125 
z
" id="DejaVuSans-51"/>
     </defs>
     <use xlink:href="#DejaVuSans-51"/>
    </g>
   </g>
  </g>
 </g>
 <defs>
  <clipPath id="p9a2ce8a530">
   <rect height="266.414299" width="279" x="45" y="45.89285"/>
  </clipPath>
 </defs>
</svg>
