<?xml version="1.0" encoding="utf-8" standalone="no"?>
<!DOCTYPE svg PUBLIC "-//W3C//DTD SVG 1.1//EN"
  "http://www.w3.org/Graphics/SVG/1.1/DTD/svg11.dtd">
<!-- Created with matplotlib (https://matplotlib.org/) -->
<svg height="360pt" version="1.1" viewBox="0 0 360 360" width="360pt" xmlns="http://www.w3.org/2000/svg" xmlns:xlink="http://www.w3.org/1999/xlink">
 <metadata>
  <rdf:RDF xmlns:cc="http://creativecommons.org/ns#" xmlns:dc="http://purl.org/dc/elements/1.1/" xmlns:rdf="http://www.w3.org/1999/02/22-rdf-syntax-ns#">
   <cc:Work>
    <dc:type rdf:resource="http://purl.org/dc/dcmitype/StillImage"/>
    <dc:date>2022-11-13T03:08:31.812048</dc:date>
    <dc:format>image/svg+xml</dc:format>
    <dc:creator>
     <cc:Agent>
      <dc:title>Matplotlib v3.3.2, https://matplotlib.org/</dc:title>
     </cc:Agent>
    </dc:creator>
   </cc:Work>
  </rdf:RDF>
 </metadata>
 <defs>
  <style type="text/css">*{stroke-linecap:butt;stroke-linejoin:round;}</style>
 </defs>
 <g id="figure_1">
  <g id="patch_1">
   <path d="M 0 360 
L 360 360 
L 360 0 
L 0 0 
z
" style="fill:none;"/>
  </g>
  <g id="axes_1">
   <g id="patch_2">
    <path d="M 45 312.393076 
L 324 312.393076 
L 324 45.806924 
L 45 45.806924 
z
" style="fill:#ffffff;"/>
   </g>
   <g id="patch_3">
    <path clip-path="url(#peb524e399b)" d="M 299.789256 179.1 
L 286.168953 137.181017 
" style="fill:none;stroke:#444444;stroke-linejoin:miter;stroke-width:2;"/>
   </g>
   <g id="patch_4">
    <path clip-path="url(#peb524e399b)" d="M 281.333601 122.299335 
L 279.166165 139.45636 
L 293.17174 134.905673 
z
" style="fill:#444444;"/>
   </g>
   <g id="patch_5">
    <path clip-path="url(#peb524e399b)" d="M 299.789256 179.1 
L 236.100257 91.439613 
" style="fill:none;stroke:#444444;stroke-linejoin:miter;stroke-width:2;"/>
   </g>
   <g id="patch_6">
    <path clip-path="url(#peb524e399b)" d="M 226.902872 78.780498 
L 230.14333 95.767573 
L 242.057184 87.111652 
z
" style="fill:#444444;"/>
   </g>
   <g id="patch_7">
    <path clip-path="url(#peb524e399b)" d="M 277.770968 111.334675 
L 174.720002 77.851387 
" style="fill:none;stroke:#444444;stroke-linejoin:miter;stroke-width:2;"/>
   </g>
   <g id="patch_8">
    <path clip-path="url(#peb524e399b)" d="M 159.83832 73.016036 
L 172.444658 84.854175 
L 176.995345 70.848599 
z
" style="fill:#444444;"/>
   </g>
   <g id="patch_9">
    <path clip-path="url(#peb524e399b)" d="M 277.770968 111.334675 
L 118.405484 111.334675 
" style="fill:none;stroke:#444444;stroke-linejoin:miter;stroke-width:2;"/>
   </g>
   <g id="patch_10">
    <path clip-path="url(#peb524e399b)" d="M 102.757958 111.334675 
L 118.405484 118.697842 
L 118.405484 103.971509 
z
" style="fill:#444444;"/>
   </g>
   <g id="patch_11">
    <path clip-path="url(#peb524e399b)" d="M 277.770968 111.334675 
L 95.057085 170.702015 
" style="fill:none;stroke:#444444;stroke-linejoin:miter;stroke-width:2;"/>
   </g>
   <g id="patch_12">
    <path clip-path="url(#peb524e399b)" d="M 80.175404 175.537366 
L 97.332429 177.704802 
L 92.781741 163.699227 
z
" style="fill:#444444;"/>
   </g>
   <g id="patch_13">
    <path clip-path="url(#peb524e399b)" d="M 220.126339 69.453402 
L 107.20295 224.879114 
" style="fill:none;stroke:#444444;stroke-linejoin:miter;stroke-width:2;"/>
   </g>
   <g id="patch_14">
    <path clip-path="url(#peb524e399b)" d="M 98.005565 237.538228 
L 113.159877 229.207074 
L 101.246023 220.551153 
z
" style="fill:#444444;"/>
   </g>
   <g id="patch_15">
    <path clip-path="url(#peb524e399b)" d="M 220.126339 69.453402 
L 157.271646 262.900257 
" style="fill:none;stroke:#444444;stroke-linejoin:miter;stroke-width:2;"/>
   </g>
   <g id="patch_16">
    <path clip-path="url(#peb524e399b)" d="M 152.436295 277.781939 
L 164.274434 265.175601 
L 150.268858 260.624914 
z
" style="fill:#444444;"/>
   </g>
   <g id="patch_17">
    <path clip-path="url(#peb524e399b)" d="M 220.126339 69.453402 
L 220.126339 261.570147 
" style="fill:none;stroke:#444444;stroke-linejoin:miter;stroke-width:2;"/>
   </g>
   <g id="patch_18">
    <path clip-path="url(#peb524e399b)" d="M 220.126339 277.217673 
L 227.489506 261.570147 
L 212.763173 261.570147 
z
" style="fill:#444444;"/>
   </g>
   <g id="patch_19">
    <path clip-path="url(#peb524e399b)" d="M 148.873661 288.746598 
L 251.924626 255.26331 
" style="fill:none;stroke:#444444;stroke-linejoin:miter;stroke-width:2;"/>
   </g>
   <g id="patch_20">
    <path clip-path="url(#peb524e399b)" d="M 266.806308 250.427958 
L 249.649283 248.260522 
L 254.19997 262.266097 
z
" style="fill:#444444;"/>
   </g>
   <g id="matplotlib.axis_1"/>
   <g id="matplotlib.axis_2"/>
   <g id="patch_21">
    <path clip-path="url(#peb524e399b)" d="M 299.789256 190.628926 
C 302.846763 190.628926 305.779454 189.414165 307.941438 187.252181 
C 310.103421 185.090198 311.318182 182.157507 311.318182 179.1 
C 311.318182 176.042493 310.103421 173.109802 307.941438 170.947819 
C 305.779454 168.785835 302.846763 167.571074 299.789256 167.571074 
C 296.731749 167.571074 293.799059 168.785835 291.637075 170.947819 
C 289.475091 173.109802 288.260331 176.042493 288.260331 179.1 
C 288.260331 182.157507 289.475091 185.090198 291.637075 187.252181 
C 293.799059 189.414165 296.731749 190.628926 299.789256 190.628926 
z
" style="fill:#bebebe;stroke:#000000;stroke-linejoin:miter;"/>
   </g>
   <g id="patch_22">
    <path clip-path="url(#peb524e399b)" d="M 277.770968 122.863601 
C 280.828474 122.863601 283.761165 121.648841 285.923149 119.486857 
C 288.085133 117.324873 289.299893 114.392182 289.299893 111.334675 
C 289.299893 108.277169 288.085133 105.344478 285.923149 103.182494 
C 283.761165 101.02051 280.828474 99.80575 277.770968 99.80575 
C 274.713461 99.80575 271.78077 101.02051 269.618786 103.182494 
C 267.456802 105.344478 266.242042 108.277169 266.242042 111.334675 
C 266.242042 114.392182 267.456802 117.324873 269.618786 119.486857 
C 271.78077 121.648841 274.713461 122.863601 277.770968 122.863601 
z
" style="fill:#bebebe;stroke:#000000;stroke-linejoin:miter;"/>
   </g>
   <g id="patch_23">
    <path clip-path="url(#peb524e399b)" d="M 220.126339 80.982327 
C 223.183846 80.982327 226.116537 79.767567 228.278521 77.605583 
C 230.440505 75.443599 231.655265 72.510908 231.655265 69.453402 
C 231.655265 66.395895 230.440505 63.463204 228.278521 61.30122 
C 226.116537 59.139236 223.183846 57.924476 220.126339 57.924476 
C 217.068833 57.924476 214.136142 59.139236 211.974158 61.30122 
C 209.812174 63.463204 208.597414 66.395895 208.597414 69.453402 
C 208.597414 72.510908 209.812174 75.443599 211.974158 77.605583 
C 214.136142 79.767567 217.068833 80.982327 220.126339 80.982327 
z
" style="fill:#bebebe;stroke:#000000;stroke-linejoin:miter;"/>
   </g>
   <g id="patch_24">
    <path clip-path="url(#peb524e399b)" d="M 148.873661 80.982327 
C 151.931167 80.982327 154.863858 79.767567 157.025842 77.605583 
C 159.187826 75.443599 160.402586 72.510908 160.402586 69.453402 
C 160.402586 66.395895 159.187826 63.463204 157.025842 61.30122 
C 154.863858 59.139236 151.931167 57.924476 148.873661 57.924476 
C 145.816154 57.924476 142.883463 59.139236 140.721479 61.30122 
C 138.559495 63.463204 137.344735 66.395895 137.344735 69.453402 
C 137.344735 72.510908 138.559495 75.443599 140.721479 77.605583 
C 142.883463 79.767567 145.816154 80.982327 148.873661 80.982327 
z
" style="fill:#bebebe;stroke:#000000;stroke-linejoin:miter;"/>
   </g>
   <g id="patch_25">
    <path clip-path="url(#peb524e399b)" d="M 91.229032 122.863601 
C 94.286539 122.863601 97.21923 121.648841 99.381214 119.486857 
C 101.543198 117.324873 102.757958 114.392182 102.757958 111.334675 
C 102.757958 108.277169 101.543198 105.344478 99.381214 103.182494 
C 97.21923 101.02051 94.286539 99.80575 91.229032 99.80575 
C 88.171526 99.80575 85.238835 101.02051 83.076851 103.182494 
C 80.914867 105.344478 79.700107 108.277169 79.700107 111.334675 
C 79.700107 114.392182 80.914867 117.324873 83.076851 119.486857 
C 85.238835 121.648841 88.171526 122.863601 91.229032 122.863601 
z
" style="fill:#bebebe;stroke:#000000;stroke-linejoin:miter;"/>
   </g>
   <g id="patch_26">
    <path clip-path="url(#peb524e399b)" d="M 69.210744 190.628926 
C 72.268251 190.628926 75.200941 189.414165 77.362925 187.252181 
C 79.524909 185.090198 80.739669 182.157507 80.739669 179.1 
C 80.739669 176.042493 79.524909 173.109802 77.362925 170.947819 
C 75.200941 168.785835 72.268251 167.571074 69.210744 167.571074 
C 66.153237 167.571074 63.220546 168.785835 61.058562 170.947819 
C 58.896579 173.109802 57.681818 176.042493 57.681818 179.1 
C 57.681818 182.157507 58.896579 185.090198 61.058562 187.252181 
C 63.220546 189.414165 66.153237 190.628926 69.210744 190.628926 
z
" style="fill:#bebebe;stroke:#000000;stroke-linejoin:miter;"/>
   </g>
   <g id="patch_27">
    <path clip-path="url(#peb524e399b)" d="M 91.229032 258.39425 
C 94.286539 258.39425 97.21923 257.17949 99.381214 255.017506 
C 101.543198 252.855522 102.757958 249.922831 102.757958 246.865325 
C 102.757958 243.807818 101.543198 240.875127 99.381214 238.713143 
C 97.21923 236.551159 94.286539 235.336399 91.229032 235.336399 
C 88.171526 235.336399 85.238835 236.551159 83.076851 238.713143 
C 80.914867 240.875127 79.700107 243.807818 79.700107 246.865325 
C 79.700107 249.922831 80.914867 252.855522 83.076851 255.017506 
C 85.238835 257.17949 88.171526 258.39425 91.229032 258.39425 
z
" style="fill:#bebebe;stroke:#000000;stroke-linejoin:miter;"/>
   </g>
   <g id="patch_28">
    <path clip-path="url(#peb524e399b)" d="M 148.873661 300.275524 
C 151.931167 300.275524 154.863858 299.060764 157.025842 296.89878 
C 159.187826 294.736796 160.402586 291.804105 160.402586 288.746598 
C 160.402586 285.689092 159.187826 282.756401 157.025842 280.594417 
C 154.863858 278.432433 151.931167 277.217673 148.873661 277.217673 
C 145.816154 277.217673 142.883463 278.432433 140.721479 280.594417 
C 138.559495 282.756401 137.344735 285.689092 137.344735 288.746598 
C 137.344735 291.804105 138.559495 294.736796 140.721479 296.89878 
C 142.883463 299.060764 145.816154 300.275524 148.873661 300.275524 
z
" style="fill:#bebebe;stroke:#000000;stroke-linejoin:miter;"/>
   </g>
   <g id="patch_29">
    <path clip-path="url(#peb524e399b)" d="M 220.126339 300.275524 
C 223.183846 300.275524 226.116537 299.060764 228.278521 296.89878 
C 230.440505 294.736796 231.655265 291.804105 231.655265 288.746598 
C 231.655265 285.689092 230.440505 282.756401 228.278521 280.594417 
C 226.116537 278.432433 223.183846 277.217673 220.126339 277.217673 
C 217.068833 277.217673 214.136142 278.432433 211.974158 280.594417 
C 209.812174 282.756401 208.597414 285.689092 208.597414 288.746598 
C 208.597414 291.804105 209.812174 294.736796 211.974158 296.89878 
C 214.136142 299.060764 217.068833 300.275524 220.126339 300.275524 
z
" style="fill:#bebebe;stroke:#000000;stroke-linejoin:miter;"/>
   </g>
   <g id="patch_30">
    <path clip-path="url(#peb524e399b)" d="M 277.770968 258.39425 
C 280.828474 258.39425 283.761165 257.17949 285.923149 255.017506 
C 288.085133 252.855522 289.299893 249.922831 289.299893 246.865325 
C 289.299893 243.807818 288.085133 240.875127 285.923149 238.713143 
C 283.761165 236.551159 280.828474 235.336399 277.770968 235.336399 
C 274.713461 235.336399 271.78077 236.551159 269.618786 238.713143 
C 267.456802 240.875127 266.242042 243.807818 266.242042 246.865325 
C 266.242042 249.922831 267.456802 252.855522 269.618786 255.017506 
C 271.78077 257.17949 274.713461 258.39425 277.770968 258.39425 
z
" style="fill:#bebebe;stroke:#000000;stroke-linejoin:miter;"/>
   </g>
   <g id="text_1">
    <!-- 0 -->
    <g transform="translate(295.971756 182.41125)scale(0.12 -0.12)">
     <defs>
      <path d="M 31.78125 66.40625 
Q 24.171875 66.40625 20.328125 58.90625 
Q 16.5 51.421875 16.5 36.375 
Q 16.5 21.390625 20.328125 13.890625 
Q 24.171875 6.390625 31.78125 6.390625 
Q 39.453125 6.390625 43.28125 13.890625 
Q 47.125 21.390625 47.125 36.375 
Q 47.125 51.421875 43.28125 58.90625 
Q 39.453125 66.40625 31.78125 66.40625 
z
M 31.78125 74.21875 
Q 44.046875 74.21875 50.515625 64.515625 
Q 56.984375 54.828125 56.984375 36.375 
Q 56.984375 17.96875 50.515625 8.265625 
Q 44.046875 -1.421875 31.78125 -1.421875 
Q 19.53125 -1.421875 13.0625 8.265625 
Q 6.59375 17.96875 6.59375 36.375 
Q 6.59375 54.828125 13.0625 64.515625 
Q 19.53125 74.21875 31.78125 74.21875 
z
" id="DejaVuSans-48"/>
     </defs>
     <use xlink:href="#DejaVuSans-48"/>
    </g>
   </g>
   <g id="text_2">
    <!-- 1 -->
    <g transform="translate(273.953468 114.645925)scale(0.12 -0.12)">
     <defs>
      <path d="M 12.40625 8.296875 
L 28.515625 8.296875 
L 28.515625 63.921875 
L 10.984375 60.40625 
L 10.984375 69.390625 
L 28.421875 72.90625 
L 38.28125 72.90625 
L 38.28125 8.296875 
L 54.390625 8.296875 
L 54.390625 0 
L 12.40625 0 
z
" id="DejaVuSans-49"/>
     </defs>
     <use xlink:href="#DejaVuSans-49"/>
    </g>
   </g>
   <g id="text_3">
    <!-- 2 -->
    <g transform="translate(216.308839 72.764652)scale(0.12 -0.12)">
     <defs>
      <path d="M 19.1875 8.296875 
L 53.609375 8.296875 
L 53.609375 0 
L 7.328125 0 
L 7.328125 8.296875 
Q 12.9375 14.109375 22.625 23.890625 
Q 32.328125 33.6875 34.8125 36.53125 
Q 39.546875 41.84375 41.421875 45.53125 
Q 43.3125 49.21875 43.3125 52.78125 
Q 43.3125 58.59375 39.234375 62.25 
Q 35.15625 65.921875 28.609375 65.921875 
Q 23.96875 65.921875 18.8125 64.3125 
Q 13.671875 62.703125 7.8125 59.421875 
L 7.8125 69.390625 
Q 13.765625 71.78125 18.9375 73 
Q 24.125 74.21875 28.421875 74.21875 
Q 39.75 74.21875 46.484375 68.546875 
Q 53.21875 62.890625 53.21875 53.421875 
Q 53.21875 48.921875 51.53125 44.890625 
Q 49.859375 40.875 45.40625 35.40625 
Q 44.1875 33.984375 37.640625 27.21875 
Q 31.109375 20.453125 19.1875 8.296875 
z
" id="DejaVuSans-50"/>
     </defs>
     <use xlink:href="#DejaVuSans-50"/>
    </g>
   </g>
   <g id="text_4">
    <!-- 3 -->
    <g transform="translate(145.056161 72.764652)scale(0.12 -0.12)">
     <defs>
      <path d="M 40.578125 39.3125 
Q 47.65625 37.796875 51.625 33 
Q 55.609375 28.21875 55.609375 21.1875 
Q 55.609375 10.40625 48.1875 4.484375 
Q 40.765625 -1.421875 27.09375 -1.421875 
Q 22.515625 -1.421875 17.65625 -0.515625 
Q 12.796875 0.390625 7.625 2.203125 
L 7.625 11.71875 
Q 11.71875 9.328125 16.59375 8.109375 
Q 21.484375 6.890625 26.8125 6.890625 
Q 36.078125 6.890625 40.9375 10.546875 
Q 45.796875 14.203125 45.796875 21.1875 
Q 45.796875 27.640625 41.28125 31.265625 
Q 36.765625 34.90625 28.71875 34.90625 
L 20.21875 34.90625 
L 20.21875 43.015625 
L 29.109375 43.015625 
Q 36.375 43.015625 40.234375 45.921875 
Q 44.09375 48.828125 44.09375 54.296875 
Q 44.09375 59.90625 40.109375 62.90625 
Q 36.140625 65.921875 28.71875 65.921875 
Q 24.65625 65.921875 20.015625 65.03125 
Q 15.375 64.15625 9.8125 62.3125 
L 9.8125 71.09375 
Q 15.4375 72.65625 20.34375 73.4375 
Q 25.25 74.21875 29.59375 74.21875 
Q 40.828125 74.21875 47.359375 69.109375 
Q 53.90625 64.015625 53.90625 55.328125 
Q 53.90625 49.265625 50.4375 45.09375 
Q 46.96875 40.921875 40.578125 39.3125 
z
" id="DejaVuSans-51"/>
     </defs>
     <use xlink:href="#DejaVuSans-51"/>
    </g>
   </g>
   <g id="text_5">
    <!-- 4 -->
    <g transform="translate(87.411532 114.645925)scale(0.12 -0.12)">
     <defs>
      <path d="M 37.796875 64.3125 
L 12.890625 25.390625 
L 37.796875 25.390625 
z
M 35.203125 72.90625 
L 47.609375 72.90625 
L 47.609375 25.390625 
L 58.015625 25.390625 
L 58.015625 17.1875 
L 47.609375 17.1875 
L 47.609375 0 
L 37.796875 0 
L 37.796875 17.1875 
L 4.890625 17.1875 
L 4.890625 26.703125 
z
" id="DejaVuSans-52"/>
     </defs>
     <use xlink:href="#DejaVuSans-52"/>
    </g>
   </g>
   <g id="text_6">
    <!-- 5 -->
    <g transform="translate(65.393244 182.41125)scale(0.12 -0.12)">
     <defs>
      <path d="M 10.796875 72.90625 
L 49.515625 72.90625 
L 49.515625 64.59375 
L 19.828125 64.59375 
L 19.828125 46.734375 
Q 21.96875 47.46875 24.109375 47.828125 
Q 26.265625 48.1875 28.421875 48.1875 
Q 40.625 48.1875 47.75 41.5 
Q 54.890625 34.8125 54.890625 23.390625 
Q 54.890625 11.625 47.5625 5.09375 
Q 40.234375 -1.421875 26.90625 -1.421875 
Q 22.3125 -1.421875 17.546875 -0.640625 
Q 12.796875 0.140625 7.71875 1.703125 
L 7.71875 11.625 
Q 12.109375 9.234375 16.796875 8.0625 
Q 21.484375 6.890625 26.703125 6.890625 
Q 35.15625 6.890625 40.078125 11.328125 
Q 45.015625 15.765625 45.015625 23.390625 
Q 45.015625 31 40.078125 35.4375 
Q 35.15625 39.890625 26.703125 39.890625 
Q 22.75 39.890625 18.8125 39.015625 
Q 14.890625 38.140625 10.796875 36.28125 
z
" id="DejaVuSans-53"/>
     </defs>
     <use xlink:href="#DejaVuSans-53"/>
    </g>
   </g>
   <g id="text_7">
    <!-- 6 -->
    <g transform="translate(87.411532 250.176575)scale(0.12 -0.12)">
     <defs>
      <path d="M 33.015625 40.375 
Q 26.375 40.375 22.484375 35.828125 
Q 18.609375 31.296875 18.609375 23.390625 
Q 18.609375 15.53125 22.484375 10.953125 
Q 26.375 6.390625 33.015625 6.390625 
Q 39.65625 6.390625 43.53125 10.953125 
Q 47.40625 15.53125 47.40625 23.390625 
Q 47.40625 31.296875 43.53125 35.828125 
Q 39.65625 40.375 33.015625 40.375 
z
M 52.59375 71.296875 
L 52.59375 62.3125 
Q 48.875 64.0625 45.09375 64.984375 
Q 41.3125 65.921875 37.59375 65.921875 
Q 27.828125 65.921875 22.671875 59.328125 
Q 17.53125 52.734375 16.796875 39.40625 
Q 19.671875 43.65625 24.015625 45.921875 
Q 28.375 48.1875 33.59375 48.1875 
Q 44.578125 48.1875 50.953125 41.515625 
Q 57.328125 34.859375 57.328125 23.390625 
Q 57.328125 12.15625 50.6875 5.359375 
Q 44.046875 -1.421875 33.015625 -1.421875 
Q 20.359375 -1.421875 13.671875 8.265625 
Q 6.984375 17.96875 6.984375 36.375 
Q 6.984375 53.65625 15.1875 63.9375 
Q 23.390625 74.21875 37.203125 74.21875 
Q 40.921875 74.21875 44.703125 73.484375 
Q 48.484375 72.75 52.59375 71.296875 
z
" id="DejaVuSans-54"/>
     </defs>
     <use xlink:href="#DejaVuSans-54"/>
    </g>
   </g>
   <g id="text_8">
    <!-- 7 -->
    <g transform="translate(145.056161 292.057848)scale(0.12 -0.12)">
     <defs>
      <path d="M 8.203125 72.90625 
L 55.078125 72.90625 
L 55.078125 68.703125 
L 28.609375 0 
L 18.3125 0 
L 43.21875 64.59375 
L 8.203125 64.59375 
z
" id="DejaVuSans-55"/>
     </defs>
     <use xlink:href="#DejaVuSans-55"/>
    </g>
   </g>
   <g id="text_9">
    <!-- 8 -->
    <g transform="translate(216.308839 292.057848)scale(0.12 -0.12)">
     <defs>
      <path d="M 31.78125 34.625 
Q 24.75 34.625 20.71875 30.859375 
Q 16.703125 27.09375 16.703125 20.515625 
Q 16.703125 13.921875 20.71875 10.15625 
Q 24.75 6.390625 31.78125 6.390625 
Q 38.8125 6.390625 42.859375 10.171875 
Q 46.921875 13.96875 46.921875 20.515625 
Q 46.921875 27.09375 42.890625 30.859375 
Q 38.875 34.625 31.78125 34.625 
z
M 21.921875 38.8125 
Q 15.578125 40.375 12.03125 44.71875 
Q 8.5 49.078125 8.5 55.328125 
Q 8.5 64.0625 14.71875 69.140625 
Q 20.953125 74.21875 31.78125 74.21875 
Q 42.671875 74.21875 48.875 69.140625 
Q 55.078125 64.0625 55.078125 55.328125 
Q 55.078125 49.078125 51.53125 44.71875 
Q 48 40.375 41.703125 38.8125 
Q 48.828125 37.15625 52.796875 32.3125 
Q 56.78125 27.484375 56.78125 20.515625 
Q 56.78125 9.90625 50.3125 4.234375 
Q 43.84375 -1.421875 31.78125 -1.421875 
Q 19.734375 -1.421875 13.25 4.234375 
Q 6.78125 9.90625 6.78125 20.515625 
Q 6.78125 27.484375 10.78125 32.3125 
Q 14.796875 37.15625 21.921875 38.8125 
z
M 18.3125 54.390625 
Q 18.3125 48.734375 21.84375 45.5625 
Q 25.390625 42.390625 31.78125 42.390625 
Q 38.140625 42.390625 41.71875 45.5625 
Q 45.3125 48.734375 45.3125 54.390625 
Q 45.3125 60.0625 41.71875 63.234375 
Q 38.140625 66.40625 31.78125 66.40625 
Q 25.390625 66.40625 21.84375 63.234375 
Q 18.3125 60.0625 18.3125 54.390625 
z
" id="DejaVuSans-56"/>
     </defs>
     <use xlink:href="#DejaVuSans-56"/>
    </g>
   </g>
   <g id="text_10">
    <!-- 9 -->
    <g transform="translate(273.953468 250.176575)scale(0.12 -0.12)">
     <defs>
      <path d="M 10.984375 1.515625 
L 10.984375 10.5 
Q 14.703125 8.734375 18.5 7.8125 
Q 22.3125 6.890625 25.984375 6.890625 
Q 35.75 6.890625 40.890625 13.453125 
Q 46.046875 20.015625 46.78125 33.40625 
Q 43.953125 29.203125 39.59375 26.953125 
Q 35.25 24.703125 29.984375 24.703125 
Q 19.046875 24.703125 12.671875 31.3125 
Q 6.296875 37.9375 6.296875 49.421875 
Q 6.296875 60.640625 12.9375 67.421875 
Q 19.578125 74.21875 30.609375 74.21875 
Q 43.265625 74.21875 49.921875 64.515625 
Q 56.59375 54.828125 56.59375 36.375 
Q 56.59375 19.140625 48.40625 8.859375 
Q 40.234375 -1.421875 26.421875 -1.421875 
Q 22.703125 -1.421875 18.890625 -0.6875 
Q 15.09375 0.046875 10.984375 1.515625 
z
M 30.609375 32.421875 
Q 37.25 32.421875 41.125 36.953125 
Q 45.015625 41.5 45.015625 49.421875 
Q 45.015625 57.28125 41.125 61.84375 
Q 37.25 66.40625 30.609375 66.40625 
Q 23.96875 66.40625 20.09375 61.84375 
Q 16.21875 57.28125 16.21875 49.421875 
Q 16.21875 41.5 20.09375 36.953125 
Q 23.96875 32.421875 30.609375 32.421875 
z
" id="DejaVuSans-57"/>
     </defs>
     <use xlink:href="#DejaVuSans-57"/>
    </g>
   </g>
  </g>
 </g>
 <defs>
  <clipPath id="peb524e399b">
   <rect height="266.586153" width="279" x="45" y="45.806924"/>
  </clipPath>
 </defs>
</svg>
