<?xml version="1.0" encoding="utf-8" standalone="no"?>
<!DOCTYPE svg PUBLIC "-//W3C//DTD SVG 1.1//EN"
  "http://www.w3.org/Graphics/SVG/1.1/DTD/svg11.dtd">
<svg xmlns:xlink="http://www.w3.org/1999/xlink" width="720pt" height="720pt" viewBox="0 0 720 720" xmlns="http://www.w3.org/2000/svg" version="1.1">
 <metadata>
  <rdf:RDF xmlns:dc="http://purl.org/dc/elements/1.1/" xmlns:cc="http://creativecommons.org/ns#" xmlns:rdf="http://www.w3.org/1999/02/22-rdf-syntax-ns#">
   <cc:Work>
    <dc:type rdf:resource="http://purl.org/dc/dcmitype/StillImage"/>
    <dc:date>2023-10-08T19:38:14.522865</dc:date>
    <dc:format>image/svg+xml</dc:format>
    <dc:creator>
     <cc:Agent>
      <dc:title>Matplotlib v3.5.1, https://matplotlib.org/</dc:title>
     </cc:Agent>
    </dc:creator>
   </cc:Work>
  </rdf:RDF>
 </metadata>
 <defs>
  <style type="text/css">*{stroke-linejoin: round; stroke-linecap: butt}</style>
 </defs>
 <g id="figure_1">
  <g id="patch_1">
   <path d="M 0 720 
L 720 720 
L 720 0 
L 0 0 
L 0 720 
z
" style="fill: none"/>
  </g>
  <g id="axes_1">
   <g id="patch_2">
    <path d="M 160.70291 630 
L 577.29709 630 
L 577.29709 86.4 
L 160.70291 86.4 
z
" style="fill: #ffffff"/>
   </g>
   <g id="patch_3">
    <path d="M 385.539808 305.41321 
L 297.61705 239.880372 
" clip-path="url(#p1cf17bcbe3)" style="fill: none; stroke: #ffa500; stroke-width: 2; stroke-linejoin: miter"/>
   </g>
   <g id="patch_4">
    <path d="M 288.955572 233.424578 
L 294.579184 243.956154 
L 300.654916 235.80459 
z
" clip-path="url(#p1cf17bcbe3)" style="fill: #ffa500"/>
   </g>
   <g id="patch_5">
    <path d="M 385.539808 305.41321 
L 465.943491 400.407724 
" clip-path="url(#p1cf17bcbe3)" style="fill: none; stroke: #ffa500; stroke-width: 2; stroke-linejoin: miter"/>
   </g>
   <g id="patch_6">
    <path d="M 472.922615 408.653348 
L 469.823587 397.123598 
L 462.063395 403.691851 
z
" clip-path="url(#p1cf17bcbe3)" style="fill: #ffa500"/>
   </g>
   <g id="patch_7">
    <path d="M 385.539808 305.41321 
L 504.178164 169.123971 
" clip-path="url(#p1cf17bcbe3)" style="fill: none; stroke: #ffa500; stroke-width: 2; stroke-linejoin: miter"/>
   </g>
   <g id="patch_8">
    <path d="M 511.270958 160.975919 
L 500.343982 165.786355 
L 508.012346 172.461586 
z
" clip-path="url(#p1cf17bcbe3)" style="fill: #ffa500"/>
   </g>
   <g id="patch_9">
    <path d="M 385.539808 305.41321 
L 261.398011 391.32012 
" clip-path="url(#p1cf17bcbe3)" style="fill: none; stroke: #ffa500; stroke-width: 2; stroke-linejoin: miter"/>
   </g>
   <g id="patch_10">
    <path d="M 252.514857 397.467319 
L 264.290663 395.500215 
L 258.505359 387.140025 
z
" clip-path="url(#p1cf17bcbe3)" style="fill: #ffa500"/>
   </g>
   <g id="patch_11">
    <path d="M 385.539808 305.41321 
L 471.659261 317.063975 
" clip-path="url(#p1cf17bcbe3)" style="fill: none; stroke: #ffa500; stroke-width: 2; stroke-linejoin: miter"/>
   </g>
   <g id="patch_12">
    <path d="M 482.364448 318.512238 
L 472.340762 312.026497 
L 470.977761 322.101453 
z
" clip-path="url(#p1cf17bcbe3)" style="fill: #ffa500"/>
   </g>
   <g id="patch_13">
    <path d="M 385.539808 305.41321 
L 395.745076 449.838923 
" clip-path="url(#p1cf17bcbe3)" style="fill: none; stroke: #ffa500; stroke-width: 2; stroke-linejoin: miter"/>
   </g>
   <g id="patch_14">
    <path d="M 396.506508 460.614762 
L 400.815801 449.48062 
L 390.674352 450.197225 
z
" clip-path="url(#p1cf17bcbe3)" style="fill: #ffa500"/>
   </g>
   <g id="patch_15">
    <path d="M 385.539808 305.41321 
L 379.951231 233.335803 
" clip-path="url(#p1cf17bcbe3)" style="fill: none; stroke: #ffa500; stroke-width: 2; stroke-linejoin: miter"/>
   </g>
   <g id="patch_16">
    <path d="M 379.116141 222.565422 
L 374.883074 233.728766 
L 385.019387 232.942839 
z
" clip-path="url(#p1cf17bcbe3)" style="fill: #ffa500"/>
   </g>
   <g id="patch_17">
    <path d="M 385.539808 305.41321 
L 247.289842 303.406154 
" clip-path="url(#p1cf17bcbe3)" style="fill: none; stroke: #ffa500; stroke-width: 2; stroke-linejoin: miter"/>
   </g>
   <g id="patch_18">
    <path d="M 236.488273 303.249341 
L 247.216051 308.488986 
L 247.363632 298.323322 
z
" clip-path="url(#p1cf17bcbe3)" style="fill: #ffa500"/>
   </g>
   <g id="patch_19">
    <path d="M 335.780039 379.898724 
L 241.653236 323.103461 
" clip-path="url(#p1cf17bcbe3)" style="fill: none; stroke: #0000ff; stroke-width: 2; stroke-linejoin: miter"/>
   </g>
   <g id="patch_20">
    <path d="M 232.403857 317.522469 
L 239.02702 327.455888 
L 244.279451 318.751033 
z
" clip-path="url(#p1cf17bcbe3)" style="fill: #0000ff"/>
   </g>
   <g id="patch_21">
    <path d="M 335.780039 379.898724 
L 255.380982 541.732587 
" clip-path="url(#p1cf17bcbe3)" style="fill: none; stroke: #0000ff; stroke-width: 2; stroke-linejoin: miter"/>
   </g>
   <g id="patch_22">
    <path d="M 250.574648 551.407174 
L 259.933497 543.994277 
L 250.828467 539.470898 
z
" clip-path="url(#p1cf17bcbe3)" style="fill: #0000ff"/>
   </g>
   <g id="patch_23">
    <path d="M 335.780039 379.898724 
L 473.275223 334.598684 
" clip-path="url(#p1cf17bcbe3)" style="fill: none; stroke: #0000ff; stroke-width: 2; stroke-linejoin: miter"/>
   </g>
   <g id="patch_24">
    <path d="M 483.535411 331.218297 
L 471.684533 329.770606 
L 474.865912 339.426762 
z
" clip-path="url(#p1cf17bcbe3)" style="fill: #0000ff"/>
   </g>
   <g id="patch_25">
    <path d="M 335.780039 379.898724 
L 378.952409 454.964351 
" clip-path="url(#p1cf17bcbe3)" style="fill: none; stroke: #0000ff; stroke-width: 2; stroke-linejoin: miter"/>
   </g>
   <g id="patch_26">
    <path d="M 384.33815 464.328766 
L 383.358969 452.430014 
L 374.54585 457.498688 
z
" clip-path="url(#p1cf17bcbe3)" style="fill: #0000ff"/>
   </g>
   <g id="patch_27">
    <path d="M 335.780039 379.898724 
L 368.43281 232.524373 
" clip-path="url(#p1cf17bcbe3)" style="fill: none; stroke: #0000ff; stroke-width: 2; stroke-linejoin: miter"/>
   </g>
   <g id="patch_28">
    <path d="M 370.769625 221.977441 
L 363.469801 231.424752 
L 373.39582 233.623995 
z
" clip-path="url(#p1cf17bcbe3)" style="fill: #0000ff"/>
   </g>
   <g id="patch_29">
    <path d="M 335.780039 379.898724 
L 281.534937 252.528852 
" clip-path="url(#p1cf17bcbe3)" style="fill: none; stroke: #0000ff; stroke-width: 2; stroke-linejoin: miter"/>
   </g>
   <g id="patch_30">
    <path d="M 277.302098 242.589962 
L 276.85805 254.520675 
L 286.211824 250.53703 
z
" clip-path="url(#p1cf17bcbe3)" style="fill: #0000ff"/>
   </g>
   <g id="patch_31">
    <path d="M 335.780039 379.898724 
L 266.540861 401.808145 
" clip-path="url(#p1cf17bcbe3)" style="fill: none; stroke: #0000ff; stroke-width: 2; stroke-linejoin: miter"/>
   </g>
   <g id="patch_32">
    <path d="M 256.241486 405.067186 
L 268.07445 406.654663 
L 265.007273 396.961627 
z
" clip-path="url(#p1cf17bcbe3)" style="fill: #0000ff"/>
   </g>
   <g id="patch_33">
    <path d="M 335.780039 379.898724 
L 453.973258 418.244769 
" clip-path="url(#p1cf17bcbe3)" style="fill: none; stroke: #0000ff; stroke-width: 2; stroke-linejoin: miter"/>
   </g>
   <g id="patch_34">
    <path d="M 464.248705 421.578487 
L 455.541987 413.409511 
L 452.40453 423.080028 
z
" clip-path="url(#p1cf17bcbe3)" style="fill: #0000ff"/>
   </g>
   <g id="matplotlib.axis_1"/>
   <g id="matplotlib.axis_2"/>
   <g id="patch_35">
    <path d="M 385.539808 333.839339 
C 393.078505 333.839339 400.309452 330.844183 405.640116 325.513519 
C 410.970781 320.182854 413.965937 312.951907 413.965937 305.41321 
C 413.965937 297.874512 410.970781 290.643565 405.640116 285.312901 
C 400.309452 279.982237 393.078505 276.98708 385.539808 276.98708 
C 378.00111 276.98708 370.770163 279.982237 365.439499 285.312901 
C 360.108834 290.643565 357.113678 297.874512 357.113678 305.41321 
C 357.113678 312.951907 360.108834 320.182854 365.439499 325.513519 
C 370.770163 330.844183 378.00111 333.839339 385.539808 333.839339 
z
" clip-path="url(#p1cf17bcbe3)" style="fill: #ff0000; stroke: #000000; stroke-linejoin: miter"/>
   </g>
   <g id="patch_36">
    <path d="M 335.780039 408.324853 
C 343.318736 408.324853 350.549683 405.329697 355.880348 399.999033 
C 361.211012 394.668369 364.206168 387.437422 364.206168 379.898724 
C 364.206168 372.360026 361.211012 365.129079 355.880348 359.798415 
C 350.549683 354.467751 343.318736 351.472595 335.780039 351.472595 
C 328.241341 351.472595 321.010394 354.467751 315.67973 359.798415 
C 310.349066 365.129079 307.353909 372.360026 307.353909 379.898724 
C 307.353909 387.437422 310.349066 394.668369 315.67973 399.999033 
C 321.010394 405.329697 328.241341 408.324853 335.780039 408.324853 
z
" clip-path="url(#p1cf17bcbe3)" style="fill: #ff0000; stroke: #000000; stroke-linejoin: miter"/>
   </g>
   <g id="patch_37">
    <path d="M 376.918695 222.650485 
C 384.457393 222.650485 391.68834 219.655328 397.019004 214.324664 
C 402.349668 208.994 405.344824 201.763053 405.344824 194.224355 
C 405.344824 186.685658 402.349668 179.454711 397.019004 174.124046 
C 391.68834 168.793382 384.457393 165.798226 376.918695 165.798226 
C 369.379997 165.798226 362.14905 168.793382 356.818386 174.124046 
C 351.487722 179.454711 348.492566 186.685658 348.492566 194.224355 
C 348.492566 201.763053 351.487722 208.994 356.818386 214.324664 
C 362.14905 219.655328 369.379997 222.650485 376.918695 222.650485 
z
" clip-path="url(#p1cf17bcbe3)" style="fill: #ffff00; stroke: #000000; stroke-linejoin: miter"/>
   </g>
   <g id="patch_38">
    <path d="M 491.287408 458.776924 
C 498.826106 458.776924 506.057053 455.781768 511.387717 450.451103 
C 516.718381 445.120439 519.713537 437.889492 519.713537 430.350794 
C 519.713537 422.812097 516.718381 415.58115 511.387717 410.250486 
C 506.057053 404.919821 498.826106 401.924665 491.287408 401.924665 
C 483.74871 401.924665 476.517763 404.919821 471.187099 410.250486 
C 465.856435 415.58115 462.861279 422.812097 462.861279 430.350794 
C 462.861279 437.889492 465.856435 445.120439 471.187099 450.451103 
C 476.517763 455.781768 483.74871 458.776924 491.287408 458.776924 
z
" clip-path="url(#p1cf17bcbe3)" style="fill: #ffff00; stroke: #000000; stroke-linejoin: miter"/>
   </g>
   <g id="patch_39">
    <path d="M 266.16385 244.862998 
C 273.702548 244.862998 280.933495 241.867842 286.264159 236.537178 
C 291.594823 231.206513 294.58998 223.975566 294.58998 216.436869 
C 294.58998 208.898171 291.594823 201.667224 286.264159 196.33656 
C 280.933495 191.005896 273.702548 188.010739 266.16385 188.010739 
C 258.625153 188.010739 251.394206 191.005896 246.063541 196.33656 
C 240.732877 201.667224 237.737721 208.898171 237.737721 216.436869 
C 237.737721 223.975566 240.732877 231.206513 246.063541 236.537178 
C 251.394206 241.867842 258.625153 244.862998 266.16385 244.862998 
z
" clip-path="url(#p1cf17bcbe3)" style="fill: #ffff00; stroke: #000000; stroke-linejoin: miter"/>
   </g>
   <g id="patch_40">
    <path d="M 229.139819 442.069123 
C 236.678517 442.069123 243.909464 439.073967 249.240128 433.743302 
C 254.570792 428.412638 257.565948 421.181691 257.565948 413.642994 
C 257.565948 406.104296 254.570792 398.873349 249.240128 393.542685 
C 243.909464 388.21202 236.678517 385.216864 229.139819 385.216864 
C 221.601121 385.216864 214.370174 388.21202 209.03951 393.542685 
C 203.708846 398.873349 200.71369 406.104296 200.71369 413.642994 
C 200.71369 421.181691 203.708846 428.412638 209.03951 433.743302 
C 214.370174 439.073967 221.601121 442.069123 229.139819 442.069123 
z
" clip-path="url(#p1cf17bcbe3)" style="fill: #ffff00; stroke: #000000; stroke-linejoin: miter"/>
   </g>
   <g id="patch_41">
    <path d="M 510.533962 350.749311 
C 518.07266 350.749311 525.303607 347.754155 530.634271 342.423491 
C 535.964935 337.092827 538.960091 329.86188 538.960091 322.323182 
C 538.960091 314.784484 535.964935 307.553537 530.634271 302.222873 
C 525.303607 296.892209 518.07266 293.897053 510.533962 293.897053 
C 502.995264 293.897053 495.764317 296.892209 490.433653 302.222873 
C 485.102989 307.553537 482.107833 314.784484 482.107833 322.323182 
C 482.107833 329.86188 485.102989 337.092827 490.433653 342.423491 
C 495.764317 347.754155 502.995264 350.749311 510.533962 350.749311 
z
" clip-path="url(#p1cf17bcbe3)" style="fill: #ffff00; stroke: #000000; stroke-linejoin: miter"/>
   </g>
   <g id="patch_42">
    <path d="M 237.927311 605.290909 
C 245.466008 605.290909 252.696955 602.295753 258.027619 596.965089 
C 263.358284 591.634424 266.35344 584.403477 266.35344 576.86478 
C 266.35344 569.326082 263.358284 562.095135 258.027619 556.764471 
C 252.696955 551.433807 245.466008 548.43865 237.927311 548.43865 
C 230.388613 548.43865 223.157666 551.433807 217.827002 556.764471 
C 212.496337 562.095135 209.501181 569.326082 209.501181 576.86478 
C 209.501181 584.403477 212.496337 591.634424 217.827002 596.965089 
C 223.157666 602.295753 230.388613 605.290909 237.927311 605.290909 
z
" clip-path="url(#p1cf17bcbe3)" style="fill: #ffff00; stroke: #000000; stroke-linejoin: miter"/>
   </g>
   <g id="patch_43">
    <path d="M 208.065139 331.262835 
C 215.603836 331.262835 222.834783 328.267679 228.165448 322.937015 
C 233.496112 317.606351 236.491268 310.375404 236.491268 302.836706 
C 236.491268 295.298008 233.496112 288.067061 228.165448 282.736397 
C 222.834783 277.405733 215.603836 274.410577 208.065139 274.410577 
C 200.526441 274.410577 193.295494 277.405733 187.96483 282.736397 
C 182.634166 288.067061 179.639009 295.298008 179.639009 302.836706 
C 179.639009 310.375404 182.634166 317.606351 187.96483 322.937015 
C 193.295494 328.267679 200.526441 331.262835 208.065139 331.262835 
z
" clip-path="url(#p1cf17bcbe3)" style="fill: #ffff00; stroke: #000000; stroke-linejoin: miter"/>
   </g>
   <g id="patch_44">
    <path d="M 398.510132 517.396319 
C 406.048829 517.396319 413.279776 514.401163 418.610441 509.070499 
C 423.941105 503.739835 426.936261 496.508888 426.936261 488.97019 
C 426.936261 481.431492 423.941105 474.200545 418.610441 468.869881 
C 413.279776 463.539217 406.048829 460.544061 398.510132 460.544061 
C 390.971434 460.544061 383.740487 463.539217 378.409823 468.869881 
C 373.079159 474.200545 370.084002 481.431492 370.084002 488.97019 
C 370.084002 496.508888 373.079159 503.739835 378.409823 509.070499 
C 383.740487 514.401163 390.971434 517.396319 398.510132 517.396319 
z
" clip-path="url(#p1cf17bcbe3)" style="fill: #ffff00; stroke: #000000; stroke-linejoin: miter"/>
   </g>
   <g id="patch_45">
    <path d="M 529.934861 167.96135 
C 537.473559 167.96135 544.704506 164.966193 550.03517 159.635529 
C 555.365834 154.304865 558.360991 147.073918 558.360991 139.53522 
C 558.360991 131.996523 555.365834 124.765576 550.03517 119.434911 
C 544.704506 114.104247 537.473559 111.109091 529.934861 111.109091 
C 522.396164 111.109091 515.165217 114.104247 509.834552 119.434911 
C 504.503888 124.765576 501.508732 131.996523 501.508732 139.53522 
C 501.508732 147.073918 504.503888 154.304865 509.834552 159.635529 
C 515.165217 164.966193 522.396164 167.96135 529.934861 167.96135 
z
" clip-path="url(#p1cf17bcbe3)" style="fill: #ffff00; stroke: #000000; stroke-linejoin: miter"/>
   </g>
   <g id="text_1">
    <!-- 2011 -->
    <g transform="translate(370.269808 308.72446)scale(0.12 -0.12)">
     <defs>
      <path id="DejaVuSans-32" d="M 1228 531 
L 3431 531 
L 3431 0 
L 469 0 
L 469 531 
Q 828 903 1448 1529 
Q 2069 2156 2228 2338 
Q 2531 2678 2651 2914 
Q 2772 3150 2772 3378 
Q 2772 3750 2511 3984 
Q 2250 4219 1831 4219 
Q 1534 4219 1204 4116 
Q 875 4013 500 3803 
L 500 4441 
Q 881 4594 1212 4672 
Q 1544 4750 1819 4750 
Q 2544 4750 2975 4387 
Q 3406 4025 3406 3419 
Q 3406 3131 3298 2873 
Q 3191 2616 2906 2266 
Q 2828 2175 2409 1742 
Q 1991 1309 1228 531 
z
" transform="scale(0.015625)"/>
      <path id="DejaVuSans-30" d="M 2034 4250 
Q 1547 4250 1301 3770 
Q 1056 3291 1056 2328 
Q 1056 1369 1301 889 
Q 1547 409 2034 409 
Q 2525 409 2770 889 
Q 3016 1369 3016 2328 
Q 3016 3291 2770 3770 
Q 2525 4250 2034 4250 
z
M 2034 4750 
Q 2819 4750 3233 4129 
Q 3647 3509 3647 2328 
Q 3647 1150 3233 529 
Q 2819 -91 2034 -91 
Q 1250 -91 836 529 
Q 422 1150 422 2328 
Q 422 3509 836 4129 
Q 1250 4750 2034 4750 
z
" transform="scale(0.015625)"/>
      <path id="DejaVuSans-31" d="M 794 531 
L 1825 531 
L 1825 4091 
L 703 3866 
L 703 4441 
L 1819 4666 
L 2450 4666 
L 2450 531 
L 3481 531 
L 3481 0 
L 794 0 
L 794 531 
z
" transform="scale(0.015625)"/>
     </defs>
     <use xlink:href="#DejaVuSans-32"/>
     <use xlink:href="#DejaVuSans-30" x="63.623047"/>
     <use xlink:href="#DejaVuSans-31" x="127.246094"/>
     <use xlink:href="#DejaVuSans-31" x="190.869141"/>
    </g>
   </g>
   <g id="text_2">
    <!-- 2011 -->
    <g transform="translate(320.510039 383.209974)scale(0.12 -0.12)">
     <use xlink:href="#DejaVuSans-32"/>
     <use xlink:href="#DejaVuSans-30" x="63.623047"/>
     <use xlink:href="#DejaVuSans-31" x="127.246094"/>
     <use xlink:href="#DejaVuSans-31" x="190.869141"/>
    </g>
   </g>
   <g id="text_3">
    <!-- 1978 -->
    <g transform="translate(361.648695 197.535605)scale(0.12 -0.12)">
     <defs>
      <path id="DejaVuSans-39" d="M 703 97 
L 703 672 
Q 941 559 1184 500 
Q 1428 441 1663 441 
Q 2288 441 2617 861 
Q 2947 1281 2994 2138 
Q 2813 1869 2534 1725 
Q 2256 1581 1919 1581 
Q 1219 1581 811 2004 
Q 403 2428 403 3163 
Q 403 3881 828 4315 
Q 1253 4750 1959 4750 
Q 2769 4750 3195 4129 
Q 3622 3509 3622 2328 
Q 3622 1225 3098 567 
Q 2575 -91 1691 -91 
Q 1453 -91 1209 -44 
Q 966 3 703 97 
z
M 1959 2075 
Q 2384 2075 2632 2365 
Q 2881 2656 2881 3163 
Q 2881 3666 2632 3958 
Q 2384 4250 1959 4250 
Q 1534 4250 1286 3958 
Q 1038 3666 1038 3163 
Q 1038 2656 1286 2365 
Q 1534 2075 1959 2075 
z
" transform="scale(0.015625)"/>
      <path id="DejaVuSans-37" d="M 525 4666 
L 3525 4666 
L 3525 4397 
L 1831 0 
L 1172 0 
L 2766 4134 
L 525 4134 
L 525 4666 
z
" transform="scale(0.015625)"/>
      <path id="DejaVuSans-38" d="M 2034 2216 
Q 1584 2216 1326 1975 
Q 1069 1734 1069 1313 
Q 1069 891 1326 650 
Q 1584 409 2034 409 
Q 2484 409 2743 651 
Q 3003 894 3003 1313 
Q 3003 1734 2745 1975 
Q 2488 2216 2034 2216 
z
M 1403 2484 
Q 997 2584 770 2862 
Q 544 3141 544 3541 
Q 544 4100 942 4425 
Q 1341 4750 2034 4750 
Q 2731 4750 3128 4425 
Q 3525 4100 3525 3541 
Q 3525 3141 3298 2862 
Q 3072 2584 2669 2484 
Q 3125 2378 3379 2068 
Q 3634 1759 3634 1313 
Q 3634 634 3220 271 
Q 2806 -91 2034 -91 
Q 1263 -91 848 271 
Q 434 634 434 1313 
Q 434 1759 690 2068 
Q 947 2378 1403 2484 
z
M 1172 3481 
Q 1172 3119 1398 2916 
Q 1625 2713 2034 2713 
Q 2441 2713 2670 2916 
Q 2900 3119 2900 3481 
Q 2900 3844 2670 4047 
Q 2441 4250 2034 4250 
Q 1625 4250 1398 4047 
Q 1172 3844 1172 3481 
z
" transform="scale(0.015625)"/>
     </defs>
     <use xlink:href="#DejaVuSans-31"/>
     <use xlink:href="#DejaVuSans-39" x="63.623047"/>
     <use xlink:href="#DejaVuSans-37" x="127.246094"/>
     <use xlink:href="#DejaVuSans-38" x="190.869141"/>
    </g>
   </g>
   <g id="text_4">
    <!-- 1992 -->
    <g transform="translate(476.017408 433.662044)scale(0.12 -0.12)">
     <use xlink:href="#DejaVuSans-31"/>
     <use xlink:href="#DejaVuSans-39" x="63.623047"/>
     <use xlink:href="#DejaVuSans-39" x="127.246094"/>
     <use xlink:href="#DejaVuSans-32" x="190.869141"/>
    </g>
   </g>
   <g id="text_5">
    <!-- 1997 -->
    <g transform="translate(250.89385 219.748119)scale(0.12 -0.12)">
     <use xlink:href="#DejaVuSans-31"/>
     <use xlink:href="#DejaVuSans-39" x="63.623047"/>
     <use xlink:href="#DejaVuSans-39" x="127.246094"/>
     <use xlink:href="#DejaVuSans-37" x="190.869141"/>
    </g>
   </g>
   <g id="text_6">
    <!-- 1998 -->
    <g transform="translate(213.869819 416.954244)scale(0.12 -0.12)">
     <use xlink:href="#DejaVuSans-31"/>
     <use xlink:href="#DejaVuSans-39" x="63.623047"/>
     <use xlink:href="#DejaVuSans-39" x="127.246094"/>
     <use xlink:href="#DejaVuSans-38" x="190.869141"/>
    </g>
   </g>
   <g id="text_7">
    <!-- 2001 -->
    <g transform="translate(495.263962 325.634432)scale(0.12 -0.12)">
     <use xlink:href="#DejaVuSans-32"/>
     <use xlink:href="#DejaVuSans-30" x="63.623047"/>
     <use xlink:href="#DejaVuSans-30" x="127.246094"/>
     <use xlink:href="#DejaVuSans-31" x="190.869141"/>
    </g>
   </g>
   <g id="text_8">
    <!-- 2003 -->
    <g transform="translate(222.657311 580.17603)scale(0.12 -0.12)">
     <defs>
      <path id="DejaVuSans-33" d="M 2597 2516 
Q 3050 2419 3304 2112 
Q 3559 1806 3559 1356 
Q 3559 666 3084 287 
Q 2609 -91 1734 -91 
Q 1441 -91 1130 -33 
Q 819 25 488 141 
L 488 750 
Q 750 597 1062 519 
Q 1375 441 1716 441 
Q 2309 441 2620 675 
Q 2931 909 2931 1356 
Q 2931 1769 2642 2001 
Q 2353 2234 1838 2234 
L 1294 2234 
L 1294 2753 
L 1863 2753 
Q 2328 2753 2575 2939 
Q 2822 3125 2822 3475 
Q 2822 3834 2567 4026 
Q 2313 4219 1838 4219 
Q 1578 4219 1281 4162 
Q 984 4106 628 3988 
L 628 4550 
Q 988 4650 1302 4700 
Q 1616 4750 1894 4750 
Q 2613 4750 3031 4423 
Q 3450 4097 3450 3541 
Q 3450 3153 3228 2886 
Q 3006 2619 2597 2516 
z
" transform="scale(0.015625)"/>
     </defs>
     <use xlink:href="#DejaVuSans-32"/>
     <use xlink:href="#DejaVuSans-30" x="63.623047"/>
     <use xlink:href="#DejaVuSans-30" x="127.246094"/>
     <use xlink:href="#DejaVuSans-33" x="190.869141"/>
    </g>
   </g>
   <g id="text_9">
    <!-- 2006 -->
    <g transform="translate(192.795139 306.147956)scale(0.12 -0.12)">
     <defs>
      <path id="DejaVuSans-36" d="M 2113 2584 
Q 1688 2584 1439 2293 
Q 1191 2003 1191 1497 
Q 1191 994 1439 701 
Q 1688 409 2113 409 
Q 2538 409 2786 701 
Q 3034 994 3034 1497 
Q 3034 2003 2786 2293 
Q 2538 2584 2113 2584 
z
M 3366 4563 
L 3366 3988 
Q 3128 4100 2886 4159 
Q 2644 4219 2406 4219 
Q 1781 4219 1451 3797 
Q 1122 3375 1075 2522 
Q 1259 2794 1537 2939 
Q 1816 3084 2150 3084 
Q 2853 3084 3261 2657 
Q 3669 2231 3669 1497 
Q 3669 778 3244 343 
Q 2819 -91 2113 -91 
Q 1303 -91 875 529 
Q 447 1150 447 2328 
Q 447 3434 972 4092 
Q 1497 4750 2381 4750 
Q 2619 4750 2861 4703 
Q 3103 4656 3366 4563 
z
" transform="scale(0.015625)"/>
     </defs>
     <use xlink:href="#DejaVuSans-32"/>
     <use xlink:href="#DejaVuSans-30" x="63.623047"/>
     <use xlink:href="#DejaVuSans-30" x="127.246094"/>
     <use xlink:href="#DejaVuSans-36" x="190.869141"/>
    </g>
   </g>
   <g id="text_10">
    <!-- 2007 -->
    <g transform="translate(383.240132 492.28144)scale(0.12 -0.12)">
     <use xlink:href="#DejaVuSans-32"/>
     <use xlink:href="#DejaVuSans-30" x="63.623047"/>
     <use xlink:href="#DejaVuSans-30" x="127.246094"/>
     <use xlink:href="#DejaVuSans-37" x="190.869141"/>
    </g>
   </g>
   <g id="text_11">
    <!-- 2008 -->
    <g transform="translate(514.664861 142.84647)scale(0.12 -0.12)">
     <use xlink:href="#DejaVuSans-32"/>
     <use xlink:href="#DejaVuSans-30" x="63.623047"/>
     <use xlink:href="#DejaVuSans-30" x="127.246094"/>
     <use xlink:href="#DejaVuSans-38" x="190.869141"/>
    </g>
   </g>
  </g>
 </g>
 <defs>
  <clipPath id="p1cf17bcbe3">
   <rect x="160.70291" y="86.4" width="416.594179" height="543.6"/>
  </clipPath>
 </defs>
</svg>
