<?xml version="1.0" encoding="utf-8" standalone="no"?>
<!DOCTYPE svg PUBLIC "-//W3C//DTD SVG 1.1//EN"
  "http://www.w3.org/Graphics/SVG/1.1/DTD/svg11.dtd">
<svg xmlns:xlink="http://www.w3.org/1999/xlink" width="360pt" height="720pt" viewBox="0 0 360 720" xmlns="http://www.w3.org/2000/svg" version="1.1">
 <metadata>
  <rdf:RDF xmlns:dc="http://purl.org/dc/elements/1.1/" xmlns:cc="http://creativecommons.org/ns#" xmlns:rdf="http://www.w3.org/1999/02/22-rdf-syntax-ns#">
   <cc:Work>
    <dc:type rdf:resource="http://purl.org/dc/dcmitype/StillImage"/>
    <dc:date>2023-10-02T16:59:04.315050</dc:date>
    <dc:format>image/svg+xml</dc:format>
    <dc:creator>
     <cc:Agent>
      <dc:title>Matplotlib v3.5.1, https://matplotlib.org/</dc:title>
     </cc:Agent>
    </dc:creator>
   </cc:Work>
  </rdf:RDF>
 </metadata>
 <defs>
  <style type="text/css">*{stroke-linejoin: round; stroke-linecap: butt}</style>
 </defs>
 <g id="figure_1">
  <g id="patch_1">
   <path d="M 0 720 
L 360 720 
L 360 0 
L 0 0 
L 0 720 
z
" style="fill: none"/>
  </g>
  <g id="axes_1">
   <g id="patch_2">
    <path d="M 45 263.599301 
L 324 263.599301 
L 324 156.291608 
L 45 156.291608 
z
" style="fill: #ffffff"/>
   </g>
   <g id="patch_3">
    <path d="M 184.5 170.924476 
L 119.920361 203.214295 
" clip-path="url(#p1ca8524b95)" style="fill: none; stroke: #444444; stroke-width: 2; stroke-linejoin: miter"/>
   </g>
   <g id="patch_4">
    <path d="M 115.183398 205.582776 
L 121.034884 205.443341 
L 118.805838 200.985249 
z
" clip-path="url(#p1ca8524b95)" style="fill: #444444"/>
   </g>
   <g id="patch_5">
    <path d="M 184.5 170.924476 
L 230.508005 201.596479 
" clip-path="url(#p1ca8524b95)" style="fill: none; stroke: #444444; stroke-width: 2; stroke-linejoin: miter"/>
   </g>
   <g id="patch_6">
    <path d="M 234.914614 204.534218 
L 231.8904 199.522886 
L 229.125609 203.670072 
z
" clip-path="url(#p1ca8524b95)" style="fill: #444444"/>
   </g>
   <g id="patch_7">
    <path d="M 106.458042 209.945455 
L 134.836123 238.323536 
" clip-path="url(#p1ca8524b95)" style="fill: none; stroke: #444444; stroke-width: 2; stroke-linejoin: miter"/>
   </g>
   <g id="patch_8">
    <path d="M 138.581021 242.068434 
L 136.598338 236.561321 
L 133.073908 240.085751 
z
" clip-path="url(#p1ca8524b95)" style="fill: #444444"/>
   </g>
   <g id="patch_9">
    <path d="M 106.458042 209.945455 
L 78.079961 238.323536 
" clip-path="url(#p1ca8524b95)" style="fill: none; stroke: #444444; stroke-width: 2; stroke-linejoin: miter"/>
   </g>
   <g id="patch_10">
    <path d="M 74.335063 242.068434 
L 79.842176 240.085751 
L 76.317745 236.561321 
z
" clip-path="url(#p1ca8524b95)" style="fill: #444444"/>
   </g>
   <g id="patch_11">
    <path d="M 106.458042 209.945455 
L 106.458042 233.915103 
" clip-path="url(#p1ca8524b95)" style="fill: none; stroke: #444444; stroke-width: 2; stroke-linejoin: miter"/>
   </g>
   <g id="patch_12">
    <path d="M 106.458042 239.211189 
L 108.950191 233.915103 
L 103.965893 233.915103 
z
" clip-path="url(#p1ca8524b95)" style="fill: #444444"/>
   </g>
   <g id="patch_13">
    <path d="M 243.031469 209.945455 
L 197.023464 240.617458 
" clip-path="url(#p1ca8524b95)" style="fill: none; stroke: #444444; stroke-width: 2; stroke-linejoin: miter"/>
   </g>
   <g id="patch_14">
    <path d="M 192.616854 243.555197 
L 198.405859 242.691051 
L 195.641068 238.543865 
z
" clip-path="url(#p1ca8524b95)" style="fill: #444444"/>
   </g>
   <g id="patch_15">
    <path d="M 243.031469 209.945455 
L 230.252139 235.504114 
" clip-path="url(#p1ca8524b95)" style="fill: none; stroke: #444444; stroke-width: 2; stroke-linejoin: miter"/>
   </g>
   <g id="patch_16">
    <path d="M 227.883657 240.241077 
L 232.481184 236.618637 
L 228.023093 234.389592 
z
" clip-path="url(#p1ca8524b95)" style="fill: #444444"/>
   </g>
   <g id="patch_17">
    <path d="M 243.031469 209.945455 
L 255.810798 235.504114 
" clip-path="url(#p1ca8524b95)" style="fill: none; stroke: #444444; stroke-width: 2; stroke-linejoin: miter"/>
   </g>
   <g id="patch_18">
    <path d="M 258.17928 240.241077 
L 258.039844 234.389592 
L 253.581753 236.618637 
z
" clip-path="url(#p1ca8524b95)" style="fill: #444444"/>
   </g>
   <g id="patch_19">
    <path d="M 243.031469 209.945455 
L 289.039473 240.617458 
" clip-path="url(#p1ca8524b95)" style="fill: none; stroke: #444444; stroke-width: 2; stroke-linejoin: miter"/>
   </g>
   <g id="patch_20">
    <path d="M 293.446083 243.555197 
L 290.421869 238.543865 
L 287.657078 242.691051 
z
" clip-path="url(#p1ca8524b95)" style="fill: #444444"/>
   </g>
   <g id="matplotlib.axis_1"/>
   <g id="matplotlib.axis_2"/>
   <g id="patch_21">
    <path d="M 184.5 180.67972 
C 187.087121 180.67972 189.568629 179.651846 191.398 177.822475 
C 193.227371 175.993104 194.255245 173.511597 194.255245 170.924476 
C 194.255245 168.337354 193.227371 165.855847 191.398 164.026476 
C 189.568629 162.197105 187.087121 161.169231 184.5 161.169231 
C 181.912879 161.169231 179.431371 162.197105 177.602 164.026476 
C 175.772629 165.855847 174.744755 168.337354 174.744755 170.924476 
C 174.744755 173.511597 175.772629 175.993104 177.602 177.822475 
C 179.431371 179.651846 181.912879 180.67972 184.5 180.67972 
z
" clip-path="url(#p1ca8524b95)" style="fill: #bebebe; stroke: #000000; stroke-linejoin: miter"/>
   </g>
   <g id="patch_22">
    <path d="M 106.458042 219.700699 
C 109.045163 219.700699 111.526671 218.672825 113.356042 216.843454 
C 115.185413 215.014083 116.213287 212.532576 116.213287 209.945455 
C 116.213287 207.358333 115.185413 204.876826 113.356042 203.047455 
C 111.526671 201.218084 109.045163 200.19021 106.458042 200.19021 
C 103.870921 200.19021 101.389413 201.218084 99.560042 203.047455 
C 97.730671 204.876826 96.702797 207.358333 96.702797 209.945455 
C 96.702797 212.532576 97.730671 215.014083 99.560042 216.843454 
C 101.389413 218.672825 103.870921 219.700699 106.458042 219.700699 
z
" clip-path="url(#p1ca8524b95)" style="fill: #bebebe; stroke: #000000; stroke-linejoin: miter"/>
   </g>
   <g id="patch_23">
    <path d="M 243.031469 219.700699 
C 245.61859 219.700699 248.100097 218.672825 249.929468 216.843454 
C 251.758839 215.014083 252.786713 212.532576 252.786713 209.945455 
C 252.786713 207.358333 251.758839 204.876826 249.929468 203.047455 
C 248.100097 201.218084 245.61859 200.19021 243.031469 200.19021 
C 240.444347 200.19021 237.96284 201.218084 236.133469 203.047455 
C 234.304098 204.876826 233.276224 207.358333 233.276224 209.945455 
C 233.276224 212.532576 234.304098 215.014083 236.133469 216.843454 
C 237.96284 218.672825 240.444347 219.700699 243.031469 219.700699 
z
" clip-path="url(#p1ca8524b95)" style="fill: #bebebe; stroke: #000000; stroke-linejoin: miter"/>
   </g>
   <g id="patch_24">
    <path d="M 145.479021 258.721678 
C 148.066142 258.721678 150.54765 257.693804 152.377021 255.864433 
C 154.206392 254.035062 155.234266 251.553555 155.234266 248.966434 
C 155.234266 246.379312 154.206392 243.897805 152.377021 242.068434 
C 150.54765 240.239063 148.066142 239.211189 145.479021 239.211189 
C 142.8919 239.211189 140.410392 240.239063 138.581021 242.068434 
C 136.75165 243.897805 135.723776 246.379312 135.723776 248.966434 
C 135.723776 251.553555 136.75165 254.035062 138.581021 255.864433 
C 140.410392 257.693804 142.8919 258.721678 145.479021 258.721678 
z
" clip-path="url(#p1ca8524b95)" style="fill: #bebebe; stroke: #000000; stroke-linejoin: miter"/>
   </g>
   <g id="patch_25">
    <path d="M 67.437063 258.721678 
C 70.024184 258.721678 72.505692 257.693804 74.335063 255.864433 
C 76.164434 254.035062 77.192308 251.553555 77.192308 248.966434 
C 77.192308 246.379312 76.164434 243.897805 74.335063 242.068434 
C 72.505692 240.239063 70.024184 239.211189 67.437063 239.211189 
C 64.849942 239.211189 62.368434 240.239063 60.539063 242.068434 
C 58.709692 243.897805 57.681818 246.379312 57.681818 248.966434 
C 57.681818 251.553555 58.709692 254.035062 60.539063 255.864433 
C 62.368434 257.693804 64.849942 258.721678 67.437063 258.721678 
z
" clip-path="url(#p1ca8524b95)" style="fill: #bebebe; stroke: #000000; stroke-linejoin: miter"/>
   </g>
   <g id="patch_26">
    <path d="M 106.458042 258.721678 
C 109.045163 258.721678 111.526671 257.693804 113.356042 255.864433 
C 115.185413 254.035062 116.213287 251.553555 116.213287 248.966434 
C 116.213287 246.379312 115.185413 243.897805 113.356042 242.068434 
C 111.526671 240.239063 109.045163 239.211189 106.458042 239.211189 
C 103.870921 239.211189 101.389413 240.239063 99.560042 242.068434 
C 97.730671 243.897805 96.702797 246.379312 96.702797 248.966434 
C 96.702797 251.553555 97.730671 254.035062 99.560042 255.864433 
C 101.389413 257.693804 103.870921 258.721678 106.458042 258.721678 
z
" clip-path="url(#p1ca8524b95)" style="fill: #bebebe; stroke: #000000; stroke-linejoin: miter"/>
   </g>
   <g id="patch_27">
    <path d="M 184.5 258.721678 
C 187.087121 258.721678 189.568629 257.693804 191.398 255.864433 
C 193.227371 254.035062 194.255245 251.553555 194.255245 248.966434 
C 194.255245 246.379312 193.227371 243.897805 191.398 242.068434 
C 189.568629 240.239063 187.087121 239.211189 184.5 239.211189 
C 181.912879 239.211189 179.431371 240.239063 177.602 242.068434 
C 175.772629 243.897805 174.744755 246.379312 174.744755 248.966434 
C 174.744755 251.553555 175.772629 254.035062 177.602 255.864433 
C 179.431371 257.693804 181.912879 258.721678 184.5 258.721678 
z
" clip-path="url(#p1ca8524b95)" style="fill: #bebebe; stroke: #000000; stroke-linejoin: miter"/>
   </g>
   <g id="patch_28">
    <path d="M 223.520979 258.721678 
C 226.1081 258.721678 228.589608 257.693804 230.418979 255.864433 
C 232.24835 254.035062 233.276224 251.553555 233.276224 248.966434 
C 233.276224 246.379312 232.24835 243.897805 230.418979 242.068434 
C 228.589608 240.239063 226.1081 239.211189 223.520979 239.211189 
C 220.933858 239.211189 218.45235 240.239063 216.622979 242.068434 
C 214.793608 243.897805 213.765734 246.379312 213.765734 248.966434 
C 213.765734 251.553555 214.793608 254.035062 216.622979 255.864433 
C 218.45235 257.693804 220.933858 258.721678 223.520979 258.721678 
z
" clip-path="url(#p1ca8524b95)" style="fill: #bebebe; stroke: #000000; stroke-linejoin: miter"/>
   </g>
   <g id="patch_29">
    <path d="M 262.541958 258.721678 
C 265.129079 258.721678 267.610587 257.693804 269.439958 255.864433 
C 271.269329 254.035062 272.297203 251.553555 272.297203 248.966434 
C 272.297203 246.379312 271.269329 243.897805 269.439958 242.068434 
C 267.610587 240.239063 265.129079 239.211189 262.541958 239.211189 
C 259.954837 239.211189 257.473329 240.239063 255.643958 242.068434 
C 253.814587 243.897805 252.786713 246.379312 252.786713 248.966434 
C 252.786713 251.553555 253.814587 254.035062 255.643958 255.864433 
C 257.473329 257.693804 259.954837 258.721678 262.541958 258.721678 
z
" clip-path="url(#p1ca8524b95)" style="fill: #bebebe; stroke: #000000; stroke-linejoin: miter"/>
   </g>
   <g id="patch_30">
    <path d="M 301.562937 258.721678 
C 304.150058 258.721678 306.631566 257.693804 308.460937 255.864433 
C 310.290308 254.035062 311.318182 251.553555 311.318182 248.966434 
C 311.318182 246.379312 310.290308 243.897805 308.460937 242.068434 
C 306.631566 240.239063 304.150058 239.211189 301.562937 239.211189 
C 298.975816 239.211189 296.494308 240.239063 294.664937 242.068434 
C 292.835566 243.897805 291.807692 246.379312 291.807692 248.966434 
C 291.807692 251.553555 292.835566 254.035062 294.664937 255.864433 
C 296.494308 257.693804 298.975816 258.721678 301.562937 258.721678 
z
" clip-path="url(#p1ca8524b95)" style="fill: #bebebe; stroke: #000000; stroke-linejoin: miter"/>
   </g>
   <g id="text_1">
    <!-- 0 -->
    <g transform="translate(180.6825 174.235726)scale(0.12 -0.12)">
     <defs>
      <path id="DejaVuSans-30" d="M 2034 4250 
Q 1547 4250 1301 3770 
Q 1056 3291 1056 2328 
Q 1056 1369 1301 889 
Q 1547 409 2034 409 
Q 2525 409 2770 889 
Q 3016 1369 3016 2328 
Q 3016 3291 2770 3770 
Q 2525 4250 2034 4250 
z
M 2034 4750 
Q 2819 4750 3233 4129 
Q 3647 3509 3647 2328 
Q 3647 1150 3233 529 
Q 2819 -91 2034 -91 
Q 1250 -91 836 529 
Q 422 1150 422 2328 
Q 422 3509 836 4129 
Q 1250 4750 2034 4750 
z
" transform="scale(0.015625)"/>
     </defs>
     <use xlink:href="#DejaVuSans-30"/>
    </g>
   </g>
   <g id="text_2">
    <!-- 1 -->
    <g transform="translate(102.640542 213.256705)scale(0.12 -0.12)">
     <defs>
      <path id="DejaVuSans-31" d="M 794 531 
L 1825 531 
L 1825 4091 
L 703 3866 
L 703 4441 
L 1819 4666 
L 2450 4666 
L 2450 531 
L 3481 531 
L 3481 0 
L 794 0 
L 794 531 
z
" transform="scale(0.015625)"/>
     </defs>
     <use xlink:href="#DejaVuSans-31"/>
    </g>
   </g>
   <g id="text_3">
    <!-- 2 -->
    <g transform="translate(239.213969 213.256705)scale(0.12 -0.12)">
     <defs>
      <path id="DejaVuSans-32" d="M 1228 531 
L 3431 531 
L 3431 0 
L 469 0 
L 469 531 
Q 828 903 1448 1529 
Q 2069 2156 2228 2338 
Q 2531 2678 2651 2914 
Q 2772 3150 2772 3378 
Q 2772 3750 2511 3984 
Q 2250 4219 1831 4219 
Q 1534 4219 1204 4116 
Q 875 4013 500 3803 
L 500 4441 
Q 881 4594 1212 4672 
Q 1544 4750 1819 4750 
Q 2544 4750 2975 4387 
Q 3406 4025 3406 3419 
Q 3406 3131 3298 2873 
Q 3191 2616 2906 2266 
Q 2828 2175 2409 1742 
Q 1991 1309 1228 531 
z
" transform="scale(0.015625)"/>
     </defs>
     <use xlink:href="#DejaVuSans-32"/>
    </g>
   </g>
   <g id="text_4">
    <!-- 3 -->
    <g transform="translate(141.661521 252.277684)scale(0.12 -0.12)">
     <defs>
      <path id="DejaVuSans-33" d="M 2597 2516 
Q 3050 2419 3304 2112 
Q 3559 1806 3559 1356 
Q 3559 666 3084 287 
Q 2609 -91 1734 -91 
Q 1441 -91 1130 -33 
Q 819 25 488 141 
L 488 750 
Q 750 597 1062 519 
Q 1375 441 1716 441 
Q 2309 441 2620 675 
Q 2931 909 2931 1356 
Q 2931 1769 2642 2001 
Q 2353 2234 1838 2234 
L 1294 2234 
L 1294 2753 
L 1863 2753 
Q 2328 2753 2575 2939 
Q 2822 3125 2822 3475 
Q 2822 3834 2567 4026 
Q 2313 4219 1838 4219 
Q 1578 4219 1281 4162 
Q 984 4106 628 3988 
L 628 4550 
Q 988 4650 1302 4700 
Q 1616 4750 1894 4750 
Q 2613 4750 3031 4423 
Q 3450 4097 3450 3541 
Q 3450 3153 3228 2886 
Q 3006 2619 2597 2516 
z
" transform="scale(0.015625)"/>
     </defs>
     <use xlink:href="#DejaVuSans-33"/>
    </g>
   </g>
   <g id="text_5">
    <!-- 4 -->
    <g transform="translate(63.619563 252.277684)scale(0.12 -0.12)">
     <defs>
      <path id="DejaVuSans-34" d="M 2419 4116 
L 825 1625 
L 2419 1625 
L 2419 4116 
z
M 2253 4666 
L 3047 4666 
L 3047 1625 
L 3713 1625 
L 3713 1100 
L 3047 1100 
L 3047 0 
L 2419 0 
L 2419 1100 
L 313 1100 
L 313 1709 
L 2253 4666 
z
" transform="scale(0.015625)"/>
     </defs>
     <use xlink:href="#DejaVuSans-34"/>
    </g>
   </g>
   <g id="text_6">
    <!-- 5 -->
    <g transform="translate(102.640542 252.277684)scale(0.12 -0.12)">
     <defs>
      <path id="DejaVuSans-35" d="M 691 4666 
L 3169 4666 
L 3169 4134 
L 1269 4134 
L 1269 2991 
Q 1406 3038 1543 3061 
Q 1681 3084 1819 3084 
Q 2600 3084 3056 2656 
Q 3513 2228 3513 1497 
Q 3513 744 3044 326 
Q 2575 -91 1722 -91 
Q 1428 -91 1123 -41 
Q 819 9 494 109 
L 494 744 
Q 775 591 1075 516 
Q 1375 441 1709 441 
Q 2250 441 2565 725 
Q 2881 1009 2881 1497 
Q 2881 1984 2565 2268 
Q 2250 2553 1709 2553 
Q 1456 2553 1204 2497 
Q 953 2441 691 2322 
L 691 4666 
z
" transform="scale(0.015625)"/>
     </defs>
     <use xlink:href="#DejaVuSans-35"/>
    </g>
   </g>
   <g id="text_7">
    <!-- 6 -->
    <g transform="translate(180.6825 252.277684)scale(0.12 -0.12)">
     <defs>
      <path id="DejaVuSans-36" d="M 2113 2584 
Q 1688 2584 1439 2293 
Q 1191 2003 1191 1497 
Q 1191 994 1439 701 
Q 1688 409 2113 409 
Q 2538 409 2786 701 
Q 3034 994 3034 1497 
Q 3034 2003 2786 2293 
Q 2538 2584 2113 2584 
z
M 3366 4563 
L 3366 3988 
Q 3128 4100 2886 4159 
Q 2644 4219 2406 4219 
Q 1781 4219 1451 3797 
Q 1122 3375 1075 2522 
Q 1259 2794 1537 2939 
Q 1816 3084 2150 3084 
Q 2853 3084 3261 2657 
Q 3669 2231 3669 1497 
Q 3669 778 3244 343 
Q 2819 -91 2113 -91 
Q 1303 -91 875 529 
Q 447 1150 447 2328 
Q 447 3434 972 4092 
Q 1497 4750 2381 4750 
Q 2619 4750 2861 4703 
Q 3103 4656 3366 4563 
z
" transform="scale(0.015625)"/>
     </defs>
     <use xlink:href="#DejaVuSans-36"/>
    </g>
   </g>
   <g id="text_8">
    <!-- 7 -->
    <g transform="translate(219.703479 252.277684)scale(0.12 -0.12)">
     <defs>
      <path id="DejaVuSans-37" d="M 525 4666 
L 3525 4666 
L 3525 4397 
L 1831 0 
L 1172 0 
L 2766 4134 
L 525 4134 
L 525 4666 
z
" transform="scale(0.015625)"/>
     </defs>
     <use xlink:href="#DejaVuSans-37"/>
    </g>
   </g>
   <g id="text_9">
    <!-- 8 -->
    <g transform="translate(258.724458 252.277684)scale(0.12 -0.12)">
     <defs>
      <path id="DejaVuSans-38" d="M 2034 2216 
Q 1584 2216 1326 1975 
Q 1069 1734 1069 1313 
Q 1069 891 1326 650 
Q 1584 409 2034 409 
Q 2484 409 2743 651 
Q 3003 894 3003 1313 
Q 3003 1734 2745 1975 
Q 2488 2216 2034 2216 
z
M 1403 2484 
Q 997 2584 770 2862 
Q 544 3141 544 3541 
Q 544 4100 942 4425 
Q 1341 4750 2034 4750 
Q 2731 4750 3128 4425 
Q 3525 4100 3525 3541 
Q 3525 3141 3298 2862 
Q 3072 2584 2669 2484 
Q 3125 2378 3379 2068 
Q 3634 1759 3634 1313 
Q 3634 634 3220 271 
Q 2806 -91 2034 -91 
Q 1263 -91 848 271 
Q 434 634 434 1313 
Q 434 1759 690 2068 
Q 947 2378 1403 2484 
z
M 1172 3481 
Q 1172 3119 1398 2916 
Q 1625 2713 2034 2713 
Q 2441 2713 2670 2916 
Q 2900 3119 2900 3481 
Q 2900 3844 2670 4047 
Q 2441 4250 2034 4250 
Q 1625 4250 1398 4047 
Q 1172 3844 1172 3481 
z
" transform="scale(0.015625)"/>
     </defs>
     <use xlink:href="#DejaVuSans-38"/>
    </g>
   </g>
   <g id="text_10">
    <!-- 9 -->
    <g transform="translate(297.745437 252.277684)scale(0.12 -0.12)">
     <defs>
      <path id="DejaVuSans-39" d="M 703 97 
L 703 672 
Q 941 559 1184 500 
Q 1428 441 1663 441 
Q 2288 441 2617 861 
Q 2947 1281 2994 2138 
Q 2813 1869 2534 1725 
Q 2256 1581 1919 1581 
Q 1219 1581 811 2004 
Q 403 2428 403 3163 
Q 403 3881 828 4315 
Q 1253 4750 1959 4750 
Q 2769 4750 3195 4129 
Q 3622 3509 3622 2328 
Q 3622 1225 3098 567 
Q 2575 -91 1691 -91 
Q 1453 -91 1209 -44 
Q 966 3 703 97 
z
M 1959 2075 
Q 2384 2075 2632 2365 
Q 2881 2656 2881 3163 
Q 2881 3666 2632 3958 
Q 2384 4250 1959 4250 
Q 1534 4250 1286 3958 
Q 1038 3666 1038 3163 
Q 1038 2656 1286 2365 
Q 1534 2075 1959 2075 
z
" transform="scale(0.015625)"/>
     </defs>
     <use xlink:href="#DejaVuSans-39"/>
    </g>
   </g>
  </g>
  <g id="axes_2">
   <g id="patch_31">
    <path d="M 60.954545 630 
L 308.045455 630 
L 308.045455 382.909091 
L 60.954545 382.909091 
z
" style="fill: #ffffff"/>
   </g>
   <g id="patch_32">
    <path d="M 182.002544 503.95709 
L 200.426594 478.598562 
" clip-path="url(#p655c8496fc)" style="fill: none; stroke: #444444; stroke-width: 2; stroke-linejoin: miter"/>
   </g>
   <g id="patch_33">
    <path d="M 204.497381 472.995604 
L 197.790042 476.682995 
L 203.063146 480.514129 
z
" clip-path="url(#p655c8496fc)" style="fill: #444444"/>
   </g>
   <g id="patch_34">
    <path d="M 182.002544 503.95709 
L 167.772274 531.885569 
" clip-path="url(#p655c8496fc)" style="fill: none; stroke: #444444; stroke-width: 2; stroke-linejoin: miter"/>
   </g>
   <g id="patch_35">
    <path d="M 164.6281 538.056357 
L 170.676026 533.365105 
L 164.868521 530.406033 
z
" clip-path="url(#p655c8496fc)" style="fill: #444444"/>
   </g>
   <g id="patch_36">
    <path d="M 211.99566 462.675108 
L 266.978668 494.173284 
" clip-path="url(#p655c8496fc)" style="fill: none; stroke: #444444; stroke-width: 2; stroke-linejoin: miter"/>
   </g>
   <g id="patch_37">
    <path d="M 272.988067 497.615895 
L 268.598638 491.345475 
L 265.358698 497.001092 
z
" clip-path="url(#p655c8496fc)" style="fill: #444444"/>
   </g>
   <g id="patch_38">
    <path d="M 211.99566 462.675108 
L 230.419709 437.31658 
" clip-path="url(#p655c8496fc)" style="fill: none; stroke: #444444; stroke-width: 2; stroke-linejoin: miter"/>
   </g>
   <g id="patch_39">
    <path d="M 234.490496 431.713622 
L 227.783157 435.401013 
L 233.056261 439.232147 
z
" clip-path="url(#p655c8496fc)" style="fill: #444444"/>
   </g>
   <g id="patch_40">
    <path d="M 211.99566 462.675108 
L 165.048431 420.116632 
" clip-path="url(#p655c8496fc)" style="fill: none; stroke: #444444; stroke-width: 2; stroke-linejoin: miter"/>
   </g>
   <g id="patch_41">
    <path d="M 159.917307 415.465179 
L 162.859623 422.531155 
L 167.237238 417.702108 
z
" clip-path="url(#p655c8496fc)" style="fill: #444444"/>
   </g>
   <g id="patch_42">
    <path d="M 158.836619 549.422779 
L 98.570797 486.621763 
" clip-path="url(#p655c8496fc)" style="fill: none; stroke: #444444; stroke-width: 2; stroke-linejoin: miter"/>
   </g>
   <g id="patch_43">
    <path d="M 93.775532 481.624776 
L 96.219393 488.878243 
L 100.922201 484.365282 
z
" clip-path="url(#p655c8496fc)" style="fill: #444444"/>
   </g>
   <g id="patch_44">
    <path d="M 158.836619 549.422779 
L 118.558038 559.269347 
" clip-path="url(#p655c8496fc)" style="fill: none; stroke: #444444; stroke-width: 2; stroke-linejoin: miter"/>
   </g>
   <g id="patch_45">
    <path d="M 111.830508 560.91397 
L 119.331939 562.435082 
L 117.784137 556.103611 
z
" clip-path="url(#p655c8496fc)" style="fill: #444444"/>
   </g>
   <g id="patch_46">
    <path d="M 158.836619 549.422779 
L 174.545734 587.796503 
" clip-path="url(#p655c8496fc)" style="fill: none; stroke: #444444; stroke-width: 2; stroke-linejoin: miter"/>
   </g>
   <g id="patch_47">
    <path d="M 177.169549 594.205874 
L 177.561755 586.561829 
L 171.529713 589.031176 
z
" clip-path="url(#p655c8496fc)" style="fill: #444444"/>
   </g>
   <g id="patch_48">
    <path d="M 158.836619 549.422779 
L 245.06707 561.265342 
" clip-path="url(#p655c8496fc)" style="fill: none; stroke: #444444; stroke-width: 2; stroke-linejoin: miter"/>
   </g>
   <g id="patch_49">
    <path d="M 251.928303 562.207638 
L 245.51048 558.03669 
L 244.623659 564.493993 
z
" clip-path="url(#p655c8496fc)" style="fill: #444444"/>
   </g>
   <g id="matplotlib.axis_3"/>
   <g id="matplotlib.axis_4"/>
   <g id="patch_50">
    <path d="M 182.002544 516.713924 
C 185.385696 516.713924 188.630739 515.369783 191.022988 512.977534 
C 193.415238 510.585284 194.759378 507.340242 194.759378 503.95709 
C 194.759378 500.573938 193.415238 497.328896 191.022988 494.936646 
C 188.630739 492.544396 185.385696 491.200256 182.002544 491.200256 
C 178.619393 491.200256 175.37435 492.544396 172.982101 494.936646 
C 170.589851 497.328896 169.245711 500.573938 169.245711 503.95709 
C 169.245711 507.340242 170.589851 510.585284 172.982101 512.977534 
C 175.37435 515.369783 178.619393 516.713924 182.002544 516.713924 
z
" clip-path="url(#p655c8496fc)" style="fill: #bebebe; stroke: #000000; stroke-linejoin: miter"/>
   </g>
   <g id="patch_51">
    <path d="M 211.99566 475.431942 
C 215.378812 475.431942 218.623854 474.087802 221.016104 471.695552 
C 223.408353 469.303302 224.752494 466.05826 224.752494 462.675108 
C 224.752494 459.291956 223.408353 456.046914 221.016104 453.654664 
C 218.623854 451.262415 215.378812 449.918274 211.99566 449.918274 
C 208.612508 449.918274 205.367466 451.262415 202.975216 453.654664 
C 200.582966 456.046914 199.238826 459.291956 199.238826 462.675108 
C 199.238826 466.05826 200.582966 469.303302 202.975216 471.695552 
C 205.367466 474.087802 208.612508 475.431942 211.99566 475.431942 
z
" clip-path="url(#p655c8496fc)" style="fill: #bebebe; stroke: #000000; stroke-linejoin: miter"/>
   </g>
   <g id="patch_52">
    <path d="M 158.836619 562.179613 
C 162.219771 562.179613 165.464813 560.835472 167.857063 558.443223 
C 170.249312 556.050973 171.593453 552.805931 171.593453 549.422779 
C 171.593453 546.039627 170.249312 542.794585 167.857063 540.402335 
C 165.464813 538.010085 162.219771 536.665945 158.836619 536.665945 
C 155.453467 536.665945 152.208425 538.010085 149.816175 540.402335 
C 147.423925 542.794585 146.079785 546.039627 146.079785 549.422779 
C 146.079785 552.805931 147.423925 556.050973 149.816175 558.443223 
C 152.208425 560.835472 155.453467 562.179613 158.836619 562.179613 
z
" clip-path="url(#p655c8496fc)" style="fill: #bebebe; stroke: #000000; stroke-linejoin: miter"/>
   </g>
   <g id="patch_53">
    <path d="M 284.057216 516.713924 
C 287.440368 516.713924 290.68541 515.369783 293.077659 512.977534 
C 295.469909 510.585284 296.81405 507.340242 296.81405 503.95709 
C 296.81405 500.573938 295.469909 497.328896 293.077659 494.936646 
C 290.68541 492.544396 287.440368 491.200256 284.057216 491.200256 
C 280.674064 491.200256 277.429022 492.544396 275.036772 494.936646 
C 272.644522 497.328896 271.300382 500.573938 271.300382 503.95709 
C 271.300382 507.340242 272.644522 510.585284 275.036772 512.977534 
C 277.429022 515.369783 280.674064 516.713924 284.057216 516.713924 
z
" clip-path="url(#p655c8496fc)" style="fill: #bebebe; stroke: #000000; stroke-linejoin: miter"/>
   </g>
   <g id="patch_54">
    <path d="M 241.988775 434.14996 
C 245.371927 434.14996 248.616969 432.80582 251.009219 430.41357 
C 253.401469 428.021321 254.745609 424.776278 254.745609 421.393126 
C 254.745609 418.009975 253.401469 414.764932 251.009219 412.372683 
C 248.616969 409.980433 245.371927 408.636293 241.988775 408.636293 
C 238.605623 408.636293 235.360581 409.980433 232.968331 412.372683 
C 230.576082 414.764932 229.231941 418.009975 229.231941 421.393126 
C 229.231941 424.776278 230.576082 428.021321 232.968331 430.41357 
C 235.360581 432.80582 238.605623 434.14996 241.988775 434.14996 
z
" clip-path="url(#p655c8496fc)" style="fill: #bebebe; stroke: #000000; stroke-linejoin: miter"/>
   </g>
   <g id="patch_55">
    <path d="M 150.465917 419.654164 
C 153.849069 419.654164 157.094111 418.310023 159.48636 415.917774 
C 161.87861 413.525524 163.222751 410.280482 163.222751 406.89733 
C 163.222751 403.514178 161.87861 400.269136 159.48636 397.876886 
C 157.094111 395.484636 153.849069 394.140496 150.465917 394.140496 
C 147.082765 394.140496 143.837723 395.484636 141.445473 397.876886 
C 139.053223 400.269136 137.709083 403.514178 137.709083 406.89733 
C 137.709083 410.280482 139.053223 413.525524 141.445473 415.917774 
C 143.837723 418.310023 147.082765 419.654164 150.465917 419.654164 
z
" clip-path="url(#p655c8496fc)" style="fill: #bebebe; stroke: #000000; stroke-linejoin: miter"/>
   </g>
   <g id="patch_56">
    <path d="M 84.942784 485.177296 
C 88.325936 485.177296 91.570978 483.833156 93.963228 481.440906 
C 96.355478 479.048656 97.699618 475.803614 97.699618 472.420462 
C 97.699618 469.03731 96.355478 465.792268 93.963228 463.400018 
C 91.570978 461.007769 88.325936 459.663628 84.942784 459.663628 
C 81.559632 459.663628 78.31459 461.007769 75.922341 463.400018 
C 73.530091 465.792268 72.18595 469.03731 72.18595 472.420462 
C 72.18595 475.803614 73.530091 479.048656 75.922341 481.440906 
C 78.31459 483.833156 81.559632 485.177296 84.942784 485.177296 
z
" clip-path="url(#p655c8496fc)" style="fill: #bebebe; stroke: #000000; stroke-linejoin: miter"/>
   </g>
   <g id="patch_57">
    <path d="M 99.438581 576.700154 
C 102.821733 576.700154 106.066775 575.356014 108.459025 572.963764 
C 110.851274 570.571515 112.195415 567.326472 112.195415 563.943321 
C 112.195415 560.560169 110.851274 557.315126 108.459025 554.922877 
C 106.066775 552.530627 102.821733 551.186487 99.438581 551.186487 
C 96.055429 551.186487 92.810387 552.530627 90.418137 554.922877 
C 88.025888 557.315126 86.681747 560.560169 86.681747 563.943321 
C 86.681747 567.326472 88.025888 570.571515 90.418137 572.963764 
C 92.810387 575.356014 96.055429 576.700154 99.438581 576.700154 
z
" clip-path="url(#p655c8496fc)" style="fill: #bebebe; stroke: #000000; stroke-linejoin: miter"/>
   </g>
   <g id="patch_58">
    <path d="M 182.002544 618.768595 
C 185.385696 618.768595 188.630739 617.424455 191.022988 615.032205 
C 193.415238 612.639955 194.759378 609.394913 194.759378 606.011761 
C 194.759378 602.628609 193.415238 599.383567 191.022988 596.991317 
C 188.630739 594.599068 185.385696 593.254927 182.002544 593.254927 
C 178.619393 593.254927 175.37435 594.599068 172.982101 596.991317 
C 170.589851 599.383567 169.245711 602.628609 169.245711 606.011761 
C 169.245711 609.394913 170.589851 612.639955 172.982101 615.032205 
C 175.37435 617.424455 178.619393 618.768595 182.002544 618.768595 
z
" clip-path="url(#p655c8496fc)" style="fill: #bebebe; stroke: #000000; stroke-linejoin: miter"/>
   </g>
   <g id="patch_59">
    <path d="M 264.566508 576.700154 
C 267.94966 576.700154 271.194702 575.356014 273.586952 572.963764 
C 275.979201 570.571515 277.323342 567.326472 277.323342 563.943321 
C 277.323342 560.560169 275.979201 557.315126 273.586952 554.922877 
C 271.194702 552.530627 267.94966 551.186487 264.566508 551.186487 
C 261.183356 551.186487 257.938314 552.530627 255.546064 554.922877 
C 253.153814 557.315126 251.809674 560.560169 251.809674 563.943321 
C 251.809674 567.326472 253.153814 570.571515 255.546064 572.963764 
C 257.938314 575.356014 261.183356 576.700154 264.566508 576.700154 
z
" clip-path="url(#p655c8496fc)" style="fill: #bebebe; stroke: #000000; stroke-linejoin: miter"/>
   </g>
   <g id="text_11">
    <!-- 0 -->
    <g transform="translate(178.185044 507.26834)scale(0.12 -0.12)">
     <use xlink:href="#DejaVuSans-30"/>
    </g>
   </g>
   <g id="text_12">
    <!-- 1 -->
    <g transform="translate(208.17816 465.986358)scale(0.12 -0.12)">
     <use xlink:href="#DejaVuSans-31"/>
    </g>
   </g>
   <g id="text_13">
    <!-- 2 -->
    <g transform="translate(155.019119 552.734029)scale(0.12 -0.12)">
     <use xlink:href="#DejaVuSans-32"/>
    </g>
   </g>
   <g id="text_14">
    <!-- 3 -->
    <g transform="translate(280.239716 507.26834)scale(0.12 -0.12)">
     <use xlink:href="#DejaVuSans-33"/>
    </g>
   </g>
   <g id="text_15">
    <!-- 4 -->
    <g transform="translate(238.171275 424.704376)scale(0.12 -0.12)">
     <use xlink:href="#DejaVuSans-34"/>
    </g>
   </g>
   <g id="text_16">
    <!-- 5 -->
    <g transform="translate(146.648417 410.20858)scale(0.12 -0.12)">
     <use xlink:href="#DejaVuSans-35"/>
    </g>
   </g>
   <g id="text_17">
    <!-- 6 -->
    <g transform="translate(81.125284 475.731712)scale(0.12 -0.12)">
     <use xlink:href="#DejaVuSans-36"/>
    </g>
   </g>
   <g id="text_18">
    <!-- 7 -->
    <g transform="translate(95.621081 567.254571)scale(0.12 -0.12)">
     <use xlink:href="#DejaVuSans-37"/>
    </g>
   </g>
   <g id="text_19">
    <!-- 8 -->
    <g transform="translate(178.185044 609.323011)scale(0.12 -0.12)">
     <use xlink:href="#DejaVuSans-38"/>
    </g>
   </g>
   <g id="text_20">
    <!-- 9 -->
    <g transform="translate(260.749008 567.254571)scale(0.12 -0.12)">
     <use xlink:href="#DejaVuSans-39"/>
    </g>
   </g>
  </g>
 </g>
 <defs>
  <clipPath id="p1ca8524b95">
   <rect x="45" y="156.291608" width="279" height="107.307692"/>
  </clipPath>
  <clipPath id="p655c8496fc">
   <rect x="60.954545" y="382.909091" width="247.090909" height="247.090909"/>
  </clipPath>
 </defs>
</svg>
