<?xml version="1.0" encoding="utf-8" standalone="no"?>
<!DOCTYPE svg PUBLIC "-//W3C//DTD SVG 1.1//EN"
  "http://www.w3.org/Graphics/SVG/1.1/DTD/svg11.dtd">
<!-- Created with matplotlib (https://matplotlib.org/) -->
<svg height="360pt" version="1.1" viewBox="0 0 360 360" width="360pt" xmlns="http://www.w3.org/2000/svg" xmlns:xlink="http://www.w3.org/1999/xlink">
 <metadata>
  <rdf:RDF xmlns:cc="http://creativecommons.org/ns#" xmlns:dc="http://purl.org/dc/elements/1.1/" xmlns:rdf="http://www.w3.org/1999/02/22-rdf-syntax-ns#">
   <cc:Work>
    <dc:type rdf:resource="http://purl.org/dc/dcmitype/StillImage"/>
    <dc:date>2022-11-13T03:06:05.126118</dc:date>
    <dc:format>image/svg+xml</dc:format>
    <dc:creator>
     <cc:Agent>
      <dc:title>Matplotlib v3.3.2, https://matplotlib.org/</dc:title>
     </cc:Agent>
    </dc:creator>
   </cc:Work>
  </rdf:RDF>
 </metadata>
 <defs>
  <style type="text/css">*{stroke-linecap:butt;stroke-linejoin:round;}</style>
 </defs>
 <g id="figure_1">
  <g id="patch_1">
   <path d="M 0 360 
L 360 360 
L 360 0 
L 0 0 
z
" style="fill:none;"/>
  </g>
  <g id="axes_1">
   <g id="patch_2">
    <path d="M 45 295.967199 
L 324 295.967199 
L 324 62.232801 
L 45 62.232801 
z
" style="fill:#ffffff;"/>
   </g>
   <g id="patch_3">
    <path clip-path="url(#p6616805c69)" d="M 163.230196 189.016887 
L 129.339298 214.978885 
" style="fill:none;stroke:#444444;stroke-linejoin:miter;stroke-width:2;"/>
   </g>
   <g id="patch_4">
    <path clip-path="url(#p6616805c69)" d="M 119.246389 222.71052 
L 132.977529 219.728247 
L 125.701066 210.229523 
z
" style="fill:#444444;"/>
   </g>
   <g id="patch_5">
    <path clip-path="url(#p6616805c69)" d="M 163.230196 189.016887 
L 198.111603 162.301329 
" style="fill:none;stroke:#444444;stroke-linejoin:miter;stroke-width:2;"/>
   </g>
   <g id="patch_6">
    <path clip-path="url(#p6616805c69)" d="M 208.20524 154.570645 
L 194.473819 157.551624 
L 201.749387 167.051034 
z
" style="fill:#444444;"/>
   </g>
   <g id="patch_7">
    <path clip-path="url(#p6616805c69)" d="M 110.570654 229.356535 
L 90.414943 220.907161 
" style="fill:none;stroke:#444444;stroke-linejoin:miter;stroke-width:2;"/>
   </g>
   <g id="patch_8">
    <path clip-path="url(#p6616805c69)" d="M 78.689567 215.991825 
L 88.101962 226.424704 
L 92.727925 215.389618 
z
" style="fill:#444444;"/>
   </g>
   <g id="patch_9">
    <path clip-path="url(#p6616805c69)" d="M 110.570654 229.356535 
L 91.316731 244.141707 
" style="fill:none;stroke:#444444;stroke-linejoin:miter;stroke-width:2;"/>
   </g>
   <g id="patch_10">
    <path clip-path="url(#p6616805c69)" d="M 81.232875 251.885145 
L 94.960517 248.88681 
L 87.672946 239.396605 
z
" style="fill:#444444;"/>
   </g>
   <g id="patch_11">
    <path clip-path="url(#p6616805c69)" d="M 110.570654 229.356535 
L 113.52575 250.988968 
" style="fill:none;stroke:#444444;stroke-linejoin:miter;stroke-width:2;"/>
   </g>
   <g id="patch_12">
    <path clip-path="url(#p6616805c69)" d="M 115.246558 263.585944 
L 119.453437 250.179217 
L 107.598063 251.798719 
z
" style="fill:#444444;"/>
   </g>
   <g id="patch_13">
    <path clip-path="url(#p6616805c69)" d="M 216.881601 147.925448 
L 232.783384 159.505163 
" style="fill:none;stroke:#444444;stroke-linejoin:miter;stroke-width:2;"/>
   </g>
   <g id="patch_14">
    <path clip-path="url(#p6616805c69)" d="M 243.061082 166.989406 
L 236.305201 154.668845 
L 229.261566 164.34148 
z
" style="fill:#444444;"/>
   </g>
   <g id="patch_15">
    <path clip-path="url(#p6616805c69)" d="M 216.881601 147.925448 
L 245.072976 126.280919 
" style="fill:none;stroke:#444444;stroke-linejoin:miter;stroke-width:2;"/>
   </g>
   <g id="patch_16">
    <path clip-path="url(#p6616805c69)" d="M 255.157481 118.538325 
L 241.429588 121.535511 
L 248.716364 131.026326 
z
" style="fill:#444444;"/>
   </g>
   <g id="patch_17">
    <path clip-path="url(#p6616805c69)" d="M 216.881601 147.925448 
L 209.81302 129.575823 
" style="fill:none;stroke:#444444;stroke-linejoin:miter;stroke-width:2;"/>
   </g>
   <g id="patch_18">
    <path clip-path="url(#p6616805c69)" d="M 205.242758 117.711688 
L 204.230182 131.726425 
L 215.395858 127.42522 
z
" style="fill:#444444;"/>
   </g>
   <g id="patch_19">
    <path clip-path="url(#p6616805c69)" d="M 263.825992 111.882891 
L 281.642517 98.191846 
" style="fill:none;stroke:#444444;stroke-linejoin:miter;stroke-width:2;"/>
   </g>
   <g id="patch_20">
    <path clip-path="url(#p6616805c69)" d="M 291.723733 90.444971 
L 277.997114 93.447985 
L 285.287919 102.935706 
z
" style="fill:#444444;"/>
   </g>
   <g id="matplotlib.axis_1"/>
   <g id="matplotlib.axis_2"/>
   <g id="patch_21">
    <path clip-path="url(#p6616805c69)" d="M 163.230196 199.945652 
C 166.128538 199.945652 168.908562 198.794128 170.957999 196.744691 
C 173.007437 194.695253 174.15896 191.91523 174.15896 189.016887 
C 174.15896 186.118545 173.007437 183.338521 170.957999 181.289084 
C 168.908562 179.239646 166.128538 178.088123 163.230196 178.088123 
C 160.331854 178.088123 157.55183 179.239646 155.502392 181.289084 
C 153.452955 183.338521 152.301431 186.118545 152.301431 189.016887 
C 152.301431 191.91523 153.452955 194.695253 155.502392 196.744691 
C 157.55183 198.794128 160.331854 199.945652 163.230196 199.945652 
z
" style="fill:#bebebe;stroke:#000000;stroke-linejoin:miter;"/>
   </g>
   <g id="patch_22">
    <path clip-path="url(#p6616805c69)" d="M 110.570654 240.285299 
C 113.468997 240.285299 116.24902 239.133776 118.298458 237.084338 
C 120.347895 235.034901 121.499419 232.254877 121.499419 229.356535 
C 121.499419 226.458193 120.347895 223.678169 118.298458 221.628731 
C 116.24902 219.579294 113.468997 218.42777 110.570654 218.42777 
C 107.672312 218.42777 104.892288 219.579294 102.842851 221.628731 
C 100.793413 223.678169 99.64189 226.458193 99.64189 229.356535 
C 99.64189 232.254877 100.793413 235.034901 102.842851 237.084338 
C 104.892288 239.133776 107.672312 240.285299 110.570654 240.285299 
z
" style="fill:#bebebe;stroke:#000000;stroke-linejoin:miter;"/>
   </g>
   <g id="patch_23">
    <path clip-path="url(#p6616805c69)" d="M 216.881601 158.854212 
C 219.779943 158.854212 222.559967 157.702689 224.609405 155.653251 
C 226.658842 153.603814 227.810366 150.82379 227.810366 147.925448 
C 227.810366 145.027106 226.658842 142.247082 224.609405 140.197644 
C 222.559967 138.148207 219.779943 136.996683 216.881601 136.996683 
C 213.983259 136.996683 211.203235 138.148207 209.153798 140.197644 
C 207.10436 142.247082 205.952837 145.027106 205.952837 147.925448 
C 205.952837 150.82379 207.10436 153.603814 209.153798 155.653251 
C 211.203235 157.702689 213.983259 158.854212 216.881601 158.854212 
z
" style="fill:#bebebe;stroke:#000000;stroke-linejoin:miter;"/>
   </g>
   <g id="patch_24">
    <path clip-path="url(#p6616805c69)" d="M 68.610583 222.695429 
C 71.508925 222.695429 74.288949 221.543906 76.338386 219.494468 
C 78.387824 217.445031 79.539347 214.665007 79.539347 211.766665 
C 79.539347 208.868323 78.387824 206.088299 76.338386 204.038861 
C 74.288949 201.989424 71.508925 200.8379 68.610583 200.8379 
C 65.71224 200.8379 62.932217 201.989424 60.882779 204.038861 
C 58.833342 206.088299 57.681818 208.868323 57.681818 211.766665 
C 57.681818 214.665007 58.833342 217.445031 60.882779 219.494468 
C 62.932217 221.543906 65.71224 222.695429 68.610583 222.695429 
z
" style="fill:#bebebe;stroke:#000000;stroke-linejoin:miter;"/>
   </g>
   <g id="patch_25">
    <path clip-path="url(#p6616805c69)" d="M 72.564921 269.47007 
C 75.463263 269.47007 78.243287 268.318546 80.292725 266.269109 
C 82.342162 264.219671 83.493686 261.439647 83.493686 258.541305 
C 83.493686 255.642963 82.342162 252.862939 80.292725 250.813502 
C 78.243287 248.764064 75.463263 247.612541 72.564921 247.612541 
C 69.666579 247.612541 66.886555 248.764064 64.837118 250.813502 
C 62.78768 252.862939 61.636157 255.642963 61.636157 258.541305 
C 61.636157 261.439647 62.78768 264.219671 64.837118 266.269109 
C 66.886555 268.318546 69.666579 269.47007 72.564921 269.47007 
z
" style="fill:#bebebe;stroke:#000000;stroke-linejoin:miter;"/>
   </g>
   <g id="patch_26">
    <path clip-path="url(#p6616805c69)" d="M 116.725743 285.342908 
C 119.624085 285.342908 122.404109 284.191385 124.453547 282.141947 
C 126.502984 280.09251 127.654508 277.312486 127.654508 274.414144 
C 127.654508 271.515801 126.502984 268.735778 124.453547 266.68634 
C 122.404109 264.636903 119.624085 263.485379 116.725743 263.485379 
C 113.827401 263.485379 111.047377 264.636903 108.99794 266.68634 
C 106.948502 268.735778 105.796979 271.515801 105.796979 274.414144 
C 105.796979 277.312486 106.948502 280.09251 108.99794 282.141947 
C 111.047377 284.191385 113.827401 285.342908 116.725743 285.342908 
z
" style="fill:#bebebe;stroke:#000000;stroke-linejoin:miter;"/>
   </g>
   <g id="patch_27">
    <path clip-path="url(#p6616805c69)" d="M 251.89566 184.351531 
C 254.794002 184.351531 257.574026 183.200007 259.623464 181.15057 
C 261.672901 179.101133 262.824425 176.321109 262.824425 173.422766 
C 262.824425 170.524424 261.672901 167.7444 259.623464 165.694963 
C 257.574026 163.645525 254.794002 162.494002 251.89566 162.494002 
C 248.997318 162.494002 246.217294 163.645525 244.167856 165.694963 
C 242.118419 167.7444 240.966895 170.524424 240.966895 173.422766 
C 240.966895 176.321109 242.118419 179.101133 244.167856 181.15057 
C 246.217294 183.200007 248.997318 184.351531 251.89566 184.351531 
z
" style="fill:#bebebe;stroke:#000000;stroke-linejoin:miter;"/>
   </g>
   <g id="patch_28">
    <path clip-path="url(#p6616805c69)" d="M 263.825992 122.811656 
C 266.724334 122.811656 269.504358 121.660132 271.553796 119.610695 
C 273.603233 117.561257 274.754757 114.781233 274.754757 111.882891 
C 274.754757 108.984549 273.603233 106.204525 271.553796 104.155087 
C 269.504358 102.10565 266.724334 100.954126 263.825992 100.954126 
C 260.92765 100.954126 258.147626 102.10565 256.098188 104.155087 
C 254.048751 106.204525 252.897227 108.984549 252.897227 111.882891 
C 252.897227 114.781233 254.048751 117.561257 256.098188 119.610695 
C 258.147626 121.660132 260.92765 122.811656 263.825992 122.811656 
z
" style="fill:#bebebe;stroke:#000000;stroke-linejoin:miter;"/>
   </g>
   <g id="patch_29">
    <path clip-path="url(#p6616805c69)" d="M 201.314219 118.442194 
C 204.212561 118.442194 206.992585 117.290671 209.042023 115.241233 
C 211.09146 113.191796 212.242984 110.411772 212.242984 107.51343 
C 212.242984 104.615087 211.09146 101.835064 209.042023 99.785626 
C 206.992585 97.736189 204.212561 96.584665 201.314219 96.584665 
C 198.415877 96.584665 195.635853 97.736189 193.586416 99.785626 
C 191.536978 101.835064 190.385455 104.615087 190.385455 107.51343 
C 190.385455 110.411772 191.536978 113.191796 193.586416 115.241233 
C 195.635853 117.290671 198.415877 118.442194 201.314219 118.442194 
z
" style="fill:#bebebe;stroke:#000000;stroke-linejoin:miter;"/>
   </g>
   <g id="patch_30">
    <path clip-path="url(#p6616805c69)" d="M 300.389417 94.714621 
C 303.28776 94.714621 306.067783 93.563097 308.117221 91.51366 
C 310.166658 89.464222 311.318182 86.684199 311.318182 83.785856 
C 311.318182 80.887514 310.166658 78.10749 308.117221 76.058053 
C 306.067783 74.008615 303.28776 72.857092 300.389417 72.857092 
C 297.491075 72.857092 294.711051 74.008615 292.661614 76.058053 
C 290.612176 78.10749 289.460653 80.887514 289.460653 83.785856 
C 289.460653 86.684199 290.612176 89.464222 292.661614 91.51366 
C 294.711051 93.563097 297.491075 94.714621 300.389417 94.714621 
z
" style="fill:#bebebe;stroke:#000000;stroke-linejoin:miter;"/>
   </g>
   <g id="text_1">
    <!-- 0 -->
    <g transform="translate(159.412696 192.328137)scale(0.12 -0.12)">
     <defs>
      <path d="M 31.78125 66.40625 
Q 24.171875 66.40625 20.328125 58.90625 
Q 16.5 51.421875 16.5 36.375 
Q 16.5 21.390625 20.328125 13.890625 
Q 24.171875 6.390625 31.78125 6.390625 
Q 39.453125 6.390625 43.28125 13.890625 
Q 47.125 21.390625 47.125 36.375 
Q 47.125 51.421875 43.28125 58.90625 
Q 39.453125 66.40625 31.78125 66.40625 
z
M 31.78125 74.21875 
Q 44.046875 74.21875 50.515625 64.515625 
Q 56.984375 54.828125 56.984375 36.375 
Q 56.984375 17.96875 50.515625 8.265625 
Q 44.046875 -1.421875 31.78125 -1.421875 
Q 19.53125 -1.421875 13.0625 8.265625 
Q 6.59375 17.96875 6.59375 36.375 
Q 6.59375 54.828125 13.0625 64.515625 
Q 19.53125 74.21875 31.78125 74.21875 
z
" id="DejaVuSans-48"/>
     </defs>
     <use xlink:href="#DejaVuSans-48"/>
    </g>
   </g>
   <g id="text_2">
    <!-- 1 -->
    <g transform="translate(106.753154 232.667785)scale(0.12 -0.12)">
     <defs>
      <path d="M 12.40625 8.296875 
L 28.515625 8.296875 
L 28.515625 63.921875 
L 10.984375 60.40625 
L 10.984375 69.390625 
L 28.421875 72.90625 
L 38.28125 72.90625 
L 38.28125 8.296875 
L 54.390625 8.296875 
L 54.390625 0 
L 12.40625 0 
z
" id="DejaVuSans-49"/>
     </defs>
     <use xlink:href="#DejaVuSans-49"/>
    </g>
   </g>
   <g id="text_3">
    <!-- 2 -->
    <g transform="translate(213.064101 151.236698)scale(0.12 -0.12)">
     <defs>
      <path d="M 19.1875 8.296875 
L 53.609375 8.296875 
L 53.609375 0 
L 7.328125 0 
L 7.328125 8.296875 
Q 12.9375 14.109375 22.625 23.890625 
Q 32.328125 33.6875 34.8125 36.53125 
Q 39.546875 41.84375 41.421875 45.53125 
Q 43.3125 49.21875 43.3125 52.78125 
Q 43.3125 58.59375 39.234375 62.25 
Q 35.15625 65.921875 28.609375 65.921875 
Q 23.96875 65.921875 18.8125 64.3125 
Q 13.671875 62.703125 7.8125 59.421875 
L 7.8125 69.390625 
Q 13.765625 71.78125 18.9375 73 
Q 24.125 74.21875 28.421875 74.21875 
Q 39.75 74.21875 46.484375 68.546875 
Q 53.21875 62.890625 53.21875 53.421875 
Q 53.21875 48.921875 51.53125 44.890625 
Q 49.859375 40.875 45.40625 35.40625 
Q 44.1875 33.984375 37.640625 27.21875 
Q 31.109375 20.453125 19.1875 8.296875 
z
" id="DejaVuSans-50"/>
     </defs>
     <use xlink:href="#DejaVuSans-50"/>
    </g>
   </g>
   <g id="text_4">
    <!-- 3 -->
    <g transform="translate(64.793083 215.077915)scale(0.12 -0.12)">
     <defs>
      <path d="M 40.578125 39.3125 
Q 47.65625 37.796875 51.625 33 
Q 55.609375 28.21875 55.609375 21.1875 
Q 55.609375 10.40625 48.1875 4.484375 
Q 40.765625 -1.421875 27.09375 -1.421875 
Q 22.515625 -1.421875 17.65625 -0.515625 
Q 12.796875 0.390625 7.625 2.203125 
L 7.625 11.71875 
Q 11.71875 9.328125 16.59375 8.109375 
Q 21.484375 6.890625 26.8125 6.890625 
Q 36.078125 6.890625 40.9375 10.546875 
Q 45.796875 14.203125 45.796875 21.1875 
Q 45.796875 27.640625 41.28125 31.265625 
Q 36.765625 34.90625 28.71875 34.90625 
L 20.21875 34.90625 
L 20.21875 43.015625 
L 29.109375 43.015625 
Q 36.375 43.015625 40.234375 45.921875 
Q 44.09375 48.828125 44.09375 54.296875 
Q 44.09375 59.90625 40.109375 62.90625 
Q 36.140625 65.921875 28.71875 65.921875 
Q 24.65625 65.921875 20.015625 65.03125 
Q 15.375 64.15625 9.8125 62.3125 
L 9.8125 71.09375 
Q 15.4375 72.65625 20.34375 73.4375 
Q 25.25 74.21875 29.59375 74.21875 
Q 40.828125 74.21875 47.359375 69.109375 
Q 53.90625 64.015625 53.90625 55.328125 
Q 53.90625 49.265625 50.4375 45.09375 
Q 46.96875 40.921875 40.578125 39.3125 
z
" id="DejaVuSans-51"/>
     </defs>
     <use xlink:href="#DejaVuSans-51"/>
    </g>
   </g>
   <g id="text_5">
    <!-- 4 -->
    <g transform="translate(68.747421 261.852555)scale(0.12 -0.12)">
     <defs>
      <path d="M 37.796875 64.3125 
L 12.890625 25.390625 
L 37.796875 25.390625 
z
M 35.203125 72.90625 
L 47.609375 72.90625 
L 47.609375 25.390625 
L 58.015625 25.390625 
L 58.015625 17.1875 
L 47.609375 17.1875 
L 47.609375 0 
L 37.796875 0 
L 37.796875 17.1875 
L 4.890625 17.1875 
L 4.890625 26.703125 
z
" id="DejaVuSans-52"/>
     </defs>
     <use xlink:href="#DejaVuSans-52"/>
    </g>
   </g>
   <g id="text_6">
    <!-- 5 -->
    <g transform="translate(112.908243 277.725394)scale(0.12 -0.12)">
     <defs>
      <path d="M 10.796875 72.90625 
L 49.515625 72.90625 
L 49.515625 64.59375 
L 19.828125 64.59375 
L 19.828125 46.734375 
Q 21.96875 47.46875 24.109375 47.828125 
Q 26.265625 48.1875 28.421875 48.1875 
Q 40.625 48.1875 47.75 41.5 
Q 54.890625 34.8125 54.890625 23.390625 
Q 54.890625 11.625 47.5625 5.09375 
Q 40.234375 -1.421875 26.90625 -1.421875 
Q 22.3125 -1.421875 17.546875 -0.640625 
Q 12.796875 0.140625 7.71875 1.703125 
L 7.71875 11.625 
Q 12.109375 9.234375 16.796875 8.0625 
Q 21.484375 6.890625 26.703125 6.890625 
Q 35.15625 6.890625 40.078125 11.328125 
Q 45.015625 15.765625 45.015625 23.390625 
Q 45.015625 31 40.078125 35.4375 
Q 35.15625 39.890625 26.703125 39.890625 
Q 22.75 39.890625 18.8125 39.015625 
Q 14.890625 38.140625 10.796875 36.28125 
z
" id="DejaVuSans-53"/>
     </defs>
     <use xlink:href="#DejaVuSans-53"/>
    </g>
   </g>
   <g id="text_7">
    <!-- 6 -->
    <g transform="translate(248.07816 176.734016)scale(0.12 -0.12)">
     <defs>
      <path d="M 33.015625 40.375 
Q 26.375 40.375 22.484375 35.828125 
Q 18.609375 31.296875 18.609375 23.390625 
Q 18.609375 15.53125 22.484375 10.953125 
Q 26.375 6.390625 33.015625 6.390625 
Q 39.65625 6.390625 43.53125 10.953125 
Q 47.40625 15.53125 47.40625 23.390625 
Q 47.40625 31.296875 43.53125 35.828125 
Q 39.65625 40.375 33.015625 40.375 
z
M 52.59375 71.296875 
L 52.59375 62.3125 
Q 48.875 64.0625 45.09375 64.984375 
Q 41.3125 65.921875 37.59375 65.921875 
Q 27.828125 65.921875 22.671875 59.328125 
Q 17.53125 52.734375 16.796875 39.40625 
Q 19.671875 43.65625 24.015625 45.921875 
Q 28.375 48.1875 33.59375 48.1875 
Q 44.578125 48.1875 50.953125 41.515625 
Q 57.328125 34.859375 57.328125 23.390625 
Q 57.328125 12.15625 50.6875 5.359375 
Q 44.046875 -1.421875 33.015625 -1.421875 
Q 20.359375 -1.421875 13.671875 8.265625 
Q 6.984375 17.96875 6.984375 36.375 
Q 6.984375 53.65625 15.1875 63.9375 
Q 23.390625 74.21875 37.203125 74.21875 
Q 40.921875 74.21875 44.703125 73.484375 
Q 48.484375 72.75 52.59375 71.296875 
z
" id="DejaVuSans-54"/>
     </defs>
     <use xlink:href="#DejaVuSans-54"/>
    </g>
   </g>
   <g id="text_8">
    <!-- 7 -->
    <g transform="translate(260.008492 115.194141)scale(0.12 -0.12)">
     <defs>
      <path d="M 8.203125 72.90625 
L 55.078125 72.90625 
L 55.078125 68.703125 
L 28.609375 0 
L 18.3125 0 
L 43.21875 64.59375 
L 8.203125 64.59375 
z
" id="DejaVuSans-55"/>
     </defs>
     <use xlink:href="#DejaVuSans-55"/>
    </g>
   </g>
   <g id="text_9">
    <!-- 8 -->
    <g transform="translate(197.496719 110.82468)scale(0.12 -0.12)">
     <defs>
      <path d="M 31.78125 34.625 
Q 24.75 34.625 20.71875 30.859375 
Q 16.703125 27.09375 16.703125 20.515625 
Q 16.703125 13.921875 20.71875 10.15625 
Q 24.75 6.390625 31.78125 6.390625 
Q 38.8125 6.390625 42.859375 10.171875 
Q 46.921875 13.96875 46.921875 20.515625 
Q 46.921875 27.09375 42.890625 30.859375 
Q 38.875 34.625 31.78125 34.625 
z
M 21.921875 38.8125 
Q 15.578125 40.375 12.03125 44.71875 
Q 8.5 49.078125 8.5 55.328125 
Q 8.5 64.0625 14.71875 69.140625 
Q 20.953125 74.21875 31.78125 74.21875 
Q 42.671875 74.21875 48.875 69.140625 
Q 55.078125 64.0625 55.078125 55.328125 
Q 55.078125 49.078125 51.53125 44.71875 
Q 48 40.375 41.703125 38.8125 
Q 48.828125 37.15625 52.796875 32.3125 
Q 56.78125 27.484375 56.78125 20.515625 
Q 56.78125 9.90625 50.3125 4.234375 
Q 43.84375 -1.421875 31.78125 -1.421875 
Q 19.734375 -1.421875 13.25 4.234375 
Q 6.78125 9.90625 6.78125 20.515625 
Q 6.78125 27.484375 10.78125 32.3125 
Q 14.796875 37.15625 21.921875 38.8125 
z
M 18.3125 54.390625 
Q 18.3125 48.734375 21.84375 45.5625 
Q 25.390625 42.390625 31.78125 42.390625 
Q 38.140625 42.390625 41.71875 45.5625 
Q 45.3125 48.734375 45.3125 54.390625 
Q 45.3125 60.0625 41.71875 63.234375 
Q 38.140625 66.40625 31.78125 66.40625 
Q 25.390625 66.40625 21.84375 63.234375 
Q 18.3125 60.0625 18.3125 54.390625 
z
" id="DejaVuSans-56"/>
     </defs>
     <use xlink:href="#DejaVuSans-56"/>
    </g>
   </g>
   <g id="text_10">
    <!-- 9 -->
    <g transform="translate(296.571917 87.097106)scale(0.12 -0.12)">
     <defs>
      <path d="M 10.984375 1.515625 
L 10.984375 10.5 
Q 14.703125 8.734375 18.5 7.8125 
Q 22.3125 6.890625 25.984375 6.890625 
Q 35.75 6.890625 40.890625 13.453125 
Q 46.046875 20.015625 46.78125 33.40625 
Q 43.953125 29.203125 39.59375 26.953125 
Q 35.25 24.703125 29.984375 24.703125 
Q 19.046875 24.703125 12.671875 31.3125 
Q 6.296875 37.9375 6.296875 49.421875 
Q 6.296875 60.640625 12.9375 67.421875 
Q 19.578125 74.21875 30.609375 74.21875 
Q 43.265625 74.21875 49.921875 64.515625 
Q 56.59375 54.828125 56.59375 36.375 
Q 56.59375 19.140625 48.40625 8.859375 
Q 40.234375 -1.421875 26.421875 -1.421875 
Q 22.703125 -1.421875 18.890625 -0.6875 
Q 15.09375 0.046875 10.984375 1.515625 
z
M 30.609375 32.421875 
Q 37.25 32.421875 41.125 36.953125 
Q 45.015625 41.5 45.015625 49.421875 
Q 45.015625 57.28125 41.125 61.84375 
Q 37.25 66.40625 30.609375 66.40625 
Q 23.96875 66.40625 20.09375 61.84375 
Q 16.21875 57.28125 16.21875 49.421875 
Q 16.21875 41.5 20.09375 36.953125 
Q 23.96875 32.421875 30.609375 32.421875 
z
" id="DejaVuSans-57"/>
     </defs>
     <use xlink:href="#DejaVuSans-57"/>
    </g>
   </g>
  </g>
 </g>
 <defs>
  <clipPath id="p6616805c69">
   <rect height="233.734398" width="279" x="45" y="62.232801"/>
  </clipPath>
 </defs>
</svg>
