<?xml version="1.0" encoding="utf-8" standalone="no"?>
<!DOCTYPE svg PUBLIC "-//W3C//DTD SVG 1.1//EN"
  "http://www.w3.org/Graphics/SVG/1.1/DTD/svg11.dtd">
<svg xmlns:xlink="http://www.w3.org/1999/xlink" width="432pt" height="720pt" viewBox="0 0 432 720" xmlns="http://www.w3.org/2000/svg" version="1.1">
 <metadata>
  <rdf:RDF xmlns:dc="http://purl.org/dc/elements/1.1/" xmlns:cc="http://creativecommons.org/ns#" xmlns:rdf="http://www.w3.org/1999/02/22-rdf-syntax-ns#">
   <cc:Work>
    <dc:type rdf:resource="http://purl.org/dc/dcmitype/StillImage"/>
    <dc:date>2023-10-02T17:09:42.829213</dc:date>
    <dc:format>image/svg+xml</dc:format>
    <dc:creator>
     <cc:Agent>
      <dc:title>Matplotlib v3.5.1, https://matplotlib.org/</dc:title>
     </cc:Agent>
    </dc:creator>
   </cc:Work>
  </rdf:RDF>
 </metadata>
 <defs>
  <style type="text/css">*{stroke-linejoin: round; stroke-linecap: butt}</style>
 </defs>
 <g id="figure_1">
  <g id="patch_1">
   <path d="M 0 720 
L 432 720 
L 432 0 
L 0 0 
L 0 720 
z
" style="fill: none"/>
  </g>
  <g id="axes_1">
   <g id="patch_2">
    <path d="M 10.8 207.31958 
L 421.2 207.31958 
L 421.2 49.473427 
L 10.8 49.473427 
z
" style="fill: #ffffff"/>
   </g>
   <g id="patch_3">
    <path d="M 216 70.997902 
L 121.005434 118.495185 
" clip-path="url(#p6d40c6a4cc)" style="fill: none; stroke: #444444; stroke-width: 2; stroke-linejoin: miter"/>
   </g>
   <g id="patch_4">
    <path d="M 114.037515 121.979145 
L 122.644861 121.774039 
L 119.366007 115.216331 
z
" clip-path="url(#p6d40c6a4cc)" style="fill: #444444"/>
   </g>
   <g id="patch_5">
    <path d="M 216 70.997902 
L 283.676291 116.115429 
" clip-path="url(#p6d40c6a4cc)" style="fill: none; stroke: #444444; stroke-width: 2; stroke-linejoin: miter"/>
   </g>
   <g id="patch_6">
    <path d="M 290.158271 120.43675 
L 285.70975 113.065241 
L 281.642832 119.165618 
z
" clip-path="url(#p6d40c6a4cc)" style="fill: #444444"/>
   </g>
   <g id="patch_7">
    <path d="M 101.202797 128.396503 
L 142.946039 170.139746 
" clip-path="url(#p6d40c6a4cc)" style="fill: none; stroke: #444444; stroke-width: 2; stroke-linejoin: miter"/>
   </g>
   <g id="patch_8">
    <path d="M 148.454664 175.64837 
L 145.538201 167.547584 
L 140.353877 172.731907 
z
" clip-path="url(#p6d40c6a4cc)" style="fill: #444444"/>
   </g>
   <g id="patch_9">
    <path d="M 101.202797 128.396503 
L 59.459555 170.139746 
" clip-path="url(#p6d40c6a4cc)" style="fill: none; stroke: #444444; stroke-width: 2; stroke-linejoin: miter"/>
   </g>
   <g id="patch_10">
    <path d="M 53.950931 175.64837 
L 62.051717 172.731907 
L 56.867393 167.547584 
z
" clip-path="url(#p6d40c6a4cc)" style="fill: #444444"/>
   </g>
   <g id="patch_11">
    <path d="M 101.202797 128.396503 
L 101.202797 163.655083 
" clip-path="url(#p6d40c6a4cc)" style="fill: none; stroke: #444444; stroke-width: 2; stroke-linejoin: miter"/>
   </g>
   <g id="patch_12">
    <path d="M 101.202797 171.445455 
L 104.868668 163.655083 
L 97.536927 163.655083 
z
" clip-path="url(#p6d40c6a4cc)" style="fill: #444444"/>
   </g>
   <g id="patch_13">
    <path d="M 302.097902 128.396503 
L 234.421611 173.514031 
" clip-path="url(#p6d40c6a4cc)" style="fill: none; stroke: #444444; stroke-width: 2; stroke-linejoin: miter"/>
   </g>
   <g id="patch_14">
    <path d="M 227.939631 177.835351 
L 236.45507 176.564219 
L 232.388152 170.463842 
z
" clip-path="url(#p6d40c6a4cc)" style="fill: #444444"/>
   </g>
   <g id="patch_15">
    <path d="M 302.097902 128.396503 
L 283.29992 165.992468 
" clip-path="url(#p6d40c6a4cc)" style="fill: none; stroke: #444444; stroke-width: 2; stroke-linejoin: miter"/>
   </g>
   <g id="patch_16">
    <path d="M 279.81596 172.960387 
L 286.578774 167.631895 
L 280.021066 164.353041 
z
" clip-path="url(#p6d40c6a4cc)" style="fill: #444444"/>
   </g>
   <g id="patch_17">
    <path d="M 302.097902 128.396503 
L 320.895884 165.992468 
" clip-path="url(#p6d40c6a4cc)" style="fill: none; stroke: #444444; stroke-width: 2; stroke-linejoin: miter"/>
   </g>
   <g id="patch_18">
    <path d="M 324.379844 172.960387 
L 324.174738 164.353041 
L 317.61703 167.631895 
z
" clip-path="url(#p6d40c6a4cc)" style="fill: #444444"/>
   </g>
   <g id="patch_19">
    <path d="M 302.097902 128.396503 
L 369.774193 173.514031 
" clip-path="url(#p6d40c6a4cc)" style="fill: none; stroke: #444444; stroke-width: 2; stroke-linejoin: miter"/>
   </g>
   <g id="patch_20">
    <path d="M 376.256173 177.835351 
L 371.807652 170.463842 
L 367.740734 176.564219 
z
" clip-path="url(#p6d40c6a4cc)" style="fill: #444444"/>
   </g>
   <g id="matplotlib.axis_1"/>
   <g id="matplotlib.axis_2"/>
   <g id="patch_21">
    <path d="M 216 85.347552 
C 219.805572 85.347552 223.455789 83.835583 226.146735 81.144637 
C 228.837681 78.453692 230.34965 74.803474 230.34965 70.997902 
C 230.34965 67.19233 228.837681 63.542113 226.146735 60.851167 
C 223.455789 58.160221 219.805572 56.648252 216 56.648252 
C 212.194428 56.648252 208.544211 58.160221 205.853265 60.851167 
C 203.162319 63.542113 201.65035 67.19233 201.65035 70.997902 
C 201.65035 74.803474 203.162319 78.453692 205.853265 81.144637 
C 208.544211 83.835583 212.194428 85.347552 216 85.347552 
z
" clip-path="url(#p6d40c6a4cc)" style="fill: #bebebe; stroke: #000000; stroke-linejoin: miter"/>
   </g>
   <g id="patch_22">
    <path d="M 101.202797 142.746154 
C 105.008369 142.746154 108.658587 141.234184 111.349532 138.543239 
C 114.040478 135.852293 115.552448 132.202075 115.552448 128.396503 
C 115.552448 124.590932 114.040478 120.940714 111.349532 118.249768 
C 108.658587 115.558823 105.008369 114.046853 101.202797 114.046853 
C 97.397225 114.046853 93.747008 115.558823 91.056062 118.249768 
C 88.365117 120.940714 86.853147 124.590932 86.853147 128.396503 
C 86.853147 132.202075 88.365117 135.852293 91.056062 138.543239 
C 93.747008 141.234184 97.397225 142.746154 101.202797 142.746154 
z
" clip-path="url(#p6d40c6a4cc)" style="fill: #bebebe; stroke: #000000; stroke-linejoin: miter"/>
   </g>
   <g id="patch_23">
    <path d="M 302.097902 142.746154 
C 305.903474 142.746154 309.553692 141.234184 312.244637 138.543239 
C 314.935583 135.852293 316.447552 132.202075 316.447552 128.396503 
C 316.447552 124.590932 314.935583 120.940714 312.244637 118.249768 
C 309.553692 115.558823 305.903474 114.046853 302.097902 114.046853 
C 298.29233 114.046853 294.642113 115.558823 291.951167 118.249768 
C 289.260221 120.940714 287.748252 124.590932 287.748252 128.396503 
C 287.748252 132.202075 289.260221 135.852293 291.951167 138.543239 
C 294.642113 141.234184 298.29233 142.746154 302.097902 142.746154 
z
" clip-path="url(#p6d40c6a4cc)" style="fill: #bebebe; stroke: #000000; stroke-linejoin: miter"/>
   </g>
   <g id="patch_24">
    <path d="M 158.601399 200.144755 
C 162.40697 200.144755 166.057188 198.632786 168.748134 195.94184 
C 171.439079 193.250894 172.951049 189.600677 172.951049 185.795105 
C 172.951049 181.989533 171.439079 178.339315 168.748134 175.64837 
C 166.057188 172.957424 162.40697 171.445455 158.601399 171.445455 
C 154.795827 171.445455 151.145609 172.957424 148.454664 175.64837 
C 145.763718 178.339315 144.251748 181.989533 144.251748 185.795105 
C 144.251748 189.600677 145.763718 193.250894 148.454664 195.94184 
C 151.145609 198.632786 154.795827 200.144755 158.601399 200.144755 
z
" clip-path="url(#p6d40c6a4cc)" style="fill: #bebebe; stroke: #000000; stroke-linejoin: miter"/>
   </g>
   <g id="patch_25">
    <path d="M 43.804196 200.144755 
C 47.609768 200.144755 51.259985 198.632786 53.950931 195.94184 
C 56.641876 193.250894 58.153846 189.600677 58.153846 185.795105 
C 58.153846 181.989533 56.641876 178.339315 53.950931 175.64837 
C 51.259985 172.957424 47.609768 171.445455 43.804196 171.445455 
C 39.998624 171.445455 36.348406 172.957424 33.657461 175.64837 
C 30.966515 178.339315 29.454545 181.989533 29.454545 185.795105 
C 29.454545 189.600677 30.966515 193.250894 33.657461 195.94184 
C 36.348406 198.632786 39.998624 200.144755 43.804196 200.144755 
z
" clip-path="url(#p6d40c6a4cc)" style="fill: #bebebe; stroke: #000000; stroke-linejoin: miter"/>
   </g>
   <g id="patch_26">
    <path d="M 101.202797 200.144755 
C 105.008369 200.144755 108.658587 198.632786 111.349532 195.94184 
C 114.040478 193.250894 115.552448 189.600677 115.552448 185.795105 
C 115.552448 181.989533 114.040478 178.339315 111.349532 175.64837 
C 108.658587 172.957424 105.008369 171.445455 101.202797 171.445455 
C 97.397225 171.445455 93.747008 172.957424 91.056062 175.64837 
C 88.365117 178.339315 86.853147 181.989533 86.853147 185.795105 
C 86.853147 189.600677 88.365117 193.250894 91.056062 195.94184 
C 93.747008 198.632786 97.397225 200.144755 101.202797 200.144755 
z
" clip-path="url(#p6d40c6a4cc)" style="fill: #bebebe; stroke: #000000; stroke-linejoin: miter"/>
   </g>
   <g id="patch_27">
    <path d="M 216 200.144755 
C 219.805572 200.144755 223.455789 198.632786 226.146735 195.94184 
C 228.837681 193.250894 230.34965 189.600677 230.34965 185.795105 
C 230.34965 181.989533 228.837681 178.339315 226.146735 175.64837 
C 223.455789 172.957424 219.805572 171.445455 216 171.445455 
C 212.194428 171.445455 208.544211 172.957424 205.853265 175.64837 
C 203.162319 178.339315 201.65035 181.989533 201.65035 185.795105 
C 201.65035 189.600677 203.162319 193.250894 205.853265 195.94184 
C 208.544211 198.632786 212.194428 200.144755 216 200.144755 
z
" clip-path="url(#p6d40c6a4cc)" style="fill: #bebebe; stroke: #000000; stroke-linejoin: miter"/>
   </g>
   <g id="patch_28">
    <path d="M 273.398601 200.144755 
C 277.204173 200.144755 280.854391 198.632786 283.545336 195.94184 
C 286.236282 193.250894 287.748252 189.600677 287.748252 185.795105 
C 287.748252 181.989533 286.236282 178.339315 283.545336 175.64837 
C 280.854391 172.957424 277.204173 171.445455 273.398601 171.445455 
C 269.59303 171.445455 265.942812 172.957424 263.251866 175.64837 
C 260.560921 178.339315 259.048951 181.989533 259.048951 185.795105 
C 259.048951 189.600677 260.560921 193.250894 263.251866 195.94184 
C 265.942812 198.632786 269.59303 200.144755 273.398601 200.144755 
z
" clip-path="url(#p6d40c6a4cc)" style="fill: #bebebe; stroke: #000000; stroke-linejoin: miter"/>
   </g>
   <g id="patch_29">
    <path d="M 330.797203 200.144755 
C 334.602775 200.144755 338.252992 198.632786 340.943938 195.94184 
C 343.634883 193.250894 345.146853 189.600677 345.146853 185.795105 
C 345.146853 181.989533 343.634883 178.339315 340.943938 175.64837 
C 338.252992 172.957424 334.602775 171.445455 330.797203 171.445455 
C 326.991631 171.445455 323.341413 172.957424 320.650468 175.64837 
C 317.959522 178.339315 316.447552 181.989533 316.447552 185.795105 
C 316.447552 189.600677 317.959522 193.250894 320.650468 195.94184 
C 323.341413 198.632786 326.991631 200.144755 330.797203 200.144755 
z
" clip-path="url(#p6d40c6a4cc)" style="fill: #bebebe; stroke: #000000; stroke-linejoin: miter"/>
   </g>
   <g id="patch_30">
    <path d="M 388.195804 200.144755 
C 392.001376 200.144755 395.651594 198.632786 398.342539 195.94184 
C 401.033485 193.250894 402.545455 189.600677 402.545455 185.795105 
C 402.545455 181.989533 401.033485 178.339315 398.342539 175.64837 
C 395.651594 172.957424 392.001376 171.445455 388.195804 171.445455 
C 384.390232 171.445455 380.740015 172.957424 378.049069 175.64837 
C 375.358124 178.339315 373.846154 181.989533 373.846154 185.795105 
C 373.846154 189.600677 375.358124 193.250894 378.049069 195.94184 
C 380.740015 198.632786 384.390232 200.144755 388.195804 200.144755 
z
" clip-path="url(#p6d40c6a4cc)" style="fill: #bebebe; stroke: #000000; stroke-linejoin: miter"/>
   </g>
   <g id="text_1">
    <!-- 0 -->
    <g transform="translate(212.1825 74.309152)scale(0.12 -0.12)">
     <defs>
      <path id="DejaVuSans-30" d="M 2034 4250 
Q 1547 4250 1301 3770 
Q 1056 3291 1056 2328 
Q 1056 1369 1301 889 
Q 1547 409 2034 409 
Q 2525 409 2770 889 
Q 3016 1369 3016 2328 
Q 3016 3291 2770 3770 
Q 2525 4250 2034 4250 
z
M 2034 4750 
Q 2819 4750 3233 4129 
Q 3647 3509 3647 2328 
Q 3647 1150 3233 529 
Q 2819 -91 2034 -91 
Q 1250 -91 836 529 
Q 422 1150 422 2328 
Q 422 3509 836 4129 
Q 1250 4750 2034 4750 
z
" transform="scale(0.015625)"/>
     </defs>
     <use xlink:href="#DejaVuSans-30"/>
    </g>
   </g>
   <g id="text_2">
    <!-- 1 -->
    <g transform="translate(97.385297 131.707753)scale(0.12 -0.12)">
     <defs>
      <path id="DejaVuSans-31" d="M 794 531 
L 1825 531 
L 1825 4091 
L 703 3866 
L 703 4441 
L 1819 4666 
L 2450 4666 
L 2450 531 
L 3481 531 
L 3481 0 
L 794 0 
L 794 531 
z
" transform="scale(0.015625)"/>
     </defs>
     <use xlink:href="#DejaVuSans-31"/>
    </g>
   </g>
   <g id="text_3">
    <!-- 2 -->
    <g transform="translate(298.280402 131.707753)scale(0.12 -0.12)">
     <defs>
      <path id="DejaVuSans-32" d="M 1228 531 
L 3431 531 
L 3431 0 
L 469 0 
L 469 531 
Q 828 903 1448 1529 
Q 2069 2156 2228 2338 
Q 2531 2678 2651 2914 
Q 2772 3150 2772 3378 
Q 2772 3750 2511 3984 
Q 2250 4219 1831 4219 
Q 1534 4219 1204 4116 
Q 875 4013 500 3803 
L 500 4441 
Q 881 4594 1212 4672 
Q 1544 4750 1819 4750 
Q 2544 4750 2975 4387 
Q 3406 4025 3406 3419 
Q 3406 3131 3298 2873 
Q 3191 2616 2906 2266 
Q 2828 2175 2409 1742 
Q 1991 1309 1228 531 
z
" transform="scale(0.015625)"/>
     </defs>
     <use xlink:href="#DejaVuSans-32"/>
    </g>
   </g>
   <g id="text_4">
    <!-- 3 -->
    <g transform="translate(154.783899 189.106355)scale(0.12 -0.12)">
     <defs>
      <path id="DejaVuSans-33" d="M 2597 2516 
Q 3050 2419 3304 2112 
Q 3559 1806 3559 1356 
Q 3559 666 3084 287 
Q 2609 -91 1734 -91 
Q 1441 -91 1130 -33 
Q 819 25 488 141 
L 488 750 
Q 750 597 1062 519 
Q 1375 441 1716 441 
Q 2309 441 2620 675 
Q 2931 909 2931 1356 
Q 2931 1769 2642 2001 
Q 2353 2234 1838 2234 
L 1294 2234 
L 1294 2753 
L 1863 2753 
Q 2328 2753 2575 2939 
Q 2822 3125 2822 3475 
Q 2822 3834 2567 4026 
Q 2313 4219 1838 4219 
Q 1578 4219 1281 4162 
Q 984 4106 628 3988 
L 628 4550 
Q 988 4650 1302 4700 
Q 1616 4750 1894 4750 
Q 2613 4750 3031 4423 
Q 3450 4097 3450 3541 
Q 3450 3153 3228 2886 
Q 3006 2619 2597 2516 
z
" transform="scale(0.015625)"/>
     </defs>
     <use xlink:href="#DejaVuSans-33"/>
    </g>
   </g>
   <g id="text_5">
    <!-- 4 -->
    <g transform="translate(39.986696 189.106355)scale(0.12 -0.12)">
     <defs>
      <path id="DejaVuSans-34" d="M 2419 4116 
L 825 1625 
L 2419 1625 
L 2419 4116 
z
M 2253 4666 
L 3047 4666 
L 3047 1625 
L 3713 1625 
L 3713 1100 
L 3047 1100 
L 3047 0 
L 2419 0 
L 2419 1100 
L 313 1100 
L 313 1709 
L 2253 4666 
z
" transform="scale(0.015625)"/>
     </defs>
     <use xlink:href="#DejaVuSans-34"/>
    </g>
   </g>
   <g id="text_6">
    <!-- 5 -->
    <g transform="translate(97.385297 189.106355)scale(0.12 -0.12)">
     <defs>
      <path id="DejaVuSans-35" d="M 691 4666 
L 3169 4666 
L 3169 4134 
L 1269 4134 
L 1269 2991 
Q 1406 3038 1543 3061 
Q 1681 3084 1819 3084 
Q 2600 3084 3056 2656 
Q 3513 2228 3513 1497 
Q 3513 744 3044 326 
Q 2575 -91 1722 -91 
Q 1428 -91 1123 -41 
Q 819 9 494 109 
L 494 744 
Q 775 591 1075 516 
Q 1375 441 1709 441 
Q 2250 441 2565 725 
Q 2881 1009 2881 1497 
Q 2881 1984 2565 2268 
Q 2250 2553 1709 2553 
Q 1456 2553 1204 2497 
Q 953 2441 691 2322 
L 691 4666 
z
" transform="scale(0.015625)"/>
     </defs>
     <use xlink:href="#DejaVuSans-35"/>
    </g>
   </g>
   <g id="text_7">
    <!-- 6 -->
    <g transform="translate(212.1825 189.106355)scale(0.12 -0.12)">
     <defs>
      <path id="DejaVuSans-36" d="M 2113 2584 
Q 1688 2584 1439 2293 
Q 1191 2003 1191 1497 
Q 1191 994 1439 701 
Q 1688 409 2113 409 
Q 2538 409 2786 701 
Q 3034 994 3034 1497 
Q 3034 2003 2786 2293 
Q 2538 2584 2113 2584 
z
M 3366 4563 
L 3366 3988 
Q 3128 4100 2886 4159 
Q 2644 4219 2406 4219 
Q 1781 4219 1451 3797 
Q 1122 3375 1075 2522 
Q 1259 2794 1537 2939 
Q 1816 3084 2150 3084 
Q 2853 3084 3261 2657 
Q 3669 2231 3669 1497 
Q 3669 778 3244 343 
Q 2819 -91 2113 -91 
Q 1303 -91 875 529 
Q 447 1150 447 2328 
Q 447 3434 972 4092 
Q 1497 4750 2381 4750 
Q 2619 4750 2861 4703 
Q 3103 4656 3366 4563 
z
" transform="scale(0.015625)"/>
     </defs>
     <use xlink:href="#DejaVuSans-36"/>
    </g>
   </g>
   <g id="text_8">
    <!-- 7 -->
    <g transform="translate(269.581101 189.106355)scale(0.12 -0.12)">
     <defs>
      <path id="DejaVuSans-37" d="M 525 4666 
L 3525 4666 
L 3525 4397 
L 1831 0 
L 1172 0 
L 2766 4134 
L 525 4134 
L 525 4666 
z
" transform="scale(0.015625)"/>
     </defs>
     <use xlink:href="#DejaVuSans-37"/>
    </g>
   </g>
   <g id="text_9">
    <!-- 8 -->
    <g transform="translate(326.979703 189.106355)scale(0.12 -0.12)">
     <defs>
      <path id="DejaVuSans-38" d="M 2034 2216 
Q 1584 2216 1326 1975 
Q 1069 1734 1069 1313 
Q 1069 891 1326 650 
Q 1584 409 2034 409 
Q 2484 409 2743 651 
Q 3003 894 3003 1313 
Q 3003 1734 2745 1975 
Q 2488 2216 2034 2216 
z
M 1403 2484 
Q 997 2584 770 2862 
Q 544 3141 544 3541 
Q 544 4100 942 4425 
Q 1341 4750 2034 4750 
Q 2731 4750 3128 4425 
Q 3525 4100 3525 3541 
Q 3525 3141 3298 2862 
Q 3072 2584 2669 2484 
Q 3125 2378 3379 2068 
Q 3634 1759 3634 1313 
Q 3634 634 3220 271 
Q 2806 -91 2034 -91 
Q 1263 -91 848 271 
Q 434 634 434 1313 
Q 434 1759 690 2068 
Q 947 2378 1403 2484 
z
M 1172 3481 
Q 1172 3119 1398 2916 
Q 1625 2713 2034 2713 
Q 2441 2713 2670 2916 
Q 2900 3119 2900 3481 
Q 2900 3844 2670 4047 
Q 2441 4250 2034 4250 
Q 1625 4250 1398 4047 
Q 1172 3844 1172 3481 
z
" transform="scale(0.015625)"/>
     </defs>
     <use xlink:href="#DejaVuSans-38"/>
    </g>
   </g>
   <g id="text_10">
    <!-- 9 -->
    <g transform="translate(384.378304 189.106355)scale(0.12 -0.12)">
     <defs>
      <path id="DejaVuSans-39" d="M 703 97 
L 703 672 
Q 941 559 1184 500 
Q 1428 441 1663 441 
Q 2288 441 2617 861 
Q 2947 1281 2994 2138 
Q 2813 1869 2534 1725 
Q 2256 1581 1919 1581 
Q 1219 1581 811 2004 
Q 403 2428 403 3163 
Q 403 3881 828 4315 
Q 1253 4750 1959 4750 
Q 2769 4750 3195 4129 
Q 3622 3509 3622 2328 
Q 3622 1225 3098 567 
Q 2575 -91 1691 -91 
Q 1453 -91 1209 -44 
Q 966 3 703 97 
z
M 1959 2075 
Q 2384 2075 2632 2365 
Q 2881 2656 2881 3163 
Q 2881 3666 2632 3958 
Q 2384 4250 1959 4250 
Q 1534 4250 1286 3958 
Q 1038 3666 1038 3163 
Q 1038 2656 1286 2365 
Q 1534 2075 1959 2075 
z
" transform="scale(0.015625)"/>
     </defs>
     <use xlink:href="#DejaVuSans-39"/>
    </g>
   </g>
  </g>
  <g id="axes_2">
   <g id="patch_31">
    <path d="M 10.8 679.206993 
L 421.2 679.206993 
L 421.2 268.806993 
L 10.8 268.806993 
z
" style="fill: #ffffff"/>
   </g>
   <g id="patch_32">
    <path d="M 211.851908 469.858901 
L 242.452912 427.740233 
" clip-path="url(#p4b53f2b3ff)" style="fill: none; stroke: #444444; stroke-width: 2; stroke-linejoin: miter"/>
   </g>
   <g id="patch_33">
    <path d="M 249.214193 418.434128 
L 238.073791 424.558616 
L 246.832032 430.921851 
z
" clip-path="url(#p4b53f2b3ff)" style="fill: #444444"/>
   </g>
   <g id="patch_34">
    <path d="M 211.851908 469.858901 
L 188.216465 516.24607 
" clip-path="url(#p4b53f2b3ff)" style="fill: none; stroke: #444444; stroke-width: 2; stroke-linejoin: miter"/>
   </g>
   <g id="patch_35">
    <path d="M 182.994222 526.495299 
L 193.039386 518.703471 
L 183.393544 513.788669 
z
" clip-path="url(#p4b53f2b3ff)" style="fill: #444444"/>
   </g>
   <g id="patch_36">
    <path d="M 261.668288 401.292537 
L 352.991059 453.608712 
" clip-path="url(#p4b53f2b3ff)" style="fill: none; stroke: #444444; stroke-width: 2; stroke-linejoin: miter"/>
   </g>
   <g id="patch_37">
    <path d="M 362.972233 459.326638 
L 355.681711 448.911928 
L 350.300407 458.305496 
z
" clip-path="url(#p4b53f2b3ff)" style="fill: #444444"/>
   </g>
   <g id="patch_38">
    <path d="M 261.668288 401.292537 
L 292.269291 359.173869 
" clip-path="url(#p4b53f2b3ff)" style="fill: none; stroke: #444444; stroke-width: 2; stroke-linejoin: miter"/>
   </g>
   <g id="patch_39">
    <path d="M 299.030573 349.867764 
L 287.890171 355.992251 
L 296.648412 362.355486 
z
" clip-path="url(#p4b53f2b3ff)" style="fill: #444444"/>
   </g>
   <g id="patch_40">
    <path d="M 261.668288 401.292537 
L 183.692361 330.606008 
" clip-path="url(#p4b53f2b3ff)" style="fill: none; stroke: #444444; stroke-width: 2; stroke-linejoin: miter"/>
   </g>
   <g id="patch_41">
    <path d="M 175.169937 322.880283 
L 180.056911 334.616356 
L 187.327811 326.59566 
z
" clip-path="url(#p4b53f2b3ff)" style="fill: #444444"/>
   </g>
   <g id="patch_42">
    <path d="M 173.374993 545.374099 
L 73.277853 441.066185 
" clip-path="url(#p4b53f2b3ff)" style="fill: none; stroke: #444444; stroke-width: 2; stroke-linejoin: miter"/>
   </g>
   <g id="patch_43">
    <path d="M 65.313267 432.766554 
L 69.372343 444.814035 
L 77.183364 437.318336 
z
" clip-path="url(#p4b53f2b3ff)" style="fill: #444444"/>
   </g>
   <g id="patch_44">
    <path d="M 173.374993 545.374099 
L 106.475205 561.728531 
" clip-path="url(#p4b53f2b3ff)" style="fill: none; stroke: #444444; stroke-width: 2; stroke-linejoin: miter"/>
   </g>
   <g id="patch_45">
    <path d="M 95.301267 564.46013 
L 107.760598 566.986587 
L 105.189812 556.470475 
z
" clip-path="url(#p4b53f2b3ff)" style="fill: #444444"/>
   </g>
   <g id="patch_46">
    <path d="M 173.374993 545.374099 
L 199.466689 609.110058 
" clip-path="url(#p4b53f2b3ff)" style="fill: none; stroke: #444444; stroke-width: 2; stroke-linejoin: miter"/>
   </g>
   <g id="patch_47">
    <path d="M 203.824655 619.755558 
L 204.476081 607.059355 
L 194.457297 611.160761 
z
" clip-path="url(#p4b53f2b3ff)" style="fill: #444444"/>
   </g>
   <g id="patch_48">
    <path d="M 173.374993 545.374099 
L 316.59749 565.043733 
" clip-path="url(#p4b53f2b3ff)" style="fill: none; stroke: #444444; stroke-width: 2; stroke-linejoin: miter"/>
   </g>
   <g id="patch_49">
    <path d="M 327.9935 566.608817 
L 317.333963 559.681178 
L 315.861017 570.406288 
z
" clip-path="url(#p4b53f2b3ff)" style="fill: #444444"/>
   </g>
   <g id="matplotlib.axis_3"/>
   <g id="matplotlib.axis_4"/>
   <g id="patch_50">
    <path d="M 211.851908 491.047073 
C 217.471077 491.047073 222.860856 488.814554 226.834208 484.841201 
C 230.807561 480.867849 233.04008 475.47807 233.04008 469.858901 
C 233.04008 464.239732 230.807561 458.849954 226.834208 454.876601 
C 222.860856 450.903249 217.471077 448.670729 211.851908 448.670729 
C 206.232739 448.670729 200.842961 450.903249 196.869608 454.876601 
C 192.896256 458.849954 190.663736 464.239732 190.663736 469.858901 
C 190.663736 475.47807 192.896256 480.867849 196.869608 484.841201 
C 200.842961 488.814554 206.232739 491.047073 211.851908 491.047073 
z
" clip-path="url(#p4b53f2b3ff)" style="fill: #bebebe; stroke: #000000; stroke-linejoin: miter"/>
   </g>
   <g id="patch_51">
    <path d="M 261.668288 422.480709 
C 267.287457 422.480709 272.677235 420.248189 276.650588 416.274837 
C 280.62394 412.301485 282.85646 406.911706 282.85646 401.292537 
C 282.85646 395.673368 280.62394 390.283589 276.650588 386.310237 
C 272.677235 382.336885 267.287457 380.104365 261.668288 380.104365 
C 256.049119 380.104365 250.65934 382.336885 246.685988 386.310237 
C 242.712636 390.283589 240.480116 395.673368 240.480116 401.292537 
C 240.480116 406.911706 242.712636 412.301485 246.685988 416.274837 
C 250.65934 420.248189 256.049119 422.480709 261.668288 422.480709 
z
" clip-path="url(#p4b53f2b3ff)" style="fill: #bebebe; stroke: #000000; stroke-linejoin: miter"/>
   </g>
   <g id="patch_52">
    <path d="M 173.374993 566.56227 
C 178.994162 566.56227 184.383941 564.329751 188.357293 560.356398 
C 192.330646 556.383046 194.563165 550.993267 194.563165 545.374099 
C 194.563165 539.75493 192.330646 534.365151 188.357293 530.391799 
C 184.383941 526.418446 178.994162 524.185927 173.374993 524.185927 
C 167.755825 524.185927 162.366046 526.418446 158.392693 530.391799 
C 154.419341 534.365151 152.186822 539.75493 152.186822 545.374099 
C 152.186822 550.993267 154.419341 556.383046 158.392693 560.356398 
C 162.366046 564.329751 167.755825 566.56227 173.374993 566.56227 
z
" clip-path="url(#p4b53f2b3ff)" style="fill: #bebebe; stroke: #000000; stroke-linejoin: miter"/>
   </g>
   <g id="patch_53">
    <path d="M 381.357283 491.047073 
C 386.976452 491.047073 392.36623 488.814554 396.339583 484.841201 
C 400.312935 480.867849 402.545455 475.47807 402.545455 469.858901 
C 402.545455 464.239732 400.312935 458.849954 396.339583 454.876601 
C 392.36623 450.903249 386.976452 448.670729 381.357283 448.670729 
C 375.738114 448.670729 370.348335 450.903249 366.374983 454.876601 
C 362.40163 458.849954 360.169111 464.239732 360.169111 469.858901 
C 360.169111 475.47807 362.40163 480.867849 366.374983 484.841201 
C 370.348335 488.814554 375.738114 491.047073 381.357283 491.047073 
z
" clip-path="url(#p4b53f2b3ff)" style="fill: #bebebe; stroke: #000000; stroke-linejoin: miter"/>
   </g>
   <g id="patch_54">
    <path d="M 311.484668 353.914344 
C 317.103836 353.914344 322.493615 351.681825 326.466968 347.708473 
C 330.44032 343.73512 332.672839 338.345341 332.672839 332.726173 
C 332.672839 327.107004 330.44032 321.717225 326.466968 317.743873 
C 322.493615 313.77052 317.103836 311.538001 311.484668 311.538001 
C 305.865499 311.538001 300.47572 313.77052 296.502368 317.743873 
C 292.529015 321.717225 290.296496 327.107004 290.296496 332.726173 
C 290.296496 338.345341 292.529015 343.73512 296.502368 347.708473 
C 300.47572 351.681825 305.865499 353.914344 311.484668 353.914344 
z
" clip-path="url(#p4b53f2b3ff)" style="fill: #bebebe; stroke: #000000; stroke-linejoin: miter"/>
   </g>
   <g id="patch_55">
    <path d="M 159.471867 329.837882 
C 165.091036 329.837882 170.480814 327.605363 174.454167 323.63201 
C 178.427519 319.658658 180.660039 314.268879 180.660039 308.64971 
C 180.660039 303.030541 178.427519 297.640763 174.454167 293.66741 
C 170.480814 289.694058 165.091036 287.461538 159.471867 287.461538 
C 153.852698 287.461538 148.462919 289.694058 144.489567 293.66741 
C 140.516215 297.640763 138.283695 303.030541 138.283695 308.64971 
C 138.283695 314.268879 140.516215 319.658658 144.489567 323.63201 
C 148.462919 327.605363 153.852698 329.837882 159.471867 329.837882 
z
" clip-path="url(#p4b53f2b3ff)" style="fill: #bebebe; stroke: #000000; stroke-linejoin: miter"/>
   </g>
   <g id="patch_56">
    <path d="M 50.642717 438.667032 
C 56.261886 438.667032 61.651665 436.434512 65.625017 432.46116 
C 69.59837 428.487807 71.830889 423.098029 71.830889 417.47886 
C 71.830889 411.859691 69.59837 406.469912 65.625017 402.49656 
C 61.651665 398.523208 56.261886 396.290688 50.642717 396.290688 
C 45.023548 396.290688 39.63377 398.523208 35.660417 402.49656 
C 31.687065 406.469912 29.454545 411.859691 29.454545 417.47886 
C 29.454545 423.098029 31.687065 428.487807 35.660417 432.46116 
C 39.63377 436.434512 45.023548 438.667032 50.642717 438.667032 
z
" clip-path="url(#p4b53f2b3ff)" style="fill: #bebebe; stroke: #000000; stroke-linejoin: miter"/>
   </g>
   <g id="patch_57">
    <path d="M 74.71918 590.679832 
C 80.338348 590.679832 85.728127 588.447313 89.70148 584.473961 
C 93.674832 580.500608 95.907351 575.110829 95.907351 569.491661 
C 95.907351 563.872492 93.674832 558.482713 89.70148 554.509361 
C 85.728127 550.536008 80.338348 548.303489 74.71918 548.303489 
C 69.100011 548.303489 63.710232 550.536008 59.73688 554.509361 
C 55.763527 558.482713 53.531008 563.872492 53.531008 569.491661 
C 53.531008 575.110829 55.763527 580.500608 59.73688 584.473961 
C 63.710232 588.447313 69.100011 590.679832 74.71918 590.679832 
z
" clip-path="url(#p4b53f2b3ff)" style="fill: #bebebe; stroke: #000000; stroke-linejoin: miter"/>
   </g>
   <g id="patch_58">
    <path d="M 211.851908 660.552448 
C 217.471077 660.552448 222.860856 658.319928 226.834208 654.346576 
C 230.807561 650.373223 233.04008 644.983445 233.04008 639.364276 
C 233.04008 633.745107 230.807561 628.355328 226.834208 624.381976 
C 222.860856 620.408623 217.471077 618.176104 211.851908 618.176104 
C 206.232739 618.176104 200.842961 620.408623 196.869608 624.381976 
C 192.896256 628.355328 190.663736 633.745107 190.663736 639.364276 
C 190.663736 644.983445 192.896256 650.373223 196.869608 654.346576 
C 200.842961 658.319928 206.232739 660.552448 211.851908 660.552448 
z
" clip-path="url(#p4b53f2b3ff)" style="fill: #bebebe; stroke: #000000; stroke-linejoin: miter"/>
   </g>
   <g id="patch_59">
    <path d="M 348.984637 590.679832 
C 354.603806 590.679832 359.993584 588.447313 363.966937 584.473961 
C 367.940289 580.500608 370.172809 575.110829 370.172809 569.491661 
C 370.172809 563.872492 367.940289 558.482713 363.966937 554.509361 
C 359.993584 550.536008 354.603806 548.303489 348.984637 548.303489 
C 343.365468 548.303489 337.975689 550.536008 334.002337 554.509361 
C 330.028984 558.482713 327.796465 563.872492 327.796465 569.491661 
C 327.796465 575.110829 330.028984 580.500608 334.002337 584.473961 
C 337.975689 588.447313 343.365468 590.679832 348.984637 590.679832 
z
" clip-path="url(#p4b53f2b3ff)" style="fill: #bebebe; stroke: #000000; stroke-linejoin: miter"/>
   </g>
   <g id="text_11">
    <!-- 0 -->
    <g transform="translate(208.034408 473.170151)scale(0.12 -0.12)">
     <use xlink:href="#DejaVuSans-30"/>
    </g>
   </g>
   <g id="text_12">
    <!-- 1 -->
    <g transform="translate(257.850788 404.603787)scale(0.12 -0.12)">
     <use xlink:href="#DejaVuSans-31"/>
    </g>
   </g>
   <g id="text_13">
    <!-- 2 -->
    <g transform="translate(169.557493 548.685349)scale(0.12 -0.12)">
     <use xlink:href="#DejaVuSans-32"/>
    </g>
   </g>
   <g id="text_14">
    <!-- 3 -->
    <g transform="translate(377.539783 473.170151)scale(0.12 -0.12)">
     <use xlink:href="#DejaVuSans-33"/>
    </g>
   </g>
   <g id="text_15">
    <!-- 4 -->
    <g transform="translate(307.667168 336.037423)scale(0.12 -0.12)">
     <use xlink:href="#DejaVuSans-34"/>
    </g>
   </g>
   <g id="text_16">
    <!-- 5 -->
    <g transform="translate(155.654367 311.96096)scale(0.12 -0.12)">
     <use xlink:href="#DejaVuSans-35"/>
    </g>
   </g>
   <g id="text_17">
    <!-- 6 -->
    <g transform="translate(46.825217 420.79011)scale(0.12 -0.12)">
     <use xlink:href="#DejaVuSans-36"/>
    </g>
   </g>
   <g id="text_18">
    <!-- 7 -->
    <g transform="translate(70.90168 572.802911)scale(0.12 -0.12)">
     <use xlink:href="#DejaVuSans-37"/>
    </g>
   </g>
   <g id="text_19">
    <!-- 8 -->
    <g transform="translate(208.034408 642.675526)scale(0.12 -0.12)">
     <use xlink:href="#DejaVuSans-38"/>
    </g>
   </g>
   <g id="text_20">
    <!-- 9 -->
    <g transform="translate(345.167137 572.802911)scale(0.12 -0.12)">
     <use xlink:href="#DejaVuSans-39"/>
    </g>
   </g>
  </g>
 </g>
 <defs>
  <clipPath id="p6d40c6a4cc">
   <rect x="10.8" y="49.473427" width="410.4" height="157.846154"/>
  </clipPath>
  <clipPath id="p4b53f2b3ff">
   <rect x="10.8" y="268.806993" width="410.4" height="410.4"/>
  </clipPath>
 </defs>
</svg>
