<?xml version="1.0" encoding="utf-8" standalone="no"?>
<!DOCTYPE svg PUBLIC "-//W3C//DTD SVG 1.1//EN"
  "http://www.w3.org/Graphics/SVG/1.1/DTD/svg11.dtd">
<!-- Created with matplotlib (https://matplotlib.org/) -->
<svg height="360pt" version="1.1" viewBox="0 0 360 360" width="360pt" xmlns="http://www.w3.org/2000/svg" xmlns:xlink="http://www.w3.org/1999/xlink">
 <metadata>
  <rdf:RDF xmlns:cc="http://creativecommons.org/ns#" xmlns:dc="http://purl.org/dc/elements/1.1/" xmlns:rdf="http://www.w3.org/1999/02/22-rdf-syntax-ns#">
   <cc:Work>
    <dc:type rdf:resource="http://purl.org/dc/dcmitype/StillImage"/>
    <dc:date>2022-11-13T02:54:22.517740</dc:date>
    <dc:format>image/svg+xml</dc:format>
    <dc:creator>
     <cc:Agent>
      <dc:title>Matplotlib v3.3.2, https://matplotlib.org/</dc:title>
     </cc:Agent>
    </dc:creator>
   </cc:Work>
  </rdf:RDF>
 </metadata>
 <defs>
  <style type="text/css">*{stroke-linecap:butt;stroke-linejoin:round;}</style>
 </defs>
 <g id="figure_1">
  <g id="patch_1">
   <path d="M 0 360 
L 360 360 
L 360 0 
L 0 0 
z
" style="fill:none;"/>
  </g>
  <g id="axes_1">
   <g id="patch_2">
    <path d="M 45 305.0183 
L 324 305.0183 
L 324 53.1817 
L 45 53.1817 
z
" style="fill:#ffffff;"/>
   </g>
   <g id="patch_3">
    <path clip-path="url(#p22df7e7847)" d="M 193.88353 166.271486 
L 131.924829 146.283171 
" style="fill:none;stroke:#444444;stroke-linejoin:miter;stroke-width:2;"/>
   </g>
   <g id="patch_4">
    <path clip-path="url(#p22df7e7847)" d="M 193.88353 166.271486 
L 232.531334 218.661948 
" style="fill:none;stroke:#444444;stroke-linejoin:miter;stroke-width:2;"/>
   </g>
   <g id="patch_5">
    <path clip-path="url(#p22df7e7847)" d="M 193.88353 166.271486 
L 231.306024 114.254216 
" style="fill:none;stroke:#444444;stroke-linejoin:miter;stroke-width:2;"/>
   </g>
   <g id="patch_6">
    <path clip-path="url(#p22df7e7847)" d="M 131.924829 146.283171 
L 130.481396 82.159348 
" style="fill:none;stroke:#444444;stroke-linejoin:miter;stroke-width:2;"/>
   </g>
   <g id="patch_7">
    <path clip-path="url(#p22df7e7847)" d="M 131.924829 146.283171 
L 75.212348 123.67968 
" style="fill:none;stroke:#444444;stroke-linejoin:miter;stroke-width:2;"/>
   </g>
   <g id="patch_8">
    <path clip-path="url(#p22df7e7847)" d="M 131.924829 146.283171 
L 86.252305 190.560049 
" style="fill:none;stroke:#444444;stroke-linejoin:miter;stroke-width:2;"/>
   </g>
   <g id="patch_9">
    <path clip-path="url(#p22df7e7847)" d="M 232.531334 218.661948 
L 205.070349 276.040652 
" style="fill:none;stroke:#444444;stroke-linejoin:miter;stroke-width:2;"/>
   </g>
   <g id="patch_10">
    <path clip-path="url(#p22df7e7847)" d="M 232.531334 218.661948 
L 271.990908 265.246982 
" style="fill:none;stroke:#444444;stroke-linejoin:miter;stroke-width:2;"/>
   </g>
   <g id="patch_11">
    <path clip-path="url(#p22df7e7847)" d="M 232.531334 218.661948 
L 293.787652 199.645857 
" style="fill:none;stroke:#444444;stroke-linejoin:miter;stroke-width:2;"/>
   </g>
   <g id="matplotlib.axis_1"/>
   <g id="matplotlib.axis_2"/>
   <g id="patch_12">
    <path clip-path="url(#p22df7e7847)" d="M 193.88353 183.802015 
C 198.532681 183.802015 202.99204 181.954888 206.279486 178.667442 
C 209.566932 175.379996 211.41406 170.920636 211.41406 166.271486 
C 211.41406 161.622335 209.566932 157.162975 206.279486 153.875529 
C 202.99204 150.588083 198.532681 148.740956 193.88353 148.740956 
C 189.234379 148.740956 184.775019 150.588083 181.487573 153.875529 
C 178.200127 157.162975 176.353 161.622335 176.353 166.271486 
C 176.353 170.920636 178.200127 175.379996 181.487573 178.667442 
C 184.775019 181.954888 189.234379 183.802015 193.88353 183.802015 
z
" style="fill:#bebebe;stroke:#000000;stroke-linejoin:miter;"/>
   </g>
   <g id="patch_13">
    <path clip-path="url(#p22df7e7847)" d="M 131.924829 163.813701 
C 136.57398 163.813701 141.033339 161.966574 144.320785 158.679128 
C 147.608231 155.391682 149.455359 150.932322 149.455359 146.283171 
C 149.455359 141.634021 147.608231 137.174661 144.320785 133.887215 
C 141.033339 130.599769 136.57398 128.752642 131.924829 128.752642 
C 127.275678 128.752642 122.816318 130.599769 119.528872 133.887215 
C 116.241426 137.174661 114.394299 141.634021 114.394299 146.283171 
C 114.394299 150.932322 116.241426 155.391682 119.528872 158.679128 
C 122.816318 161.966574 127.275678 163.813701 131.924829 163.813701 
z
" style="fill:#bebebe;stroke:#000000;stroke-linejoin:miter;"/>
   </g>
   <g id="patch_14">
    <path clip-path="url(#p22df7e7847)" d="M 232.531334 236.192478 
C 237.180485 236.192478 241.639844 234.345351 244.92729 231.057905 
C 248.214736 227.770459 250.061864 223.311099 250.061864 218.661948 
C 250.061864 214.012798 248.214736 209.553438 244.92729 206.265992 
C 241.639844 202.978546 237.180485 201.131419 232.531334 201.131419 
C 227.882183 201.131419 223.422823 202.978546 220.135377 206.265992 
C 216.847931 209.553438 215.000804 214.012798 215.000804 218.661948 
C 215.000804 223.311099 216.847931 227.770459 220.135377 231.057905 
C 223.422823 234.345351 227.882183 236.192478 232.531334 236.192478 
z
" style="fill:#bebebe;stroke:#000000;stroke-linejoin:miter;"/>
   </g>
   <g id="patch_15">
    <path clip-path="url(#p22df7e7847)" d="M 231.306024 131.784746 
C 235.955175 131.784746 240.414535 129.937618 243.701981 126.650172 
C 246.989427 123.362726 248.836554 118.903367 248.836554 114.254216 
C 248.836554 109.605065 246.989427 105.145705 243.701981 101.858259 
C 240.414535 98.570813 235.955175 96.723686 231.306024 96.723686 
C 226.656874 96.723686 222.197514 98.570813 218.910068 101.858259 
C 215.622622 105.145705 213.775495 109.605065 213.775495 114.254216 
C 213.775495 118.903367 215.622622 123.362726 218.910068 126.650172 
C 222.197514 129.937618 226.656874 131.784746 231.306024 131.784746 
z
" style="fill:#bebebe;stroke:#000000;stroke-linejoin:miter;"/>
   </g>
   <g id="patch_16">
    <path clip-path="url(#p22df7e7847)" d="M 130.481396 99.689877 
C 135.130547 99.689877 139.589907 97.84275 142.877353 94.555304 
C 146.164799 91.267858 148.011926 86.808498 148.011926 82.159348 
C 148.011926 77.510197 146.164799 73.050837 142.877353 69.763391 
C 139.589907 66.475945 135.130547 64.628818 130.481396 64.628818 
C 125.832246 64.628818 121.372886 66.475945 118.08544 69.763391 
C 114.797994 73.050837 112.950867 77.510197 112.950867 82.159348 
C 112.950867 86.808498 114.797994 91.267858 118.08544 94.555304 
C 121.372886 97.84275 125.832246 99.689877 130.481396 99.689877 
z
" style="fill:#bebebe;stroke:#000000;stroke-linejoin:miter;"/>
   </g>
   <g id="patch_17">
    <path clip-path="url(#p22df7e7847)" d="M 75.212348 141.210209 
C 79.861499 141.210209 84.320858 139.363082 87.608305 136.075636 
C 90.895751 132.78819 92.742878 128.32883 92.742878 123.67968 
C 92.742878 119.030529 90.895751 114.571169 87.608305 111.283723 
C 84.320858 107.996277 79.861499 106.14915 75.212348 106.14915 
C 70.563197 106.14915 66.103838 107.996277 62.816391 111.283723 
C 59.528945 114.571169 57.681818 119.030529 57.681818 123.67968 
C 57.681818 128.32883 59.528945 132.78819 62.816391 136.075636 
C 66.103838 139.363082 70.563197 141.210209 75.212348 141.210209 
z
" style="fill:#bebebe;stroke:#000000;stroke-linejoin:miter;"/>
   </g>
   <g id="patch_18">
    <path clip-path="url(#p22df7e7847)" d="M 86.252305 208.090579 
C 90.901456 208.090579 95.360815 206.243452 98.648261 202.956006 
C 101.935708 199.66856 103.782835 195.2092 103.782835 190.560049 
C 103.782835 185.910898 101.935708 181.451539 98.648261 178.164093 
C 95.360815 174.876647 90.901456 173.029519 86.252305 173.029519 
C 81.603154 173.029519 77.143795 174.876647 73.856348 178.164093 
C 70.568902 181.451539 68.721775 185.910898 68.721775 190.560049 
C 68.721775 195.2092 70.568902 199.66856 73.856348 202.956006 
C 77.143795 206.243452 81.603154 208.090579 86.252305 208.090579 
z
" style="fill:#bebebe;stroke:#000000;stroke-linejoin:miter;"/>
   </g>
   <g id="patch_19">
    <path clip-path="url(#p22df7e7847)" d="M 205.070349 293.571182 
C 209.7195 293.571182 214.178859 291.724055 217.466305 288.436609 
C 220.753752 285.149163 222.600879 280.689803 222.600879 276.040652 
C 222.600879 271.391502 220.753752 266.932142 217.466305 263.644696 
C 214.178859 260.35725 209.7195 258.510123 205.070349 258.510123 
C 200.421198 258.510123 195.961838 260.35725 192.674392 263.644696 
C 189.386946 266.932142 187.539819 271.391502 187.539819 276.040652 
C 187.539819 280.689803 189.386946 285.149163 192.674392 288.436609 
C 195.961838 291.724055 200.421198 293.571182 205.070349 293.571182 
z
" style="fill:#bebebe;stroke:#000000;stroke-linejoin:miter;"/>
   </g>
   <g id="patch_20">
    <path clip-path="url(#p22df7e7847)" d="M 271.990908 282.777512 
C 276.640058 282.777512 281.099418 280.930385 284.386864 277.642938 
C 287.67431 274.355492 289.521437 269.896133 289.521437 265.246982 
C 289.521437 260.597831 287.67431 256.138471 284.386864 252.851025 
C 281.099418 249.563579 276.640058 247.716452 271.990908 247.716452 
C 267.341757 247.716452 262.882397 249.563579 259.594951 252.851025 
C 256.307505 256.138471 254.460378 260.597831 254.460378 265.246982 
C 254.460378 269.896133 256.307505 274.355492 259.594951 277.642938 
C 262.882397 280.930385 267.341757 282.777512 271.990908 282.777512 
z
" style="fill:#bebebe;stroke:#000000;stroke-linejoin:miter;"/>
   </g>
   <g id="patch_21">
    <path clip-path="url(#p22df7e7847)" d="M 293.787652 217.176387 
C 298.436803 217.176387 302.896162 215.32926 306.183609 212.041813 
C 309.471055 208.754367 311.318182 204.295008 311.318182 199.645857 
C 311.318182 194.996706 309.471055 190.537346 306.183609 187.2499 
C 302.896162 183.962454 298.436803 182.115327 293.787652 182.115327 
C 289.138501 182.115327 284.679142 183.962454 281.391695 187.2499 
C 278.104249 190.537346 276.257122 194.996706 276.257122 199.645857 
C 276.257122 204.295008 278.104249 208.754367 281.391695 212.041813 
C 284.679142 215.32926 289.138501 217.176387 293.787652 217.176387 
z
" style="fill:#bebebe;stroke:#000000;stroke-linejoin:miter;"/>
   </g>
   <g id="text_1">
    <!-- 0 -->
    <g transform="translate(190.06603 169.582736)scale(0.12 -0.12)">
     <defs>
      <path d="M 31.78125 66.40625 
Q 24.171875 66.40625 20.328125 58.90625 
Q 16.5 51.421875 16.5 36.375 
Q 16.5 21.390625 20.328125 13.890625 
Q 24.171875 6.390625 31.78125 6.390625 
Q 39.453125 6.390625 43.28125 13.890625 
Q 47.125 21.390625 47.125 36.375 
Q 47.125 51.421875 43.28125 58.90625 
Q 39.453125 66.40625 31.78125 66.40625 
z
M 31.78125 74.21875 
Q 44.046875 74.21875 50.515625 64.515625 
Q 56.984375 54.828125 56.984375 36.375 
Q 56.984375 17.96875 50.515625 8.265625 
Q 44.046875 -1.421875 31.78125 -1.421875 
Q 19.53125 -1.421875 13.0625 8.265625 
Q 6.59375 17.96875 6.59375 36.375 
Q 6.59375 54.828125 13.0625 64.515625 
Q 19.53125 74.21875 31.78125 74.21875 
z
" id="DejaVuSans-48"/>
     </defs>
     <use xlink:href="#DejaVuSans-48"/>
    </g>
   </g>
   <g id="text_2">
    <!-- 1 -->
    <g transform="translate(128.107329 149.594421)scale(0.12 -0.12)">
     <defs>
      <path d="M 12.40625 8.296875 
L 28.515625 8.296875 
L 28.515625 63.921875 
L 10.984375 60.40625 
L 10.984375 69.390625 
L 28.421875 72.90625 
L 38.28125 72.90625 
L 38.28125 8.296875 
L 54.390625 8.296875 
L 54.390625 0 
L 12.40625 0 
z
" id="DejaVuSans-49"/>
     </defs>
     <use xlink:href="#DejaVuSans-49"/>
    </g>
   </g>
   <g id="text_3">
    <!-- 2 -->
    <g transform="translate(228.713834 221.973198)scale(0.12 -0.12)">
     <defs>
      <path d="M 19.1875 8.296875 
L 53.609375 8.296875 
L 53.609375 0 
L 7.328125 0 
L 7.328125 8.296875 
Q 12.9375 14.109375 22.625 23.890625 
Q 32.328125 33.6875 34.8125 36.53125 
Q 39.546875 41.84375 41.421875 45.53125 
Q 43.3125 49.21875 43.3125 52.78125 
Q 43.3125 58.59375 39.234375 62.25 
Q 35.15625 65.921875 28.609375 65.921875 
Q 23.96875 65.921875 18.8125 64.3125 
Q 13.671875 62.703125 7.8125 59.421875 
L 7.8125 69.390625 
Q 13.765625 71.78125 18.9375 73 
Q 24.125 74.21875 28.421875 74.21875 
Q 39.75 74.21875 46.484375 68.546875 
Q 53.21875 62.890625 53.21875 53.421875 
Q 53.21875 48.921875 51.53125 44.890625 
Q 49.859375 40.875 45.40625 35.40625 
Q 44.1875 33.984375 37.640625 27.21875 
Q 31.109375 20.453125 19.1875 8.296875 
z
" id="DejaVuSans-50"/>
     </defs>
     <use xlink:href="#DejaVuSans-50"/>
    </g>
   </g>
   <g id="text_4">
    <!-- 3 -->
    <g transform="translate(227.488524 117.565466)scale(0.12 -0.12)">
     <defs>
      <path d="M 40.578125 39.3125 
Q 47.65625 37.796875 51.625 33 
Q 55.609375 28.21875 55.609375 21.1875 
Q 55.609375 10.40625 48.1875 4.484375 
Q 40.765625 -1.421875 27.09375 -1.421875 
Q 22.515625 -1.421875 17.65625 -0.515625 
Q 12.796875 0.390625 7.625 2.203125 
L 7.625 11.71875 
Q 11.71875 9.328125 16.59375 8.109375 
Q 21.484375 6.890625 26.8125 6.890625 
Q 36.078125 6.890625 40.9375 10.546875 
Q 45.796875 14.203125 45.796875 21.1875 
Q 45.796875 27.640625 41.28125 31.265625 
Q 36.765625 34.90625 28.71875 34.90625 
L 20.21875 34.90625 
L 20.21875 43.015625 
L 29.109375 43.015625 
Q 36.375 43.015625 40.234375 45.921875 
Q 44.09375 48.828125 44.09375 54.296875 
Q 44.09375 59.90625 40.109375 62.90625 
Q 36.140625 65.921875 28.71875 65.921875 
Q 24.65625 65.921875 20.015625 65.03125 
Q 15.375 64.15625 9.8125 62.3125 
L 9.8125 71.09375 
Q 15.4375 72.65625 20.34375 73.4375 
Q 25.25 74.21875 29.59375 74.21875 
Q 40.828125 74.21875 47.359375 69.109375 
Q 53.90625 64.015625 53.90625 55.328125 
Q 53.90625 49.265625 50.4375 45.09375 
Q 46.96875 40.921875 40.578125 39.3125 
z
" id="DejaVuSans-51"/>
     </defs>
     <use xlink:href="#DejaVuSans-51"/>
    </g>
   </g>
   <g id="text_5">
    <!-- 4 -->
    <g transform="translate(126.663896 85.470598)scale(0.12 -0.12)">
     <defs>
      <path d="M 37.796875 64.3125 
L 12.890625 25.390625 
L 37.796875 25.390625 
z
M 35.203125 72.90625 
L 47.609375 72.90625 
L 47.609375 25.390625 
L 58.015625 25.390625 
L 58.015625 17.1875 
L 47.609375 17.1875 
L 47.609375 0 
L 37.796875 0 
L 37.796875 17.1875 
L 4.890625 17.1875 
L 4.890625 26.703125 
z
" id="DejaVuSans-52"/>
     </defs>
     <use xlink:href="#DejaVuSans-52"/>
    </g>
   </g>
   <g id="text_6">
    <!-- 5 -->
    <g transform="translate(71.394848 126.99093)scale(0.12 -0.12)">
     <defs>
      <path d="M 10.796875 72.90625 
L 49.515625 72.90625 
L 49.515625 64.59375 
L 19.828125 64.59375 
L 19.828125 46.734375 
Q 21.96875 47.46875 24.109375 47.828125 
Q 26.265625 48.1875 28.421875 48.1875 
Q 40.625 48.1875 47.75 41.5 
Q 54.890625 34.8125 54.890625 23.390625 
Q 54.890625 11.625 47.5625 5.09375 
Q 40.234375 -1.421875 26.90625 -1.421875 
Q 22.3125 -1.421875 17.546875 -0.640625 
Q 12.796875 0.140625 7.71875 1.703125 
L 7.71875 11.625 
Q 12.109375 9.234375 16.796875 8.0625 
Q 21.484375 6.890625 26.703125 6.890625 
Q 35.15625 6.890625 40.078125 11.328125 
Q 45.015625 15.765625 45.015625 23.390625 
Q 45.015625 31 40.078125 35.4375 
Q 35.15625 39.890625 26.703125 39.890625 
Q 22.75 39.890625 18.8125 39.015625 
Q 14.890625 38.140625 10.796875 36.28125 
z
" id="DejaVuSans-53"/>
     </defs>
     <use xlink:href="#DejaVuSans-53"/>
    </g>
   </g>
   <g id="text_7">
    <!-- 6 -->
    <g transform="translate(82.434805 193.871299)scale(0.12 -0.12)">
     <defs>
      <path d="M 33.015625 40.375 
Q 26.375 40.375 22.484375 35.828125 
Q 18.609375 31.296875 18.609375 23.390625 
Q 18.609375 15.53125 22.484375 10.953125 
Q 26.375 6.390625 33.015625 6.390625 
Q 39.65625 6.390625 43.53125 10.953125 
Q 47.40625 15.53125 47.40625 23.390625 
Q 47.40625 31.296875 43.53125 35.828125 
Q 39.65625 40.375 33.015625 40.375 
z
M 52.59375 71.296875 
L 52.59375 62.3125 
Q 48.875 64.0625 45.09375 64.984375 
Q 41.3125 65.921875 37.59375 65.921875 
Q 27.828125 65.921875 22.671875 59.328125 
Q 17.53125 52.734375 16.796875 39.40625 
Q 19.671875 43.65625 24.015625 45.921875 
Q 28.375 48.1875 33.59375 48.1875 
Q 44.578125 48.1875 50.953125 41.515625 
Q 57.328125 34.859375 57.328125 23.390625 
Q 57.328125 12.15625 50.6875 5.359375 
Q 44.046875 -1.421875 33.015625 -1.421875 
Q 20.359375 -1.421875 13.671875 8.265625 
Q 6.984375 17.96875 6.984375 36.375 
Q 6.984375 53.65625 15.1875 63.9375 
Q 23.390625 74.21875 37.203125 74.21875 
Q 40.921875 74.21875 44.703125 73.484375 
Q 48.484375 72.75 52.59375 71.296875 
z
" id="DejaVuSans-54"/>
     </defs>
     <use xlink:href="#DejaVuSans-54"/>
    </g>
   </g>
   <g id="text_8">
    <!-- 7 -->
    <g transform="translate(201.252849 279.351902)scale(0.12 -0.12)">
     <defs>
      <path d="M 8.203125 72.90625 
L 55.078125 72.90625 
L 55.078125 68.703125 
L 28.609375 0 
L 18.3125 0 
L 43.21875 64.59375 
L 8.203125 64.59375 
z
" id="DejaVuSans-55"/>
     </defs>
     <use xlink:href="#DejaVuSans-55"/>
    </g>
   </g>
   <g id="text_9">
    <!-- 8 -->
    <g transform="translate(268.173408 268.558232)scale(0.12 -0.12)">
     <defs>
      <path d="M 31.78125 34.625 
Q 24.75 34.625 20.71875 30.859375 
Q 16.703125 27.09375 16.703125 20.515625 
Q 16.703125 13.921875 20.71875 10.15625 
Q 24.75 6.390625 31.78125 6.390625 
Q 38.8125 6.390625 42.859375 10.171875 
Q 46.921875 13.96875 46.921875 20.515625 
Q 46.921875 27.09375 42.890625 30.859375 
Q 38.875 34.625 31.78125 34.625 
z
M 21.921875 38.8125 
Q 15.578125 40.375 12.03125 44.71875 
Q 8.5 49.078125 8.5 55.328125 
Q 8.5 64.0625 14.71875 69.140625 
Q 20.953125 74.21875 31.78125 74.21875 
Q 42.671875 74.21875 48.875 69.140625 
Q 55.078125 64.0625 55.078125 55.328125 
Q 55.078125 49.078125 51.53125 44.71875 
Q 48 40.375 41.703125 38.8125 
Q 48.828125 37.15625 52.796875 32.3125 
Q 56.78125 27.484375 56.78125 20.515625 
Q 56.78125 9.90625 50.3125 4.234375 
Q 43.84375 -1.421875 31.78125 -1.421875 
Q 19.734375 -1.421875 13.25 4.234375 
Q 6.78125 9.90625 6.78125 20.515625 
Q 6.78125 27.484375 10.78125 32.3125 
Q 14.796875 37.15625 21.921875 38.8125 
z
M 18.3125 54.390625 
Q 18.3125 48.734375 21.84375 45.5625 
Q 25.390625 42.390625 31.78125 42.390625 
Q 38.140625 42.390625 41.71875 45.5625 
Q 45.3125 48.734375 45.3125 54.390625 
Q 45.3125 60.0625 41.71875 63.234375 
Q 38.140625 66.40625 31.78125 66.40625 
Q 25.390625 66.40625 21.84375 63.234375 
Q 18.3125 60.0625 18.3125 54.390625 
z
" id="DejaVuSans-56"/>
     </defs>
     <use xlink:href="#DejaVuSans-56"/>
    </g>
   </g>
   <g id="text_10">
    <!-- 9 -->
    <g transform="translate(289.970152 202.957107)scale(0.12 -0.12)">
     <defs>
      <path d="M 10.984375 1.515625 
L 10.984375 10.5 
Q 14.703125 8.734375 18.5 7.8125 
Q 22.3125 6.890625 25.984375 6.890625 
Q 35.75 6.890625 40.890625 13.453125 
Q 46.046875 20.015625 46.78125 33.40625 
Q 43.953125 29.203125 39.59375 26.953125 
Q 35.25 24.703125 29.984375 24.703125 
Q 19.046875 24.703125 12.671875 31.3125 
Q 6.296875 37.9375 6.296875 49.421875 
Q 6.296875 60.640625 12.9375 67.421875 
Q 19.578125 74.21875 30.609375 74.21875 
Q 43.265625 74.21875 49.921875 64.515625 
Q 56.59375 54.828125 56.59375 36.375 
Q 56.59375 19.140625 48.40625 8.859375 
Q 40.234375 -1.421875 26.421875 -1.421875 
Q 22.703125 -1.421875 18.890625 -0.6875 
Q 15.09375 0.046875 10.984375 1.515625 
z
M 30.609375 32.421875 
Q 37.25 32.421875 41.125 36.953125 
Q 45.015625 41.5 45.015625 49.421875 
Q 45.015625 57.28125 41.125 61.84375 
Q 37.25 66.40625 30.609375 66.40625 
Q 23.96875 66.40625 20.09375 61.84375 
Q 16.21875 57.28125 16.21875 49.421875 
Q 16.21875 41.5 20.09375 36.953125 
Q 23.96875 32.421875 30.609375 32.421875 
z
" id="DejaVuSans-57"/>
     </defs>
     <use xlink:href="#DejaVuSans-57"/>
    </g>
   </g>
  </g>
 </g>
 <defs>
  <clipPath id="p22df7e7847">
   <rect height="251.836601" width="279" x="45" y="53.1817"/>
  </clipPath>
 </defs>
</svg>
