<?xml version="1.0" encoding="utf-8" standalone="no"?>
<!DOCTYPE svg PUBLIC "-//W3C//DTD SVG 1.1//EN"
  "http://www.w3.org/Graphics/SVG/1.1/DTD/svg11.dtd">
<svg xmlns:xlink="http://www.w3.org/1999/xlink" width="360pt" height="360pt" viewBox="0 0 360 360" xmlns="http://www.w3.org/2000/svg" version="1.1">
 <metadata>
  <rdf:RDF xmlns:dc="http://purl.org/dc/elements/1.1/" xmlns:cc="http://creativecommons.org/ns#" xmlns:rdf="http://www.w3.org/1999/02/22-rdf-syntax-ns#">
   <cc:Work>
    <dc:type rdf:resource="http://purl.org/dc/dcmitype/StillImage"/>
    <dc:date>2023-10-02T16:55:08.657401</dc:date>
    <dc:format>image/svg+xml</dc:format>
    <dc:creator>
     <cc:Agent>
      <dc:title>Matplotlib v3.5.1, https://matplotlib.org/</dc:title>
     </cc:Agent>
    </dc:creator>
   </cc:Work>
  </rdf:RDF>
 </metadata>
 <defs>
  <style type="text/css">*{stroke-linejoin: round; stroke-linecap: butt}</style>
 </defs>
 <g id="figure_1">
  <g id="patch_1">
   <path d="M 0 360 
L 360 360 
L 360 0 
L 0 0 
L 0 360 
z
" style="fill: none"/>
  </g>
  <g id="axes_1">
   <g id="patch_2">
    <path d="M 60.572605 315 
L 308.427395 315 
L 308.427395 43.2 
L 60.572605 43.2 
z
" style="fill: #ffffff"/>
   </g>
   <g id="patch_3">
    <path d="M 185.854096 183.715 
L 164.930321 211.671039 
" clip-path="url(#p804d179411)" style="fill: none; stroke: #444444; stroke-width: 2; stroke-linejoin: miter"/>
   </g>
   <g id="patch_4">
    <path d="M 159.358571 219.115397 
L 168.433371 214.292905 
L 161.427272 209.049172 
z
" clip-path="url(#p804d179411)" style="fill: #444444"/>
   </g>
   <g id="patch_5">
    <path d="M 185.854096 183.715 
L 207.484771 154.814478 
" clip-path="url(#p804d179411)" style="fill: none; stroke: #444444; stroke-width: 2; stroke-linejoin: miter"/>
   </g>
   <g id="patch_6">
    <path d="M 213.056521 147.37012 
L 203.981721 152.192611 
L 210.98782 157.436345 
z
" clip-path="url(#p804d179411)" style="fill: #444444"/>
   </g>
   <g id="patch_7">
    <path d="M 149.095559 232.827702 
L 129.590102 258.888742 
" clip-path="url(#p804d179411)" style="fill: none; stroke: #444444; stroke-width: 2; stroke-linejoin: miter"/>
   </g>
   <g id="patch_8">
    <path d="M 124.018351 266.3331 
L 133.093151 261.510608 
L 126.087053 256.266875 
z
" clip-path="url(#p804d179411)" style="fill: #444444"/>
   </g>
   <g id="patch_9">
    <path d="M 149.095559 232.827702 
L 114.312707 222.566726 
" clip-path="url(#p804d179411)" style="fill: none; stroke: #444444; stroke-width: 2; stroke-linejoin: miter"/>
   </g>
   <g id="patch_10">
    <path d="M 105.394143 219.935741 
L 113.074659 226.763484 
L 115.550755 218.369968 
z
" clip-path="url(#p804d179411)" style="fill: #444444"/>
   </g>
   <g id="patch_11">
    <path d="M 149.095559 232.827702 
L 168.745741 263.30728 
" clip-path="url(#p804d179411)" style="fill: none; stroke: #444444; stroke-width: 2; stroke-linejoin: miter"/>
   </g>
   <g id="patch_12">
    <path d="M 173.784184 271.122456 
L 172.423284 260.936369 
L 165.068199 265.678192 
z
" clip-path="url(#p804d179411)" style="fill: #444444"/>
   </g>
   <g id="patch_13">
    <path d="M 223.319533 133.657815 
L 226.929216 98.966502 
" clip-path="url(#p804d179411)" style="fill: none; stroke: #444444; stroke-width: 2; stroke-linejoin: miter"/>
   </g>
   <g id="patch_14">
    <path d="M 227.891547 89.717892 
L 222.57715 98.513663 
L 231.281281 99.419341 
z
" clip-path="url(#p804d179411)" style="fill: #444444"/>
   </g>
   <g id="patch_15">
    <path d="M 223.319533 133.657815 
L 195.798366 110.030494 
" clip-path="url(#p804d179411)" style="fill: none; stroke: #444444; stroke-width: 2; stroke-linejoin: miter"/>
   </g>
   <g id="patch_16">
    <path d="M 188.743171 103.973507 
L 192.948164 113.350417 
L 198.648568 106.710571 
z
" clip-path="url(#p804d179411)" style="fill: #444444"/>
   </g>
   <g id="patch_17">
    <path d="M 223.319533 133.657815 
L 255.586299 120.414975 
" clip-path="url(#p804d179411)" style="fill: none; stroke: #444444; stroke-width: 2; stroke-linejoin: miter"/>
   </g>
   <g id="patch_18">
    <path d="M 264.188532 116.88447 
L 253.924969 116.367072 
L 257.247629 124.462879 
z
" clip-path="url(#p804d179411)" style="fill: #444444"/>
   </g>
   <g id="patch_19">
    <path d="M 223.319533 133.657815 
L 253.74688 153.402219 
" clip-path="url(#p804d179411)" style="fill: none; stroke: #444444; stroke-width: 2; stroke-linejoin: miter"/>
   </g>
   <g id="patch_20">
    <path d="M 261.54709 158.4638 
L 256.12868 149.731719 
L 251.365081 157.072719 
z
" clip-path="url(#p804d179411)" style="fill: #444444"/>
   </g>
   <g id="matplotlib.axis_1"/>
   <g id="matplotlib.axis_2"/>
   <g id="patch_21">
    <path d="M 185.854096 200.842659 
C 190.396404 200.842659 194.753283 199.037981 197.96518 195.826084 
C 201.177077 192.614187 202.981755 188.257308 202.981755 183.715 
C 202.981755 179.172691 201.177077 174.815813 197.96518 171.603916 
C 194.753283 168.392019 190.396404 166.58734 185.854096 166.58734 
C 181.311787 166.58734 176.954909 168.392019 173.743012 171.603916 
C 170.531115 174.815813 168.726437 179.172691 168.726437 183.715 
C 168.726437 188.257308 170.531115 192.614187 173.743012 195.826084 
C 176.954909 199.037981 181.311787 200.842659 185.854096 200.842659 
z
" clip-path="url(#p804d179411)" style="fill: #bebebe; stroke: #000000; stroke-linejoin: miter"/>
   </g>
   <g id="patch_22">
    <path d="M 149.095559 249.955361 
C 153.637867 249.955361 157.994746 248.150683 161.206643 244.938786 
C 164.41854 241.726889 166.223218 237.37001 166.223218 232.827702 
C 166.223218 228.285393 164.41854 223.928515 161.206643 220.716618 
C 157.994746 217.504721 153.637867 215.700042 149.095559 215.700042 
C 144.553251 215.700042 140.196372 217.504721 136.984475 220.716618 
C 133.772578 223.928515 131.9679 228.285393 131.9679 232.827702 
C 131.9679 237.37001 133.772578 241.726889 136.984475 244.938786 
C 140.196372 248.150683 144.553251 249.955361 149.095559 249.955361 
z
" clip-path="url(#p804d179411)" style="fill: #bebebe; stroke: #000000; stroke-linejoin: miter"/>
   </g>
   <g id="patch_23">
    <path d="M 223.319533 150.785475 
C 227.861841 150.785475 232.21872 148.980796 235.430617 145.768899 
C 238.642514 142.557002 240.447192 138.200124 240.447192 133.657815 
C 240.447192 129.115507 238.642514 124.758628 235.430617 121.546731 
C 232.21872 118.334834 227.861841 116.530156 223.319533 116.530156 
C 218.777225 116.530156 214.420346 118.334834 211.208449 121.546731 
C 207.996552 124.758628 206.191874 129.115507 206.191874 133.657815 
C 206.191874 138.200124 207.996552 142.557002 211.208449 145.768899 
C 214.420346 148.980796 218.777225 150.785475 223.319533 150.785475 
z
" clip-path="url(#p804d179411)" style="fill: #bebebe; stroke: #000000; stroke-linejoin: miter"/>
   </g>
   <g id="patch_24">
    <path d="M 113.755339 297.173064 
C 118.297648 297.173064 122.654526 295.368385 125.866423 292.156488 
C 129.07832 288.944591 130.882998 284.587713 130.882998 280.045404 
C 130.882998 275.503096 129.07832 271.146217 125.866423 267.93432 
C 122.654526 264.722423 118.297648 262.917745 113.755339 262.917745 
C 109.213031 262.917745 104.856152 264.722423 101.644255 267.93432 
C 98.432358 271.146217 96.62768 275.503096 96.62768 280.045404 
C 96.62768 284.587713 98.432358 288.944591 101.644255 292.156488 
C 104.856152 295.368385 109.213031 297.173064 113.755339 297.173064 
z
" clip-path="url(#p804d179411)" style="fill: #bebebe; stroke: #000000; stroke-linejoin: miter"/>
   </g>
   <g id="patch_25">
    <path d="M 88.966391 232.217198 
C 93.508699 232.217198 97.865578 230.412519 101.077475 227.200622 
C 104.289372 223.988725 106.09405 219.631847 106.09405 215.089538 
C 106.09405 210.54723 104.289372 206.190351 101.077475 202.978454 
C 97.865578 199.766557 93.508699 197.961879 88.966391 197.961879 
C 84.424082 197.961879 80.067204 199.766557 76.855307 202.978454 
C 73.64341 206.190351 71.838732 210.54723 71.838732 215.089538 
C 71.838732 219.631847 73.64341 223.988725 76.855307 227.200622 
C 80.067204 230.412519 84.424082 232.217198 88.966391 232.217198 
z
" clip-path="url(#p804d179411)" style="fill: #bebebe; stroke: #000000; stroke-linejoin: miter"/>
   </g>
   <g id="patch_26">
    <path d="M 183.064858 302.645455 
C 187.607167 302.645455 191.964045 300.840776 195.175942 297.628879 
C 198.387839 294.416982 200.192518 290.060104 200.192518 285.517795 
C 200.192518 280.975487 198.387839 276.618608 195.175942 273.406711 
C 191.964045 270.194814 187.607167 268.390136 183.064858 268.390136 
C 178.52255 268.390136 174.165671 270.194814 170.953774 273.406711 
C 167.741877 276.618608 165.937199 280.975487 165.937199 285.517795 
C 165.937199 290.060104 167.741877 294.416982 170.953774 297.628879 
C 174.165671 300.840776 178.52255 302.645455 183.064858 302.645455 
z
" clip-path="url(#p804d179411)" style="fill: #bebebe; stroke: #000000; stroke-linejoin: miter"/>
   </g>
   <g id="patch_27">
    <path d="M 229.664136 89.809864 
C 234.206444 89.809864 238.563323 88.005186 241.77522 84.793289 
C 244.987117 81.581392 246.791795 77.224513 246.791795 72.682205 
C 246.791795 68.139896 244.987117 63.783018 241.77522 60.571121 
C 238.563323 57.359224 234.206444 55.554545 229.664136 55.554545 
C 225.121827 55.554545 220.764949 57.359224 217.553052 60.571121 
C 214.341155 63.783018 212.536477 68.139896 212.536477 72.682205 
C 212.536477 77.224513 214.341155 81.581392 217.553052 84.793289 
C 220.764949 88.005186 225.121827 89.809864 229.664136 89.809864 
z
" clip-path="url(#p804d179411)" style="fill: #bebebe; stroke: #000000; stroke-linejoin: miter"/>
   </g>
   <g id="patch_28">
    <path d="M 175.747695 109.944361 
C 180.290003 109.944361 184.646882 108.139682 187.858779 104.927785 
C 191.070676 101.715888 192.875354 97.35901 192.875354 92.816701 
C 192.875354 88.274393 191.070676 83.917514 187.858779 80.705617 
C 184.646882 77.49372 180.290003 75.689042 175.747695 75.689042 
C 171.205386 75.689042 166.848508 77.49372 163.636611 80.705617 
C 160.424714 83.917514 158.620035 88.274393 158.620035 92.816701 
C 158.620035 97.35901 160.424714 101.715888 163.636611 104.927785 
C 166.848508 108.139682 171.205386 109.944361 175.747695 109.944361 
z
" clip-path="url(#p804d179411)" style="fill: #bebebe; stroke: #000000; stroke-linejoin: miter"/>
   </g>
   <g id="patch_29">
    <path d="M 280.033609 127.509035 
C 284.575918 127.509035 288.932796 125.704357 292.144693 122.49246 
C 295.35659 119.280563 297.161268 114.923684 297.161268 110.381376 
C 297.161268 105.839067 295.35659 101.482189 292.144693 98.270292 
C 288.932796 95.058395 284.575918 93.253716 280.033609 93.253716 
C 275.491301 93.253716 271.134422 95.058395 267.922525 98.270292 
C 264.710628 101.482189 262.90595 105.839067 262.90595 110.381376 
C 262.90595 114.923684 264.710628 119.280563 267.922525 122.49246 
C 271.134422 125.704357 275.491301 127.509035 280.033609 127.509035 
z
" clip-path="url(#p804d179411)" style="fill: #bebebe; stroke: #000000; stroke-linejoin: miter"/>
   </g>
   <g id="patch_30">
    <path d="M 275.914863 184.914753 
C 280.457171 184.914753 284.81405 183.110075 288.025947 179.898178 
C 291.237844 176.686281 293.042522 172.329403 293.042522 167.787094 
C 293.042522 163.244786 291.237844 158.887907 288.025947 155.67601 
C 284.81405 152.464113 280.457171 150.659435 275.914863 150.659435 
C 271.372555 150.659435 267.015676 152.464113 263.803779 155.67601 
C 260.591882 158.887907 258.787204 163.244786 258.787204 167.787094 
C 258.787204 172.329403 260.591882 176.686281 263.803779 179.898178 
C 267.015676 183.110075 271.372555 184.914753 275.914863 184.914753 
z
" clip-path="url(#p804d179411)" style="fill: #bebebe; stroke: #000000; stroke-linejoin: miter"/>
   </g>
   <g id="text_1">
    <!-- 0 -->
    <g transform="translate(182.036596 187.02625)scale(0.12 -0.12)">
     <defs>
      <path id="DejaVuSans-30" d="M 2034 4250 
Q 1547 4250 1301 3770 
Q 1056 3291 1056 2328 
Q 1056 1369 1301 889 
Q 1547 409 2034 409 
Q 2525 409 2770 889 
Q 3016 1369 3016 2328 
Q 3016 3291 2770 3770 
Q 2525 4250 2034 4250 
z
M 2034 4750 
Q 2819 4750 3233 4129 
Q 3647 3509 3647 2328 
Q 3647 1150 3233 529 
Q 2819 -91 2034 -91 
Q 1250 -91 836 529 
Q 422 1150 422 2328 
Q 422 3509 836 4129 
Q 1250 4750 2034 4750 
z
" transform="scale(0.015625)"/>
     </defs>
     <use xlink:href="#DejaVuSans-30"/>
    </g>
   </g>
   <g id="text_2">
    <!-- 1 -->
    <g transform="translate(145.278059 236.138952)scale(0.12 -0.12)">
     <defs>
      <path id="DejaVuSans-31" d="M 794 531 
L 1825 531 
L 1825 4091 
L 703 3866 
L 703 4441 
L 1819 4666 
L 2450 4666 
L 2450 531 
L 3481 531 
L 3481 0 
L 794 0 
L 794 531 
z
" transform="scale(0.015625)"/>
     </defs>
     <use xlink:href="#DejaVuSans-31"/>
    </g>
   </g>
   <g id="text_3">
    <!-- 2 -->
    <g transform="translate(219.502033 136.969065)scale(0.12 -0.12)">
     <defs>
      <path id="DejaVuSans-32" d="M 1228 531 
L 3431 531 
L 3431 0 
L 469 0 
L 469 531 
Q 828 903 1448 1529 
Q 2069 2156 2228 2338 
Q 2531 2678 2651 2914 
Q 2772 3150 2772 3378 
Q 2772 3750 2511 3984 
Q 2250 4219 1831 4219 
Q 1534 4219 1204 4116 
Q 875 4013 500 3803 
L 500 4441 
Q 881 4594 1212 4672 
Q 1544 4750 1819 4750 
Q 2544 4750 2975 4387 
Q 3406 4025 3406 3419 
Q 3406 3131 3298 2873 
Q 3191 2616 2906 2266 
Q 2828 2175 2409 1742 
Q 1991 1309 1228 531 
z
" transform="scale(0.015625)"/>
     </defs>
     <use xlink:href="#DejaVuSans-32"/>
    </g>
   </g>
   <g id="text_4">
    <!-- 3 -->
    <g transform="translate(109.937839 283.356654)scale(0.12 -0.12)">
     <defs>
      <path id="DejaVuSans-33" d="M 2597 2516 
Q 3050 2419 3304 2112 
Q 3559 1806 3559 1356 
Q 3559 666 3084 287 
Q 2609 -91 1734 -91 
Q 1441 -91 1130 -33 
Q 819 25 488 141 
L 488 750 
Q 750 597 1062 519 
Q 1375 441 1716 441 
Q 2309 441 2620 675 
Q 2931 909 2931 1356 
Q 2931 1769 2642 2001 
Q 2353 2234 1838 2234 
L 1294 2234 
L 1294 2753 
L 1863 2753 
Q 2328 2753 2575 2939 
Q 2822 3125 2822 3475 
Q 2822 3834 2567 4026 
Q 2313 4219 1838 4219 
Q 1578 4219 1281 4162 
Q 984 4106 628 3988 
L 628 4550 
Q 988 4650 1302 4700 
Q 1616 4750 1894 4750 
Q 2613 4750 3031 4423 
Q 3450 4097 3450 3541 
Q 3450 3153 3228 2886 
Q 3006 2619 2597 2516 
z
" transform="scale(0.015625)"/>
     </defs>
     <use xlink:href="#DejaVuSans-33"/>
    </g>
   </g>
   <g id="text_5">
    <!-- 4 -->
    <g transform="translate(85.148891 218.400788)scale(0.12 -0.12)">
     <defs>
      <path id="DejaVuSans-34" d="M 2419 4116 
L 825 1625 
L 2419 1625 
L 2419 4116 
z
M 2253 4666 
L 3047 4666 
L 3047 1625 
L 3713 1625 
L 3713 1100 
L 3047 1100 
L 3047 0 
L 2419 0 
L 2419 1100 
L 313 1100 
L 313 1709 
L 2253 4666 
z
" transform="scale(0.015625)"/>
     </defs>
     <use xlink:href="#DejaVuSans-34"/>
    </g>
   </g>
   <g id="text_6">
    <!-- 5 -->
    <g transform="translate(179.247358 288.829045)scale(0.12 -0.12)">
     <defs>
      <path id="DejaVuSans-35" d="M 691 4666 
L 3169 4666 
L 3169 4134 
L 1269 4134 
L 1269 2991 
Q 1406 3038 1543 3061 
Q 1681 3084 1819 3084 
Q 2600 3084 3056 2656 
Q 3513 2228 3513 1497 
Q 3513 744 3044 326 
Q 2575 -91 1722 -91 
Q 1428 -91 1123 -41 
Q 819 9 494 109 
L 494 744 
Q 775 591 1075 516 
Q 1375 441 1709 441 
Q 2250 441 2565 725 
Q 2881 1009 2881 1497 
Q 2881 1984 2565 2268 
Q 2250 2553 1709 2553 
Q 1456 2553 1204 2497 
Q 953 2441 691 2322 
L 691 4666 
z
" transform="scale(0.015625)"/>
     </defs>
     <use xlink:href="#DejaVuSans-35"/>
    </g>
   </g>
   <g id="text_7">
    <!-- 6 -->
    <g transform="translate(225.846636 75.993455)scale(0.12 -0.12)">
     <defs>
      <path id="DejaVuSans-36" d="M 2113 2584 
Q 1688 2584 1439 2293 
Q 1191 2003 1191 1497 
Q 1191 994 1439 701 
Q 1688 409 2113 409 
Q 2538 409 2786 701 
Q 3034 994 3034 1497 
Q 3034 2003 2786 2293 
Q 2538 2584 2113 2584 
z
M 3366 4563 
L 3366 3988 
Q 3128 4100 2886 4159 
Q 2644 4219 2406 4219 
Q 1781 4219 1451 3797 
Q 1122 3375 1075 2522 
Q 1259 2794 1537 2939 
Q 1816 3084 2150 3084 
Q 2853 3084 3261 2657 
Q 3669 2231 3669 1497 
Q 3669 778 3244 343 
Q 2819 -91 2113 -91 
Q 1303 -91 875 529 
Q 447 1150 447 2328 
Q 447 3434 972 4092 
Q 1497 4750 2381 4750 
Q 2619 4750 2861 4703 
Q 3103 4656 3366 4563 
z
" transform="scale(0.015625)"/>
     </defs>
     <use xlink:href="#DejaVuSans-36"/>
    </g>
   </g>
   <g id="text_8">
    <!-- 7 -->
    <g transform="translate(171.930195 96.127951)scale(0.12 -0.12)">
     <defs>
      <path id="DejaVuSans-37" d="M 525 4666 
L 3525 4666 
L 3525 4397 
L 1831 0 
L 1172 0 
L 2766 4134 
L 525 4134 
L 525 4666 
z
" transform="scale(0.015625)"/>
     </defs>
     <use xlink:href="#DejaVuSans-37"/>
    </g>
   </g>
   <g id="text_9">
    <!-- 8 -->
    <g transform="translate(276.216109 113.692626)scale(0.12 -0.12)">
     <defs>
      <path id="DejaVuSans-38" d="M 2034 2216 
Q 1584 2216 1326 1975 
Q 1069 1734 1069 1313 
Q 1069 891 1326 650 
Q 1584 409 2034 409 
Q 2484 409 2743 651 
Q 3003 894 3003 1313 
Q 3003 1734 2745 1975 
Q 2488 2216 2034 2216 
z
M 1403 2484 
Q 997 2584 770 2862 
Q 544 3141 544 3541 
Q 544 4100 942 4425 
Q 1341 4750 2034 4750 
Q 2731 4750 3128 4425 
Q 3525 4100 3525 3541 
Q 3525 3141 3298 2862 
Q 3072 2584 2669 2484 
Q 3125 2378 3379 2068 
Q 3634 1759 3634 1313 
Q 3634 634 3220 271 
Q 2806 -91 2034 -91 
Q 1263 -91 848 271 
Q 434 634 434 1313 
Q 434 1759 690 2068 
Q 947 2378 1403 2484 
z
M 1172 3481 
Q 1172 3119 1398 2916 
Q 1625 2713 2034 2713 
Q 2441 2713 2670 2916 
Q 2900 3119 2900 3481 
Q 2900 3844 2670 4047 
Q 2441 4250 2034 4250 
Q 1625 4250 1398 4047 
Q 1172 3844 1172 3481 
z
" transform="scale(0.015625)"/>
     </defs>
     <use xlink:href="#DejaVuSans-38"/>
    </g>
   </g>
   <g id="text_10">
    <!-- 9 -->
    <g transform="translate(272.097363 171.098344)scale(0.12 -0.12)">
     <defs>
      <path id="DejaVuSans-39" d="M 703 97 
L 703 672 
Q 941 559 1184 500 
Q 1428 441 1663 441 
Q 2288 441 2617 861 
Q 2947 1281 2994 2138 
Q 2813 1869 2534 1725 
Q 2256 1581 1919 1581 
Q 1219 1581 811 2004 
Q 403 2428 403 3163 
Q 403 3881 828 4315 
Q 1253 4750 1959 4750 
Q 2769 4750 3195 4129 
Q 3622 3509 3622 2328 
Q 3622 1225 3098 567 
Q 2575 -91 1691 -91 
Q 1453 -91 1209 -44 
Q 966 3 703 97 
z
M 1959 2075 
Q 2384 2075 2632 2365 
Q 2881 2656 2881 3163 
Q 2881 3666 2632 3958 
Q 2384 4250 1959 4250 
Q 1534 4250 1286 3958 
Q 1038 3666 1038 3163 
Q 1038 2656 1286 2365 
Q 1534 2075 1959 2075 
z
" transform="scale(0.015625)"/>
     </defs>
     <use xlink:href="#DejaVuSans-39"/>
    </g>
   </g>
  </g>
 </g>
 <defs>
  <clipPath id="p804d179411">
   <rect x="60.572605" y="43.2" width="247.854791" height="271.8"/>
  </clipPath>
 </defs>
</svg>
