<?xml version="1.0" encoding="utf-8" standalone="no"?>
<!DOCTYPE svg PUBLIC "-//W3C//DTD SVG 1.1//EN"
  "http://www.w3.org/Graphics/SVG/1.1/DTD/svg11.dtd">
<svg xmlns:xlink="http://www.w3.org/1999/xlink" width="360pt" height="360pt" viewBox="0 0 360 360" xmlns="http://www.w3.org/2000/svg" version="1.1">
 <metadata>
  <rdf:RDF xmlns:dc="http://purl.org/dc/elements/1.1/" xmlns:cc="http://creativecommons.org/ns#" xmlns:rdf="http://www.w3.org/1999/02/22-rdf-syntax-ns#">
   <cc:Work>
    <dc:type rdf:resource="http://purl.org/dc/dcmitype/StillImage"/>
    <dc:date>2023-10-02T16:51:44.890925</dc:date>
    <dc:format>image/svg+xml</dc:format>
    <dc:creator>
     <cc:Agent>
      <dc:title>Matplotlib v3.5.1, https://matplotlib.org/</dc:title>
     </cc:Agent>
    </dc:creator>
   </cc:Work>
  </rdf:RDF>
 </metadata>
 <defs>
  <style type="text/css">*{stroke-linejoin: round; stroke-linecap: butt}</style>
 </defs>
 <g id="figure_1">
  <g id="patch_1">
   <path d="M 0 360 
L 360 360 
L 360 0 
L 0 0 
L 0 360 
z
" style="fill: none"/>
  </g>
  <g id="axes_1">
   <g id="patch_2">
    <path d="M 45 232.753846 
L 324 232.753846 
L 324 125.446154 
L 45 125.446154 
z
" style="fill: #ffffff"/>
   </g>
   <g id="patch_3">
    <path d="M 184.5 140.079021 
L 119.920361 172.36884 
" clip-path="url(#p3da5fcbc7c)" style="fill: none; stroke: #444444; stroke-width: 2; stroke-linejoin: miter"/>
   </g>
   <g id="patch_4">
    <path d="M 115.183398 174.737322 
L 121.034884 174.597886 
L 118.805838 170.139795 
z
" clip-path="url(#p3da5fcbc7c)" style="fill: #444444"/>
   </g>
   <g id="patch_5">
    <path d="M 184.5 140.079021 
L 230.508005 170.751024 
" clip-path="url(#p3da5fcbc7c)" style="fill: none; stroke: #444444; stroke-width: 2; stroke-linejoin: miter"/>
   </g>
   <g id="patch_6">
    <path d="M 234.914614 173.688764 
L 231.8904 168.677431 
L 229.125609 172.824617 
z
" clip-path="url(#p3da5fcbc7c)" style="fill: #444444"/>
   </g>
   <g id="patch_7">
    <path d="M 106.458042 179.1 
L 134.836123 207.478081 
" clip-path="url(#p3da5fcbc7c)" style="fill: none; stroke: #444444; stroke-width: 2; stroke-linejoin: miter"/>
   </g>
   <g id="patch_8">
    <path d="M 138.581021 211.222979 
L 136.598338 205.715866 
L 133.073908 209.240297 
z
" clip-path="url(#p3da5fcbc7c)" style="fill: #444444"/>
   </g>
   <g id="patch_9">
    <path d="M 106.458042 179.1 
L 78.079961 207.478081 
" clip-path="url(#p3da5fcbc7c)" style="fill: none; stroke: #444444; stroke-width: 2; stroke-linejoin: miter"/>
   </g>
   <g id="patch_10">
    <path d="M 74.335063 211.222979 
L 79.842176 209.240297 
L 76.317745 205.715866 
z
" clip-path="url(#p3da5fcbc7c)" style="fill: #444444"/>
   </g>
   <g id="patch_11">
    <path d="M 106.458042 179.1 
L 106.458042 203.069649 
" clip-path="url(#p3da5fcbc7c)" style="fill: none; stroke: #444444; stroke-width: 2; stroke-linejoin: miter"/>
   </g>
   <g id="patch_12">
    <path d="M 106.458042 208.365734 
L 108.950191 203.069649 
L 103.965893 203.069649 
z
" clip-path="url(#p3da5fcbc7c)" style="fill: #444444"/>
   </g>
   <g id="patch_13">
    <path d="M 243.031469 179.1 
L 197.023464 209.772003 
" clip-path="url(#p3da5fcbc7c)" style="fill: none; stroke: #444444; stroke-width: 2; stroke-linejoin: miter"/>
   </g>
   <g id="patch_14">
    <path d="M 192.616854 212.709743 
L 198.405859 211.845596 
L 195.641068 207.69841 
z
" clip-path="url(#p3da5fcbc7c)" style="fill: #444444"/>
   </g>
   <g id="patch_15">
    <path d="M 243.031469 179.1 
L 230.252139 204.65866 
" clip-path="url(#p3da5fcbc7c)" style="fill: none; stroke: #444444; stroke-width: 2; stroke-linejoin: miter"/>
   </g>
   <g id="patch_16">
    <path d="M 227.883657 209.395623 
L 232.481184 205.773183 
L 228.023093 203.544137 
z
" clip-path="url(#p3da5fcbc7c)" style="fill: #444444"/>
   </g>
   <g id="patch_17">
    <path d="M 243.031469 179.1 
L 255.810798 204.65866 
" clip-path="url(#p3da5fcbc7c)" style="fill: none; stroke: #444444; stroke-width: 2; stroke-linejoin: miter"/>
   </g>
   <g id="patch_18">
    <path d="M 258.17928 209.395623 
L 258.039844 203.544137 
L 253.581753 205.773183 
z
" clip-path="url(#p3da5fcbc7c)" style="fill: #444444"/>
   </g>
   <g id="patch_19">
    <path d="M 243.031469 179.1 
L 289.039473 209.772003 
" clip-path="url(#p3da5fcbc7c)" style="fill: none; stroke: #444444; stroke-width: 2; stroke-linejoin: miter"/>
   </g>
   <g id="patch_20">
    <path d="M 293.446083 212.709743 
L 290.421869 207.69841 
L 287.657078 211.845596 
z
" clip-path="url(#p3da5fcbc7c)" style="fill: #444444"/>
   </g>
   <g id="matplotlib.axis_1"/>
   <g id="matplotlib.axis_2"/>
   <g id="patch_21">
    <path d="M 184.5 149.834266 
C 187.087121 149.834266 189.568629 148.806392 191.398 146.977021 
C 193.227371 145.14765 194.255245 142.666142 194.255245 140.079021 
C 194.255245 137.4919 193.227371 135.010392 191.398 133.181021 
C 189.568629 131.35165 187.087121 130.323776 184.5 130.323776 
C 181.912879 130.323776 179.431371 131.35165 177.602 133.181021 
C 175.772629 135.010392 174.744755 137.4919 174.744755 140.079021 
C 174.744755 142.666142 175.772629 145.14765 177.602 146.977021 
C 179.431371 148.806392 181.912879 149.834266 184.5 149.834266 
z
" clip-path="url(#p3da5fcbc7c)" style="fill: #bebebe; stroke: #000000; stroke-linejoin: miter"/>
   </g>
   <g id="patch_22">
    <path d="M 106.458042 188.855245 
C 109.045163 188.855245 111.526671 187.827371 113.356042 185.998 
C 115.185413 184.168629 116.213287 181.687121 116.213287 179.1 
C 116.213287 176.512879 115.185413 174.031371 113.356042 172.202 
C 111.526671 170.372629 109.045163 169.344755 106.458042 169.344755 
C 103.870921 169.344755 101.389413 170.372629 99.560042 172.202 
C 97.730671 174.031371 96.702797 176.512879 96.702797 179.1 
C 96.702797 181.687121 97.730671 184.168629 99.560042 185.998 
C 101.389413 187.827371 103.870921 188.855245 106.458042 188.855245 
z
" clip-path="url(#p3da5fcbc7c)" style="fill: #bebebe; stroke: #000000; stroke-linejoin: miter"/>
   </g>
   <g id="patch_23">
    <path d="M 243.031469 188.855245 
C 245.61859 188.855245 248.100097 187.827371 249.929468 185.998 
C 251.758839 184.168629 252.786713 181.687121 252.786713 179.1 
C 252.786713 176.512879 251.758839 174.031371 249.929468 172.202 
C 248.100097 170.372629 245.61859 169.344755 243.031469 169.344755 
C 240.444347 169.344755 237.96284 170.372629 236.133469 172.202 
C 234.304098 174.031371 233.276224 176.512879 233.276224 179.1 
C 233.276224 181.687121 234.304098 184.168629 236.133469 185.998 
C 237.96284 187.827371 240.444347 188.855245 243.031469 188.855245 
z
" clip-path="url(#p3da5fcbc7c)" style="fill: #bebebe; stroke: #000000; stroke-linejoin: miter"/>
   </g>
   <g id="patch_24">
    <path d="M 145.479021 227.876224 
C 148.066142 227.876224 150.54765 226.84835 152.377021 225.018979 
C 154.206392 223.189608 155.234266 220.7081 155.234266 218.120979 
C 155.234266 215.533858 154.206392 213.05235 152.377021 211.222979 
C 150.54765 209.393608 148.066142 208.365734 145.479021 208.365734 
C 142.8919 208.365734 140.410392 209.393608 138.581021 211.222979 
C 136.75165 213.05235 135.723776 215.533858 135.723776 218.120979 
C 135.723776 220.7081 136.75165 223.189608 138.581021 225.018979 
C 140.410392 226.84835 142.8919 227.876224 145.479021 227.876224 
z
" clip-path="url(#p3da5fcbc7c)" style="fill: #bebebe; stroke: #000000; stroke-linejoin: miter"/>
   </g>
   <g id="patch_25">
    <path d="M 67.437063 227.876224 
C 70.024184 227.876224 72.505692 226.84835 74.335063 225.018979 
C 76.164434 223.189608 77.192308 220.7081 77.192308 218.120979 
C 77.192308 215.533858 76.164434 213.05235 74.335063 211.222979 
C 72.505692 209.393608 70.024184 208.365734 67.437063 208.365734 
C 64.849942 208.365734 62.368434 209.393608 60.539063 211.222979 
C 58.709692 213.05235 57.681818 215.533858 57.681818 218.120979 
C 57.681818 220.7081 58.709692 223.189608 60.539063 225.018979 
C 62.368434 226.84835 64.849942 227.876224 67.437063 227.876224 
z
" clip-path="url(#p3da5fcbc7c)" style="fill: #bebebe; stroke: #000000; stroke-linejoin: miter"/>
   </g>
   <g id="patch_26">
    <path d="M 106.458042 227.876224 
C 109.045163 227.876224 111.526671 226.84835 113.356042 225.018979 
C 115.185413 223.189608 116.213287 220.7081 116.213287 218.120979 
C 116.213287 215.533858 115.185413 213.05235 113.356042 211.222979 
C 111.526671 209.393608 109.045163 208.365734 106.458042 208.365734 
C 103.870921 208.365734 101.389413 209.393608 99.560042 211.222979 
C 97.730671 213.05235 96.702797 215.533858 96.702797 218.120979 
C 96.702797 220.7081 97.730671 223.189608 99.560042 225.018979 
C 101.389413 226.84835 103.870921 227.876224 106.458042 227.876224 
z
" clip-path="url(#p3da5fcbc7c)" style="fill: #bebebe; stroke: #000000; stroke-linejoin: miter"/>
   </g>
   <g id="patch_27">
    <path d="M 184.5 227.876224 
C 187.087121 227.876224 189.568629 226.84835 191.398 225.018979 
C 193.227371 223.189608 194.255245 220.7081 194.255245 218.120979 
C 194.255245 215.533858 193.227371 213.05235 191.398 211.222979 
C 189.568629 209.393608 187.087121 208.365734 184.5 208.365734 
C 181.912879 208.365734 179.431371 209.393608 177.602 211.222979 
C 175.772629 213.05235 174.744755 215.533858 174.744755 218.120979 
C 174.744755 220.7081 175.772629 223.189608 177.602 225.018979 
C 179.431371 226.84835 181.912879 227.876224 184.5 227.876224 
z
" clip-path="url(#p3da5fcbc7c)" style="fill: #bebebe; stroke: #000000; stroke-linejoin: miter"/>
   </g>
   <g id="patch_28">
    <path d="M 223.520979 227.876224 
C 226.1081 227.876224 228.589608 226.84835 230.418979 225.018979 
C 232.24835 223.189608 233.276224 220.7081 233.276224 218.120979 
C 233.276224 215.533858 232.24835 213.05235 230.418979 211.222979 
C 228.589608 209.393608 226.1081 208.365734 223.520979 208.365734 
C 220.933858 208.365734 218.45235 209.393608 216.622979 211.222979 
C 214.793608 213.05235 213.765734 215.533858 213.765734 218.120979 
C 213.765734 220.7081 214.793608 223.189608 216.622979 225.018979 
C 218.45235 226.84835 220.933858 227.876224 223.520979 227.876224 
z
" clip-path="url(#p3da5fcbc7c)" style="fill: #bebebe; stroke: #000000; stroke-linejoin: miter"/>
   </g>
   <g id="patch_29">
    <path d="M 262.541958 227.876224 
C 265.129079 227.876224 267.610587 226.84835 269.439958 225.018979 
C 271.269329 223.189608 272.297203 220.7081 272.297203 218.120979 
C 272.297203 215.533858 271.269329 213.05235 269.439958 211.222979 
C 267.610587 209.393608 265.129079 208.365734 262.541958 208.365734 
C 259.954837 208.365734 257.473329 209.393608 255.643958 211.222979 
C 253.814587 213.05235 252.786713 215.533858 252.786713 218.120979 
C 252.786713 220.7081 253.814587 223.189608 255.643958 225.018979 
C 257.473329 226.84835 259.954837 227.876224 262.541958 227.876224 
z
" clip-path="url(#p3da5fcbc7c)" style="fill: #bebebe; stroke: #000000; stroke-linejoin: miter"/>
   </g>
   <g id="patch_30">
    <path d="M 301.562937 227.876224 
C 304.150058 227.876224 306.631566 226.84835 308.460937 225.018979 
C 310.290308 223.189608 311.318182 220.7081 311.318182 218.120979 
C 311.318182 215.533858 310.290308 213.05235 308.460937 211.222979 
C 306.631566 209.393608 304.150058 208.365734 301.562937 208.365734 
C 298.975816 208.365734 296.494308 209.393608 294.664937 211.222979 
C 292.835566 213.05235 291.807692 215.533858 291.807692 218.120979 
C 291.807692 220.7081 292.835566 223.189608 294.664937 225.018979 
C 296.494308 226.84835 298.975816 227.876224 301.562937 227.876224 
z
" clip-path="url(#p3da5fcbc7c)" style="fill: #bebebe; stroke: #000000; stroke-linejoin: miter"/>
   </g>
   <g id="text_1">
    <!-- 0 -->
    <g transform="translate(180.6825 143.390271)scale(0.12 -0.12)">
     <defs>
      <path id="DejaVuSans-30" d="M 2034 4250 
Q 1547 4250 1301 3770 
Q 1056 3291 1056 2328 
Q 1056 1369 1301 889 
Q 1547 409 2034 409 
Q 2525 409 2770 889 
Q 3016 1369 3016 2328 
Q 3016 3291 2770 3770 
Q 2525 4250 2034 4250 
z
M 2034 4750 
Q 2819 4750 3233 4129 
Q 3647 3509 3647 2328 
Q 3647 1150 3233 529 
Q 2819 -91 2034 -91 
Q 1250 -91 836 529 
Q 422 1150 422 2328 
Q 422 3509 836 4129 
Q 1250 4750 2034 4750 
z
" transform="scale(0.015625)"/>
     </defs>
     <use xlink:href="#DejaVuSans-30"/>
    </g>
   </g>
   <g id="text_2">
    <!-- 1 -->
    <g transform="translate(102.640542 182.41125)scale(0.12 -0.12)">
     <defs>
      <path id="DejaVuSans-31" d="M 794 531 
L 1825 531 
L 1825 4091 
L 703 3866 
L 703 4441 
L 1819 4666 
L 2450 4666 
L 2450 531 
L 3481 531 
L 3481 0 
L 794 0 
L 794 531 
z
" transform="scale(0.015625)"/>
     </defs>
     <use xlink:href="#DejaVuSans-31"/>
    </g>
   </g>
   <g id="text_3">
    <!-- 2 -->
    <g transform="translate(239.213969 182.41125)scale(0.12 -0.12)">
     <defs>
      <path id="DejaVuSans-32" d="M 1228 531 
L 3431 531 
L 3431 0 
L 469 0 
L 469 531 
Q 828 903 1448 1529 
Q 2069 2156 2228 2338 
Q 2531 2678 2651 2914 
Q 2772 3150 2772 3378 
Q 2772 3750 2511 3984 
Q 2250 4219 1831 4219 
Q 1534 4219 1204 4116 
Q 875 4013 500 3803 
L 500 4441 
Q 881 4594 1212 4672 
Q 1544 4750 1819 4750 
Q 2544 4750 2975 4387 
Q 3406 4025 3406 3419 
Q 3406 3131 3298 2873 
Q 3191 2616 2906 2266 
Q 2828 2175 2409 1742 
Q 1991 1309 1228 531 
z
" transform="scale(0.015625)"/>
     </defs>
     <use xlink:href="#DejaVuSans-32"/>
    </g>
   </g>
   <g id="text_4">
    <!-- 3 -->
    <g transform="translate(141.661521 221.432229)scale(0.12 -0.12)">
     <defs>
      <path id="DejaVuSans-33" d="M 2597 2516 
Q 3050 2419 3304 2112 
Q 3559 1806 3559 1356 
Q 3559 666 3084 287 
Q 2609 -91 1734 -91 
Q 1441 -91 1130 -33 
Q 819 25 488 141 
L 488 750 
Q 750 597 1062 519 
Q 1375 441 1716 441 
Q 2309 441 2620 675 
Q 2931 909 2931 1356 
Q 2931 1769 2642 2001 
Q 2353 2234 1838 2234 
L 1294 2234 
L 1294 2753 
L 1863 2753 
Q 2328 2753 2575 2939 
Q 2822 3125 2822 3475 
Q 2822 3834 2567 4026 
Q 2313 4219 1838 4219 
Q 1578 4219 1281 4162 
Q 984 4106 628 3988 
L 628 4550 
Q 988 4650 1302 4700 
Q 1616 4750 1894 4750 
Q 2613 4750 3031 4423 
Q 3450 4097 3450 3541 
Q 3450 3153 3228 2886 
Q 3006 2619 2597 2516 
z
" transform="scale(0.015625)"/>
     </defs>
     <use xlink:href="#DejaVuSans-33"/>
    </g>
   </g>
   <g id="text_5">
    <!-- 4 -->
    <g transform="translate(63.619563 221.432229)scale(0.12 -0.12)">
     <defs>
      <path id="DejaVuSans-34" d="M 2419 4116 
L 825 1625 
L 2419 1625 
L 2419 4116 
z
M 2253 4666 
L 3047 4666 
L 3047 1625 
L 3713 1625 
L 3713 1100 
L 3047 1100 
L 3047 0 
L 2419 0 
L 2419 1100 
L 313 1100 
L 313 1709 
L 2253 4666 
z
" transform="scale(0.015625)"/>
     </defs>
     <use xlink:href="#DejaVuSans-34"/>
    </g>
   </g>
   <g id="text_6">
    <!-- 5 -->
    <g transform="translate(102.640542 221.432229)scale(0.12 -0.12)">
     <defs>
      <path id="DejaVuSans-35" d="M 691 4666 
L 3169 4666 
L 3169 4134 
L 1269 4134 
L 1269 2991 
Q 1406 3038 1543 3061 
Q 1681 3084 1819 3084 
Q 2600 3084 3056 2656 
Q 3513 2228 3513 1497 
Q 3513 744 3044 326 
Q 2575 -91 1722 -91 
Q 1428 -91 1123 -41 
Q 819 9 494 109 
L 494 744 
Q 775 591 1075 516 
Q 1375 441 1709 441 
Q 2250 441 2565 725 
Q 2881 1009 2881 1497 
Q 2881 1984 2565 2268 
Q 2250 2553 1709 2553 
Q 1456 2553 1204 2497 
Q 953 2441 691 2322 
L 691 4666 
z
" transform="scale(0.015625)"/>
     </defs>
     <use xlink:href="#DejaVuSans-35"/>
    </g>
   </g>
   <g id="text_7">
    <!-- 6 -->
    <g transform="translate(180.6825 221.432229)scale(0.12 -0.12)">
     <defs>
      <path id="DejaVuSans-36" d="M 2113 2584 
Q 1688 2584 1439 2293 
Q 1191 2003 1191 1497 
Q 1191 994 1439 701 
Q 1688 409 2113 409 
Q 2538 409 2786 701 
Q 3034 994 3034 1497 
Q 3034 2003 2786 2293 
Q 2538 2584 2113 2584 
z
M 3366 4563 
L 3366 3988 
Q 3128 4100 2886 4159 
Q 2644 4219 2406 4219 
Q 1781 4219 1451 3797 
Q 1122 3375 1075 2522 
Q 1259 2794 1537 2939 
Q 1816 3084 2150 3084 
Q 2853 3084 3261 2657 
Q 3669 2231 3669 1497 
Q 3669 778 3244 343 
Q 2819 -91 2113 -91 
Q 1303 -91 875 529 
Q 447 1150 447 2328 
Q 447 3434 972 4092 
Q 1497 4750 2381 4750 
Q 2619 4750 2861 4703 
Q 3103 4656 3366 4563 
z
" transform="scale(0.015625)"/>
     </defs>
     <use xlink:href="#DejaVuSans-36"/>
    </g>
   </g>
   <g id="text_8">
    <!-- 7 -->
    <g transform="translate(219.703479 221.432229)scale(0.12 -0.12)">
     <defs>
      <path id="DejaVuSans-37" d="M 525 4666 
L 3525 4666 
L 3525 4397 
L 1831 0 
L 1172 0 
L 2766 4134 
L 525 4134 
L 525 4666 
z
" transform="scale(0.015625)"/>
     </defs>
     <use xlink:href="#DejaVuSans-37"/>
    </g>
   </g>
   <g id="text_9">
    <!-- 8 -->
    <g transform="translate(258.724458 221.432229)scale(0.12 -0.12)">
     <defs>
      <path id="DejaVuSans-38" d="M 2034 2216 
Q 1584 2216 1326 1975 
Q 1069 1734 1069 1313 
Q 1069 891 1326 650 
Q 1584 409 2034 409 
Q 2484 409 2743 651 
Q 3003 894 3003 1313 
Q 3003 1734 2745 1975 
Q 2488 2216 2034 2216 
z
M 1403 2484 
Q 997 2584 770 2862 
Q 544 3141 544 3541 
Q 544 4100 942 4425 
Q 1341 4750 2034 4750 
Q 2731 4750 3128 4425 
Q 3525 4100 3525 3541 
Q 3525 3141 3298 2862 
Q 3072 2584 2669 2484 
Q 3125 2378 3379 2068 
Q 3634 1759 3634 1313 
Q 3634 634 3220 271 
Q 2806 -91 2034 -91 
Q 1263 -91 848 271 
Q 434 634 434 1313 
Q 434 1759 690 2068 
Q 947 2378 1403 2484 
z
M 1172 3481 
Q 1172 3119 1398 2916 
Q 1625 2713 2034 2713 
Q 2441 2713 2670 2916 
Q 2900 3119 2900 3481 
Q 2900 3844 2670 4047 
Q 2441 4250 2034 4250 
Q 1625 4250 1398 4047 
Q 1172 3844 1172 3481 
z
" transform="scale(0.015625)"/>
     </defs>
     <use xlink:href="#DejaVuSans-38"/>
    </g>
   </g>
   <g id="text_10">
    <!-- 9 -->
    <g transform="translate(297.745437 221.432229)scale(0.12 -0.12)">
     <defs>
      <path id="DejaVuSans-39" d="M 703 97 
L 703 672 
Q 941 559 1184 500 
Q 1428 441 1663 441 
Q 2288 441 2617 861 
Q 2947 1281 2994 2138 
Q 2813 1869 2534 1725 
Q 2256 1581 1919 1581 
Q 1219 1581 811 2004 
Q 403 2428 403 3163 
Q 403 3881 828 4315 
Q 1253 4750 1959 4750 
Q 2769 4750 3195 4129 
Q 3622 3509 3622 2328 
Q 3622 1225 3098 567 
Q 2575 -91 1691 -91 
Q 1453 -91 1209 -44 
Q 966 3 703 97 
z
M 1959 2075 
Q 2384 2075 2632 2365 
Q 2881 2656 2881 3163 
Q 2881 3666 2632 3958 
Q 2384 4250 1959 4250 
Q 1534 4250 1286 3958 
Q 1038 3666 1038 3163 
Q 1038 2656 1286 2365 
Q 1534 2075 1959 2075 
z
" transform="scale(0.015625)"/>
     </defs>
     <use xlink:href="#DejaVuSans-39"/>
    </g>
   </g>
  </g>
 </g>
 <defs>
  <clipPath id="p3da5fcbc7c">
   <rect x="45" y="125.446154" width="279" height="107.307692"/>
  </clipPath>
 </defs>
</svg>
