<?xml version="1.0" encoding="utf-8" standalone="no"?>
<!DOCTYPE svg PUBLIC "-//W3C//DTD SVG 1.1//EN"
  "http://www.w3.org/Graphics/SVG/1.1/DTD/svg11.dtd">
<svg xmlns:xlink="http://www.w3.org/1999/xlink" width="360pt" height="720pt" viewBox="0 0 360 720" xmlns="http://www.w3.org/2000/svg" version="1.1">
 <metadata>
  <rdf:RDF xmlns:dc="http://purl.org/dc/elements/1.1/" xmlns:cc="http://creativecommons.org/ns#" xmlns:rdf="http://www.w3.org/1999/02/22-rdf-syntax-ns#">
   <cc:Work>
    <dc:type rdf:resource="http://purl.org/dc/dcmitype/StillImage"/>
    <dc:date>2023-10-02T17:02:53.373112</dc:date>
    <dc:format>image/svg+xml</dc:format>
    <dc:creator>
     <cc:Agent>
      <dc:title>Matplotlib v3.5.1, https://matplotlib.org/</dc:title>
     </cc:Agent>
    </dc:creator>
   </cc:Work>
  </rdf:RDF>
 </metadata>
 <defs>
  <style type="text/css">*{stroke-linejoin: round; stroke-linecap: butt}</style>
 </defs>
 <g id="figure_1">
  <g id="patch_1">
   <path d="M 0 720 
L 360 720 
L 360 0 
L 0 0 
L 0 720 
z
" style="fill: none"/>
  </g>
  <g id="axes_1">
   <g id="patch_2">
    <path d="M 10.8 265.249825 
L 349.2 265.249825 
L 349.2 135.095979 
L 10.8 135.095979 
z
" style="fill: #ffffff"/>
   </g>
   <g id="patch_3">
    <path d="M 180 152.844231 
L 101.671148 192.008657 
" clip-path="url(#pfef08d0607)" style="fill: none; stroke: #444444; stroke-width: 2; stroke-linejoin: miter"/>
   </g>
   <g id="patch_4">
    <path d="M 95.92567 194.881396 
L 103.022956 194.712274 
L 100.319339 189.30504 
z
" clip-path="url(#pfef08d0607)" style="fill: #444444"/>
   </g>
   <g id="patch_5">
    <path d="M 180 152.844231 
L 235.803257 190.046402 
" clip-path="url(#pfef08d0607)" style="fill: none; stroke: #444444; stroke-width: 2; stroke-linejoin: miter"/>
   </g>
   <g id="patch_6">
    <path d="M 241.148048 193.609596 
L 237.479969 187.531335 
L 234.126545 192.56147 
z
" clip-path="url(#pfef08d0607)" style="fill: #444444"/>
   </g>
   <g id="patch_7">
    <path d="M 85.342657 200.172902 
L 119.762524 234.592768 
" clip-path="url(#pfef08d0607)" style="fill: none; stroke: #444444; stroke-width: 2; stroke-linejoin: miter"/>
   </g>
   <g id="patch_8">
    <path d="M 124.304723 239.134967 
L 121.89992 232.455372 
L 117.625127 236.730165 
z
" clip-path="url(#pfef08d0607)" style="fill: #444444"/>
   </g>
   <g id="patch_9">
    <path d="M 85.342657 200.172902 
L 50.922791 234.592768 
" clip-path="url(#pfef08d0607)" style="fill: none; stroke: #444444; stroke-width: 2; stroke-linejoin: miter"/>
   </g>
   <g id="patch_10">
    <path d="M 46.380592 239.134967 
L 53.060188 236.730165 
L 48.785394 232.455372 
z
" clip-path="url(#pfef08d0607)" style="fill: #444444"/>
   </g>
   <g id="patch_11">
    <path d="M 85.342657 200.172902 
L 85.342657 229.245766 
" clip-path="url(#pfef08d0607)" style="fill: none; stroke: #444444; stroke-width: 2; stroke-linejoin: miter"/>
   </g>
   <g id="patch_12">
    <path d="M 85.342657 235.669406 
L 88.365393 229.245766 
L 82.319922 229.245766 
z
" clip-path="url(#pfef08d0607)" style="fill: #444444"/>
   </g>
   <g id="patch_13">
    <path d="M 250.993007 200.172902 
L 195.18975 237.375074 
" clip-path="url(#pfef08d0607)" style="fill: none; stroke: #444444; stroke-width: 2; stroke-linejoin: miter"/>
   </g>
   <g id="patch_14">
    <path d="M 189.844959 240.938268 
L 196.866462 239.890141 
L 193.513038 234.860006 
z
" clip-path="url(#pfef08d0607)" style="fill: #444444"/>
   </g>
   <g id="patch_15">
    <path d="M 250.993007 200.172902 
L 235.492916 231.173083 
" clip-path="url(#pfef08d0607)" style="fill: none; stroke: #444444; stroke-width: 2; stroke-linejoin: miter"/>
   </g>
   <g id="patch_16">
    <path d="M 232.620178 236.918561 
L 238.196533 232.524891 
L 232.7893 229.821275 
z
" clip-path="url(#pfef08d0607)" style="fill: #444444"/>
   </g>
   <g id="patch_17">
    <path d="M 250.993007 200.172902 
L 266.493097 231.173083 
" clip-path="url(#pfef08d0607)" style="fill: none; stroke: #444444; stroke-width: 2; stroke-linejoin: miter"/>
   </g>
   <g id="patch_18">
    <path d="M 269.365836 236.918561 
L 269.196714 229.821275 
L 263.789481 232.524891 
z
" clip-path="url(#pfef08d0607)" style="fill: #444444"/>
   </g>
   <g id="patch_19">
    <path d="M 250.993007 200.172902 
L 306.796264 237.375074 
" clip-path="url(#pfef08d0607)" style="fill: none; stroke: #444444; stroke-width: 2; stroke-linejoin: miter"/>
   </g>
   <g id="patch_20">
    <path d="M 312.141055 240.938268 
L 308.472976 234.860006 
L 305.119552 239.890141 
z
" clip-path="url(#pfef08d0607)" style="fill: #444444"/>
   </g>
   <g id="matplotlib.axis_1"/>
   <g id="matplotlib.axis_2"/>
   <g id="patch_21">
    <path d="M 180 164.676399 
C 183.137928 164.676399 186.147756 163.429687 188.366606 161.210837 
C 190.585456 158.991987 191.832168 155.982158 191.832168 152.844231 
C 191.832168 149.706303 190.585456 146.696475 188.366606 144.477625 
C 186.147756 142.258775 183.137928 141.012063 180 141.012063 
C 176.862072 141.012063 173.852244 142.258775 171.633394 144.477625 
C 169.414544 146.696475 168.167832 149.706303 168.167832 152.844231 
C 168.167832 155.982158 169.414544 158.991987 171.633394 161.210837 
C 173.852244 163.429687 176.862072 164.676399 180 164.676399 
z
" clip-path="url(#pfef08d0607)" style="fill: #bebebe; stroke: #000000; stroke-linejoin: miter"/>
   </g>
   <g id="patch_22">
    <path d="M 85.342657 212.00507 
C 88.480585 212.00507 91.490414 210.758358 93.709263 208.539508 
C 95.928113 206.320658 97.174825 203.31083 97.174825 200.172902 
C 97.174825 197.034975 95.928113 194.025146 93.709263 191.806296 
C 91.490414 189.587446 88.480585 188.340734 85.342657 188.340734 
C 82.20473 188.340734 79.194901 189.587446 76.976051 191.806296 
C 74.757201 194.025146 73.51049 197.034975 73.51049 200.172902 
C 73.51049 203.31083 74.757201 206.320658 76.976051 208.539508 
C 79.194901 210.758358 82.20473 212.00507 85.342657 212.00507 
z
" clip-path="url(#pfef08d0607)" style="fill: #bebebe; stroke: #000000; stroke-linejoin: miter"/>
   </g>
   <g id="patch_23">
    <path d="M 250.993007 212.00507 
C 254.130935 212.00507 257.140763 210.758358 259.359613 208.539508 
C 261.578463 206.320658 262.825175 203.31083 262.825175 200.172902 
C 262.825175 197.034975 261.578463 194.025146 259.359613 191.806296 
C 257.140763 189.587446 254.130935 188.340734 250.993007 188.340734 
C 247.855079 188.340734 244.845251 189.587446 242.626401 191.806296 
C 240.407551 194.025146 239.160839 197.034975 239.160839 200.172902 
C 239.160839 203.31083 240.407551 206.320658 242.626401 208.539508 
C 244.845251 210.758358 247.855079 212.00507 250.993007 212.00507 
z
" clip-path="url(#pfef08d0607)" style="fill: #bebebe; stroke: #000000; stroke-linejoin: miter"/>
   </g>
   <g id="patch_24">
    <path d="M 132.671329 259.333741 
C 135.809256 259.333741 138.819085 258.087029 141.037935 255.86818 
C 143.256785 253.64933 144.503497 250.639501 144.503497 247.501573 
C 144.503497 244.363646 143.256785 241.353817 141.037935 239.134967 
C 138.819085 236.916117 135.809256 235.669406 132.671329 235.669406 
C 129.533401 235.669406 126.523572 236.916117 124.304723 239.134967 
C 122.085873 241.353817 120.839161 244.363646 120.839161 247.501573 
C 120.839161 250.639501 122.085873 253.64933 124.304723 255.86818 
C 126.523572 258.087029 129.533401 259.333741 132.671329 259.333741 
z
" clip-path="url(#pfef08d0607)" style="fill: #bebebe; stroke: #000000; stroke-linejoin: miter"/>
   </g>
   <g id="patch_25">
    <path d="M 38.013986 259.333741 
C 41.151914 259.333741 44.161742 258.087029 46.380592 255.86818 
C 48.599442 253.64933 49.846154 250.639501 49.846154 247.501573 
C 49.846154 244.363646 48.599442 241.353817 46.380592 239.134967 
C 44.161742 236.916117 41.151914 235.669406 38.013986 235.669406 
C 34.876058 235.669406 31.86623 236.916117 29.64738 239.134967 
C 27.42853 241.353817 26.181818 244.363646 26.181818 247.501573 
C 26.181818 250.639501 27.42853 253.64933 29.64738 255.86818 
C 31.86623 258.087029 34.876058 259.333741 38.013986 259.333741 
z
" clip-path="url(#pfef08d0607)" style="fill: #bebebe; stroke: #000000; stroke-linejoin: miter"/>
   </g>
   <g id="patch_26">
    <path d="M 85.342657 259.333741 
C 88.480585 259.333741 91.490414 258.087029 93.709263 255.86818 
C 95.928113 253.64933 97.174825 250.639501 97.174825 247.501573 
C 97.174825 244.363646 95.928113 241.353817 93.709263 239.134967 
C 91.490414 236.916117 88.480585 235.669406 85.342657 235.669406 
C 82.20473 235.669406 79.194901 236.916117 76.976051 239.134967 
C 74.757201 241.353817 73.51049 244.363646 73.51049 247.501573 
C 73.51049 250.639501 74.757201 253.64933 76.976051 255.86818 
C 79.194901 258.087029 82.20473 259.333741 85.342657 259.333741 
z
" clip-path="url(#pfef08d0607)" style="fill: #bebebe; stroke: #000000; stroke-linejoin: miter"/>
   </g>
   <g id="patch_27">
    <path d="M 180 259.333741 
C 183.137928 259.333741 186.147756 258.087029 188.366606 255.86818 
C 190.585456 253.64933 191.832168 250.639501 191.832168 247.501573 
C 191.832168 244.363646 190.585456 241.353817 188.366606 239.134967 
C 186.147756 236.916117 183.137928 235.669406 180 235.669406 
C 176.862072 235.669406 173.852244 236.916117 171.633394 239.134967 
C 169.414544 241.353817 168.167832 244.363646 168.167832 247.501573 
C 168.167832 250.639501 169.414544 253.64933 171.633394 255.86818 
C 173.852244 258.087029 176.862072 259.333741 180 259.333741 
z
" clip-path="url(#pfef08d0607)" style="fill: #bebebe; stroke: #000000; stroke-linejoin: miter"/>
   </g>
   <g id="patch_28">
    <path d="M 227.328671 259.333741 
C 230.466599 259.333741 233.476428 258.087029 235.695277 255.86818 
C 237.914127 253.64933 239.160839 250.639501 239.160839 247.501573 
C 239.160839 244.363646 237.914127 241.353817 235.695277 239.134967 
C 233.476428 236.916117 230.466599 235.669406 227.328671 235.669406 
C 224.190744 235.669406 221.180915 236.916117 218.962065 239.134967 
C 216.743215 241.353817 215.496503 244.363646 215.496503 247.501573 
C 215.496503 250.639501 216.743215 253.64933 218.962065 255.86818 
C 221.180915 258.087029 224.190744 259.333741 227.328671 259.333741 
z
" clip-path="url(#pfef08d0607)" style="fill: #bebebe; stroke: #000000; stroke-linejoin: miter"/>
   </g>
   <g id="patch_29">
    <path d="M 274.657343 259.333741 
C 277.79527 259.333741 280.805099 258.087029 283.023949 255.86818 
C 285.242799 253.64933 286.48951 250.639501 286.48951 247.501573 
C 286.48951 244.363646 285.242799 241.353817 283.023949 239.134967 
C 280.805099 236.916117 277.79527 235.669406 274.657343 235.669406 
C 271.519415 235.669406 268.509586 236.916117 266.290737 239.134967 
C 264.071887 241.353817 262.825175 244.363646 262.825175 247.501573 
C 262.825175 250.639501 264.071887 253.64933 266.290737 255.86818 
C 268.509586 258.087029 271.519415 259.333741 274.657343 259.333741 
z
" clip-path="url(#pfef08d0607)" style="fill: #bebebe; stroke: #000000; stroke-linejoin: miter"/>
   </g>
   <g id="patch_30">
    <path d="M 321.986014 259.333741 
C 325.123942 259.333741 328.13377 258.087029 330.35262 255.86818 
C 332.57147 253.64933 333.818182 250.639501 333.818182 247.501573 
C 333.818182 244.363646 332.57147 241.353817 330.35262 239.134967 
C 328.13377 236.916117 325.123942 235.669406 321.986014 235.669406 
C 318.848086 235.669406 315.838258 236.916117 313.619408 239.134967 
C 311.400558 241.353817 310.153846 244.363646 310.153846 247.501573 
C 310.153846 250.639501 311.400558 253.64933 313.619408 255.86818 
C 315.838258 258.087029 318.848086 259.333741 321.986014 259.333741 
z
" clip-path="url(#pfef08d0607)" style="fill: #bebebe; stroke: #000000; stroke-linejoin: miter"/>
   </g>
   <g id="text_1">
    <!-- 0 -->
    <g transform="translate(176.1825 156.155481)scale(0.12 -0.12)">
     <defs>
      <path id="DejaVuSans-30" d="M 2034 4250 
Q 1547 4250 1301 3770 
Q 1056 3291 1056 2328 
Q 1056 1369 1301 889 
Q 1547 409 2034 409 
Q 2525 409 2770 889 
Q 3016 1369 3016 2328 
Q 3016 3291 2770 3770 
Q 2525 4250 2034 4250 
z
M 2034 4750 
Q 2819 4750 3233 4129 
Q 3647 3509 3647 2328 
Q 3647 1150 3233 529 
Q 2819 -91 2034 -91 
Q 1250 -91 836 529 
Q 422 1150 422 2328 
Q 422 3509 836 4129 
Q 1250 4750 2034 4750 
z
" transform="scale(0.015625)"/>
     </defs>
     <use xlink:href="#DejaVuSans-30"/>
    </g>
   </g>
   <g id="text_2">
    <!-- 1 -->
    <g transform="translate(81.525157 203.484152)scale(0.12 -0.12)">
     <defs>
      <path id="DejaVuSans-31" d="M 794 531 
L 1825 531 
L 1825 4091 
L 703 3866 
L 703 4441 
L 1819 4666 
L 2450 4666 
L 2450 531 
L 3481 531 
L 3481 0 
L 794 0 
L 794 531 
z
" transform="scale(0.015625)"/>
     </defs>
     <use xlink:href="#DejaVuSans-31"/>
    </g>
   </g>
   <g id="text_3">
    <!-- 2 -->
    <g transform="translate(247.175507 203.484152)scale(0.12 -0.12)">
     <defs>
      <path id="DejaVuSans-32" d="M 1228 531 
L 3431 531 
L 3431 0 
L 469 0 
L 469 531 
Q 828 903 1448 1529 
Q 2069 2156 2228 2338 
Q 2531 2678 2651 2914 
Q 2772 3150 2772 3378 
Q 2772 3750 2511 3984 
Q 2250 4219 1831 4219 
Q 1534 4219 1204 4116 
Q 875 4013 500 3803 
L 500 4441 
Q 881 4594 1212 4672 
Q 1544 4750 1819 4750 
Q 2544 4750 2975 4387 
Q 3406 4025 3406 3419 
Q 3406 3131 3298 2873 
Q 3191 2616 2906 2266 
Q 2828 2175 2409 1742 
Q 1991 1309 1228 531 
z
" transform="scale(0.015625)"/>
     </defs>
     <use xlink:href="#DejaVuSans-32"/>
    </g>
   </g>
   <g id="text_4">
    <!-- 3 -->
    <g transform="translate(128.853829 250.812823)scale(0.12 -0.12)">
     <defs>
      <path id="DejaVuSans-33" d="M 2597 2516 
Q 3050 2419 3304 2112 
Q 3559 1806 3559 1356 
Q 3559 666 3084 287 
Q 2609 -91 1734 -91 
Q 1441 -91 1130 -33 
Q 819 25 488 141 
L 488 750 
Q 750 597 1062 519 
Q 1375 441 1716 441 
Q 2309 441 2620 675 
Q 2931 909 2931 1356 
Q 2931 1769 2642 2001 
Q 2353 2234 1838 2234 
L 1294 2234 
L 1294 2753 
L 1863 2753 
Q 2328 2753 2575 2939 
Q 2822 3125 2822 3475 
Q 2822 3834 2567 4026 
Q 2313 4219 1838 4219 
Q 1578 4219 1281 4162 
Q 984 4106 628 3988 
L 628 4550 
Q 988 4650 1302 4700 
Q 1616 4750 1894 4750 
Q 2613 4750 3031 4423 
Q 3450 4097 3450 3541 
Q 3450 3153 3228 2886 
Q 3006 2619 2597 2516 
z
" transform="scale(0.015625)"/>
     </defs>
     <use xlink:href="#DejaVuSans-33"/>
    </g>
   </g>
   <g id="text_5">
    <!-- 4 -->
    <g transform="translate(34.196486 250.812823)scale(0.12 -0.12)">
     <defs>
      <path id="DejaVuSans-34" d="M 2419 4116 
L 825 1625 
L 2419 1625 
L 2419 4116 
z
M 2253 4666 
L 3047 4666 
L 3047 1625 
L 3713 1625 
L 3713 1100 
L 3047 1100 
L 3047 0 
L 2419 0 
L 2419 1100 
L 313 1100 
L 313 1709 
L 2253 4666 
z
" transform="scale(0.015625)"/>
     </defs>
     <use xlink:href="#DejaVuSans-34"/>
    </g>
   </g>
   <g id="text_6">
    <!-- 5 -->
    <g transform="translate(81.525157 250.812823)scale(0.12 -0.12)">
     <defs>
      <path id="DejaVuSans-35" d="M 691 4666 
L 3169 4666 
L 3169 4134 
L 1269 4134 
L 1269 2991 
Q 1406 3038 1543 3061 
Q 1681 3084 1819 3084 
Q 2600 3084 3056 2656 
Q 3513 2228 3513 1497 
Q 3513 744 3044 326 
Q 2575 -91 1722 -91 
Q 1428 -91 1123 -41 
Q 819 9 494 109 
L 494 744 
Q 775 591 1075 516 
Q 1375 441 1709 441 
Q 2250 441 2565 725 
Q 2881 1009 2881 1497 
Q 2881 1984 2565 2268 
Q 2250 2553 1709 2553 
Q 1456 2553 1204 2497 
Q 953 2441 691 2322 
L 691 4666 
z
" transform="scale(0.015625)"/>
     </defs>
     <use xlink:href="#DejaVuSans-35"/>
    </g>
   </g>
   <g id="text_7">
    <!-- 6 -->
    <g transform="translate(176.1825 250.812823)scale(0.12 -0.12)">
     <defs>
      <path id="DejaVuSans-36" d="M 2113 2584 
Q 1688 2584 1439 2293 
Q 1191 2003 1191 1497 
Q 1191 994 1439 701 
Q 1688 409 2113 409 
Q 2538 409 2786 701 
Q 3034 994 3034 1497 
Q 3034 2003 2786 2293 
Q 2538 2584 2113 2584 
z
M 3366 4563 
L 3366 3988 
Q 3128 4100 2886 4159 
Q 2644 4219 2406 4219 
Q 1781 4219 1451 3797 
Q 1122 3375 1075 2522 
Q 1259 2794 1537 2939 
Q 1816 3084 2150 3084 
Q 2853 3084 3261 2657 
Q 3669 2231 3669 1497 
Q 3669 778 3244 343 
Q 2819 -91 2113 -91 
Q 1303 -91 875 529 
Q 447 1150 447 2328 
Q 447 3434 972 4092 
Q 1497 4750 2381 4750 
Q 2619 4750 2861 4703 
Q 3103 4656 3366 4563 
z
" transform="scale(0.015625)"/>
     </defs>
     <use xlink:href="#DejaVuSans-36"/>
    </g>
   </g>
   <g id="text_8">
    <!-- 7 -->
    <g transform="translate(223.511171 250.812823)scale(0.12 -0.12)">
     <defs>
      <path id="DejaVuSans-37" d="M 525 4666 
L 3525 4666 
L 3525 4397 
L 1831 0 
L 1172 0 
L 2766 4134 
L 525 4134 
L 525 4666 
z
" transform="scale(0.015625)"/>
     </defs>
     <use xlink:href="#DejaVuSans-37"/>
    </g>
   </g>
   <g id="text_9">
    <!-- 8 -->
    <g transform="translate(270.839843 250.812823)scale(0.12 -0.12)">
     <defs>
      <path id="DejaVuSans-38" d="M 2034 2216 
Q 1584 2216 1326 1975 
Q 1069 1734 1069 1313 
Q 1069 891 1326 650 
Q 1584 409 2034 409 
Q 2484 409 2743 651 
Q 3003 894 3003 1313 
Q 3003 1734 2745 1975 
Q 2488 2216 2034 2216 
z
M 1403 2484 
Q 997 2584 770 2862 
Q 544 3141 544 3541 
Q 544 4100 942 4425 
Q 1341 4750 2034 4750 
Q 2731 4750 3128 4425 
Q 3525 4100 3525 3541 
Q 3525 3141 3298 2862 
Q 3072 2584 2669 2484 
Q 3125 2378 3379 2068 
Q 3634 1759 3634 1313 
Q 3634 634 3220 271 
Q 2806 -91 2034 -91 
Q 1263 -91 848 271 
Q 434 634 434 1313 
Q 434 1759 690 2068 
Q 947 2378 1403 2484 
z
M 1172 3481 
Q 1172 3119 1398 2916 
Q 1625 2713 2034 2713 
Q 2441 2713 2670 2916 
Q 2900 3119 2900 3481 
Q 2900 3844 2670 4047 
Q 2441 4250 2034 4250 
Q 1625 4250 1398 4047 
Q 1172 3844 1172 3481 
z
" transform="scale(0.015625)"/>
     </defs>
     <use xlink:href="#DejaVuSans-38"/>
    </g>
   </g>
   <g id="text_10">
    <!-- 9 -->
    <g transform="translate(318.168514 250.812823)scale(0.12 -0.12)">
     <defs>
      <path id="DejaVuSans-39" d="M 703 97 
L 703 672 
Q 941 559 1184 500 
Q 1428 441 1663 441 
Q 2288 441 2617 861 
Q 2947 1281 2994 2138 
Q 2813 1869 2534 1725 
Q 2256 1581 1919 1581 
Q 1219 1581 811 2004 
Q 403 2428 403 3163 
Q 403 3881 828 4315 
Q 1253 4750 1959 4750 
Q 2769 4750 3195 4129 
Q 3622 3509 3622 2328 
Q 3622 1225 3098 567 
Q 2575 -91 1691 -91 
Q 1453 -91 1209 -44 
Q 966 3 703 97 
z
M 1959 2075 
Q 2384 2075 2632 2365 
Q 2881 2656 2881 3163 
Q 2881 3666 2632 3958 
Q 2384 4250 1959 4250 
Q 1534 4250 1286 3958 
Q 1038 3666 1038 3163 
Q 1038 2656 1286 2365 
Q 1534 2075 1959 2075 
z
" transform="scale(0.015625)"/>
     </defs>
     <use xlink:href="#DejaVuSans-39"/>
    </g>
   </g>
  </g>
  <g id="axes_2">
   <g id="patch_31">
    <path d="M 10.8 689.027098 
L 349.2 689.027098 
L 349.2 350.627098 
L 10.8 350.627098 
z
" style="fill: #ffffff"/>
   </g>
   <g id="patch_32">
    <path d="M 176.579644 516.406742 
L 201.81205 481.677314 
" clip-path="url(#p523db373b2)" style="fill: none; stroke: #444444; stroke-width: 2; stroke-linejoin: miter"/>
   </g>
   <g id="patch_33">
    <path d="M 207.387142 474.003858 
L 198.201196 479.053875 
L 205.422904 484.300752 
z
" clip-path="url(#p523db373b2)" style="fill: #444444"/>
   </g>
   <g id="patch_34">
    <path d="M 176.579644 516.406742 
L 157.090769 554.655811 
" clip-path="url(#p523db373b2)" style="fill: none; stroke: #444444; stroke-width: 2; stroke-linejoin: miter"/>
   </g>
   <g id="patch_35">
    <path d="M 152.784709 563.106929 
L 161.067564 556.682089 
L 153.113975 552.629533 
z
" clip-path="url(#p523db373b2)" style="fill: #444444"/>
   </g>
   <g id="patch_36">
    <path d="M 217.656308 459.869564 
L 292.95754 503.007462 
" clip-path="url(#p523db373b2)" style="fill: none; stroke: #444444; stroke-width: 2; stroke-linejoin: miter"/>
   </g>
   <g id="patch_37">
    <path d="M 301.187631 507.722244 
L 295.176147 499.134676 
L 290.738932 506.880249 
z
" clip-path="url(#p523db373b2)" style="fill: #444444"/>
   </g>
   <g id="patch_38">
    <path d="M 217.656308 459.869564 
L 242.888714 425.140136 
" clip-path="url(#p523db373b2)" style="fill: none; stroke: #444444; stroke-width: 2; stroke-linejoin: miter"/>
   </g>
   <g id="patch_39">
    <path d="M 248.463806 417.466681 
L 239.27786 422.516697 
L 246.499568 427.763575 
z
" clip-path="url(#p523db373b2)" style="fill: #444444"/>
   </g>
   <g id="patch_40">
    <path d="M 217.656308 459.869564 
L 153.360368 401.58418 
" clip-path="url(#p523db373b2)" style="fill: none; stroke: #444444; stroke-width: 2; stroke-linejoin: miter"/>
   </g>
   <g id="patch_41">
    <path d="M 146.333106 395.213846 
L 150.362716 404.890958 
L 156.358019 398.277402 
z
" clip-path="url(#p523db373b2)" style="fill: #444444"/>
   </g>
   <g id="patch_42">
    <path d="M 144.853065 578.673659 
L 62.316827 492.665379 
" clip-path="url(#p523db373b2)" style="fill: none; stroke: #444444; stroke-width: 2; stroke-linejoin: miter"/>
   </g>
   <g id="patch_43">
    <path d="M 55.749536 485.821824 
L 59.096494 495.755712 
L 65.537159 489.575047 
z
" clip-path="url(#p523db373b2)" style="fill: #444444"/>
   </g>
   <g id="patch_44">
    <path d="M 144.853065 578.673659 
L 89.690081 592.158892 
" clip-path="url(#p523db373b2)" style="fill: none; stroke: #444444; stroke-width: 2; stroke-linejoin: miter"/>
   </g>
   <g id="patch_45">
    <path d="M 80.476483 594.411263 
L 90.749967 596.494482 
L 88.630196 587.823302 
z
" clip-path="url(#p523db373b2)" style="fill: #444444"/>
   </g>
   <g id="patch_46">
    <path d="M 144.853065 578.673659 
L 166.36727 631.227871 
" clip-path="url(#p523db373b2)" style="fill: none; stroke: #444444; stroke-width: 2; stroke-linejoin: miter"/>
   </g>
   <g id="patch_47">
    <path d="M 169.96068 640.005739 
L 170.497821 629.536941 
L 162.236719 632.918802 
z
" clip-path="url(#p523db373b2)" style="fill: #444444"/>
   </g>
   <g id="patch_48">
    <path d="M 144.853065 578.673659 
L 262.948808 594.89248 
" clip-path="url(#p523db373b2)" style="fill: none; stroke: #444444; stroke-width: 2; stroke-linejoin: miter"/>
   </g>
   <g id="patch_49">
    <path d="M 272.345517 596.182988 
L 263.556075 590.470724 
L 262.341541 599.314236 
z
" clip-path="url(#p523db373b2)" style="fill: #444444"/>
   </g>
   <g id="matplotlib.axis_3"/>
   <g id="matplotlib.axis_4"/>
   <g id="patch_50">
    <path d="M 176.579644 533.87769 
C 181.212993 533.87769 185.657197 532.036841 188.93347 528.760568 
C 192.209743 525.484295 194.050592 521.040091 194.050592 516.406742 
C 194.050592 511.773392 192.209743 507.329188 188.93347 504.052915 
C 185.657197 500.776642 181.212993 498.935793 176.579644 498.935793 
C 171.946294 498.935793 167.50209 500.776642 164.225817 504.052915 
C 160.949544 507.329188 159.108695 511.773392 159.108695 516.406742 
C 159.108695 521.040091 160.949544 525.484295 164.225817 528.760568 
C 167.50209 532.036841 171.946294 533.87769 176.579644 533.87769 
z
" clip-path="url(#p523db373b2)" style="fill: #bebebe; stroke: #000000; stroke-linejoin: miter"/>
   </g>
   <g id="patch_51">
    <path d="M 217.656308 477.340513 
C 222.289657 477.340513 226.733861 475.499663 230.010134 472.22339 
C 233.286407 468.947117 235.127256 464.502914 235.127256 459.869564 
C 235.127256 455.236214 233.286407 450.792011 230.010134 447.515738 
C 226.733861 444.239465 222.289657 442.398615 217.656308 442.398615 
C 213.022958 442.398615 208.578754 444.239465 205.302481 447.515738 
C 202.026208 450.792011 200.185359 455.236214 200.185359 459.869564 
C 200.185359 464.502914 202.026208 468.947117 205.302481 472.22339 
C 208.578754 475.499663 213.022958 477.340513 217.656308 477.340513 
z
" clip-path="url(#p523db373b2)" style="fill: #bebebe; stroke: #000000; stroke-linejoin: miter"/>
   </g>
   <g id="patch_52">
    <path d="M 144.853065 596.144607 
C 149.486414 596.144607 153.930618 594.303758 157.206891 591.027485 
C 160.483164 587.751212 162.324013 583.307008 162.324013 578.673659 
C 162.324013 574.040309 160.483164 569.596105 157.206891 566.319832 
C 153.930618 563.043559 149.486414 561.20271 144.853065 561.20271 
C 140.219715 561.20271 135.775511 563.043559 132.499238 566.319832 
C 129.222965 569.596105 127.382116 574.040309 127.382116 578.673659 
C 127.382116 583.307008 129.222965 587.751212 132.499238 591.027485 
C 135.775511 594.303758 140.219715 596.144607 144.853065 596.144607 
z
" clip-path="url(#p523db373b2)" style="fill: #bebebe; stroke: #000000; stroke-linejoin: miter"/>
   </g>
   <g id="patch_53">
    <path d="M 316.347233 533.87769 
C 320.980583 533.87769 325.424786 532.036841 328.701059 528.760568 
C 331.977332 525.484295 333.818182 521.040091 333.818182 516.406742 
C 333.818182 511.773392 331.977332 507.329188 328.701059 504.052915 
C 325.424786 500.776642 320.980583 498.935793 316.347233 498.935793 
C 311.713883 498.935793 307.26968 500.776642 303.993407 504.052915 
C 300.717134 507.329188 298.876284 511.773392 298.876284 516.406742 
C 298.876284 521.040091 300.717134 525.484295 303.993407 528.760568 
C 307.26968 532.036841 311.713883 533.87769 316.347233 533.87769 
z
" clip-path="url(#p523db373b2)" style="fill: #bebebe; stroke: #000000; stroke-linejoin: miter"/>
   </g>
   <g id="patch_54">
    <path d="M 258.732971 420.803335 
C 263.366321 420.803335 267.810525 418.962486 271.086798 415.686213 
C 274.363071 412.40994 276.20392 407.965736 276.20392 403.332386 
C 276.20392 398.699037 274.363071 394.254833 271.086798 390.97856 
C 267.810525 387.702287 263.366321 385.861438 258.732971 385.861438 
C 254.099622 385.861438 249.655418 387.702287 246.379145 390.97856 
C 243.102872 394.254833 241.262023 398.699037 241.262023 403.332386 
C 241.262023 407.965736 243.102872 412.40994 246.379145 415.686213 
C 249.655418 418.962486 254.099622 420.803335 258.732971 420.803335 
z
" clip-path="url(#p523db373b2)" style="fill: #bebebe; stroke: #000000; stroke-linejoin: miter"/>
   </g>
   <g id="patch_55">
    <path d="M 133.389083 400.950813 
C 138.022433 400.950813 142.466636 399.109964 145.74291 395.833691 
C 149.019183 392.557418 150.860032 388.113215 150.860032 383.479865 
C 150.860032 378.846515 149.019183 374.402312 145.74291 371.126038 
C 142.466636 367.849765 138.022433 366.008916 133.389083 366.008916 
C 128.755733 366.008916 124.31153 367.849765 121.035257 371.126038 
C 117.758984 374.402312 115.918135 378.846515 115.918135 383.479865 
C 115.918135 388.113215 117.758984 392.557418 121.035257 395.833691 
C 124.31153 399.109964 128.755733 400.950813 133.389083 400.950813 
z
" clip-path="url(#p523db373b2)" style="fill: #bebebe; stroke: #000000; stroke-linejoin: miter"/>
   </g>
   <g id="patch_56">
    <path d="M 43.652767 490.68713 
C 48.286117 490.68713 52.73032 488.84628 56.006593 485.570007 
C 59.282866 482.293734 61.123716 477.849531 61.123716 473.216181 
C 61.123716 468.582831 59.282866 464.138628 56.006593 460.862355 
C 52.73032 457.586082 48.286117 455.745232 43.652767 455.745232 
C 39.019417 455.745232 34.575214 457.586082 31.298941 460.862355 
C 28.022668 464.138628 26.181818 468.582831 26.181818 473.216181 
C 26.181818 477.849531 28.022668 482.293734 31.298941 485.570007 
C 34.575214 488.84628 39.019417 490.68713 43.652767 490.68713 
z
" clip-path="url(#p523db373b2)" style="fill: #bebebe; stroke: #000000; stroke-linejoin: miter"/>
   </g>
   <g id="patch_57">
    <path d="M 63.505288 616.031018 
C 68.138638 616.031018 72.582842 614.190169 75.859115 610.913896 
C 79.135388 607.637623 80.976237 603.193419 80.976237 598.560069 
C 80.976237 593.92672 79.135388 589.482516 75.859115 586.206243 
C 72.582842 582.92997 68.138638 581.089121 63.505288 581.089121 
C 58.871939 581.089121 54.427735 582.92997 51.151462 586.206243 
C 47.875189 589.482516 46.03434 593.92672 46.03434 598.560069 
C 46.03434 603.193419 47.875189 607.637623 51.151462 610.913896 
C 54.427735 614.190169 58.871939 616.031018 63.505288 616.031018 
z
" clip-path="url(#p523db373b2)" style="fill: #bebebe; stroke: #000000; stroke-linejoin: miter"/>
   </g>
   <g id="patch_58">
    <path d="M 176.579644 673.64528 
C 181.212993 673.64528 185.657197 671.80443 188.93347 668.528157 
C 192.209743 665.251884 194.050592 660.807681 194.050592 656.174331 
C 194.050592 651.540981 192.209743 647.096778 188.93347 643.820505 
C 185.657197 640.544232 181.212993 638.703382 176.579644 638.703382 
C 171.946294 638.703382 167.50209 640.544232 164.225817 643.820505 
C 160.949544 647.096778 159.108695 651.540981 159.108695 656.174331 
C 159.108695 660.807681 160.949544 665.251884 164.225817 668.528157 
C 167.50209 671.80443 171.946294 673.64528 176.579644 673.64528 
z
" clip-path="url(#p523db373b2)" style="fill: #bebebe; stroke: #000000; stroke-linejoin: miter"/>
   </g>
   <g id="patch_59">
    <path d="M 289.653999 616.031018 
C 294.287349 616.031018 298.731552 614.190169 302.007825 610.913896 
C 305.284098 607.637623 307.124947 603.193419 307.124947 598.560069 
C 307.124947 593.92672 305.284098 589.482516 302.007825 586.206243 
C 298.731552 582.92997 294.287349 581.089121 289.653999 581.089121 
C 285.020649 581.089121 280.576446 582.92997 277.300173 586.206243 
C 274.023899 589.482516 272.18305 593.92672 272.18305 598.560069 
C 272.18305 603.193419 274.023899 607.637623 277.300173 610.913896 
C 280.576446 614.190169 285.020649 616.031018 289.653999 616.031018 
z
" clip-path="url(#p523db373b2)" style="fill: #bebebe; stroke: #000000; stroke-linejoin: miter"/>
   </g>
   <g id="text_11">
    <!-- 0 -->
    <g transform="translate(172.762144 519.717992)scale(0.12 -0.12)">
     <use xlink:href="#DejaVuSans-30"/>
    </g>
   </g>
   <g id="text_12">
    <!-- 1 -->
    <g transform="translate(213.838808 463.180814)scale(0.12 -0.12)">
     <use xlink:href="#DejaVuSans-31"/>
    </g>
   </g>
   <g id="text_13">
    <!-- 2 -->
    <g transform="translate(141.035565 581.984909)scale(0.12 -0.12)">
     <use xlink:href="#DejaVuSans-32"/>
    </g>
   </g>
   <g id="text_14">
    <!-- 3 -->
    <g transform="translate(312.529733 519.717992)scale(0.12 -0.12)">
     <use xlink:href="#DejaVuSans-33"/>
    </g>
   </g>
   <g id="text_15">
    <!-- 4 -->
    <g transform="translate(254.915471 406.643636)scale(0.12 -0.12)">
     <use xlink:href="#DejaVuSans-34"/>
    </g>
   </g>
   <g id="text_16">
    <!-- 5 -->
    <g transform="translate(129.571583 386.791115)scale(0.12 -0.12)">
     <use xlink:href="#DejaVuSans-35"/>
    </g>
   </g>
   <g id="text_17">
    <!-- 6 -->
    <g transform="translate(39.835267 476.527431)scale(0.12 -0.12)">
     <use xlink:href="#DejaVuSans-36"/>
    </g>
   </g>
   <g id="text_18">
    <!-- 7 -->
    <g transform="translate(59.687788 601.871319)scale(0.12 -0.12)">
     <use xlink:href="#DejaVuSans-37"/>
    </g>
   </g>
   <g id="text_19">
    <!-- 8 -->
    <g transform="translate(172.762144 659.485581)scale(0.12 -0.12)">
     <use xlink:href="#DejaVuSans-38"/>
    </g>
   </g>
   <g id="text_20">
    <!-- 9 -->
    <g transform="translate(285.836499 601.871319)scale(0.12 -0.12)">
     <use xlink:href="#DejaVuSans-39"/>
    </g>
   </g>
  </g>
 </g>
 <defs>
  <clipPath id="pfef08d0607">
   <rect x="10.8" y="135.095979" width="338.4" height="130.153846"/>
  </clipPath>
  <clipPath id="p523db373b2">
   <rect x="10.8" y="350.627098" width="338.4" height="338.4"/>
  </clipPath>
 </defs>
</svg>
