<?xml version="1.0" encoding="utf-8" standalone="no"?>
<!DOCTYPE svg PUBLIC "-//W3C//DTD SVG 1.1//EN"
  "http://www.w3.org/Graphics/SVG/1.1/DTD/svg11.dtd">
<!-- Created with matplotlib (https://matplotlib.org/) -->
<svg height="360pt" version="1.1" viewBox="0 0 360 360" width="360pt" xmlns="http://www.w3.org/2000/svg" xmlns:xlink="http://www.w3.org/1999/xlink">
 <metadata>
  <rdf:RDF xmlns:cc="http://creativecommons.org/ns#" xmlns:dc="http://purl.org/dc/elements/1.1/" xmlns:rdf="http://www.w3.org/1999/02/22-rdf-syntax-ns#">
   <cc:Work>
    <dc:type rdf:resource="http://purl.org/dc/dcmitype/StillImage"/>
    <dc:date>2022-11-13T02:11:40.628886</dc:date>
    <dc:format>image/svg+xml</dc:format>
    <dc:creator>
     <cc:Agent>
      <dc:title>Matplotlib v3.3.2, https://matplotlib.org/</dc:title>
     </cc:Agent>
    </dc:creator>
   </cc:Work>
  </rdf:RDF>
 </metadata>
 <defs>
  <style type="text/css">*{stroke-linecap:butt;stroke-linejoin:round;}</style>
 </defs>
 <g id="figure_1">
  <g id="patch_1">
   <path d="M 0 360 
L 360 360 
L 360 0 
L 0 0 
z
" style="fill:none;"/>
  </g>
  <g id="axes_1">
   <g id="patch_2">
    <path d="M 58.146221 315 
L 310.853779 315 
L 310.853779 43.2 
L 58.146221 43.2 
z
" style="fill:#ffffff;"/>
   </g>
   <g id="patch_3">
    <path clip-path="url(#p806382f75b)" d="M 177.752198 279.525196 
L 80.95944 225.48968 
" style="fill:none;stroke:#444444;stroke-linejoin:miter;stroke-width:2;"/>
   </g>
   <g id="patch_4">
    <path clip-path="url(#p806382f75b)" d="M 177.752198 279.525196 
L 288.04056 291.318943 
" style="fill:none;stroke:#444444;stroke-linejoin:miter;stroke-width:2;"/>
   </g>
   <g id="matplotlib.axis_1"/>
   <g id="matplotlib.axis_2"/>
   <g id="patch_5">
    <path clip-path="url(#p806382f75b)" d="M 177.752198 290.851708 
C 180.756024 290.851708 183.637226 289.658275 185.761251 287.534249 
C 187.885277 285.410223 189.07871 282.529022 189.07871 279.525196 
C 189.07871 276.52137 187.885277 273.640169 185.761251 271.516143 
C 183.637226 269.392117 180.756024 268.198684 177.752198 268.198684 
C 174.748372 268.198684 171.867171 269.392117 169.743145 271.516143 
C 167.619119 273.640169 166.425686 276.52137 166.425686 279.525196 
C 166.425686 282.529022 167.619119 285.410223 169.743145 287.534249 
C 171.867171 289.658275 174.748372 290.851708 177.752198 290.851708 
z
" style="fill:#bebebe;stroke:#000000;stroke-linejoin:miter;"/>
   </g>
   <g id="patch_6">
    <path clip-path="url(#p806382f75b)" d="M 80.95944 236.816192 
C 83.963266 236.816192 86.844468 235.622759 88.968493 233.498734 
C 91.092519 231.374708 92.285952 228.493506 92.285952 225.48968 
C 92.285952 222.485854 91.092519 219.604653 88.968493 217.480627 
C 86.844468 215.356601 83.963266 214.163169 80.95944 214.163169 
C 77.955614 214.163169 75.074413 215.356601 72.950387 217.480627 
C 70.826361 219.604653 69.632928 222.485854 69.632928 225.48968 
C 69.632928 228.493506 70.826361 231.374708 72.950387 233.498734 
C 75.074413 235.622759 77.955614 236.816192 80.95944 236.816192 
z
" style="fill:#bebebe;stroke:#000000;stroke-linejoin:miter;"/>
   </g>
   <g id="patch_7">
    <path clip-path="url(#p806382f75b)" d="M 288.04056 302.645455 
C 291.044386 302.645455 293.925587 301.452022 296.049613 299.327996 
C 298.173639 297.20397 299.367072 294.322769 299.367072 291.318943 
C 299.367072 288.315117 298.173639 285.433915 296.049613 283.30989 
C 293.925587 281.185864 291.044386 279.992431 288.04056 279.992431 
C 285.036734 279.992431 282.155532 281.185864 280.031507 283.30989 
C 277.907481 285.433915 276.714048 288.315117 276.714048 291.318943 
C 276.714048 294.322769 277.907481 297.20397 280.031507 299.327996 
C 282.155532 301.452022 285.036734 302.645455 288.04056 302.645455 
z
" style="fill:#bebebe;stroke:#000000;stroke-linejoin:miter;"/>
   </g>
   <g id="patch_8">
    <path clip-path="url(#p806382f75b)" d="M 245.396471 78.207569 
C 248.400297 78.207569 251.281498 77.014136 253.405524 74.89011 
C 255.52955 72.766085 256.722982 69.884883 256.722982 66.881057 
C 256.722982 63.877231 255.52955 60.99603 253.405524 58.872004 
C 251.281498 56.747978 248.400297 55.554545 245.396471 55.554545 
C 242.392645 55.554545 239.511443 56.747978 237.387418 58.872004 
C 235.263392 60.99603 234.069959 63.877231 234.069959 66.881057 
C 234.069959 69.884883 235.263392 72.766085 237.387418 74.89011 
C 239.511443 77.014136 242.392645 78.207569 245.396471 78.207569 
z
" style="fill:#bebebe;stroke:#000000;stroke-linejoin:miter;"/>
   </g>
   <g id="text_1">
    <!-- 0 -->
    <g transform="translate(173.934698 282.836446)scale(0.12 -0.12)">
     <defs>
      <path d="M 31.78125 66.40625 
Q 24.171875 66.40625 20.328125 58.90625 
Q 16.5 51.421875 16.5 36.375 
Q 16.5 21.390625 20.328125 13.890625 
Q 24.171875 6.390625 31.78125 6.390625 
Q 39.453125 6.390625 43.28125 13.890625 
Q 47.125 21.390625 47.125 36.375 
Q 47.125 51.421875 43.28125 58.90625 
Q 39.453125 66.40625 31.78125 66.40625 
z
M 31.78125 74.21875 
Q 44.046875 74.21875 50.515625 64.515625 
Q 56.984375 54.828125 56.984375 36.375 
Q 56.984375 17.96875 50.515625 8.265625 
Q 44.046875 -1.421875 31.78125 -1.421875 
Q 19.53125 -1.421875 13.0625 8.265625 
Q 6.59375 17.96875 6.59375 36.375 
Q 6.59375 54.828125 13.0625 64.515625 
Q 19.53125 74.21875 31.78125 74.21875 
z
" id="DejaVuSans-48"/>
     </defs>
     <use xlink:href="#DejaVuSans-48"/>
    </g>
   </g>
   <g id="text_2">
    <!-- 1 -->
    <g transform="translate(77.14194 228.80093)scale(0.12 -0.12)">
     <defs>
      <path d="M 12.40625 8.296875 
L 28.515625 8.296875 
L 28.515625 63.921875 
L 10.984375 60.40625 
L 10.984375 69.390625 
L 28.421875 72.90625 
L 38.28125 72.90625 
L 38.28125 8.296875 
L 54.390625 8.296875 
L 54.390625 0 
L 12.40625 0 
z
" id="DejaVuSans-49"/>
     </defs>
     <use xlink:href="#DejaVuSans-49"/>
    </g>
   </g>
   <g id="text_3">
    <!-- 2 -->
    <g transform="translate(284.22306 294.630193)scale(0.12 -0.12)">
     <defs>
      <path d="M 19.1875 8.296875 
L 53.609375 8.296875 
L 53.609375 0 
L 7.328125 0 
L 7.328125 8.296875 
Q 12.9375 14.109375 22.625 23.890625 
Q 32.328125 33.6875 34.8125 36.53125 
Q 39.546875 41.84375 41.421875 45.53125 
Q 43.3125 49.21875 43.3125 52.78125 
Q 43.3125 58.59375 39.234375 62.25 
Q 35.15625 65.921875 28.609375 65.921875 
Q 23.96875 65.921875 18.8125 64.3125 
Q 13.671875 62.703125 7.8125 59.421875 
L 7.8125 69.390625 
Q 13.765625 71.78125 18.9375 73 
Q 24.125 74.21875 28.421875 74.21875 
Q 39.75 74.21875 46.484375 68.546875 
Q 53.21875 62.890625 53.21875 53.421875 
Q 53.21875 48.921875 51.53125 44.890625 
Q 49.859375 40.875 45.40625 35.40625 
Q 44.1875 33.984375 37.640625 27.21875 
Q 31.109375 20.453125 19.1875 8.296875 
z
" id="DejaVuSans-50"/>
     </defs>
     <use xlink:href="#DejaVuSans-50"/>
    </g>
   </g>
   <g id="text_4">
    <!-- 3 -->
    <g transform="translate(241.578971 70.192307)scale(0.12 -0.12)">
     <defs>
      <path d="M 40.578125 39.3125 
Q 47.65625 37.796875 51.625 33 
Q 55.609375 28.21875 55.609375 21.1875 
Q 55.609375 10.40625 48.1875 4.484375 
Q 40.765625 -1.421875 27.09375 -1.421875 
Q 22.515625 -1.421875 17.65625 -0.515625 
Q 12.796875 0.390625 7.625 2.203125 
L 7.625 11.71875 
Q 11.71875 9.328125 16.59375 8.109375 
Q 21.484375 6.890625 26.8125 6.890625 
Q 36.078125 6.890625 40.9375 10.546875 
Q 45.796875 14.203125 45.796875 21.1875 
Q 45.796875 27.640625 41.28125 31.265625 
Q 36.765625 34.90625 28.71875 34.90625 
L 20.21875 34.90625 
L 20.21875 43.015625 
L 29.109375 43.015625 
Q 36.375 43.015625 40.234375 45.921875 
Q 44.09375 48.828125 44.09375 54.296875 
Q 44.09375 59.90625 40.109375 62.90625 
Q 36.140625 65.921875 28.71875 65.921875 
Q 24.65625 65.921875 20.015625 65.03125 
Q 15.375 64.15625 9.8125 62.3125 
L 9.8125 71.09375 
Q 15.4375 72.65625 20.34375 73.4375 
Q 25.25 74.21875 29.59375 74.21875 
Q 40.828125 74.21875 47.359375 69.109375 
Q 53.90625 64.015625 53.90625 55.328125 
Q 53.90625 49.265625 50.4375 45.09375 
Q 46.96875 40.921875 40.578125 39.3125 
z
" id="DejaVuSans-51"/>
     </defs>
     <use xlink:href="#DejaVuSans-51"/>
    </g>
   </g>
  </g>
 </g>
 <defs>
  <clipPath id="p806382f75b">
   <rect height="271.8" width="252.707557" x="58.146221" y="43.2"/>
  </clipPath>
 </defs>
</svg>
