<?xml version="1.0" encoding="utf-8" standalone="no"?>
<!DOCTYPE svg PUBLIC "-//W3C//DTD SVG 1.1//EN"
  "http://www.w3.org/Graphics/SVG/1.1/DTD/svg11.dtd">
<!-- Created with matplotlib (https://matplotlib.org/) -->
<svg height="360pt" version="1.1" viewBox="0 0 360 360" width="360pt" xmlns="http://www.w3.org/2000/svg" xmlns:xlink="http://www.w3.org/1999/xlink">
 <metadata>
  <rdf:RDF xmlns:cc="http://creativecommons.org/ns#" xmlns:dc="http://purl.org/dc/elements/1.1/" xmlns:rdf="http://www.w3.org/1999/02/22-rdf-syntax-ns#">
   <cc:Work>
    <dc:type rdf:resource="http://purl.org/dc/dcmitype/StillImage"/>
    <dc:date>2022-11-13T02:38:33.896510</dc:date>
    <dc:format>image/svg+xml</dc:format>
    <dc:creator>
     <cc:Agent>
      <dc:title>Matplotlib v3.3.2, https://matplotlib.org/</dc:title>
     </cc:Agent>
    </dc:creator>
   </cc:Work>
  </rdf:RDF>
 </metadata>
 <defs>
  <style type="text/css">*{stroke-linecap:butt;stroke-linejoin:round;}</style>
 </defs>
 <g id="figure_1">
  <g id="patch_1">
   <path d="M 0 360 
L 360 360 
L 360 0 
L 0 0 
z
" style="fill:none;"/>
  </g>
  <g id="axes_1">
   <g id="patch_2">
    <path d="M 45 309.801153 
L 324 309.801153 
L 324 48.398847 
L 45 48.398847 
z
" style="fill:#ffffff;"/>
   </g>
   <g id="patch_3">
    <path clip-path="url(#pb180dd6c94)" d="M 289.420559 172.54165 
L 248.513715 96.174757 
" style="fill:none;stroke:#444444;stroke-linejoin:miter;"/>
   </g>
   <g id="patch_4">
    <path clip-path="url(#pb180dd6c94)" d="M 241.040009 82.222478 
L 241.948271 99.691616 
L 255.079159 92.657898 
z
" style="fill:#444444;"/>
   </g>
   <g id="patch_5">
    <path clip-path="url(#pb180dd6c94)" d="M 289.420559 172.54165 
L 297.191914 258.878379 
" style="fill:none;stroke:#444444;stroke-linejoin:miter;stroke-width:5;"/>
   </g>
   <g id="patch_6">
    <path clip-path="url(#pb180dd6c94)" d="M 298.610881 274.642544 
L 304.609967 258.210664 
L 289.773861 259.546094 
z
" style="fill:#444444;"/>
   </g>
   <g id="matplotlib.axis_1"/>
   <g id="matplotlib.axis_2"/>
   <g id="patch_7">
    <path clip-path="url(#pb180dd6c94)" d="M 289.420559 184.203472 
C 292.51331 184.203472 295.479807 182.974709 297.666712 180.787803 
C 299.853618 178.600898 301.082381 175.634401 301.082381 172.54165 
C 301.082381 169.448898 299.853618 166.482402 297.666712 164.295496 
C 295.479807 162.108591 292.51331 160.879828 289.420559 160.879828 
C 286.327807 160.879828 283.361311 162.108591 281.174405 164.295496 
C 278.9875 166.482402 277.758737 169.448898 277.758737 172.54165 
C 277.758737 175.634401 278.9875 178.600898 281.174405 180.787803 
C 283.361311 182.974709 286.327807 184.203472 289.420559 184.203472 
z
" style="fill:#bebebe;stroke:#000000;stroke-linejoin:miter;"/>
   </g>
   <g id="patch_8">
    <path clip-path="url(#pb180dd6c94)" d="M 235.533465 83.604414 
C 238.626216 83.604414 241.592713 82.375651 243.779618 80.188745 
C 245.966524 78.00184 247.195287 75.035343 247.195287 71.942592 
C 247.195287 68.84984 245.966524 65.883344 243.779618 63.696438 
C 241.592713 61.509533 238.626216 60.28077 235.533465 60.28077 
C 232.440713 60.28077 229.474217 61.509533 227.287311 63.696438 
C 225.100406 65.883344 223.871643 68.84984 223.871643 71.942592 
C 223.871643 75.035343 225.100406 78.00184 227.287311 80.188745 
C 229.474217 82.375651 232.440713 83.604414 235.533465 83.604414 
z
" style="fill:#bebebe;stroke:#000000;stroke-linejoin:miter;"/>
   </g>
   <g id="patch_9">
    <path clip-path="url(#pb180dd6c94)" d="M 299.65636 297.91923 
C 302.749111 297.91923 305.715608 296.690467 307.902513 294.503562 
C 310.089419 292.316656 311.318182 289.35016 311.318182 286.257408 
C 311.318182 283.164657 310.089419 280.19816 307.902513 278.011255 
C 305.715608 275.824349 302.749111 274.595586 299.65636 274.595586 
C 296.563608 274.595586 293.597112 275.824349 291.410206 278.011255 
C 289.223301 280.19816 287.994538 283.164657 287.994538 286.257408 
C 287.994538 289.35016 289.223301 292.316656 291.410206 294.503562 
C 293.597112 296.690467 296.563608 297.91923 299.65636 297.91923 
z
" style="fill:#bebebe;stroke:#000000;stroke-linejoin:miter;"/>
   </g>
   <g id="patch_10">
    <path clip-path="url(#pb180dd6c94)" d="M 69.34364 250.092693 
C 72.436392 250.092693 75.402888 248.86393 77.589794 246.677025 
C 79.776699 244.490119 81.005462 241.523623 81.005462 238.430871 
C 81.005462 235.33812 79.776699 232.371623 77.589794 230.184718 
C 75.402888 227.997812 72.436392 226.769049 69.34364 226.769049 
C 66.250889 226.769049 63.284392 227.997812 61.097487 230.184718 
C 58.910581 232.371623 57.681818 235.33812 57.681818 238.430871 
C 57.681818 241.523623 58.910581 244.490119 61.097487 246.677025 
C 63.284392 248.86393 66.250889 250.092693 69.34364 250.092693 
z
" style="fill:#bebebe;stroke:#000000;stroke-linejoin:miter;"/>
   </g>
   <g id="text_1">
    <!-- 0 -->
    <g transform="translate(285.603059 175.8529)scale(0.12 -0.12)">
     <defs>
      <path d="M 31.78125 66.40625 
Q 24.171875 66.40625 20.328125 58.90625 
Q 16.5 51.421875 16.5 36.375 
Q 16.5 21.390625 20.328125 13.890625 
Q 24.171875 6.390625 31.78125 6.390625 
Q 39.453125 6.390625 43.28125 13.890625 
Q 47.125 21.390625 47.125 36.375 
Q 47.125 51.421875 43.28125 58.90625 
Q 39.453125 66.40625 31.78125 66.40625 
z
M 31.78125 74.21875 
Q 44.046875 74.21875 50.515625 64.515625 
Q 56.984375 54.828125 56.984375 36.375 
Q 56.984375 17.96875 50.515625 8.265625 
Q 44.046875 -1.421875 31.78125 -1.421875 
Q 19.53125 -1.421875 13.0625 8.265625 
Q 6.59375 17.96875 6.59375 36.375 
Q 6.59375 54.828125 13.0625 64.515625 
Q 19.53125 74.21875 31.78125 74.21875 
z
" id="DejaVuSans-48"/>
     </defs>
     <use xlink:href="#DejaVuSans-48"/>
    </g>
   </g>
   <g id="text_2">
    <!-- 1 -->
    <g transform="translate(231.715965 75.253842)scale(0.12 -0.12)">
     <defs>
      <path d="M 12.40625 8.296875 
L 28.515625 8.296875 
L 28.515625 63.921875 
L 10.984375 60.40625 
L 10.984375 69.390625 
L 28.421875 72.90625 
L 38.28125 72.90625 
L 38.28125 8.296875 
L 54.390625 8.296875 
L 54.390625 0 
L 12.40625 0 
z
" id="DejaVuSans-49"/>
     </defs>
     <use xlink:href="#DejaVuSans-49"/>
    </g>
   </g>
   <g id="text_3">
    <!-- 2 -->
    <g transform="translate(295.83886 289.568658)scale(0.12 -0.12)">
     <defs>
      <path d="M 19.1875 8.296875 
L 53.609375 8.296875 
L 53.609375 0 
L 7.328125 0 
L 7.328125 8.296875 
Q 12.9375 14.109375 22.625 23.890625 
Q 32.328125 33.6875 34.8125 36.53125 
Q 39.546875 41.84375 41.421875 45.53125 
Q 43.3125 49.21875 43.3125 52.78125 
Q 43.3125 58.59375 39.234375 62.25 
Q 35.15625 65.921875 28.609375 65.921875 
Q 23.96875 65.921875 18.8125 64.3125 
Q 13.671875 62.703125 7.8125 59.421875 
L 7.8125 69.390625 
Q 13.765625 71.78125 18.9375 73 
Q 24.125 74.21875 28.421875 74.21875 
Q 39.75 74.21875 46.484375 68.546875 
Q 53.21875 62.890625 53.21875 53.421875 
Q 53.21875 48.921875 51.53125 44.890625 
Q 49.859375 40.875 45.40625 35.40625 
Q 44.1875 33.984375 37.640625 27.21875 
Q 31.109375 20.453125 19.1875 8.296875 
z
" id="DejaVuSans-50"/>
     </defs>
     <use xlink:href="#DejaVuSans-50"/>
    </g>
   </g>
   <g id="text_4">
    <!-- 3 -->
    <g transform="translate(65.52614 241.742121)scale(0.12 -0.12)">
     <defs>
      <path d="M 40.578125 39.3125 
Q 47.65625 37.796875 51.625 33 
Q 55.609375 28.21875 55.609375 21.1875 
Q 55.609375 10.40625 48.1875 4.484375 
Q 40.765625 -1.421875 27.09375 -1.421875 
Q 22.515625 -1.421875 17.65625 -0.515625 
Q 12.796875 0.390625 7.625 2.203125 
L 7.625 11.71875 
Q 11.71875 9.328125 16.59375 8.109375 
Q 21.484375 6.890625 26.8125 6.890625 
Q 36.078125 6.890625 40.9375 10.546875 
Q 45.796875 14.203125 45.796875 21.1875 
Q 45.796875 27.640625 41.28125 31.265625 
Q 36.765625 34.90625 28.71875 34.90625 
L 20.21875 34.90625 
L 20.21875 43.015625 
L 29.109375 43.015625 
Q 36.375 43.015625 40.234375 45.921875 
Q 44.09375 48.828125 44.09375 54.296875 
Q 44.09375 59.90625 40.109375 62.90625 
Q 36.140625 65.921875 28.71875 65.921875 
Q 24.65625 65.921875 20.015625 65.03125 
Q 15.375 64.15625 9.8125 62.3125 
L 9.8125 71.09375 
Q 15.4375 72.65625 20.34375 73.4375 
Q 25.25 74.21875 29.59375 74.21875 
Q 40.828125 74.21875 47.359375 69.109375 
Q 53.90625 64.015625 53.90625 55.328125 
Q 53.90625 49.265625 50.4375 45.09375 
Q 46.96875 40.921875 40.578125 39.3125 
z
" id="DejaVuSans-51"/>
     </defs>
     <use xlink:href="#DejaVuSans-51"/>
    </g>
   </g>
  </g>
 </g>
 <defs>
  <clipPath id="pb180dd6c94">
   <rect height="261.402307" width="279" x="45" y="48.398847"/>
  </clipPath>
 </defs>
</svg>
