<?xml version="1.0" encoding="utf-8" standalone="no"?>
<!DOCTYPE svg PUBLIC "-//W3C//DTD SVG 1.1//EN"
  "http://www.w3.org/Graphics/SVG/1.1/DTD/svg11.dtd">
<!-- Created with matplotlib (https://matplotlib.org/) -->
<svg height="432pt" version="1.1" viewBox="0 0 720 432" width="720pt" xmlns="http://www.w3.org/2000/svg" xmlns:xlink="http://www.w3.org/1999/xlink">
 <metadata>
  <rdf:RDF xmlns:cc="http://creativecommons.org/ns#" xmlns:dc="http://purl.org/dc/elements/1.1/" xmlns:rdf="http://www.w3.org/1999/02/22-rdf-syntax-ns#">
   <cc:Work>
    <dc:type rdf:resource="http://purl.org/dc/dcmitype/StillImage"/>
    <dc:date>2022-10-23T00:26:54.452112</dc:date>
    <dc:format>image/svg+xml</dc:format>
    <dc:creator>
     <cc:Agent>
      <dc:title>Matplotlib v3.3.2, https://matplotlib.org/</dc:title>
     </cc:Agent>
    </dc:creator>
   </cc:Work>
  </rdf:RDF>
 </metadata>
 <defs>
  <style type="text/css">*{stroke-linecap:butt;stroke-linejoin:round;}</style>
 </defs>
 <g id="figure_1">
  <g id="patch_1">
   <path d="M 0 432 
L 720 432 
L 720 0 
L 0 0 
z
" style="fill:none;"/>
  </g>
  <g id="axes_1">
   <g id="patch_2">
    <path d="M 609.7108 95.040643 
L 506.046873 95.040643 
L 490.810226 110.438479 
" style="fill:none;stroke:#000000;stroke-linecap:round;"/>
   </g>
   <g id="text_1">
    <g id="patch_3">
     <path d="M 612.0775 102.879706 
L 701.691563 102.879706 
L 701.691563 87.201581 
L 612.0775 87.201581 
z
" style="fill:#ffffff;stroke:#000000;stroke-linejoin:miter;stroke-width:0.72;"/>
    </g>
    <!-- Storage, 25.17% -->
    <g transform="translate(615.0775 97.800018)scale(0.1 -0.1)">
     <defs>
      <path d="M 53.515625 70.515625 
L 53.515625 60.890625 
Q 47.90625 63.578125 42.921875 64.890625 
Q 37.9375 66.21875 33.296875 66.21875 
Q 25.25 66.21875 20.875 63.09375 
Q 16.5 59.96875 16.5 54.203125 
Q 16.5 49.359375 19.40625 46.890625 
Q 22.3125 44.4375 30.421875 42.921875 
L 36.375 41.703125 
Q 47.40625 39.59375 52.65625 34.296875 
Q 57.90625 29 57.90625 20.125 
Q 57.90625 9.515625 50.796875 4.046875 
Q 43.703125 -1.421875 29.984375 -1.421875 
Q 24.8125 -1.421875 18.96875 -0.25 
Q 13.140625 0.921875 6.890625 3.21875 
L 6.890625 13.375 
Q 12.890625 10.015625 18.65625 8.296875 
Q 24.421875 6.59375 29.984375 6.59375 
Q 38.421875 6.59375 43.015625 9.90625 
Q 47.609375 13.234375 47.609375 19.390625 
Q 47.609375 24.75 44.3125 27.78125 
Q 41.015625 30.8125 33.5 32.328125 
L 27.484375 33.5 
Q 16.453125 35.6875 11.515625 40.375 
Q 6.59375 45.0625 6.59375 53.421875 
Q 6.59375 63.09375 13.40625 68.65625 
Q 20.21875 74.21875 32.171875 74.21875 
Q 37.3125 74.21875 42.625 73.28125 
Q 47.953125 72.359375 53.515625 70.515625 
z
" id="DejaVuSans-83"/>
      <path d="M 18.3125 70.21875 
L 18.3125 54.6875 
L 36.8125 54.6875 
L 36.8125 47.703125 
L 18.3125 47.703125 
L 18.3125 18.015625 
Q 18.3125 11.328125 20.140625 9.421875 
Q 21.96875 7.515625 27.59375 7.515625 
L 36.8125 7.515625 
L 36.8125 0 
L 27.59375 0 
Q 17.1875 0 13.234375 3.875 
Q 9.28125 7.765625 9.28125 18.015625 
L 9.28125 47.703125 
L 2.6875 47.703125 
L 2.6875 54.6875 
L 9.28125 54.6875 
L 9.28125 70.21875 
z
" id="DejaVuSans-116"/>
      <path d="M 30.609375 48.390625 
Q 23.390625 48.390625 19.1875 42.75 
Q 14.984375 37.109375 14.984375 27.296875 
Q 14.984375 17.484375 19.15625 11.84375 
Q 23.34375 6.203125 30.609375 6.203125 
Q 37.796875 6.203125 41.984375 11.859375 
Q 46.1875 17.53125 46.1875 27.296875 
Q 46.1875 37.015625 41.984375 42.703125 
Q 37.796875 48.390625 30.609375 48.390625 
z
M 30.609375 56 
Q 42.328125 56 49.015625 48.375 
Q 55.71875 40.765625 55.71875 27.296875 
Q 55.71875 13.875 49.015625 6.21875 
Q 42.328125 -1.421875 30.609375 -1.421875 
Q 18.84375 -1.421875 12.171875 6.21875 
Q 5.515625 13.875 5.515625 27.296875 
Q 5.515625 40.765625 12.171875 48.375 
Q 18.84375 56 30.609375 56 
z
" id="DejaVuSans-111"/>
      <path d="M 41.109375 46.296875 
Q 39.59375 47.171875 37.8125 47.578125 
Q 36.03125 48 33.890625 48 
Q 26.265625 48 22.1875 43.046875 
Q 18.109375 38.09375 18.109375 28.8125 
L 18.109375 0 
L 9.078125 0 
L 9.078125 54.6875 
L 18.109375 54.6875 
L 18.109375 46.1875 
Q 20.953125 51.171875 25.484375 53.578125 
Q 30.03125 56 36.53125 56 
Q 37.453125 56 38.578125 55.875 
Q 39.703125 55.765625 41.0625 55.515625 
z
" id="DejaVuSans-114"/>
      <path d="M 34.28125 27.484375 
Q 23.390625 27.484375 19.1875 25 
Q 14.984375 22.515625 14.984375 16.5 
Q 14.984375 11.71875 18.140625 8.90625 
Q 21.296875 6.109375 26.703125 6.109375 
Q 34.1875 6.109375 38.703125 11.40625 
Q 43.21875 16.703125 43.21875 25.484375 
L 43.21875 27.484375 
z
M 52.203125 31.203125 
L 52.203125 0 
L 43.21875 0 
L 43.21875 8.296875 
Q 40.140625 3.328125 35.546875 0.953125 
Q 30.953125 -1.421875 24.3125 -1.421875 
Q 15.921875 -1.421875 10.953125 3.296875 
Q 6 8.015625 6 15.921875 
Q 6 25.140625 12.171875 29.828125 
Q 18.359375 34.515625 30.609375 34.515625 
L 43.21875 34.515625 
L 43.21875 35.40625 
Q 43.21875 41.609375 39.140625 45 
Q 35.0625 48.390625 27.6875 48.390625 
Q 23 48.390625 18.546875 47.265625 
Q 14.109375 46.140625 10.015625 43.890625 
L 10.015625 52.203125 
Q 14.9375 54.109375 19.578125 55.046875 
Q 24.21875 56 28.609375 56 
Q 40.484375 56 46.34375 49.84375 
Q 52.203125 43.703125 52.203125 31.203125 
z
" id="DejaVuSans-97"/>
      <path d="M 45.40625 27.984375 
Q 45.40625 37.75 41.375 43.109375 
Q 37.359375 48.484375 30.078125 48.484375 
Q 22.859375 48.484375 18.828125 43.109375 
Q 14.796875 37.75 14.796875 27.984375 
Q 14.796875 18.265625 18.828125 12.890625 
Q 22.859375 7.515625 30.078125 7.515625 
Q 37.359375 7.515625 41.375 12.890625 
Q 45.40625 18.265625 45.40625 27.984375 
z
M 54.390625 6.78125 
Q 54.390625 -7.171875 48.1875 -13.984375 
Q 42 -20.796875 29.203125 -20.796875 
Q 24.46875 -20.796875 20.265625 -20.09375 
Q 16.0625 -19.390625 12.109375 -17.921875 
L 12.109375 -9.1875 
Q 16.0625 -11.328125 19.921875 -12.34375 
Q 23.78125 -13.375 27.78125 -13.375 
Q 36.625 -13.375 41.015625 -8.765625 
Q 45.40625 -4.15625 45.40625 5.171875 
L 45.40625 9.625 
Q 42.625 4.78125 38.28125 2.390625 
Q 33.9375 0 27.875 0 
Q 17.828125 0 11.671875 7.65625 
Q 5.515625 15.328125 5.515625 27.984375 
Q 5.515625 40.671875 11.671875 48.328125 
Q 17.828125 56 27.875 56 
Q 33.9375 56 38.28125 53.609375 
Q 42.625 51.21875 45.40625 46.390625 
L 45.40625 54.6875 
L 54.390625 54.6875 
z
" id="DejaVuSans-103"/>
      <path d="M 56.203125 29.59375 
L 56.203125 25.203125 
L 14.890625 25.203125 
Q 15.484375 15.921875 20.484375 11.0625 
Q 25.484375 6.203125 34.421875 6.203125 
Q 39.59375 6.203125 44.453125 7.46875 
Q 49.3125 8.734375 54.109375 11.28125 
L 54.109375 2.78125 
Q 49.265625 0.734375 44.1875 -0.34375 
Q 39.109375 -1.421875 33.890625 -1.421875 
Q 20.796875 -1.421875 13.15625 6.1875 
Q 5.515625 13.8125 5.515625 26.8125 
Q 5.515625 40.234375 12.765625 48.109375 
Q 20.015625 56 32.328125 56 
Q 43.359375 56 49.78125 48.890625 
Q 56.203125 41.796875 56.203125 29.59375 
z
M 47.21875 32.234375 
Q 47.125 39.59375 43.09375 43.984375 
Q 39.0625 48.390625 32.421875 48.390625 
Q 24.90625 48.390625 20.390625 44.140625 
Q 15.875 39.890625 15.1875 32.171875 
z
" id="DejaVuSans-101"/>
      <path d="M 11.71875 12.40625 
L 22.015625 12.40625 
L 22.015625 4 
L 14.015625 -11.625 
L 7.71875 -11.625 
L 11.71875 4 
z
" id="DejaVuSans-44"/>
      <path id="DejaVuSans-32"/>
      <path d="M 19.1875 8.296875 
L 53.609375 8.296875 
L 53.609375 0 
L 7.328125 0 
L 7.328125 8.296875 
Q 12.9375 14.109375 22.625 23.890625 
Q 32.328125 33.6875 34.8125 36.53125 
Q 39.546875 41.84375 41.421875 45.53125 
Q 43.3125 49.21875 43.3125 52.78125 
Q 43.3125 58.59375 39.234375 62.25 
Q 35.15625 65.921875 28.609375 65.921875 
Q 23.96875 65.921875 18.8125 64.3125 
Q 13.671875 62.703125 7.8125 59.421875 
L 7.8125 69.390625 
Q 13.765625 71.78125 18.9375 73 
Q 24.125 74.21875 28.421875 74.21875 
Q 39.75 74.21875 46.484375 68.546875 
Q 53.21875 62.890625 53.21875 53.421875 
Q 53.21875 48.921875 51.53125 44.890625 
Q 49.859375 40.875 45.40625 35.40625 
Q 44.1875 33.984375 37.640625 27.21875 
Q 31.109375 20.453125 19.1875 8.296875 
z
" id="DejaVuSans-50"/>
      <path d="M 10.796875 72.90625 
L 49.515625 72.90625 
L 49.515625 64.59375 
L 19.828125 64.59375 
L 19.828125 46.734375 
Q 21.96875 47.46875 24.109375 47.828125 
Q 26.265625 48.1875 28.421875 48.1875 
Q 40.625 48.1875 47.75 41.5 
Q 54.890625 34.8125 54.890625 23.390625 
Q 54.890625 11.625 47.5625 5.09375 
Q 40.234375 -1.421875 26.90625 -1.421875 
Q 22.3125 -1.421875 17.546875 -0.640625 
Q 12.796875 0.140625 7.71875 1.703125 
L 7.71875 11.625 
Q 12.109375 9.234375 16.796875 8.0625 
Q 21.484375 6.890625 26.703125 6.890625 
Q 35.15625 6.890625 40.078125 11.328125 
Q 45.015625 15.765625 45.015625 23.390625 
Q 45.015625 31 40.078125 35.4375 
Q 35.15625 39.890625 26.703125 39.890625 
Q 22.75 39.890625 18.8125 39.015625 
Q 14.890625 38.140625 10.796875 36.28125 
z
" id="DejaVuSans-53"/>
      <path d="M 10.6875 12.40625 
L 21 12.40625 
L 21 0 
L 10.6875 0 
z
" id="DejaVuSans-46"/>
      <path d="M 12.40625 8.296875 
L 28.515625 8.296875 
L 28.515625 63.921875 
L 10.984375 60.40625 
L 10.984375 69.390625 
L 28.421875 72.90625 
L 38.28125 72.90625 
L 38.28125 8.296875 
L 54.390625 8.296875 
L 54.390625 0 
L 12.40625 0 
z
" id="DejaVuSans-49"/>
      <path d="M 8.203125 72.90625 
L 55.078125 72.90625 
L 55.078125 68.703125 
L 28.609375 0 
L 18.3125 0 
L 43.21875 64.59375 
L 8.203125 64.59375 
z
" id="DejaVuSans-55"/>
      <path d="M 72.703125 32.078125 
Q 68.453125 32.078125 66.03125 28.46875 
Q 63.625 24.859375 63.625 18.40625 
Q 63.625 12.0625 66.03125 8.421875 
Q 68.453125 4.78125 72.703125 4.78125 
Q 76.859375 4.78125 79.265625 8.421875 
Q 81.6875 12.0625 81.6875 18.40625 
Q 81.6875 24.8125 79.265625 28.4375 
Q 76.859375 32.078125 72.703125 32.078125 
z
M 72.703125 38.28125 
Q 80.421875 38.28125 84.953125 32.90625 
Q 89.5 27.546875 89.5 18.40625 
Q 89.5 9.28125 84.9375 3.921875 
Q 80.375 -1.421875 72.703125 -1.421875 
Q 64.890625 -1.421875 60.34375 3.921875 
Q 55.8125 9.28125 55.8125 18.40625 
Q 55.8125 27.59375 60.375 32.9375 
Q 64.9375 38.28125 72.703125 38.28125 
z
M 22.3125 68.015625 
Q 18.109375 68.015625 15.6875 64.375 
Q 13.28125 60.75 13.28125 54.390625 
Q 13.28125 47.953125 15.671875 44.328125 
Q 18.0625 40.71875 22.3125 40.71875 
Q 26.5625 40.71875 28.96875 44.328125 
Q 31.390625 47.953125 31.390625 54.390625 
Q 31.390625 60.6875 28.953125 64.34375 
Q 26.515625 68.015625 22.3125 68.015625 
z
M 66.40625 74.21875 
L 74.21875 74.21875 
L 28.609375 -1.421875 
L 20.796875 -1.421875 
z
M 22.3125 74.21875 
Q 30.03125 74.21875 34.609375 68.875 
Q 39.203125 63.53125 39.203125 54.390625 
Q 39.203125 45.171875 34.640625 39.84375 
Q 30.078125 34.515625 22.3125 34.515625 
Q 14.546875 34.515625 10.03125 39.859375 
Q 5.515625 45.21875 5.515625 54.390625 
Q 5.515625 63.484375 10.046875 68.84375 
Q 14.59375 74.21875 22.3125 74.21875 
z
" id="DejaVuSans-37"/>
     </defs>
     <use xlink:href="#DejaVuSans-83"/>
     <use x="63.476562" xlink:href="#DejaVuSans-116"/>
     <use x="102.685547" xlink:href="#DejaVuSans-111"/>
     <use x="163.867188" xlink:href="#DejaVuSans-114"/>
     <use x="204.980469" xlink:href="#DejaVuSans-97"/>
     <use x="266.259766" xlink:href="#DejaVuSans-103"/>
     <use x="329.736328" xlink:href="#DejaVuSans-101"/>
     <use x="391.259766" xlink:href="#DejaVuSans-44"/>
     <use x="423.046875" xlink:href="#DejaVuSans-32"/>
     <use x="454.833984" xlink:href="#DejaVuSans-50"/>
     <use x="518.457031" xlink:href="#DejaVuSans-53"/>
     <use x="582.080078" xlink:href="#DejaVuSans-46"/>
     <use x="613.867188" xlink:href="#DejaVuSans-49"/>
     <use x="677.490234" xlink:href="#DejaVuSans-55"/>
     <use x="741.113281" xlink:href="#DejaVuSans-37"/>
    </g>
   </g>
   <g id="patch_4">
    <path d="M 147.158317 75.022956 
L 274.897613 75.022956 
L 287.260346 92.810918 
" style="fill:none;stroke:#000000;stroke-linecap:round;"/>
   </g>
   <g id="text_2">
    <g id="patch_5">
     <path d="M 60.227188 82.862019 
L 144.7975 82.862019 
L 144.7975 67.183894 
L 60.227188 67.183894 
z
" style="fill:#ffffff;stroke:#000000;stroke-linejoin:miter;stroke-width:0.72;"/>
    </g>
    <!-- Unusual, 19.0% -->
    <g transform="translate(63.227188 77.782331)scale(0.1 -0.1)">
     <defs>
      <path d="M 8.6875 72.90625 
L 18.609375 72.90625 
L 18.609375 28.609375 
Q 18.609375 16.890625 22.84375 11.734375 
Q 27.09375 6.59375 36.625 6.59375 
Q 46.09375 6.59375 50.34375 11.734375 
Q 54.59375 16.890625 54.59375 28.609375 
L 54.59375 72.90625 
L 64.5 72.90625 
L 64.5 27.390625 
Q 64.5 13.140625 57.4375 5.859375 
Q 50.390625 -1.421875 36.625 -1.421875 
Q 22.796875 -1.421875 15.734375 5.859375 
Q 8.6875 13.140625 8.6875 27.390625 
z
" id="DejaVuSans-85"/>
      <path d="M 54.890625 33.015625 
L 54.890625 0 
L 45.90625 0 
L 45.90625 32.71875 
Q 45.90625 40.484375 42.875 44.328125 
Q 39.84375 48.1875 33.796875 48.1875 
Q 26.515625 48.1875 22.3125 43.546875 
Q 18.109375 38.921875 18.109375 30.90625 
L 18.109375 0 
L 9.078125 0 
L 9.078125 54.6875 
L 18.109375 54.6875 
L 18.109375 46.1875 
Q 21.34375 51.125 25.703125 53.5625 
Q 30.078125 56 35.796875 56 
Q 45.21875 56 50.046875 50.171875 
Q 54.890625 44.34375 54.890625 33.015625 
z
" id="DejaVuSans-110"/>
      <path d="M 8.5 21.578125 
L 8.5 54.6875 
L 17.484375 54.6875 
L 17.484375 21.921875 
Q 17.484375 14.15625 20.5 10.265625 
Q 23.53125 6.390625 29.59375 6.390625 
Q 36.859375 6.390625 41.078125 11.03125 
Q 45.3125 15.671875 45.3125 23.6875 
L 45.3125 54.6875 
L 54.296875 54.6875 
L 54.296875 0 
L 45.3125 0 
L 45.3125 8.40625 
Q 42.046875 3.421875 37.71875 1 
Q 33.40625 -1.421875 27.6875 -1.421875 
Q 18.265625 -1.421875 13.375 4.4375 
Q 8.5 10.296875 8.5 21.578125 
z
M 31.109375 56 
z
" id="DejaVuSans-117"/>
      <path d="M 44.28125 53.078125 
L 44.28125 44.578125 
Q 40.484375 46.53125 36.375 47.5 
Q 32.28125 48.484375 27.875 48.484375 
Q 21.1875 48.484375 17.84375 46.4375 
Q 14.5 44.390625 14.5 40.28125 
Q 14.5 37.15625 16.890625 35.375 
Q 19.28125 33.59375 26.515625 31.984375 
L 29.59375 31.296875 
Q 39.15625 29.25 43.1875 25.515625 
Q 47.21875 21.78125 47.21875 15.09375 
Q 47.21875 7.46875 41.1875 3.015625 
Q 35.15625 -1.421875 24.609375 -1.421875 
Q 20.21875 -1.421875 15.453125 -0.5625 
Q 10.6875 0.296875 5.421875 2 
L 5.421875 11.28125 
Q 10.40625 8.6875 15.234375 7.390625 
Q 20.0625 6.109375 24.8125 6.109375 
Q 31.15625 6.109375 34.5625 8.28125 
Q 37.984375 10.453125 37.984375 14.40625 
Q 37.984375 18.0625 35.515625 20.015625 
Q 33.0625 21.96875 24.703125 23.78125 
L 21.578125 24.515625 
Q 13.234375 26.265625 9.515625 29.90625 
Q 5.8125 33.546875 5.8125 39.890625 
Q 5.8125 47.609375 11.28125 51.796875 
Q 16.75 56 26.8125 56 
Q 31.78125 56 36.171875 55.265625 
Q 40.578125 54.546875 44.28125 53.078125 
z
" id="DejaVuSans-115"/>
      <path d="M 9.421875 75.984375 
L 18.40625 75.984375 
L 18.40625 0 
L 9.421875 0 
z
" id="DejaVuSans-108"/>
      <path d="M 10.984375 1.515625 
L 10.984375 10.5 
Q 14.703125 8.734375 18.5 7.8125 
Q 22.3125 6.890625 25.984375 6.890625 
Q 35.75 6.890625 40.890625 13.453125 
Q 46.046875 20.015625 46.78125 33.40625 
Q 43.953125 29.203125 39.59375 26.953125 
Q 35.25 24.703125 29.984375 24.703125 
Q 19.046875 24.703125 12.671875 31.3125 
Q 6.296875 37.9375 6.296875 49.421875 
Q 6.296875 60.640625 12.9375 67.421875 
Q 19.578125 74.21875 30.609375 74.21875 
Q 43.265625 74.21875 49.921875 64.515625 
Q 56.59375 54.828125 56.59375 36.375 
Q 56.59375 19.140625 48.40625 8.859375 
Q 40.234375 -1.421875 26.421875 -1.421875 
Q 22.703125 -1.421875 18.890625 -0.6875 
Q 15.09375 0.046875 10.984375 1.515625 
z
M 30.609375 32.421875 
Q 37.25 32.421875 41.125 36.953125 
Q 45.015625 41.5 45.015625 49.421875 
Q 45.015625 57.28125 41.125 61.84375 
Q 37.25 66.40625 30.609375 66.40625 
Q 23.96875 66.40625 20.09375 61.84375 
Q 16.21875 57.28125 16.21875 49.421875 
Q 16.21875 41.5 20.09375 36.953125 
Q 23.96875 32.421875 30.609375 32.421875 
z
" id="DejaVuSans-57"/>
      <path d="M 31.78125 66.40625 
Q 24.171875 66.40625 20.328125 58.90625 
Q 16.5 51.421875 16.5 36.375 
Q 16.5 21.390625 20.328125 13.890625 
Q 24.171875 6.390625 31.78125 6.390625 
Q 39.453125 6.390625 43.28125 13.890625 
Q 47.125 21.390625 47.125 36.375 
Q 47.125 51.421875 43.28125 58.90625 
Q 39.453125 66.40625 31.78125 66.40625 
z
M 31.78125 74.21875 
Q 44.046875 74.21875 50.515625 64.515625 
Q 56.984375 54.828125 56.984375 36.375 
Q 56.984375 17.96875 50.515625 8.265625 
Q 44.046875 -1.421875 31.78125 -1.421875 
Q 19.53125 -1.421875 13.0625 8.265625 
Q 6.59375 17.96875 6.59375 36.375 
Q 6.59375 54.828125 13.0625 64.515625 
Q 19.53125 74.21875 31.78125 74.21875 
z
" id="DejaVuSans-48"/>
     </defs>
     <use xlink:href="#DejaVuSans-85"/>
     <use x="73.193359" xlink:href="#DejaVuSans-110"/>
     <use x="136.572266" xlink:href="#DejaVuSans-117"/>
     <use x="199.951172" xlink:href="#DejaVuSans-115"/>
     <use x="252.050781" xlink:href="#DejaVuSans-117"/>
     <use x="315.429688" xlink:href="#DejaVuSans-97"/>
     <use x="376.708984" xlink:href="#DejaVuSans-108"/>
     <use x="404.492188" xlink:href="#DejaVuSans-44"/>
     <use x="436.279297" xlink:href="#DejaVuSans-32"/>
     <use x="468.066406" xlink:href="#DejaVuSans-49"/>
     <use x="531.689453" xlink:href="#DejaVuSans-57"/>
     <use x="595.3125" xlink:href="#DejaVuSans-46"/>
     <use x="627.099609" xlink:href="#DejaVuSans-48"/>
     <use x="690.722656" xlink:href="#DejaVuSans-37"/>
    </g>
   </g>
   <g id="patch_6">
    <path d="M 147.155196 233.000767 
L 197.23691 233.000767 
L 218.872385 231.926069 
" style="fill:none;stroke:#000000;stroke-linecap:round;"/>
   </g>
   <g id="text_3">
    <g id="patch_7">
     <path d="M 47.413125 240.83983 
L 144.7975 240.83983 
L 144.7975 225.161705 
L 47.413125 225.161705 
z
" style="fill:#ffffff;stroke:#000000;stroke-linejoin:miter;stroke-width:0.72;"/>
    </g>
    <!-- Industrial, 13.25% -->
    <g transform="translate(50.413125 235.760142)scale(0.1 -0.1)">
     <defs>
      <path d="M 9.8125 72.90625 
L 19.671875 72.90625 
L 19.671875 0 
L 9.8125 0 
z
" id="DejaVuSans-73"/>
      <path d="M 45.40625 46.390625 
L 45.40625 75.984375 
L 54.390625 75.984375 
L 54.390625 0 
L 45.40625 0 
L 45.40625 8.203125 
Q 42.578125 3.328125 38.25 0.953125 
Q 33.9375 -1.421875 27.875 -1.421875 
Q 17.96875 -1.421875 11.734375 6.484375 
Q 5.515625 14.40625 5.515625 27.296875 
Q 5.515625 40.1875 11.734375 48.09375 
Q 17.96875 56 27.875 56 
Q 33.9375 56 38.25 53.625 
Q 42.578125 51.265625 45.40625 46.390625 
z
M 14.796875 27.296875 
Q 14.796875 17.390625 18.875 11.75 
Q 22.953125 6.109375 30.078125 6.109375 
Q 37.203125 6.109375 41.296875 11.75 
Q 45.40625 17.390625 45.40625 27.296875 
Q 45.40625 37.203125 41.296875 42.84375 
Q 37.203125 48.484375 30.078125 48.484375 
Q 22.953125 48.484375 18.875 42.84375 
Q 14.796875 37.203125 14.796875 27.296875 
z
" id="DejaVuSans-100"/>
      <path d="M 9.421875 54.6875 
L 18.40625 54.6875 
L 18.40625 0 
L 9.421875 0 
z
M 9.421875 75.984375 
L 18.40625 75.984375 
L 18.40625 64.59375 
L 9.421875 64.59375 
z
" id="DejaVuSans-105"/>
      <path d="M 40.578125 39.3125 
Q 47.65625 37.796875 51.625 33 
Q 55.609375 28.21875 55.609375 21.1875 
Q 55.609375 10.40625 48.1875 4.484375 
Q 40.765625 -1.421875 27.09375 -1.421875 
Q 22.515625 -1.421875 17.65625 -0.515625 
Q 12.796875 0.390625 7.625 2.203125 
L 7.625 11.71875 
Q 11.71875 9.328125 16.59375 8.109375 
Q 21.484375 6.890625 26.8125 6.890625 
Q 36.078125 6.890625 40.9375 10.546875 
Q 45.796875 14.203125 45.796875 21.1875 
Q 45.796875 27.640625 41.28125 31.265625 
Q 36.765625 34.90625 28.71875 34.90625 
L 20.21875 34.90625 
L 20.21875 43.015625 
L 29.109375 43.015625 
Q 36.375 43.015625 40.234375 45.921875 
Q 44.09375 48.828125 44.09375 54.296875 
Q 44.09375 59.90625 40.109375 62.90625 
Q 36.140625 65.921875 28.71875 65.921875 
Q 24.65625 65.921875 20.015625 65.03125 
Q 15.375 64.15625 9.8125 62.3125 
L 9.8125 71.09375 
Q 15.4375 72.65625 20.34375 73.4375 
Q 25.25 74.21875 29.59375 74.21875 
Q 40.828125 74.21875 47.359375 69.109375 
Q 53.90625 64.015625 53.90625 55.328125 
Q 53.90625 49.265625 50.4375 45.09375 
Q 46.96875 40.921875 40.578125 39.3125 
z
" id="DejaVuSans-51"/>
     </defs>
     <use xlink:href="#DejaVuSans-73"/>
     <use x="29.492188" xlink:href="#DejaVuSans-110"/>
     <use x="92.871094" xlink:href="#DejaVuSans-100"/>
     <use x="156.347656" xlink:href="#DejaVuSans-117"/>
     <use x="219.726562" xlink:href="#DejaVuSans-115"/>
     <use x="271.826172" xlink:href="#DejaVuSans-116"/>
     <use x="311.035156" xlink:href="#DejaVuSans-114"/>
     <use x="352.148438" xlink:href="#DejaVuSans-105"/>
     <use x="379.931641" xlink:href="#DejaVuSans-97"/>
     <use x="441.210938" xlink:href="#DejaVuSans-108"/>
     <use x="468.994141" xlink:href="#DejaVuSans-44"/>
     <use x="500.78125" xlink:href="#DejaVuSans-32"/>
     <use x="532.568359" xlink:href="#DejaVuSans-49"/>
     <use x="596.191406" xlink:href="#DejaVuSans-51"/>
     <use x="659.814453" xlink:href="#DejaVuSans-46"/>
     <use x="691.601562" xlink:href="#DejaVuSans-50"/>
     <use x="755.224609" xlink:href="#DejaVuSans-53"/>
     <use x="818.847656" xlink:href="#DejaVuSans-37"/>
    </g>
   </g>
   <g id="patch_8">
    <path d="M 147.1565 354.394154 
L 252.294595 354.394154 
L 267.356145 338.825002 
" style="fill:none;stroke:#000000;stroke-linecap:round;"/>
   </g>
   <g id="text_4">
    <g id="patch_9">
     <path d="M 52.475625 362.233216 
L 144.7975 362.233216 
L 144.7975 346.555091 
L 52.475625 346.555091 
z
" style="fill:#ffffff;stroke:#000000;stroke-linejoin:miter;stroke-width:0.72;"/>
    </g>
    <!-- Assembly, 10.7% -->
    <g transform="translate(55.475625 357.153529)scale(0.1 -0.1)">
     <defs>
      <path d="M 34.1875 63.1875 
L 20.796875 26.90625 
L 47.609375 26.90625 
z
M 28.609375 72.90625 
L 39.796875 72.90625 
L 67.578125 0 
L 57.328125 0 
L 50.6875 18.703125 
L 17.828125 18.703125 
L 11.1875 0 
L 0.78125 0 
z
" id="DejaVuSans-65"/>
      <path d="M 52 44.1875 
Q 55.375 50.25 60.0625 53.125 
Q 64.75 56 71.09375 56 
Q 79.640625 56 84.28125 50.015625 
Q 88.921875 44.046875 88.921875 33.015625 
L 88.921875 0 
L 79.890625 0 
L 79.890625 32.71875 
Q 79.890625 40.578125 77.09375 44.375 
Q 74.3125 48.1875 68.609375 48.1875 
Q 61.625 48.1875 57.5625 43.546875 
Q 53.515625 38.921875 53.515625 30.90625 
L 53.515625 0 
L 44.484375 0 
L 44.484375 32.71875 
Q 44.484375 40.625 41.703125 44.40625 
Q 38.921875 48.1875 33.109375 48.1875 
Q 26.21875 48.1875 22.15625 43.53125 
Q 18.109375 38.875 18.109375 30.90625 
L 18.109375 0 
L 9.078125 0 
L 9.078125 54.6875 
L 18.109375 54.6875 
L 18.109375 46.1875 
Q 21.1875 51.21875 25.484375 53.609375 
Q 29.78125 56 35.6875 56 
Q 41.65625 56 45.828125 52.96875 
Q 50 49.953125 52 44.1875 
z
" id="DejaVuSans-109"/>
      <path d="M 48.6875 27.296875 
Q 48.6875 37.203125 44.609375 42.84375 
Q 40.53125 48.484375 33.40625 48.484375 
Q 26.265625 48.484375 22.1875 42.84375 
Q 18.109375 37.203125 18.109375 27.296875 
Q 18.109375 17.390625 22.1875 11.75 
Q 26.265625 6.109375 33.40625 6.109375 
Q 40.53125 6.109375 44.609375 11.75 
Q 48.6875 17.390625 48.6875 27.296875 
z
M 18.109375 46.390625 
Q 20.953125 51.265625 25.265625 53.625 
Q 29.59375 56 35.59375 56 
Q 45.5625 56 51.78125 48.09375 
Q 58.015625 40.1875 58.015625 27.296875 
Q 58.015625 14.40625 51.78125 6.484375 
Q 45.5625 -1.421875 35.59375 -1.421875 
Q 29.59375 -1.421875 25.265625 0.953125 
Q 20.953125 3.328125 18.109375 8.203125 
L 18.109375 0 
L 9.078125 0 
L 9.078125 75.984375 
L 18.109375 75.984375 
z
" id="DejaVuSans-98"/>
      <path d="M 32.171875 -5.078125 
Q 28.375 -14.84375 24.75 -17.8125 
Q 21.140625 -20.796875 15.09375 -20.796875 
L 7.90625 -20.796875 
L 7.90625 -13.28125 
L 13.1875 -13.28125 
Q 16.890625 -13.28125 18.9375 -11.515625 
Q 21 -9.765625 23.484375 -3.21875 
L 25.09375 0.875 
L 2.984375 54.6875 
L 12.5 54.6875 
L 29.59375 11.921875 
L 46.6875 54.6875 
L 56.203125 54.6875 
z
" id="DejaVuSans-121"/>
     </defs>
     <use xlink:href="#DejaVuSans-65"/>
     <use x="68.408203" xlink:href="#DejaVuSans-115"/>
     <use x="120.507812" xlink:href="#DejaVuSans-115"/>
     <use x="172.607422" xlink:href="#DejaVuSans-101"/>
     <use x="234.130859" xlink:href="#DejaVuSans-109"/>
     <use x="331.542969" xlink:href="#DejaVuSans-98"/>
     <use x="395.019531" xlink:href="#DejaVuSans-108"/>
     <use x="422.802734" xlink:href="#DejaVuSans-121"/>
     <use x="481.982422" xlink:href="#DejaVuSans-44"/>
     <use x="513.769531" xlink:href="#DejaVuSans-32"/>
     <use x="545.556641" xlink:href="#DejaVuSans-49"/>
     <use x="609.179688" xlink:href="#DejaVuSans-48"/>
     <use x="672.802734" xlink:href="#DejaVuSans-46"/>
     <use x="704.589844" xlink:href="#DejaVuSans-55"/>
     <use x="768.212891" xlink:href="#DejaVuSans-37"/>
    </g>
   </g>
   <g id="patch_10">
    <path d="M 147.15522 402.698461 
L 347.108157 402.698461 
L 350.848902 381.361742 
" style="fill:none;stroke:#000000;stroke-linecap:round;"/>
   </g>
   <g id="text_5">
    <g id="patch_11">
     <path d="M 4.525625 410.537524 
L 144.7975 410.537524 
L 144.7975 394.859399 
L 4.525625 394.859399 
z
" style="fill:#ffffff;stroke:#000000;stroke-linejoin:miter;stroke-width:0.72;"/>
    </g>
    <!-- Detention &amp; Correc, 8.25% -->
    <g transform="translate(7.525625 405.457836)scale(0.1 -0.1)">
     <defs>
      <path d="M 19.671875 64.796875 
L 19.671875 8.109375 
L 31.59375 8.109375 
Q 46.6875 8.109375 53.6875 14.9375 
Q 60.6875 21.78125 60.6875 36.53125 
Q 60.6875 51.171875 53.6875 57.984375 
Q 46.6875 64.796875 31.59375 64.796875 
z
M 9.8125 72.90625 
L 30.078125 72.90625 
Q 51.265625 72.90625 61.171875 64.09375 
Q 71.09375 55.28125 71.09375 36.53125 
Q 71.09375 17.671875 61.125 8.828125 
Q 51.171875 0 30.078125 0 
L 9.8125 0 
z
" id="DejaVuSans-68"/>
      <path d="M 24.3125 39.203125 
Q 19.875 35.25 17.796875 31.3125 
Q 15.71875 27.390625 15.71875 23.09375 
Q 15.71875 15.96875 20.890625 11.234375 
Q 26.078125 6.5 33.890625 6.5 
Q 38.53125 6.5 42.578125 8.03125 
Q 46.625 9.578125 50.203125 12.703125 
z
M 31.203125 44.671875 
L 56 19.28125 
Q 58.890625 23.640625 60.5 28.59375 
Q 62.109375 33.546875 62.40625 39.109375 
L 71.484375 39.109375 
Q 70.90625 32.671875 68.359375 26.359375 
Q 65.828125 20.0625 61.28125 13.921875 
L 74.90625 0 
L 62.59375 0 
L 55.609375 7.171875 
Q 50.53125 2.828125 44.96875 0.703125 
Q 39.40625 -1.421875 33.015625 -1.421875 
Q 21.234375 -1.421875 13.765625 5.296875 
Q 6.296875 12.015625 6.296875 22.515625 
Q 6.296875 28.765625 9.5625 34.25 
Q 12.84375 39.75 19.390625 44.578125 
Q 17.046875 47.65625 15.8125 50.703125 
Q 14.59375 53.765625 14.59375 56.6875 
Q 14.59375 64.59375 20.015625 69.40625 
Q 25.4375 74.21875 34.421875 74.21875 
Q 38.484375 74.21875 42.5 73.34375 
Q 46.53125 72.46875 50.6875 70.703125 
L 50.6875 61.8125 
Q 46.4375 64.109375 42.578125 65.296875 
Q 38.71875 66.5 35.40625 66.5 
Q 30.28125 66.5 27.078125 63.78125 
Q 23.875 61.078125 23.875 56.78125 
Q 23.875 54.296875 25.3125 51.78125 
Q 26.765625 49.265625 31.203125 44.671875 
z
" id="DejaVuSans-38"/>
      <path d="M 64.40625 67.28125 
L 64.40625 56.890625 
Q 59.421875 61.53125 53.78125 63.8125 
Q 48.140625 66.109375 41.796875 66.109375 
Q 29.296875 66.109375 22.65625 58.46875 
Q 16.015625 50.828125 16.015625 36.375 
Q 16.015625 21.96875 22.65625 14.328125 
Q 29.296875 6.6875 41.796875 6.6875 
Q 48.140625 6.6875 53.78125 8.984375 
Q 59.421875 11.28125 64.40625 15.921875 
L 64.40625 5.609375 
Q 59.234375 2.09375 53.4375 0.328125 
Q 47.65625 -1.421875 41.21875 -1.421875 
Q 24.65625 -1.421875 15.125 8.703125 
Q 5.609375 18.84375 5.609375 36.375 
Q 5.609375 53.953125 15.125 64.078125 
Q 24.65625 74.21875 41.21875 74.21875 
Q 47.75 74.21875 53.53125 72.484375 
Q 59.328125 70.75 64.40625 67.28125 
z
" id="DejaVuSans-67"/>
      <path d="M 48.78125 52.59375 
L 48.78125 44.1875 
Q 44.96875 46.296875 41.140625 47.34375 
Q 37.3125 48.390625 33.40625 48.390625 
Q 24.65625 48.390625 19.8125 42.84375 
Q 14.984375 37.3125 14.984375 27.296875 
Q 14.984375 17.28125 19.8125 11.734375 
Q 24.65625 6.203125 33.40625 6.203125 
Q 37.3125 6.203125 41.140625 7.25 
Q 44.96875 8.296875 48.78125 10.40625 
L 48.78125 2.09375 
Q 45.015625 0.34375 40.984375 -0.53125 
Q 36.96875 -1.421875 32.421875 -1.421875 
Q 20.0625 -1.421875 12.78125 6.34375 
Q 5.515625 14.109375 5.515625 27.296875 
Q 5.515625 40.671875 12.859375 48.328125 
Q 20.21875 56 33.015625 56 
Q 37.15625 56 41.109375 55.140625 
Q 45.0625 54.296875 48.78125 52.59375 
z
" id="DejaVuSans-99"/>
      <path d="M 31.78125 34.625 
Q 24.75 34.625 20.71875 30.859375 
Q 16.703125 27.09375 16.703125 20.515625 
Q 16.703125 13.921875 20.71875 10.15625 
Q 24.75 6.390625 31.78125 6.390625 
Q 38.8125 6.390625 42.859375 10.171875 
Q 46.921875 13.96875 46.921875 20.515625 
Q 46.921875 27.09375 42.890625 30.859375 
Q 38.875 34.625 31.78125 34.625 
z
M 21.921875 38.8125 
Q 15.578125 40.375 12.03125 44.71875 
Q 8.5 49.078125 8.5 55.328125 
Q 8.5 64.0625 14.71875 69.140625 
Q 20.953125 74.21875 31.78125 74.21875 
Q 42.671875 74.21875 48.875 69.140625 
Q 55.078125 64.0625 55.078125 55.328125 
Q 55.078125 49.078125 51.53125 44.71875 
Q 48 40.375 41.703125 38.8125 
Q 48.828125 37.15625 52.796875 32.3125 
Q 56.78125 27.484375 56.78125 20.515625 
Q 56.78125 9.90625 50.3125 4.234375 
Q 43.84375 -1.421875 31.78125 -1.421875 
Q 19.734375 -1.421875 13.25 4.234375 
Q 6.78125 9.90625 6.78125 20.515625 
Q 6.78125 27.484375 10.78125 32.3125 
Q 14.796875 37.15625 21.921875 38.8125 
z
M 18.3125 54.390625 
Q 18.3125 48.734375 21.84375 45.5625 
Q 25.390625 42.390625 31.78125 42.390625 
Q 38.140625 42.390625 41.71875 45.5625 
Q 45.3125 48.734375 45.3125 54.390625 
Q 45.3125 60.0625 41.71875 63.234375 
Q 38.140625 66.40625 31.78125 66.40625 
Q 25.390625 66.40625 21.84375 63.234375 
Q 18.3125 60.0625 18.3125 54.390625 
z
" id="DejaVuSans-56"/>
     </defs>
     <use xlink:href="#DejaVuSans-68"/>
     <use x="77.001953" xlink:href="#DejaVuSans-101"/>
     <use x="138.525391" xlink:href="#DejaVuSans-116"/>
     <use x="177.734375" xlink:href="#DejaVuSans-101"/>
     <use x="239.257812" xlink:href="#DejaVuSans-110"/>
     <use x="302.636719" xlink:href="#DejaVuSans-116"/>
     <use x="341.845703" xlink:href="#DejaVuSans-105"/>
     <use x="369.628906" xlink:href="#DejaVuSans-111"/>
     <use x="430.810547" xlink:href="#DejaVuSans-110"/>
     <use x="494.189453" xlink:href="#DejaVuSans-32"/>
     <use x="525.976562" xlink:href="#DejaVuSans-38"/>
     <use x="603.955078" xlink:href="#DejaVuSans-32"/>
     <use x="635.742188" xlink:href="#DejaVuSans-67"/>
     <use x="705.566406" xlink:href="#DejaVuSans-111"/>
     <use x="766.748047" xlink:href="#DejaVuSans-114"/>
     <use x="806.111328" xlink:href="#DejaVuSans-114"/>
     <use x="844.974609" xlink:href="#DejaVuSans-101"/>
     <use x="906.498047" xlink:href="#DejaVuSans-99"/>
     <use x="961.478516" xlink:href="#DejaVuSans-44"/>
     <use x="993.265625" xlink:href="#DejaVuSans-32"/>
     <use x="1025.052734" xlink:href="#DejaVuSans-56"/>
     <use x="1088.675781" xlink:href="#DejaVuSans-46"/>
     <use x="1120.462891" xlink:href="#DejaVuSans-50"/>
     <use x="1184.085938" xlink:href="#DejaVuSans-53"/>
     <use x="1247.708984" xlink:href="#DejaVuSans-37"/>
    </g>
   </g>
   <g id="patch_12">
    <path d="M 609.72134 395.092653 
L 438.786253 395.092653 
L 431.580571 374.664072 
" style="fill:none;stroke:#000000;stroke-linecap:round;"/>
   </g>
   <g id="text_6">
    <g id="patch_13">
     <path d="M 612.0775 402.931715 
L 700.29625 402.931715 
L 700.29625 387.25359 
L 612.0775 387.25359 
z
" style="fill:#ffffff;stroke:#000000;stroke-linejoin:miter;stroke-width:0.72;"/>
    </g>
    <!-- Business, 8.07% -->
    <g transform="translate(615.0775 397.852028)scale(0.1 -0.1)">
     <defs>
      <path d="M 19.671875 34.8125 
L 19.671875 8.109375 
L 35.5 8.109375 
Q 43.453125 8.109375 47.28125 11.40625 
Q 51.125 14.703125 51.125 21.484375 
Q 51.125 28.328125 47.28125 31.5625 
Q 43.453125 34.8125 35.5 34.8125 
z
M 19.671875 64.796875 
L 19.671875 42.828125 
L 34.28125 42.828125 
Q 41.5 42.828125 45.03125 45.53125 
Q 48.578125 48.25 48.578125 53.8125 
Q 48.578125 59.328125 45.03125 62.0625 
Q 41.5 64.796875 34.28125 64.796875 
z
M 9.8125 72.90625 
L 35.015625 72.90625 
Q 46.296875 72.90625 52.390625 68.21875 
Q 58.5 63.53125 58.5 54.890625 
Q 58.5 48.1875 55.375 44.234375 
Q 52.25 40.28125 46.1875 39.3125 
Q 53.46875 37.75 57.5 32.78125 
Q 61.53125 27.828125 61.53125 20.40625 
Q 61.53125 10.640625 54.890625 5.3125 
Q 48.25 0 35.984375 0 
L 9.8125 0 
z
" id="DejaVuSans-66"/>
     </defs>
     <use xlink:href="#DejaVuSans-66"/>
     <use x="68.603516" xlink:href="#DejaVuSans-117"/>
     <use x="131.982422" xlink:href="#DejaVuSans-115"/>
     <use x="184.082031" xlink:href="#DejaVuSans-105"/>
     <use x="211.865234" xlink:href="#DejaVuSans-110"/>
     <use x="275.244141" xlink:href="#DejaVuSans-101"/>
     <use x="336.767578" xlink:href="#DejaVuSans-115"/>
     <use x="388.867188" xlink:href="#DejaVuSans-115"/>
     <use x="440.966797" xlink:href="#DejaVuSans-44"/>
     <use x="472.753906" xlink:href="#DejaVuSans-32"/>
     <use x="504.541016" xlink:href="#DejaVuSans-56"/>
     <use x="568.164062" xlink:href="#DejaVuSans-46"/>
     <use x="599.951172" xlink:href="#DejaVuSans-48"/>
     <use x="663.574219" xlink:href="#DejaVuSans-55"/>
     <use x="727.197266" xlink:href="#DejaVuSans-37"/>
    </g>
   </g>
   <g id="patch_14">
    <path d="M 609.719276 348.017038 
L 510.85518 348.017038 
L 495.044418 333.209319 
" style="fill:none;stroke:#000000;stroke-linecap:round;"/>
   </g>
   <g id="text_7">
    <g id="patch_15">
     <path d="M 612.0775 355.856101 
L 711.28375 355.856101 
L 711.28375 340.177976 
L 612.0775 340.177976 
z
" style="fill:#ffffff;stroke:#000000;stroke-linejoin:miter;stroke-width:0.72;"/>
    </g>
    <!-- Residential, 7.18% -->
    <g transform="translate(615.0775 350.776413)scale(0.1 -0.1)">
     <defs>
      <path d="M 44.390625 34.1875 
Q 47.5625 33.109375 50.5625 29.59375 
Q 53.5625 26.078125 56.59375 19.921875 
L 66.609375 0 
L 56 0 
L 46.6875 18.703125 
Q 43.0625 26.03125 39.671875 28.421875 
Q 36.28125 30.8125 30.421875 30.8125 
L 19.671875 30.8125 
L 19.671875 0 
L 9.8125 0 
L 9.8125 72.90625 
L 32.078125 72.90625 
Q 44.578125 72.90625 50.734375 67.671875 
Q 56.890625 62.453125 56.890625 51.90625 
Q 56.890625 45.015625 53.6875 40.46875 
Q 50.484375 35.9375 44.390625 34.1875 
z
M 19.671875 64.796875 
L 19.671875 38.921875 
L 32.078125 38.921875 
Q 39.203125 38.921875 42.84375 42.21875 
Q 46.484375 45.515625 46.484375 51.90625 
Q 46.484375 58.296875 42.84375 61.546875 
Q 39.203125 64.796875 32.078125 64.796875 
z
" id="DejaVuSans-82"/>
     </defs>
     <use xlink:href="#DejaVuSans-82"/>
     <use x="64.982422" xlink:href="#DejaVuSans-101"/>
     <use x="126.505859" xlink:href="#DejaVuSans-115"/>
     <use x="178.605469" xlink:href="#DejaVuSans-105"/>
     <use x="206.388672" xlink:href="#DejaVuSans-100"/>
     <use x="269.865234" xlink:href="#DejaVuSans-101"/>
     <use x="331.388672" xlink:href="#DejaVuSans-110"/>
     <use x="394.767578" xlink:href="#DejaVuSans-116"/>
     <use x="433.976562" xlink:href="#DejaVuSans-105"/>
     <use x="461.759766" xlink:href="#DejaVuSans-97"/>
     <use x="523.039062" xlink:href="#DejaVuSans-108"/>
     <use x="550.822266" xlink:href="#DejaVuSans-44"/>
     <use x="582.609375" xlink:href="#DejaVuSans-32"/>
     <use x="614.396484" xlink:href="#DejaVuSans-55"/>
     <use x="678.019531" xlink:href="#DejaVuSans-46"/>
     <use x="709.806641" xlink:href="#DejaVuSans-49"/>
     <use x="773.429688" xlink:href="#DejaVuSans-56"/>
     <use x="837.052734" xlink:href="#DejaVuSans-37"/>
    </g>
   </g>
   <g id="patch_16">
    <path d="M 609.716828 293.263416 
L 546.119482 293.263416 
L 526.098138 284.993317 
" style="fill:none;stroke:#000000;stroke-linecap:round;"/>
   </g>
   <g id="text_8">
    <g id="patch_17">
     <path d="M 612.0775 301.102479 
L 715.366562 301.102479 
L 715.366562 285.424354 
L 612.0775 285.424354 
z
" style="fill:#ffffff;stroke:#000000;stroke-linejoin:miter;stroke-width:0.72;"/>
    </g>
    <!-- Health Care, 4.31% -->
    <g transform="translate(615.0775 296.022791)scale(0.1 -0.1)">
     <defs>
      <path d="M 9.8125 72.90625 
L 19.671875 72.90625 
L 19.671875 43.015625 
L 55.515625 43.015625 
L 55.515625 72.90625 
L 65.375 72.90625 
L 65.375 0 
L 55.515625 0 
L 55.515625 34.71875 
L 19.671875 34.71875 
L 19.671875 0 
L 9.8125 0 
z
" id="DejaVuSans-72"/>
      <path d="M 54.890625 33.015625 
L 54.890625 0 
L 45.90625 0 
L 45.90625 32.71875 
Q 45.90625 40.484375 42.875 44.328125 
Q 39.84375 48.1875 33.796875 48.1875 
Q 26.515625 48.1875 22.3125 43.546875 
Q 18.109375 38.921875 18.109375 30.90625 
L 18.109375 0 
L 9.078125 0 
L 9.078125 75.984375 
L 18.109375 75.984375 
L 18.109375 46.1875 
Q 21.34375 51.125 25.703125 53.5625 
Q 30.078125 56 35.796875 56 
Q 45.21875 56 50.046875 50.171875 
Q 54.890625 44.34375 54.890625 33.015625 
z
" id="DejaVuSans-104"/>
      <path d="M 37.796875 64.3125 
L 12.890625 25.390625 
L 37.796875 25.390625 
z
M 35.203125 72.90625 
L 47.609375 72.90625 
L 47.609375 25.390625 
L 58.015625 25.390625 
L 58.015625 17.1875 
L 47.609375 17.1875 
L 47.609375 0 
L 37.796875 0 
L 37.796875 17.1875 
L 4.890625 17.1875 
L 4.890625 26.703125 
z
" id="DejaVuSans-52"/>
     </defs>
     <use xlink:href="#DejaVuSans-72"/>
     <use x="75.195312" xlink:href="#DejaVuSans-101"/>
     <use x="136.71875" xlink:href="#DejaVuSans-97"/>
     <use x="197.998047" xlink:href="#DejaVuSans-108"/>
     <use x="225.78125" xlink:href="#DejaVuSans-116"/>
     <use x="264.990234" xlink:href="#DejaVuSans-104"/>
     <use x="328.369141" xlink:href="#DejaVuSans-32"/>
     <use x="360.15625" xlink:href="#DejaVuSans-67"/>
     <use x="429.980469" xlink:href="#DejaVuSans-97"/>
     <use x="491.259766" xlink:href="#DejaVuSans-114"/>
     <use x="530.123047" xlink:href="#DejaVuSans-101"/>
     <use x="591.646484" xlink:href="#DejaVuSans-44"/>
     <use x="623.433594" xlink:href="#DejaVuSans-32"/>
     <use x="655.220703" xlink:href="#DejaVuSans-52"/>
     <use x="718.84375" xlink:href="#DejaVuSans-46"/>
     <use x="750.630859" xlink:href="#DejaVuSans-51"/>
     <use x="814.253906" xlink:href="#DejaVuSans-49"/>
     <use x="877.876953" xlink:href="#DejaVuSans-37"/>
    </g>
   </g>
   <g id="patch_18">
    <path d="M 609.718607 253.784514 
L 557.399928 253.784514 
L 536.031691 250.228222 
" style="fill:none;stroke:#000000;stroke-linecap:round;"/>
   </g>
   <g id="text_9">
    <g id="patch_19">
     <path d="M 612.0775 261.623576 
L 705.986875 261.623576 
L 705.986875 245.945451 
L 612.0775 245.945451 
z
" style="fill:#ffffff;stroke:#000000;stroke-linejoin:miter;stroke-width:0.72;"/>
    </g>
    <!-- Education, 2.91% -->
    <g transform="translate(615.0775 256.543889)scale(0.1 -0.1)">
     <defs>
      <path d="M 9.8125 72.90625 
L 55.90625 72.90625 
L 55.90625 64.59375 
L 19.671875 64.59375 
L 19.671875 43.015625 
L 54.390625 43.015625 
L 54.390625 34.71875 
L 19.671875 34.71875 
L 19.671875 8.296875 
L 56.78125 8.296875 
L 56.78125 0 
L 9.8125 0 
z
" id="DejaVuSans-69"/>
     </defs>
     <use xlink:href="#DejaVuSans-69"/>
     <use x="63.183594" xlink:href="#DejaVuSans-100"/>
     <use x="126.660156" xlink:href="#DejaVuSans-117"/>
     <use x="190.039062" xlink:href="#DejaVuSans-99"/>
     <use x="245.019531" xlink:href="#DejaVuSans-97"/>
     <use x="306.298828" xlink:href="#DejaVuSans-116"/>
     <use x="345.507812" xlink:href="#DejaVuSans-105"/>
     <use x="373.291016" xlink:href="#DejaVuSans-111"/>
     <use x="434.472656" xlink:href="#DejaVuSans-110"/>
     <use x="497.851562" xlink:href="#DejaVuSans-44"/>
     <use x="529.638672" xlink:href="#DejaVuSans-32"/>
     <use x="561.425781" xlink:href="#DejaVuSans-50"/>
     <use x="625.048828" xlink:href="#DejaVuSans-46"/>
     <use x="656.835938" xlink:href="#DejaVuSans-57"/>
     <use x="720.458984" xlink:href="#DejaVuSans-49"/>
     <use x="784.082031" xlink:href="#DejaVuSans-37"/>
    </g>
   </g>
   <g id="patch_20">
    <path d="M 609.717626 232.374632 
L 559.668108 232.374632 
L 538.029049 231.374695 
" style="fill:none;stroke:#000000;stroke-linecap:round;"/>
   </g>
   <g id="text_10">
    <g id="patch_21">
     <path d="M 612.0775 240.213695 
L 708.461875 240.213695 
L 708.461875 224.53557 
L 612.0775 224.53557 
z
" style="fill:#ffffff;stroke:#000000;stroke-linejoin:miter;stroke-width:0.72;"/>
    </g>
    <!-- Mercantile, 0.87% -->
    <g transform="translate(615.0775 235.134007)scale(0.1 -0.1)">
     <defs>
      <path d="M 9.8125 72.90625 
L 24.515625 72.90625 
L 43.109375 23.296875 
L 61.8125 72.90625 
L 76.515625 72.90625 
L 76.515625 0 
L 66.890625 0 
L 66.890625 64.015625 
L 48.09375 14.015625 
L 38.1875 14.015625 
L 19.390625 64.015625 
L 19.390625 0 
L 9.8125 0 
z
" id="DejaVuSans-77"/>
     </defs>
     <use xlink:href="#DejaVuSans-77"/>
     <use x="86.279297" xlink:href="#DejaVuSans-101"/>
     <use x="147.802734" xlink:href="#DejaVuSans-114"/>
     <use x="186.666016" xlink:href="#DejaVuSans-99"/>
     <use x="241.646484" xlink:href="#DejaVuSans-97"/>
     <use x="302.925781" xlink:href="#DejaVuSans-110"/>
     <use x="366.304688" xlink:href="#DejaVuSans-116"/>
     <use x="405.513672" xlink:href="#DejaVuSans-105"/>
     <use x="433.296875" xlink:href="#DejaVuSans-108"/>
     <use x="461.080078" xlink:href="#DejaVuSans-101"/>
     <use x="522.603516" xlink:href="#DejaVuSans-44"/>
     <use x="554.390625" xlink:href="#DejaVuSans-32"/>
     <use x="586.177734" xlink:href="#DejaVuSans-48"/>
     <use x="649.800781" xlink:href="#DejaVuSans-46"/>
     <use x="681.587891" xlink:href="#DejaVuSans-56"/>
     <use x="745.210938" xlink:href="#DejaVuSans-55"/>
     <use x="808.833984" xlink:href="#DejaVuSans-37"/>
    </g>
   </g>
   <g id="patch_22">
    <path d="M 536.1975 224 
C 536.1975 203.143466 532.061518 182.492486 524.029403 163.244626 
C 515.997287 143.996766 504.227362 126.531424 489.402172 111.861429 
C 474.576983 97.191434 456.988752 85.605949 437.657435 77.776825 
C 418.326118 69.947701 397.632758 66.02926 376.777379 66.248735 
L 377.275415 113.574115 
C 391.874181 113.420482 406.359532 116.163391 419.891454 121.643777 
C 433.423376 127.124164 445.735138 135.234004 456.11277 145.503 
C 466.490403 155.771997 474.729351 167.997736 480.351832 181.471238 
C 485.974313 194.944741 488.8695 209.400426 488.8695 224 
L 536.1975 224 
z
" style="fill:#8c564b;"/>
   </g>
   <g id="patch_23">
    <path d="M 376.777379 66.248735 
C 345.162124 66.581443 314.365246 76.410709 288.402815 94.454745 
C 262.440385 112.498781 242.492233 137.937598 231.159702 167.453844 
L 275.343041 184.417691 
C 283.275813 163.756319 297.239519 145.949146 315.413221 133.318321 
C 333.586922 120.687496 355.144737 113.80701 377.275415 113.574115 
L 376.777379 66.248735 
z
" style="fill:#c49c94;"/>
   </g>
   <g id="patch_24">
    <path d="M 231.159702 167.453844 
C 223.286295 187.960596 219.781983 209.887524 220.871769 231.826754 
C 221.961555 253.765984 227.621605 275.237691 237.488502 294.86323 
L 279.773201 273.604261 
C 272.866374 259.866384 268.904339 244.836189 268.141488 229.478728 
C 267.378638 214.121267 269.831656 198.772417 275.343041 184.417691 
L 231.159702 167.453844 
z
" style="fill:#98df8a;"/>
   </g>
   <g id="patch_25">
    <path d="M 237.488502 294.86323 
C 245.446582 310.69208 256.014522 325.067876 268.748017 337.38622 
C 281.481513 349.704565 296.199576 359.790371 312.283419 367.219605 
L 332.129643 324.253723 
C 320.870953 319.05326 310.568309 311.993195 301.654862 303.370354 
C 292.741415 294.747513 285.343857 284.684456 279.773201 273.604261 
L 237.488502 294.86323 
z
" style="fill:#1f77b4;"/>
   </g>
   <g id="patch_26">
    <path d="M 312.283419 367.219605 
C 324.672752 372.942319 337.752452 377.033295 351.194593 379.389966 
C 364.636734 381.746637 378.328031 382.349142 391.925225 381.182375 
L 387.878908 334.027662 
C 378.360872 334.844399 368.776963 334.422646 359.367465 332.772976 
C 349.957966 331.123307 340.802177 328.259624 332.129643 324.253723 
L 312.283419 367.219605 
z
" style="fill:#ff7f0e;"/>
   </g>
   <g id="patch_27">
    <path d="M 391.925225 381.182375 
C 405.224954 380.041133 418.326221 377.21649 430.914677 372.77622 
C 443.503132 368.33595 455.477281 362.315852 466.549817 354.860373 
L 440.116122 315.602261 
C 432.365347 320.821096 423.983442 325.035165 415.171524 328.143354 
C 406.359605 331.251543 397.188718 333.228793 387.878908 334.027662 
L 391.925225 381.182375 
z
" style="fill:#aec7e8;"/>
   </g>
   <g id="patch_28">
    <path d="M 466.549817 354.860373 
C 476.39848 348.228965 485.467111 340.506874 493.583309 331.840903 
C 501.699507 323.174931 508.811513 313.620344 514.784122 303.358782 
L 473.880136 279.551147 
C 469.699309 286.734241 464.720905 293.422452 459.039566 299.488632 
C 453.358227 305.554812 447.010186 310.960276 440.116122 315.602261 
L 466.549817 354.860373 
z
" style="fill:#c5b0d5;"/>
   </g>
   <g id="patch_29">
    <path d="M 514.784122 303.358782 
C 518.366927 297.203151 521.528762 290.81195 524.247919 284.229058 
C 526.967076 277.646165 529.237318 270.88668 531.04306 263.997008 
L 485.261392 251.997906 
C 483.997373 256.820676 482.408203 261.552316 480.504793 266.16034 
C 478.601383 270.768365 476.388099 275.242205 473.880136 279.551147 
L 514.784122 303.358782 
z
" style="fill:#2ca02c;"/>
   </g>
   <g id="patch_30">
    <path d="M 531.04306 263.997008 
C 532.261997 259.346246 533.267694 254.642192 534.057002 249.899577 
C 534.84631 245.156963 535.418404 240.380745 535.771492 235.58588 
L 488.571294 232.110116 
C 488.324133 235.466521 487.923667 238.809874 487.371152 242.129704 
C 486.818636 245.449534 486.114648 248.742372 485.261392 251.997906 
L 531.04306 263.997008 
z
" style="fill:#ffbb78;"/>
   </g>
   <g id="patch_31">
    <path d="M 535.771492 235.58588 
C 535.877037 234.152591 535.962993 232.717927 536.029333 231.282289 
C 536.095674 229.846651 536.142393 228.410174 536.169479 226.973259 
L 488.849886 226.081281 
C 488.830925 227.087122 488.798222 228.092656 488.751783 229.097602 
C 488.705345 230.102549 488.645176 231.106814 488.571294 232.110116 
L 535.771492 235.58588 
z
" style="fill:#d62728;"/>
   </g>
   <g id="patch_32">
    <path d="M 536.169479 226.973259 
C 536.176951 226.576874 536.182929 226.180463 536.187412 225.784034 
C 536.191896 225.387604 536.194885 224.991159 536.196379 224.594707 
L 488.868715 224.416295 
C 488.867669 224.693811 488.865577 224.971323 488.862439 225.248824 
C 488.8593 225.526324 488.855116 225.803812 488.849886 226.081281 
L 536.169479 226.973259 
z
" style="fill:#e377c2;"/>
   </g>
   <g id="patch_33">
    <path d="M 536.196379 224.594707 
C 536.19669 224.512113 536.196937 224.429518 536.197119 224.346924 
C 536.1973 224.264329 536.197417 224.181735 536.197469 224.09914 
L 488.869478 224.069398 
C 488.869442 224.127214 488.86936 224.185031 488.869233 224.242847 
C 488.869106 224.300663 488.868933 224.358479 488.868715 224.416295 
L 536.196379 224.594707 
z
" style="fill:#ff9896;"/>
   </g>
   <g id="patch_34">
    <path d="M 536.197469 224.09914 
C 536.197479 224.082621 536.197487 224.066102 536.197492 224.049583 
C 536.197497 224.033064 536.1975 224.016546 536.1975 224.000027 
L 488.8695 224.000019 
C 488.8695 224.011582 488.869498 224.023145 488.869495 224.034708 
C 488.869491 224.046272 488.869485 224.057835 488.869478 224.069398 
L 536.197469 224.09914 
z
" style="fill:#9467bd;"/>
   </g>
   <g id="matplotlib.axis_1"/>
   <g id="matplotlib.axis_2"/>
   <g id="text_11">
    <!-- Building Usage Descriptions -->
    <g transform="translate(294.29125 20.8)scale(0.12 -0.12)">
     <defs>
      <path d="M 18.109375 8.203125 
L 18.109375 -20.796875 
L 9.078125 -20.796875 
L 9.078125 54.6875 
L 18.109375 54.6875 
L 18.109375 46.390625 
Q 20.953125 51.265625 25.265625 53.625 
Q 29.59375 56 35.59375 56 
Q 45.5625 56 51.78125 48.09375 
Q 58.015625 40.1875 58.015625 27.296875 
Q 58.015625 14.40625 51.78125 6.484375 
Q 45.5625 -1.421875 35.59375 -1.421875 
Q 29.59375 -1.421875 25.265625 0.953125 
Q 20.953125 3.328125 18.109375 8.203125 
z
M 48.6875 27.296875 
Q 48.6875 37.203125 44.609375 42.84375 
Q 40.53125 48.484375 33.40625 48.484375 
Q 26.265625 48.484375 22.1875 42.84375 
Q 18.109375 37.203125 18.109375 27.296875 
Q 18.109375 17.390625 22.1875 11.75 
Q 26.265625 6.109375 33.40625 6.109375 
Q 40.53125 6.109375 44.609375 11.75 
Q 48.6875 17.390625 48.6875 27.296875 
z
" id="DejaVuSans-112"/>
     </defs>
     <use xlink:href="#DejaVuSans-66"/>
     <use x="68.603516" xlink:href="#DejaVuSans-117"/>
     <use x="131.982422" xlink:href="#DejaVuSans-105"/>
     <use x="159.765625" xlink:href="#DejaVuSans-108"/>
     <use x="187.548828" xlink:href="#DejaVuSans-100"/>
     <use x="251.025391" xlink:href="#DejaVuSans-105"/>
     <use x="278.808594" xlink:href="#DejaVuSans-110"/>
     <use x="342.1875" xlink:href="#DejaVuSans-103"/>
     <use x="405.664062" xlink:href="#DejaVuSans-32"/>
     <use x="437.451172" xlink:href="#DejaVuSans-85"/>
     <use x="510.644531" xlink:href="#DejaVuSans-115"/>
     <use x="562.744141" xlink:href="#DejaVuSans-97"/>
     <use x="624.023438" xlink:href="#DejaVuSans-103"/>
     <use x="687.5" xlink:href="#DejaVuSans-101"/>
     <use x="749.023438" xlink:href="#DejaVuSans-32"/>
     <use x="780.810547" xlink:href="#DejaVuSans-68"/>
     <use x="857.8125" xlink:href="#DejaVuSans-101"/>
     <use x="919.335938" xlink:href="#DejaVuSans-115"/>
     <use x="971.435547" xlink:href="#DejaVuSans-99"/>
     <use x="1026.416016" xlink:href="#DejaVuSans-114"/>
     <use x="1067.529297" xlink:href="#DejaVuSans-105"/>
     <use x="1095.3125" xlink:href="#DejaVuSans-112"/>
     <use x="1158.789062" xlink:href="#DejaVuSans-116"/>
     <use x="1197.998047" xlink:href="#DejaVuSans-105"/>
     <use x="1225.78125" xlink:href="#DejaVuSans-111"/>
     <use x="1286.962891" xlink:href="#DejaVuSans-110"/>
     <use x="1350.341797" xlink:href="#DejaVuSans-115"/>
    </g>
   </g>
  </g>
 </g>
</svg>
