<?xml version="1.0" encoding="utf-8" standalone="no"?>
<!DOCTYPE svg PUBLIC "-//W3C//DTD SVG 1.1//EN"
  "http://www.w3.org/Graphics/SVG/1.1/DTD/svg11.dtd">
<!-- Created with matplotlib (https://matplotlib.org/) -->
<svg height="864pt" version="1.1" viewBox="0 0 432 864" width="432pt" xmlns="http://www.w3.org/2000/svg" xmlns:xlink="http://www.w3.org/1999/xlink">
 <metadata>
  <rdf:RDF xmlns:cc="http://creativecommons.org/ns#" xmlns:dc="http://purl.org/dc/elements/1.1/" xmlns:rdf="http://www.w3.org/1999/02/22-rdf-syntax-ns#">
   <cc:Work>
    <dc:type rdf:resource="http://purl.org/dc/dcmitype/StillImage"/>
    <dc:date>2022-10-23T00:32:21.349032</dc:date>
    <dc:format>image/svg+xml</dc:format>
    <dc:creator>
     <cc:Agent>
      <dc:title>Matplotlib v3.3.2, https://matplotlib.org/</dc:title>
     </cc:Agent>
    </dc:creator>
   </cc:Work>
  </rdf:RDF>
 </metadata>
 <defs>
  <style type="text/css">*{stroke-linecap:butt;stroke-linejoin:round;}</style>
 </defs>
 <g id="figure_1">
  <g id="patch_1">
   <path d="M 0 864 
L 432 864 
L 432 0 
L 0 0 
z
" style="fill:none;"/>
  </g>
  <g id="axes_1">
   <g id="patch_2">
    <path d="M 331.156771 192.269736 
L 309.34933 192.269736 
L 299.868973 193.060904 
" style="fill:none;stroke:#000000;stroke-linecap:round;"/>
   </g>
   <g id="text_1">
    <g id="patch_3">
     <path d="M 333.515294 200.108798 
L 425.837169 200.108798 
L 425.837169 184.430673 
L 333.515294 184.430673 
z
" style="fill:#ffffff;stroke:#000000;stroke-linejoin:miter;stroke-width:0.72;"/>
    </g>
    <!-- Assembly, 2.65% -->
    <g transform="translate(336.515294 195.029111)scale(0.1 -0.1)">
     <defs>
      <path d="M 34.1875 63.1875 
L 20.796875 26.90625 
L 47.609375 26.90625 
z
M 28.609375 72.90625 
L 39.796875 72.90625 
L 67.578125 0 
L 57.328125 0 
L 50.6875 18.703125 
L 17.828125 18.703125 
L 11.1875 0 
L 0.78125 0 
z
" id="DejaVuSans-65"/>
      <path d="M 44.28125 53.078125 
L 44.28125 44.578125 
Q 40.484375 46.53125 36.375 47.5 
Q 32.28125 48.484375 27.875 48.484375 
Q 21.1875 48.484375 17.84375 46.4375 
Q 14.5 44.390625 14.5 40.28125 
Q 14.5 37.15625 16.890625 35.375 
Q 19.28125 33.59375 26.515625 31.984375 
L 29.59375 31.296875 
Q 39.15625 29.25 43.1875 25.515625 
Q 47.21875 21.78125 47.21875 15.09375 
Q 47.21875 7.46875 41.1875 3.015625 
Q 35.15625 -1.421875 24.609375 -1.421875 
Q 20.21875 -1.421875 15.453125 -0.5625 
Q 10.6875 0.296875 5.421875 2 
L 5.421875 11.28125 
Q 10.40625 8.6875 15.234375 7.390625 
Q 20.0625 6.109375 24.8125 6.109375 
Q 31.15625 6.109375 34.5625 8.28125 
Q 37.984375 10.453125 37.984375 14.40625 
Q 37.984375 18.0625 35.515625 20.015625 
Q 33.0625 21.96875 24.703125 23.78125 
L 21.578125 24.515625 
Q 13.234375 26.265625 9.515625 29.90625 
Q 5.8125 33.546875 5.8125 39.890625 
Q 5.8125 47.609375 11.28125 51.796875 
Q 16.75 56 26.8125 56 
Q 31.78125 56 36.171875 55.265625 
Q 40.578125 54.546875 44.28125 53.078125 
z
" id="DejaVuSans-115"/>
      <path d="M 56.203125 29.59375 
L 56.203125 25.203125 
L 14.890625 25.203125 
Q 15.484375 15.921875 20.484375 11.0625 
Q 25.484375 6.203125 34.421875 6.203125 
Q 39.59375 6.203125 44.453125 7.46875 
Q 49.3125 8.734375 54.109375 11.28125 
L 54.109375 2.78125 
Q 49.265625 0.734375 44.1875 -0.34375 
Q 39.109375 -1.421875 33.890625 -1.421875 
Q 20.796875 -1.421875 13.15625 6.1875 
Q 5.515625 13.8125 5.515625 26.8125 
Q 5.515625 40.234375 12.765625 48.109375 
Q 20.015625 56 32.328125 56 
Q 43.359375 56 49.78125 48.890625 
Q 56.203125 41.796875 56.203125 29.59375 
z
M 47.21875 32.234375 
Q 47.125 39.59375 43.09375 43.984375 
Q 39.0625 48.390625 32.421875 48.390625 
Q 24.90625 48.390625 20.390625 44.140625 
Q 15.875 39.890625 15.1875 32.171875 
z
" id="DejaVuSans-101"/>
      <path d="M 52 44.1875 
Q 55.375 50.25 60.0625 53.125 
Q 64.75 56 71.09375 56 
Q 79.640625 56 84.28125 50.015625 
Q 88.921875 44.046875 88.921875 33.015625 
L 88.921875 0 
L 79.890625 0 
L 79.890625 32.71875 
Q 79.890625 40.578125 77.09375 44.375 
Q 74.3125 48.1875 68.609375 48.1875 
Q 61.625 48.1875 57.5625 43.546875 
Q 53.515625 38.921875 53.515625 30.90625 
L 53.515625 0 
L 44.484375 0 
L 44.484375 32.71875 
Q 44.484375 40.625 41.703125 44.40625 
Q 38.921875 48.1875 33.109375 48.1875 
Q 26.21875 48.1875 22.15625 43.53125 
Q 18.109375 38.875 18.109375 30.90625 
L 18.109375 0 
L 9.078125 0 
L 9.078125 54.6875 
L 18.109375 54.6875 
L 18.109375 46.1875 
Q 21.1875 51.21875 25.484375 53.609375 
Q 29.78125 56 35.6875 56 
Q 41.65625 56 45.828125 52.96875 
Q 50 49.953125 52 44.1875 
z
" id="DejaVuSans-109"/>
      <path d="M 48.6875 27.296875 
Q 48.6875 37.203125 44.609375 42.84375 
Q 40.53125 48.484375 33.40625 48.484375 
Q 26.265625 48.484375 22.1875 42.84375 
Q 18.109375 37.203125 18.109375 27.296875 
Q 18.109375 17.390625 22.1875 11.75 
Q 26.265625 6.109375 33.40625 6.109375 
Q 40.53125 6.109375 44.609375 11.75 
Q 48.6875 17.390625 48.6875 27.296875 
z
M 18.109375 46.390625 
Q 20.953125 51.265625 25.265625 53.625 
Q 29.59375 56 35.59375 56 
Q 45.5625 56 51.78125 48.09375 
Q 58.015625 40.1875 58.015625 27.296875 
Q 58.015625 14.40625 51.78125 6.484375 
Q 45.5625 -1.421875 35.59375 -1.421875 
Q 29.59375 -1.421875 25.265625 0.953125 
Q 20.953125 3.328125 18.109375 8.203125 
L 18.109375 0 
L 9.078125 0 
L 9.078125 75.984375 
L 18.109375 75.984375 
z
" id="DejaVuSans-98"/>
      <path d="M 9.421875 75.984375 
L 18.40625 75.984375 
L 18.40625 0 
L 9.421875 0 
z
" id="DejaVuSans-108"/>
      <path d="M 32.171875 -5.078125 
Q 28.375 -14.84375 24.75 -17.8125 
Q 21.140625 -20.796875 15.09375 -20.796875 
L 7.90625 -20.796875 
L 7.90625 -13.28125 
L 13.1875 -13.28125 
Q 16.890625 -13.28125 18.9375 -11.515625 
Q 21 -9.765625 23.484375 -3.21875 
L 25.09375 0.875 
L 2.984375 54.6875 
L 12.5 54.6875 
L 29.59375 11.921875 
L 46.6875 54.6875 
L 56.203125 54.6875 
z
" id="DejaVuSans-121"/>
      <path d="M 11.71875 12.40625 
L 22.015625 12.40625 
L 22.015625 4 
L 14.015625 -11.625 
L 7.71875 -11.625 
L 11.71875 4 
z
" id="DejaVuSans-44"/>
      <path id="DejaVuSans-32"/>
      <path d="M 19.1875 8.296875 
L 53.609375 8.296875 
L 53.609375 0 
L 7.328125 0 
L 7.328125 8.296875 
Q 12.9375 14.109375 22.625 23.890625 
Q 32.328125 33.6875 34.8125 36.53125 
Q 39.546875 41.84375 41.421875 45.53125 
Q 43.3125 49.21875 43.3125 52.78125 
Q 43.3125 58.59375 39.234375 62.25 
Q 35.15625 65.921875 28.609375 65.921875 
Q 23.96875 65.921875 18.8125 64.3125 
Q 13.671875 62.703125 7.8125 59.421875 
L 7.8125 69.390625 
Q 13.765625 71.78125 18.9375 73 
Q 24.125 74.21875 28.421875 74.21875 
Q 39.75 74.21875 46.484375 68.546875 
Q 53.21875 62.890625 53.21875 53.421875 
Q 53.21875 48.921875 51.53125 44.890625 
Q 49.859375 40.875 45.40625 35.40625 
Q 44.1875 33.984375 37.640625 27.21875 
Q 31.109375 20.453125 19.1875 8.296875 
z
" id="DejaVuSans-50"/>
      <path d="M 10.6875 12.40625 
L 21 12.40625 
L 21 0 
L 10.6875 0 
z
" id="DejaVuSans-46"/>
      <path d="M 33.015625 40.375 
Q 26.375 40.375 22.484375 35.828125 
Q 18.609375 31.296875 18.609375 23.390625 
Q 18.609375 15.53125 22.484375 10.953125 
Q 26.375 6.390625 33.015625 6.390625 
Q 39.65625 6.390625 43.53125 10.953125 
Q 47.40625 15.53125 47.40625 23.390625 
Q 47.40625 31.296875 43.53125 35.828125 
Q 39.65625 40.375 33.015625 40.375 
z
M 52.59375 71.296875 
L 52.59375 62.3125 
Q 48.875 64.0625 45.09375 64.984375 
Q 41.3125 65.921875 37.59375 65.921875 
Q 27.828125 65.921875 22.671875 59.328125 
Q 17.53125 52.734375 16.796875 39.40625 
Q 19.671875 43.65625 24.015625 45.921875 
Q 28.375 48.1875 33.59375 48.1875 
Q 44.578125 48.1875 50.953125 41.515625 
Q 57.328125 34.859375 57.328125 23.390625 
Q 57.328125 12.15625 50.6875 5.359375 
Q 44.046875 -1.421875 33.015625 -1.421875 
Q 20.359375 -1.421875 13.671875 8.265625 
Q 6.984375 17.96875 6.984375 36.375 
Q 6.984375 53.65625 15.1875 63.9375 
Q 23.390625 74.21875 37.203125 74.21875 
Q 40.921875 74.21875 44.703125 73.484375 
Q 48.484375 72.75 52.59375 71.296875 
z
" id="DejaVuSans-54"/>
      <path d="M 10.796875 72.90625 
L 49.515625 72.90625 
L 49.515625 64.59375 
L 19.828125 64.59375 
L 19.828125 46.734375 
Q 21.96875 47.46875 24.109375 47.828125 
Q 26.265625 48.1875 28.421875 48.1875 
Q 40.625 48.1875 47.75 41.5 
Q 54.890625 34.8125 54.890625 23.390625 
Q 54.890625 11.625 47.5625 5.09375 
Q 40.234375 -1.421875 26.90625 -1.421875 
Q 22.3125 -1.421875 17.546875 -0.640625 
Q 12.796875 0.140625 7.71875 1.703125 
L 7.71875 11.625 
Q 12.109375 9.234375 16.796875 8.0625 
Q 21.484375 6.890625 26.703125 6.890625 
Q 35.15625 6.890625 40.078125 11.328125 
Q 45.015625 15.765625 45.015625 23.390625 
Q 45.015625 31 40.078125 35.4375 
Q 35.15625 39.890625 26.703125 39.890625 
Q 22.75 39.890625 18.8125 39.015625 
Q 14.890625 38.140625 10.796875 36.28125 
z
" id="DejaVuSans-53"/>
      <path d="M 72.703125 32.078125 
Q 68.453125 32.078125 66.03125 28.46875 
Q 63.625 24.859375 63.625 18.40625 
Q 63.625 12.0625 66.03125 8.421875 
Q 68.453125 4.78125 72.703125 4.78125 
Q 76.859375 4.78125 79.265625 8.421875 
Q 81.6875 12.0625 81.6875 18.40625 
Q 81.6875 24.8125 79.265625 28.4375 
Q 76.859375 32.078125 72.703125 32.078125 
z
M 72.703125 38.28125 
Q 80.421875 38.28125 84.953125 32.90625 
Q 89.5 27.546875 89.5 18.40625 
Q 89.5 9.28125 84.9375 3.921875 
Q 80.375 -1.421875 72.703125 -1.421875 
Q 64.890625 -1.421875 60.34375 3.921875 
Q 55.8125 9.28125 55.8125 18.40625 
Q 55.8125 27.59375 60.375 32.9375 
Q 64.9375 38.28125 72.703125 38.28125 
z
M 22.3125 68.015625 
Q 18.109375 68.015625 15.6875 64.375 
Q 13.28125 60.75 13.28125 54.390625 
Q 13.28125 47.953125 15.671875 44.328125 
Q 18.0625 40.71875 22.3125 40.71875 
Q 26.5625 40.71875 28.96875 44.328125 
Q 31.390625 47.953125 31.390625 54.390625 
Q 31.390625 60.6875 28.953125 64.34375 
Q 26.515625 68.015625 22.3125 68.015625 
z
M 66.40625 74.21875 
L 74.21875 74.21875 
L 28.609375 -1.421875 
L 20.796875 -1.421875 
z
M 22.3125 74.21875 
Q 30.03125 74.21875 34.609375 68.875 
Q 39.203125 63.53125 39.203125 54.390625 
Q 39.203125 45.171875 34.640625 39.84375 
Q 30.078125 34.515625 22.3125 34.515625 
Q 14.546875 34.515625 10.03125 39.859375 
Q 5.515625 45.21875 5.515625 54.390625 
Q 5.515625 63.484375 10.046875 68.84375 
Q 14.59375 74.21875 22.3125 74.21875 
z
" id="DejaVuSans-37"/>
     </defs>
     <use xlink:href="#DejaVuSans-65"/>
     <use x="68.408203" xlink:href="#DejaVuSans-115"/>
     <use x="120.507812" xlink:href="#DejaVuSans-115"/>
     <use x="172.607422" xlink:href="#DejaVuSans-101"/>
     <use x="234.130859" xlink:href="#DejaVuSans-109"/>
     <use x="331.542969" xlink:href="#DejaVuSans-98"/>
     <use x="395.019531" xlink:href="#DejaVuSans-108"/>
     <use x="422.802734" xlink:href="#DejaVuSans-121"/>
     <use x="481.982422" xlink:href="#DejaVuSans-44"/>
     <use x="513.769531" xlink:href="#DejaVuSans-32"/>
     <use x="545.556641" xlink:href="#DejaVuSans-50"/>
     <use x="609.179688" xlink:href="#DejaVuSans-46"/>
     <use x="640.966797" xlink:href="#DejaVuSans-54"/>
     <use x="704.589844" xlink:href="#DejaVuSans-53"/>
     <use x="768.212891" xlink:href="#DejaVuSans-37"/>
    </g>
   </g>
   <g id="patch_4">
    <path d="M 331.158195 168.436426 
L 303.966339 168.436426 
L 295.066233 171.796668 
" style="fill:none;stroke:#000000;stroke-linecap:round;"/>
   </g>
   <g id="text_2">
    <g id="patch_5">
     <path d="M 333.515294 176.275489 
L 421.734044 176.275489 
L 421.734044 160.597364 
L 333.515294 160.597364 
z
" style="fill:#ffffff;stroke:#000000;stroke-linejoin:miter;stroke-width:0.72;"/>
    </g>
    <!-- Business, 6.19% -->
    <g transform="translate(336.515294 171.195801)scale(0.1 -0.1)">
     <defs>
      <path d="M 19.671875 34.8125 
L 19.671875 8.109375 
L 35.5 8.109375 
Q 43.453125 8.109375 47.28125 11.40625 
Q 51.125 14.703125 51.125 21.484375 
Q 51.125 28.328125 47.28125 31.5625 
Q 43.453125 34.8125 35.5 34.8125 
z
M 19.671875 64.796875 
L 19.671875 42.828125 
L 34.28125 42.828125 
Q 41.5 42.828125 45.03125 45.53125 
Q 48.578125 48.25 48.578125 53.8125 
Q 48.578125 59.328125 45.03125 62.0625 
Q 41.5 64.796875 34.28125 64.796875 
z
M 9.8125 72.90625 
L 35.015625 72.90625 
Q 46.296875 72.90625 52.390625 68.21875 
Q 58.5 63.53125 58.5 54.890625 
Q 58.5 48.1875 55.375 44.234375 
Q 52.25 40.28125 46.1875 39.3125 
Q 53.46875 37.75 57.5 32.78125 
Q 61.53125 27.828125 61.53125 20.40625 
Q 61.53125 10.640625 54.890625 5.3125 
Q 48.25 0 35.984375 0 
L 9.8125 0 
z
" id="DejaVuSans-66"/>
      <path d="M 8.5 21.578125 
L 8.5 54.6875 
L 17.484375 54.6875 
L 17.484375 21.921875 
Q 17.484375 14.15625 20.5 10.265625 
Q 23.53125 6.390625 29.59375 6.390625 
Q 36.859375 6.390625 41.078125 11.03125 
Q 45.3125 15.671875 45.3125 23.6875 
L 45.3125 54.6875 
L 54.296875 54.6875 
L 54.296875 0 
L 45.3125 0 
L 45.3125 8.40625 
Q 42.046875 3.421875 37.71875 1 
Q 33.40625 -1.421875 27.6875 -1.421875 
Q 18.265625 -1.421875 13.375 4.4375 
Q 8.5 10.296875 8.5 21.578125 
z
M 31.109375 56 
z
" id="DejaVuSans-117"/>
      <path d="M 9.421875 54.6875 
L 18.40625 54.6875 
L 18.40625 0 
L 9.421875 0 
z
M 9.421875 75.984375 
L 18.40625 75.984375 
L 18.40625 64.59375 
L 9.421875 64.59375 
z
" id="DejaVuSans-105"/>
      <path d="M 54.890625 33.015625 
L 54.890625 0 
L 45.90625 0 
L 45.90625 32.71875 
Q 45.90625 40.484375 42.875 44.328125 
Q 39.84375 48.1875 33.796875 48.1875 
Q 26.515625 48.1875 22.3125 43.546875 
Q 18.109375 38.921875 18.109375 30.90625 
L 18.109375 0 
L 9.078125 0 
L 9.078125 54.6875 
L 18.109375 54.6875 
L 18.109375 46.1875 
Q 21.34375 51.125 25.703125 53.5625 
Q 30.078125 56 35.796875 56 
Q 45.21875 56 50.046875 50.171875 
Q 54.890625 44.34375 54.890625 33.015625 
z
" id="DejaVuSans-110"/>
      <path d="M 12.40625 8.296875 
L 28.515625 8.296875 
L 28.515625 63.921875 
L 10.984375 60.40625 
L 10.984375 69.390625 
L 28.421875 72.90625 
L 38.28125 72.90625 
L 38.28125 8.296875 
L 54.390625 8.296875 
L 54.390625 0 
L 12.40625 0 
z
" id="DejaVuSans-49"/>
      <path d="M 10.984375 1.515625 
L 10.984375 10.5 
Q 14.703125 8.734375 18.5 7.8125 
Q 22.3125 6.890625 25.984375 6.890625 
Q 35.75 6.890625 40.890625 13.453125 
Q 46.046875 20.015625 46.78125 33.40625 
Q 43.953125 29.203125 39.59375 26.953125 
Q 35.25 24.703125 29.984375 24.703125 
Q 19.046875 24.703125 12.671875 31.3125 
Q 6.296875 37.9375 6.296875 49.421875 
Q 6.296875 60.640625 12.9375 67.421875 
Q 19.578125 74.21875 30.609375 74.21875 
Q 43.265625 74.21875 49.921875 64.515625 
Q 56.59375 54.828125 56.59375 36.375 
Q 56.59375 19.140625 48.40625 8.859375 
Q 40.234375 -1.421875 26.421875 -1.421875 
Q 22.703125 -1.421875 18.890625 -0.6875 
Q 15.09375 0.046875 10.984375 1.515625 
z
M 30.609375 32.421875 
Q 37.25 32.421875 41.125 36.953125 
Q 45.015625 41.5 45.015625 49.421875 
Q 45.015625 57.28125 41.125 61.84375 
Q 37.25 66.40625 30.609375 66.40625 
Q 23.96875 66.40625 20.09375 61.84375 
Q 16.21875 57.28125 16.21875 49.421875 
Q 16.21875 41.5 20.09375 36.953125 
Q 23.96875 32.421875 30.609375 32.421875 
z
" id="DejaVuSans-57"/>
     </defs>
     <use xlink:href="#DejaVuSans-66"/>
     <use x="68.603516" xlink:href="#DejaVuSans-117"/>
     <use x="131.982422" xlink:href="#DejaVuSans-115"/>
     <use x="184.082031" xlink:href="#DejaVuSans-105"/>
     <use x="211.865234" xlink:href="#DejaVuSans-110"/>
     <use x="275.244141" xlink:href="#DejaVuSans-101"/>
     <use x="336.767578" xlink:href="#DejaVuSans-115"/>
     <use x="388.867188" xlink:href="#DejaVuSans-115"/>
     <use x="440.966797" xlink:href="#DejaVuSans-44"/>
     <use x="472.753906" xlink:href="#DejaVuSans-32"/>
     <use x="504.541016" xlink:href="#DejaVuSans-54"/>
     <use x="568.164062" xlink:href="#DejaVuSans-46"/>
     <use x="599.951172" xlink:href="#DejaVuSans-49"/>
     <use x="663.574219" xlink:href="#DejaVuSans-57"/>
     <use x="727.197266" xlink:href="#DejaVuSans-37"/>
    </g>
   </g>
   <g id="patch_6">
    <path d="M 331.15691 142.182245 
L 288.41549 142.182245 
L 281.191663 148.372514 
" style="fill:none;stroke:#000000;stroke-linecap:round;"/>
   </g>
   <g id="text_3">
    <g id="patch_7">
     <path d="M 333.515294 150.021307 
L 473.787169 150.021307 
L 473.787169 134.343182 
L 333.515294 134.343182 
z
" style="fill:#ffffff;stroke:#000000;stroke-linejoin:miter;stroke-width:0.72;"/>
    </g>
    <!-- Detention &amp; Correc, 4.87% -->
    <g transform="translate(336.515294 144.94162)scale(0.1 -0.1)">
     <defs>
      <path d="M 19.671875 64.796875 
L 19.671875 8.109375 
L 31.59375 8.109375 
Q 46.6875 8.109375 53.6875 14.9375 
Q 60.6875 21.78125 60.6875 36.53125 
Q 60.6875 51.171875 53.6875 57.984375 
Q 46.6875 64.796875 31.59375 64.796875 
z
M 9.8125 72.90625 
L 30.078125 72.90625 
Q 51.265625 72.90625 61.171875 64.09375 
Q 71.09375 55.28125 71.09375 36.53125 
Q 71.09375 17.671875 61.125 8.828125 
Q 51.171875 0 30.078125 0 
L 9.8125 0 
z
" id="DejaVuSans-68"/>
      <path d="M 18.3125 70.21875 
L 18.3125 54.6875 
L 36.8125 54.6875 
L 36.8125 47.703125 
L 18.3125 47.703125 
L 18.3125 18.015625 
Q 18.3125 11.328125 20.140625 9.421875 
Q 21.96875 7.515625 27.59375 7.515625 
L 36.8125 7.515625 
L 36.8125 0 
L 27.59375 0 
Q 17.1875 0 13.234375 3.875 
Q 9.28125 7.765625 9.28125 18.015625 
L 9.28125 47.703125 
L 2.6875 47.703125 
L 2.6875 54.6875 
L 9.28125 54.6875 
L 9.28125 70.21875 
z
" id="DejaVuSans-116"/>
      <path d="M 30.609375 48.390625 
Q 23.390625 48.390625 19.1875 42.75 
Q 14.984375 37.109375 14.984375 27.296875 
Q 14.984375 17.484375 19.15625 11.84375 
Q 23.34375 6.203125 30.609375 6.203125 
Q 37.796875 6.203125 41.984375 11.859375 
Q 46.1875 17.53125 46.1875 27.296875 
Q 46.1875 37.015625 41.984375 42.703125 
Q 37.796875 48.390625 30.609375 48.390625 
z
M 30.609375 56 
Q 42.328125 56 49.015625 48.375 
Q 55.71875 40.765625 55.71875 27.296875 
Q 55.71875 13.875 49.015625 6.21875 
Q 42.328125 -1.421875 30.609375 -1.421875 
Q 18.84375 -1.421875 12.171875 6.21875 
Q 5.515625 13.875 5.515625 27.296875 
Q 5.515625 40.765625 12.171875 48.375 
Q 18.84375 56 30.609375 56 
z
" id="DejaVuSans-111"/>
      <path d="M 24.3125 39.203125 
Q 19.875 35.25 17.796875 31.3125 
Q 15.71875 27.390625 15.71875 23.09375 
Q 15.71875 15.96875 20.890625 11.234375 
Q 26.078125 6.5 33.890625 6.5 
Q 38.53125 6.5 42.578125 8.03125 
Q 46.625 9.578125 50.203125 12.703125 
z
M 31.203125 44.671875 
L 56 19.28125 
Q 58.890625 23.640625 60.5 28.59375 
Q 62.109375 33.546875 62.40625 39.109375 
L 71.484375 39.109375 
Q 70.90625 32.671875 68.359375 26.359375 
Q 65.828125 20.0625 61.28125 13.921875 
L 74.90625 0 
L 62.59375 0 
L 55.609375 7.171875 
Q 50.53125 2.828125 44.96875 0.703125 
Q 39.40625 -1.421875 33.015625 -1.421875 
Q 21.234375 -1.421875 13.765625 5.296875 
Q 6.296875 12.015625 6.296875 22.515625 
Q 6.296875 28.765625 9.5625 34.25 
Q 12.84375 39.75 19.390625 44.578125 
Q 17.046875 47.65625 15.8125 50.703125 
Q 14.59375 53.765625 14.59375 56.6875 
Q 14.59375 64.59375 20.015625 69.40625 
Q 25.4375 74.21875 34.421875 74.21875 
Q 38.484375 74.21875 42.5 73.34375 
Q 46.53125 72.46875 50.6875 70.703125 
L 50.6875 61.8125 
Q 46.4375 64.109375 42.578125 65.296875 
Q 38.71875 66.5 35.40625 66.5 
Q 30.28125 66.5 27.078125 63.78125 
Q 23.875 61.078125 23.875 56.78125 
Q 23.875 54.296875 25.3125 51.78125 
Q 26.765625 49.265625 31.203125 44.671875 
z
" id="DejaVuSans-38"/>
      <path d="M 64.40625 67.28125 
L 64.40625 56.890625 
Q 59.421875 61.53125 53.78125 63.8125 
Q 48.140625 66.109375 41.796875 66.109375 
Q 29.296875 66.109375 22.65625 58.46875 
Q 16.015625 50.828125 16.015625 36.375 
Q 16.015625 21.96875 22.65625 14.328125 
Q 29.296875 6.6875 41.796875 6.6875 
Q 48.140625 6.6875 53.78125 8.984375 
Q 59.421875 11.28125 64.40625 15.921875 
L 64.40625 5.609375 
Q 59.234375 2.09375 53.4375 0.328125 
Q 47.65625 -1.421875 41.21875 -1.421875 
Q 24.65625 -1.421875 15.125 8.703125 
Q 5.609375 18.84375 5.609375 36.375 
Q 5.609375 53.953125 15.125 64.078125 
Q 24.65625 74.21875 41.21875 74.21875 
Q 47.75 74.21875 53.53125 72.484375 
Q 59.328125 70.75 64.40625 67.28125 
z
" id="DejaVuSans-67"/>
      <path d="M 41.109375 46.296875 
Q 39.59375 47.171875 37.8125 47.578125 
Q 36.03125 48 33.890625 48 
Q 26.265625 48 22.1875 43.046875 
Q 18.109375 38.09375 18.109375 28.8125 
L 18.109375 0 
L 9.078125 0 
L 9.078125 54.6875 
L 18.109375 54.6875 
L 18.109375 46.1875 
Q 20.953125 51.171875 25.484375 53.578125 
Q 30.03125 56 36.53125 56 
Q 37.453125 56 38.578125 55.875 
Q 39.703125 55.765625 41.0625 55.515625 
z
" id="DejaVuSans-114"/>
      <path d="M 48.78125 52.59375 
L 48.78125 44.1875 
Q 44.96875 46.296875 41.140625 47.34375 
Q 37.3125 48.390625 33.40625 48.390625 
Q 24.65625 48.390625 19.8125 42.84375 
Q 14.984375 37.3125 14.984375 27.296875 
Q 14.984375 17.28125 19.8125 11.734375 
Q 24.65625 6.203125 33.40625 6.203125 
Q 37.3125 6.203125 41.140625 7.25 
Q 44.96875 8.296875 48.78125 10.40625 
L 48.78125 2.09375 
Q 45.015625 0.34375 40.984375 -0.53125 
Q 36.96875 -1.421875 32.421875 -1.421875 
Q 20.0625 -1.421875 12.78125 6.34375 
Q 5.515625 14.109375 5.515625 27.296875 
Q 5.515625 40.671875 12.859375 48.328125 
Q 20.21875 56 33.015625 56 
Q 37.15625 56 41.109375 55.140625 
Q 45.0625 54.296875 48.78125 52.59375 
z
" id="DejaVuSans-99"/>
      <path d="M 37.796875 64.3125 
L 12.890625 25.390625 
L 37.796875 25.390625 
z
M 35.203125 72.90625 
L 47.609375 72.90625 
L 47.609375 25.390625 
L 58.015625 25.390625 
L 58.015625 17.1875 
L 47.609375 17.1875 
L 47.609375 0 
L 37.796875 0 
L 37.796875 17.1875 
L 4.890625 17.1875 
L 4.890625 26.703125 
z
" id="DejaVuSans-52"/>
      <path d="M 31.78125 34.625 
Q 24.75 34.625 20.71875 30.859375 
Q 16.703125 27.09375 16.703125 20.515625 
Q 16.703125 13.921875 20.71875 10.15625 
Q 24.75 6.390625 31.78125 6.390625 
Q 38.8125 6.390625 42.859375 10.171875 
Q 46.921875 13.96875 46.921875 20.515625 
Q 46.921875 27.09375 42.890625 30.859375 
Q 38.875 34.625 31.78125 34.625 
z
M 21.921875 38.8125 
Q 15.578125 40.375 12.03125 44.71875 
Q 8.5 49.078125 8.5 55.328125 
Q 8.5 64.0625 14.71875 69.140625 
Q 20.953125 74.21875 31.78125 74.21875 
Q 42.671875 74.21875 48.875 69.140625 
Q 55.078125 64.0625 55.078125 55.328125 
Q 55.078125 49.078125 51.53125 44.71875 
Q 48 40.375 41.703125 38.8125 
Q 48.828125 37.15625 52.796875 32.3125 
Q 56.78125 27.484375 56.78125 20.515625 
Q 56.78125 9.90625 50.3125 4.234375 
Q 43.84375 -1.421875 31.78125 -1.421875 
Q 19.734375 -1.421875 13.25 4.234375 
Q 6.78125 9.90625 6.78125 20.515625 
Q 6.78125 27.484375 10.78125 32.3125 
Q 14.796875 37.15625 21.921875 38.8125 
z
M 18.3125 54.390625 
Q 18.3125 48.734375 21.84375 45.5625 
Q 25.390625 42.390625 31.78125 42.390625 
Q 38.140625 42.390625 41.71875 45.5625 
Q 45.3125 48.734375 45.3125 54.390625 
Q 45.3125 60.0625 41.71875 63.234375 
Q 38.140625 66.40625 31.78125 66.40625 
Q 25.390625 66.40625 21.84375 63.234375 
Q 18.3125 60.0625 18.3125 54.390625 
z
" id="DejaVuSans-56"/>
      <path d="M 8.203125 72.90625 
L 55.078125 72.90625 
L 55.078125 68.703125 
L 28.609375 0 
L 18.3125 0 
L 43.21875 64.59375 
L 8.203125 64.59375 
z
" id="DejaVuSans-55"/>
     </defs>
     <use xlink:href="#DejaVuSans-68"/>
     <use x="77.001953" xlink:href="#DejaVuSans-101"/>
     <use x="138.525391" xlink:href="#DejaVuSans-116"/>
     <use x="177.734375" xlink:href="#DejaVuSans-101"/>
     <use x="239.257812" xlink:href="#DejaVuSans-110"/>
     <use x="302.636719" xlink:href="#DejaVuSans-116"/>
     <use x="341.845703" xlink:href="#DejaVuSans-105"/>
     <use x="369.628906" xlink:href="#DejaVuSans-111"/>
     <use x="430.810547" xlink:href="#DejaVuSans-110"/>
     <use x="494.189453" xlink:href="#DejaVuSans-32"/>
     <use x="525.976562" xlink:href="#DejaVuSans-38"/>
     <use x="603.955078" xlink:href="#DejaVuSans-32"/>
     <use x="635.742188" xlink:href="#DejaVuSans-67"/>
     <use x="705.566406" xlink:href="#DejaVuSans-111"/>
     <use x="766.748047" xlink:href="#DejaVuSans-114"/>
     <use x="806.111328" xlink:href="#DejaVuSans-114"/>
     <use x="844.974609" xlink:href="#DejaVuSans-101"/>
     <use x="906.498047" xlink:href="#DejaVuSans-99"/>
     <use x="961.478516" xlink:href="#DejaVuSans-44"/>
     <use x="993.265625" xlink:href="#DejaVuSans-32"/>
     <use x="1025.052734" xlink:href="#DejaVuSans-52"/>
     <use x="1088.675781" xlink:href="#DejaVuSans-46"/>
     <use x="1120.462891" xlink:href="#DejaVuSans-56"/>
     <use x="1184.085938" xlink:href="#DejaVuSans-55"/>
     <use x="1247.708984" xlink:href="#DejaVuSans-37"/>
    </g>
   </g>
   <g id="patch_8">
    <path d="M 331.158234 130.296287 
L 276.031915 130.296287 
L 270.142955 137.767784 
" style="fill:none;stroke:#000000;stroke-linecap:round;"/>
   </g>
   <g id="text_4">
    <g id="patch_9">
     <path d="M 333.515294 138.135349 
L 427.424669 138.135349 
L 427.424669 122.457224 
L 333.515294 122.457224 
z
" style="fill:#ffffff;stroke:#000000;stroke-linejoin:miter;stroke-width:0.72;"/>
    </g>
    <!-- Education, 1.33% -->
    <g transform="translate(336.515294 133.055662)scale(0.1 -0.1)">
     <defs>
      <path d="M 9.8125 72.90625 
L 55.90625 72.90625 
L 55.90625 64.59375 
L 19.671875 64.59375 
L 19.671875 43.015625 
L 54.390625 43.015625 
L 54.390625 34.71875 
L 19.671875 34.71875 
L 19.671875 8.296875 
L 56.78125 8.296875 
L 56.78125 0 
L 9.8125 0 
z
" id="DejaVuSans-69"/>
      <path d="M 45.40625 46.390625 
L 45.40625 75.984375 
L 54.390625 75.984375 
L 54.390625 0 
L 45.40625 0 
L 45.40625 8.203125 
Q 42.578125 3.328125 38.25 0.953125 
Q 33.9375 -1.421875 27.875 -1.421875 
Q 17.96875 -1.421875 11.734375 6.484375 
Q 5.515625 14.40625 5.515625 27.296875 
Q 5.515625 40.1875 11.734375 48.09375 
Q 17.96875 56 27.875 56 
Q 33.9375 56 38.25 53.625 
Q 42.578125 51.265625 45.40625 46.390625 
z
M 14.796875 27.296875 
Q 14.796875 17.390625 18.875 11.75 
Q 22.953125 6.109375 30.078125 6.109375 
Q 37.203125 6.109375 41.296875 11.75 
Q 45.40625 17.390625 45.40625 27.296875 
Q 45.40625 37.203125 41.296875 42.84375 
Q 37.203125 48.484375 30.078125 48.484375 
Q 22.953125 48.484375 18.875 42.84375 
Q 14.796875 37.203125 14.796875 27.296875 
z
" id="DejaVuSans-100"/>
      <path d="M 34.28125 27.484375 
Q 23.390625 27.484375 19.1875 25 
Q 14.984375 22.515625 14.984375 16.5 
Q 14.984375 11.71875 18.140625 8.90625 
Q 21.296875 6.109375 26.703125 6.109375 
Q 34.1875 6.109375 38.703125 11.40625 
Q 43.21875 16.703125 43.21875 25.484375 
L 43.21875 27.484375 
z
M 52.203125 31.203125 
L 52.203125 0 
L 43.21875 0 
L 43.21875 8.296875 
Q 40.140625 3.328125 35.546875 0.953125 
Q 30.953125 -1.421875 24.3125 -1.421875 
Q 15.921875 -1.421875 10.953125 3.296875 
Q 6 8.015625 6 15.921875 
Q 6 25.140625 12.171875 29.828125 
Q 18.359375 34.515625 30.609375 34.515625 
L 43.21875 34.515625 
L 43.21875 35.40625 
Q 43.21875 41.609375 39.140625 45 
Q 35.0625 48.390625 27.6875 48.390625 
Q 23 48.390625 18.546875 47.265625 
Q 14.109375 46.140625 10.015625 43.890625 
L 10.015625 52.203125 
Q 14.9375 54.109375 19.578125 55.046875 
Q 24.21875 56 28.609375 56 
Q 40.484375 56 46.34375 49.84375 
Q 52.203125 43.703125 52.203125 31.203125 
z
" id="DejaVuSans-97"/>
      <path d="M 40.578125 39.3125 
Q 47.65625 37.796875 51.625 33 
Q 55.609375 28.21875 55.609375 21.1875 
Q 55.609375 10.40625 48.1875 4.484375 
Q 40.765625 -1.421875 27.09375 -1.421875 
Q 22.515625 -1.421875 17.65625 -0.515625 
Q 12.796875 0.390625 7.625 2.203125 
L 7.625 11.71875 
Q 11.71875 9.328125 16.59375 8.109375 
Q 21.484375 6.890625 26.8125 6.890625 
Q 36.078125 6.890625 40.9375 10.546875 
Q 45.796875 14.203125 45.796875 21.1875 
Q 45.796875 27.640625 41.28125 31.265625 
Q 36.765625 34.90625 28.71875 34.90625 
L 20.21875 34.90625 
L 20.21875 43.015625 
L 29.109375 43.015625 
Q 36.375 43.015625 40.234375 45.921875 
Q 44.09375 48.828125 44.09375 54.296875 
Q 44.09375 59.90625 40.109375 62.90625 
Q 36.140625 65.921875 28.71875 65.921875 
Q 24.65625 65.921875 20.015625 65.03125 
Q 15.375 64.15625 9.8125 62.3125 
L 9.8125 71.09375 
Q 15.4375 72.65625 20.34375 73.4375 
Q 25.25 74.21875 29.59375 74.21875 
Q 40.828125 74.21875 47.359375 69.109375 
Q 53.90625 64.015625 53.90625 55.328125 
Q 53.90625 49.265625 50.4375 45.09375 
Q 46.96875 40.921875 40.578125 39.3125 
z
" id="DejaVuSans-51"/>
     </defs>
     <use xlink:href="#DejaVuSans-69"/>
     <use x="63.183594" xlink:href="#DejaVuSans-100"/>
     <use x="126.660156" xlink:href="#DejaVuSans-117"/>
     <use x="190.039062" xlink:href="#DejaVuSans-99"/>
     <use x="245.019531" xlink:href="#DejaVuSans-97"/>
     <use x="306.298828" xlink:href="#DejaVuSans-116"/>
     <use x="345.507812" xlink:href="#DejaVuSans-105"/>
     <use x="373.291016" xlink:href="#DejaVuSans-111"/>
     <use x="434.472656" xlink:href="#DejaVuSans-110"/>
     <use x="497.851562" xlink:href="#DejaVuSans-44"/>
     <use x="529.638672" xlink:href="#DejaVuSans-32"/>
     <use x="561.425781" xlink:href="#DejaVuSans-49"/>
     <use x="625.048828" xlink:href="#DejaVuSans-46"/>
     <use x="656.835938" xlink:href="#DejaVuSans-51"/>
     <use x="720.458984" xlink:href="#DejaVuSans-51"/>
     <use x="784.082031" xlink:href="#DejaVuSans-37"/>
    </g>
   </g>
   <g id="patch_10">
    <path d="M 331.156099 115.45054 
L 247.975172 115.45054 
L 245.110544 124.522311 
" style="fill:none;stroke:#000000;stroke-linecap:round;"/>
   </g>
   <g id="text_5">
    <g id="patch_11">
     <path d="M 333.515294 123.289603 
L 443.166857 123.289603 
L 443.166857 107.611478 
L 333.515294 107.611478 
z
" style="fill:#ffffff;stroke:#000000;stroke-linejoin:miter;stroke-width:0.72;"/>
    </g>
    <!-- Health Care, 10.18% -->
    <g transform="translate(336.515294 118.209915)scale(0.1 -0.1)">
     <defs>
      <path d="M 9.8125 72.90625 
L 19.671875 72.90625 
L 19.671875 43.015625 
L 55.515625 43.015625 
L 55.515625 72.90625 
L 65.375 72.90625 
L 65.375 0 
L 55.515625 0 
L 55.515625 34.71875 
L 19.671875 34.71875 
L 19.671875 0 
L 9.8125 0 
z
" id="DejaVuSans-72"/>
      <path d="M 54.890625 33.015625 
L 54.890625 0 
L 45.90625 0 
L 45.90625 32.71875 
Q 45.90625 40.484375 42.875 44.328125 
Q 39.84375 48.1875 33.796875 48.1875 
Q 26.515625 48.1875 22.3125 43.546875 
Q 18.109375 38.921875 18.109375 30.90625 
L 18.109375 0 
L 9.078125 0 
L 9.078125 75.984375 
L 18.109375 75.984375 
L 18.109375 46.1875 
Q 21.34375 51.125 25.703125 53.5625 
Q 30.078125 56 35.796875 56 
Q 45.21875 56 50.046875 50.171875 
Q 54.890625 44.34375 54.890625 33.015625 
z
" id="DejaVuSans-104"/>
      <path d="M 31.78125 66.40625 
Q 24.171875 66.40625 20.328125 58.90625 
Q 16.5 51.421875 16.5 36.375 
Q 16.5 21.390625 20.328125 13.890625 
Q 24.171875 6.390625 31.78125 6.390625 
Q 39.453125 6.390625 43.28125 13.890625 
Q 47.125 21.390625 47.125 36.375 
Q 47.125 51.421875 43.28125 58.90625 
Q 39.453125 66.40625 31.78125 66.40625 
z
M 31.78125 74.21875 
Q 44.046875 74.21875 50.515625 64.515625 
Q 56.984375 54.828125 56.984375 36.375 
Q 56.984375 17.96875 50.515625 8.265625 
Q 44.046875 -1.421875 31.78125 -1.421875 
Q 19.53125 -1.421875 13.0625 8.265625 
Q 6.59375 17.96875 6.59375 36.375 
Q 6.59375 54.828125 13.0625 64.515625 
Q 19.53125 74.21875 31.78125 74.21875 
z
" id="DejaVuSans-48"/>
     </defs>
     <use xlink:href="#DejaVuSans-72"/>
     <use x="75.195312" xlink:href="#DejaVuSans-101"/>
     <use x="136.71875" xlink:href="#DejaVuSans-97"/>
     <use x="197.998047" xlink:href="#DejaVuSans-108"/>
     <use x="225.78125" xlink:href="#DejaVuSans-116"/>
     <use x="264.990234" xlink:href="#DejaVuSans-104"/>
     <use x="328.369141" xlink:href="#DejaVuSans-32"/>
     <use x="360.15625" xlink:href="#DejaVuSans-67"/>
     <use x="429.980469" xlink:href="#DejaVuSans-97"/>
     <use x="491.259766" xlink:href="#DejaVuSans-114"/>
     <use x="530.123047" xlink:href="#DejaVuSans-101"/>
     <use x="591.646484" xlink:href="#DejaVuSans-44"/>
     <use x="623.433594" xlink:href="#DejaVuSans-32"/>
     <use x="655.220703" xlink:href="#DejaVuSans-49"/>
     <use x="718.84375" xlink:href="#DejaVuSans-48"/>
     <use x="782.466797" xlink:href="#DejaVuSans-46"/>
     <use x="814.253906" xlink:href="#DejaVuSans-49"/>
     <use x="877.876953" xlink:href="#DejaVuSans-56"/>
     <use x="941.5" xlink:href="#DejaVuSans-37"/>
    </g>
   </g>
   <g id="patch_12">
    <path d="M 111.639826 122.779395 
L 177.970702 122.779395 
L 182.652093 131.061163 
" style="fill:none;stroke:#000000;stroke-linecap:round;"/>
   </g>
   <g id="text_6">
    <g id="patch_13">
     <path d="M 11.900331 130.618458 
L 109.284706 130.618458 
L 109.284706 114.940333 
L 11.900331 114.940333 
z
" style="fill:#ffffff;stroke:#000000;stroke-linejoin:miter;stroke-width:0.72;"/>
    </g>
    <!-- Industrial, 15.93% -->
    <g transform="translate(14.900331 125.53877)scale(0.1 -0.1)">
     <defs>
      <path d="M 9.8125 72.90625 
L 19.671875 72.90625 
L 19.671875 0 
L 9.8125 0 
z
" id="DejaVuSans-73"/>
     </defs>
     <use xlink:href="#DejaVuSans-73"/>
     <use x="29.492188" xlink:href="#DejaVuSans-110"/>
     <use x="92.871094" xlink:href="#DejaVuSans-100"/>
     <use x="156.347656" xlink:href="#DejaVuSans-117"/>
     <use x="219.726562" xlink:href="#DejaVuSans-115"/>
     <use x="271.826172" xlink:href="#DejaVuSans-116"/>
     <use x="311.035156" xlink:href="#DejaVuSans-114"/>
     <use x="352.148438" xlink:href="#DejaVuSans-105"/>
     <use x="379.931641" xlink:href="#DejaVuSans-97"/>
     <use x="441.210938" xlink:href="#DejaVuSans-108"/>
     <use x="468.994141" xlink:href="#DejaVuSans-44"/>
     <use x="500.78125" xlink:href="#DejaVuSans-32"/>
     <use x="532.568359" xlink:href="#DejaVuSans-49"/>
     <use x="596.191406" xlink:href="#DejaVuSans-53"/>
     <use x="659.814453" xlink:href="#DejaVuSans-46"/>
     <use x="691.601562" xlink:href="#DejaVuSans-57"/>
     <use x="755.224609" xlink:href="#DejaVuSans-51"/>
     <use x="818.847656" xlink:href="#DejaVuSans-37"/>
    </g>
   </g>
   <g id="patch_14">
    <path d="M 111.641399 157.282841 
L 143.957009 157.282841 
L 152.304852 161.845365 
" style="fill:none;stroke:#000000;stroke-linecap:round;"/>
   </g>
   <g id="text_7">
    <g id="patch_15">
     <path d="M 12.900331 165.121903 
L 109.284706 165.121903 
L 109.284706 149.443778 
L 12.900331 149.443778 
z
" style="fill:#ffffff;stroke:#000000;stroke-linejoin:miter;stroke-width:0.72;"/>
    </g>
    <!-- Mercantile, 1.77% -->
    <g transform="translate(15.900331 160.042216)scale(0.1 -0.1)">
     <defs>
      <path d="M 9.8125 72.90625 
L 24.515625 72.90625 
L 43.109375 23.296875 
L 61.8125 72.90625 
L 76.515625 72.90625 
L 76.515625 0 
L 66.890625 0 
L 66.890625 64.015625 
L 48.09375 14.015625 
L 38.1875 14.015625 
L 19.390625 64.015625 
L 19.390625 0 
L 9.8125 0 
z
" id="DejaVuSans-77"/>
     </defs>
     <use xlink:href="#DejaVuSans-77"/>
     <use x="86.279297" xlink:href="#DejaVuSans-101"/>
     <use x="147.802734" xlink:href="#DejaVuSans-114"/>
     <use x="186.666016" xlink:href="#DejaVuSans-99"/>
     <use x="241.646484" xlink:href="#DejaVuSans-97"/>
     <use x="302.925781" xlink:href="#DejaVuSans-110"/>
     <use x="366.304688" xlink:href="#DejaVuSans-116"/>
     <use x="405.513672" xlink:href="#DejaVuSans-105"/>
     <use x="433.296875" xlink:href="#DejaVuSans-108"/>
     <use x="461.080078" xlink:href="#DejaVuSans-101"/>
     <use x="522.603516" xlink:href="#DejaVuSans-44"/>
     <use x="554.390625" xlink:href="#DejaVuSans-32"/>
     <use x="586.177734" xlink:href="#DejaVuSans-49"/>
     <use x="649.800781" xlink:href="#DejaVuSans-46"/>
     <use x="681.587891" xlink:href="#DejaVuSans-55"/>
     <use x="745.210938" xlink:href="#DejaVuSans-55"/>
     <use x="808.833984" xlink:href="#DejaVuSans-37"/>
    </g>
   </g>
   <g id="patch_16">
    <path d="M 111.641315 191.027023 
L 133.563231 191.027023 
L 143.031454 191.952148 
" style="fill:none;stroke:#000000;stroke-linecap:round;"/>
   </g>
   <g id="text_8">
    <g id="patch_17">
     <path d="M 10.078456 198.866086 
L 109.284706 198.866086 
L 109.284706 183.187961 
L 10.078456 183.187961 
z
" style="fill:#ffffff;stroke:#000000;stroke-linejoin:miter;stroke-width:0.72;"/>
    </g>
    <!-- Residential, 9.29% -->
    <g transform="translate(13.078456 193.786398)scale(0.1 -0.1)">
     <defs>
      <path d="M 44.390625 34.1875 
Q 47.5625 33.109375 50.5625 29.59375 
Q 53.5625 26.078125 56.59375 19.921875 
L 66.609375 0 
L 56 0 
L 46.6875 18.703125 
Q 43.0625 26.03125 39.671875 28.421875 
Q 36.28125 30.8125 30.421875 30.8125 
L 19.671875 30.8125 
L 19.671875 0 
L 9.8125 0 
L 9.8125 72.90625 
L 32.078125 72.90625 
Q 44.578125 72.90625 50.734375 67.671875 
Q 56.890625 62.453125 56.890625 51.90625 
Q 56.890625 45.015625 53.6875 40.46875 
Q 50.484375 35.9375 44.390625 34.1875 
z
M 19.671875 64.796875 
L 19.671875 38.921875 
L 32.078125 38.921875 
Q 39.203125 38.921875 42.84375 42.21875 
Q 46.484375 45.515625 46.484375 51.90625 
Q 46.484375 58.296875 42.84375 61.546875 
Q 39.203125 64.796875 32.078125 64.796875 
z
" id="DejaVuSans-82"/>
     </defs>
     <use xlink:href="#DejaVuSans-82"/>
     <use x="64.982422" xlink:href="#DejaVuSans-101"/>
     <use x="126.505859" xlink:href="#DejaVuSans-115"/>
     <use x="178.605469" xlink:href="#DejaVuSans-105"/>
     <use x="206.388672" xlink:href="#DejaVuSans-100"/>
     <use x="269.865234" xlink:href="#DejaVuSans-101"/>
     <use x="331.388672" xlink:href="#DejaVuSans-110"/>
     <use x="394.767578" xlink:href="#DejaVuSans-116"/>
     <use x="433.976562" xlink:href="#DejaVuSans-105"/>
     <use x="461.759766" xlink:href="#DejaVuSans-97"/>
     <use x="523.039062" xlink:href="#DejaVuSans-108"/>
     <use x="550.822266" xlink:href="#DejaVuSans-44"/>
     <use x="582.609375" xlink:href="#DejaVuSans-32"/>
     <use x="614.396484" xlink:href="#DejaVuSans-57"/>
     <use x="678.019531" xlink:href="#DejaVuSans-46"/>
     <use x="709.806641" xlink:href="#DejaVuSans-50"/>
     <use x="773.429688" xlink:href="#DejaVuSans-57"/>
     <use x="837.052734" xlink:href="#DejaVuSans-37"/>
    </g>
   </g>
   <g id="patch_18">
    <path d="M 111.647851 262.449889 
L 159.432026 262.449889 
L 166.111764 255.6761 
" style="fill:none;stroke:#000000;stroke-linecap:round;"/>
   </g>
   <g id="text_9">
    <g id="patch_19">
     <path d="M 19.670643 270.288951 
L 109.284706 270.288951 
L 109.284706 254.610826 
L 19.670643 254.610826 
z
" style="fill:#ffffff;stroke:#000000;stroke-linejoin:miter;stroke-width:0.72;"/>
    </g>
    <!-- Storage, 19.03% -->
    <g transform="translate(22.670643 265.209264)scale(0.1 -0.1)">
     <defs>
      <path d="M 53.515625 70.515625 
L 53.515625 60.890625 
Q 47.90625 63.578125 42.921875 64.890625 
Q 37.9375 66.21875 33.296875 66.21875 
Q 25.25 66.21875 20.875 63.09375 
Q 16.5 59.96875 16.5 54.203125 
Q 16.5 49.359375 19.40625 46.890625 
Q 22.3125 44.4375 30.421875 42.921875 
L 36.375 41.703125 
Q 47.40625 39.59375 52.65625 34.296875 
Q 57.90625 29 57.90625 20.125 
Q 57.90625 9.515625 50.796875 4.046875 
Q 43.703125 -1.421875 29.984375 -1.421875 
Q 24.8125 -1.421875 18.96875 -0.25 
Q 13.140625 0.921875 6.890625 3.21875 
L 6.890625 13.375 
Q 12.890625 10.015625 18.65625 8.296875 
Q 24.421875 6.59375 29.984375 6.59375 
Q 38.421875 6.59375 43.015625 9.90625 
Q 47.609375 13.234375 47.609375 19.390625 
Q 47.609375 24.75 44.3125 27.78125 
Q 41.015625 30.8125 33.5 32.328125 
L 27.484375 33.5 
Q 16.453125 35.6875 11.515625 40.375 
Q 6.59375 45.0625 6.59375 53.421875 
Q 6.59375 63.09375 13.40625 68.65625 
Q 20.21875 74.21875 32.171875 74.21875 
Q 37.3125 74.21875 42.625 73.28125 
Q 47.953125 72.359375 53.515625 70.515625 
z
" id="DejaVuSans-83"/>
      <path d="M 45.40625 27.984375 
Q 45.40625 37.75 41.375 43.109375 
Q 37.359375 48.484375 30.078125 48.484375 
Q 22.859375 48.484375 18.828125 43.109375 
Q 14.796875 37.75 14.796875 27.984375 
Q 14.796875 18.265625 18.828125 12.890625 
Q 22.859375 7.515625 30.078125 7.515625 
Q 37.359375 7.515625 41.375 12.890625 
Q 45.40625 18.265625 45.40625 27.984375 
z
M 54.390625 6.78125 
Q 54.390625 -7.171875 48.1875 -13.984375 
Q 42 -20.796875 29.203125 -20.796875 
Q 24.46875 -20.796875 20.265625 -20.09375 
Q 16.0625 -19.390625 12.109375 -17.921875 
L 12.109375 -9.1875 
Q 16.0625 -11.328125 19.921875 -12.34375 
Q 23.78125 -13.375 27.78125 -13.375 
Q 36.625 -13.375 41.015625 -8.765625 
Q 45.40625 -4.15625 45.40625 5.171875 
L 45.40625 9.625 
Q 42.625 4.78125 38.28125 2.390625 
Q 33.9375 0 27.875 0 
Q 17.828125 0 11.671875 7.65625 
Q 5.515625 15.328125 5.515625 27.984375 
Q 5.515625 40.671875 11.671875 48.328125 
Q 17.828125 56 27.875 56 
Q 33.9375 56 38.28125 53.609375 
Q 42.625 51.21875 45.40625 46.390625 
L 45.40625 54.6875 
L 54.390625 54.6875 
z
" id="DejaVuSans-103"/>
     </defs>
     <use xlink:href="#DejaVuSans-83"/>
     <use x="63.476562" xlink:href="#DejaVuSans-116"/>
     <use x="102.685547" xlink:href="#DejaVuSans-111"/>
     <use x="163.867188" xlink:href="#DejaVuSans-114"/>
     <use x="204.980469" xlink:href="#DejaVuSans-97"/>
     <use x="266.259766" xlink:href="#DejaVuSans-103"/>
     <use x="329.736328" xlink:href="#DejaVuSans-101"/>
     <use x="391.259766" xlink:href="#DejaVuSans-44"/>
     <use x="423.046875" xlink:href="#DejaVuSans-32"/>
     <use x="454.833984" xlink:href="#DejaVuSans-49"/>
     <use x="518.457031" xlink:href="#DejaVuSans-57"/>
     <use x="582.080078" xlink:href="#DejaVuSans-46"/>
     <use x="613.867188" xlink:href="#DejaVuSans-48"/>
     <use x="677.490234" xlink:href="#DejaVuSans-51"/>
     <use x="741.113281" xlink:href="#DejaVuSans-37"/>
    </g>
   </g>
   <g id="patch_20">
    <path d="M 331.154795 268.160695 
L 276.984863 268.160695 
L 270.993182 260.771319 
" style="fill:none;stroke:#000000;stroke-linecap:round;"/>
   </g>
   <g id="text_10">
    <g id="patch_21">
     <path d="M 333.515294 275.999757 
L 424.448107 275.999757 
L 424.448107 260.321632 
L 333.515294 260.321632 
z
" style="fill:#ffffff;stroke:#000000;stroke-linejoin:miter;stroke-width:0.72;"/>
    </g>
    <!-- Unusual, 27.43% -->
    <g transform="translate(336.515294 270.92007)scale(0.1 -0.1)">
     <defs>
      <path d="M 8.6875 72.90625 
L 18.609375 72.90625 
L 18.609375 28.609375 
Q 18.609375 16.890625 22.84375 11.734375 
Q 27.09375 6.59375 36.625 6.59375 
Q 46.09375 6.59375 50.34375 11.734375 
Q 54.59375 16.890625 54.59375 28.609375 
L 54.59375 72.90625 
L 64.5 72.90625 
L 64.5 27.390625 
Q 64.5 13.140625 57.4375 5.859375 
Q 50.390625 -1.421875 36.625 -1.421875 
Q 22.796875 -1.421875 15.734375 5.859375 
Q 8.6875 13.140625 8.6875 27.390625 
z
" id="DejaVuSans-85"/>
     </defs>
     <use xlink:href="#DejaVuSans-85"/>
     <use x="73.193359" xlink:href="#DejaVuSans-110"/>
     <use x="136.572266" xlink:href="#DejaVuSans-117"/>
     <use x="199.951172" xlink:href="#DejaVuSans-115"/>
     <use x="252.050781" xlink:href="#DejaVuSans-117"/>
     <use x="315.429688" xlink:href="#DejaVuSans-97"/>
     <use x="376.708984" xlink:href="#DejaVuSans-108"/>
     <use x="404.492188" xlink:href="#DejaVuSans-44"/>
     <use x="436.279297" xlink:href="#DejaVuSans-32"/>
     <use x="468.066406" xlink:href="#DejaVuSans-50"/>
     <use x="531.689453" xlink:href="#DejaVuSans-55"/>
     <use x="595.3125" xlink:href="#DejaVuSans-46"/>
     <use x="627.099609" xlink:href="#DejaVuSans-52"/>
     <use x="690.722656" xlink:href="#DejaVuSans-51"/>
     <use x="754.345703" xlink:href="#DejaVuSans-37"/>
    </g>
   </g>
   <g id="patch_22">
    <path d="M 298.143529 199.609412 
C 298.143529 197.479202 298.054835 195.349915 297.877678 193.227085 
C 297.70052 191.104254 297.435053 188.98972 297.081965 186.888976 
L 221.4 199.609412 
L 298.143529 199.609412 
z
" style="fill:#8c564b;"/>
   </g>
   <g id="patch_23">
    <path d="M 297.081965 186.888976 
C 296.256675 181.978802 294.95549 177.160577 293.196817 172.502468 
C 291.438144 167.844358 289.230317 163.368436 286.604572 159.138026 
L 221.4 199.609412 
L 297.081965 186.888976 
z
" style="fill:#c49c94;"/>
   </g>
   <g id="patch_24">
    <path d="M 286.604572 159.138026 
C 284.539379 155.810735 282.222531 152.646396 279.674339 149.672745 
C 277.126147 146.699094 274.354077 143.924845 271.382428 141.374318 
L 221.4 199.609412 
L 286.604572 159.138026 
z
" style="fill:#98df8a;"/>
   </g>
   <g id="patch_25">
    <path d="M 271.382428 141.374318 
C 270.571235 140.678081 269.745583 139.99887 268.906013 139.337129 
C 268.066443 138.675388 267.213137 138.031262 266.346655 137.405172 
L 221.4 199.609412 
L 271.382428 141.374318 
z
" style="fill:#1f77b4;"/>
   </g>
   <g id="patch_26">
    <path d="M 266.346655 137.405172 
C 259.700625 132.602977 252.327723 128.896782 244.508845 126.427784 
C 236.689968 123.958787 228.525687 122.758747 220.32705 122.873383 
L 221.4 199.609412 
L 266.346655 137.405172 
z
" style="fill:#ff7f0e;"/>
   </g>
   <g id="patch_27">
    <path d="M 220.32705 122.873383 
C 207.45834 123.053318 194.839281 126.467539 183.635393 132.800702 
C 172.431504 139.133865 162.998679 148.184796 156.20815 159.117536 
L 221.4 199.609412 
L 220.32705 122.873383 
z
" style="fill:#aec7e8;"/>
   </g>
   <g id="patch_28">
    <path d="M 156.20815 159.117536 
C 155.457494 160.326091 154.74059 161.555287 154.058269 162.803698 
C 153.375948 164.052109 152.728475 165.319252 152.1166 166.603658 
L 221.4 199.609412 
L 156.20815 159.117536 
z
" style="fill:#c5b0d5;"/>
   </g>
   <g id="patch_29">
    <path d="M 152.1166 166.603658 
C 151.812405 167.242202 151.517053 167.884921 151.230628 168.531631 
C 150.944202 169.17834 150.666731 169.828978 150.398293 170.483359 
L 221.4 199.609412 
L 152.1166 166.603658 
z
" style="fill:#2ca02c;"/>
   </g>
   <g id="patch_30">
    <path d="M 150.398293 170.483359 
C 147.559472 177.403663 145.74759 184.701975 145.020201 192.146465 
C 144.292812 199.590955 144.6577 207.101955 146.103275 214.440882 
L 221.4 199.609412 
L 150.398293 170.483359 
z
" style="fill:#ffbb78;"/>
   </g>
   <g id="patch_31">
    <path d="M 146.103275 214.440882 
C 149.081046 229.558493 156.543741 243.434568 167.514805 254.253305 
C 178.485868 265.072042 192.464921 272.340009 207.622687 275.106133 
L 221.4 199.609412 
L 146.103275 214.440882 
z
" style="fill:#d62728;"/>
   </g>
   <g id="patch_32">
    <path d="M 207.622687 275.106133 
C 218.508623 277.092696 229.696541 276.701479 240.417126 273.959383 
C 251.137712 271.217287 261.139474 266.188639 269.734664 259.219223 
C 278.329853 252.249807 285.316837 243.503116 290.215171 233.580598 
C 295.113506 223.65808 297.808281 212.792504 298.114197 201.731019 
L 221.4 199.609412 
L 207.622687 275.106133 
z
" style="fill:#e377c2;"/>
   </g>
   <g id="patch_33">
    <path d="M 298.114197 201.731019 
C 298.123974 201.377508 298.131307 201.023935 298.136196 200.670323 
C 298.141085 200.316711 298.143529 199.96307 298.143529 199.609424 
L 221.4 199.609412 
L 298.114197 201.731019 
z
" style="fill:#ff9896;"/>
   </g>
   <g id="matplotlib.axis_1"/>
   <g id="matplotlib.axis_2"/>
   <g id="text_11">
    <!-- Abandon -->
    <g transform="translate(194.724375 97.68)scale(0.12 -0.12)">
     <use xlink:href="#DejaVuSans-65"/>
     <use x="68.408203" xlink:href="#DejaVuSans-98"/>
     <use x="131.884766" xlink:href="#DejaVuSans-97"/>
     <use x="193.164062" xlink:href="#DejaVuSans-110"/>
     <use x="256.542969" xlink:href="#DejaVuSans-100"/>
     <use x="320.019531" xlink:href="#DejaVuSans-111"/>
     <use x="381.201172" xlink:href="#DejaVuSans-110"/>
    </g>
   </g>
  </g>
  <g id="axes_2">
   <g id="patch_34">
    <path d="M 331.150227 407.992881 
L 306.908238 407.992881 
L 297.691015 410.347856 
" style="fill:none;stroke:#000000;stroke-linecap:round;"/>
   </g>
   <g id="text_12">
    <g id="patch_35">
     <path d="M 333.515294 415.831943 
L 425.837169 415.831943 
L 425.837169 400.153818 
L 333.515294 400.153818 
z
" style="fill:#ffffff;stroke:#000000;stroke-linejoin:miter;stroke-width:0.72;"/>
    </g>
    <!-- Assembly, 7.96% -->
    <g transform="translate(336.515294 410.752256)scale(0.1 -0.1)">
     <use xlink:href="#DejaVuSans-65"/>
     <use x="68.408203" xlink:href="#DejaVuSans-115"/>
     <use x="120.507812" xlink:href="#DejaVuSans-115"/>
     <use x="172.607422" xlink:href="#DejaVuSans-101"/>
     <use x="234.130859" xlink:href="#DejaVuSans-109"/>
     <use x="331.542969" xlink:href="#DejaVuSans-98"/>
     <use x="395.019531" xlink:href="#DejaVuSans-108"/>
     <use x="422.802734" xlink:href="#DejaVuSans-121"/>
     <use x="481.982422" xlink:href="#DejaVuSans-44"/>
     <use x="513.769531" xlink:href="#DejaVuSans-32"/>
     <use x="545.556641" xlink:href="#DejaVuSans-55"/>
     <use x="609.179688" xlink:href="#DejaVuSans-46"/>
     <use x="640.966797" xlink:href="#DejaVuSans-57"/>
     <use x="704.589844" xlink:href="#DejaVuSans-54"/>
     <use x="768.212891" xlink:href="#DejaVuSans-37"/>
    </g>
   </g>
   <g id="patch_36">
    <path d="M 331.158939 358.29535 
L 273.075124 358.29535 
L 267.504887 366.007391 
" style="fill:none;stroke:#000000;stroke-linecap:round;"/>
   </g>
   <g id="text_13">
    <g id="patch_37">
     <path d="M 333.515294 366.134413 
L 428.096544 366.134413 
L 428.096544 350.456288 
L 333.515294 350.456288 
z
" style="fill:#ffffff;stroke:#000000;stroke-linejoin:miter;stroke-width:0.72;"/>
    </g>
    <!-- Business, 14.16% -->
    <g transform="translate(336.515294 361.054725)scale(0.1 -0.1)">
     <use xlink:href="#DejaVuSans-66"/>
     <use x="68.603516" xlink:href="#DejaVuSans-117"/>
     <use x="131.982422" xlink:href="#DejaVuSans-115"/>
     <use x="184.082031" xlink:href="#DejaVuSans-105"/>
     <use x="211.865234" xlink:href="#DejaVuSans-110"/>
     <use x="275.244141" xlink:href="#DejaVuSans-101"/>
     <use x="336.767578" xlink:href="#DejaVuSans-115"/>
     <use x="388.867188" xlink:href="#DejaVuSans-115"/>
     <use x="440.966797" xlink:href="#DejaVuSans-44"/>
     <use x="472.753906" xlink:href="#DejaVuSans-32"/>
     <use x="504.541016" xlink:href="#DejaVuSans-49"/>
     <use x="568.164062" xlink:href="#DejaVuSans-52"/>
     <use x="631.787109" xlink:href="#DejaVuSans-46"/>
     <use x="663.574219" xlink:href="#DejaVuSans-49"/>
     <use x="727.197266" xlink:href="#DejaVuSans-54"/>
     <use x="790.820312" xlink:href="#DejaVuSans-37"/>
    </g>
   </g>
   <g id="patch_38">
    <path d="M 331.151616 342.614354 
L 234.840315 342.614354 
L 233.391538 352.016702 
" style="fill:none;stroke:#000000;stroke-linecap:round;"/>
   </g>
   <g id="text_14">
    <g id="patch_39">
     <path d="M 333.515294 350.453416 
L 473.787169 350.453416 
L 473.787169 334.775291 
L 333.515294 334.775291 
z
" style="fill:#ffffff;stroke:#000000;stroke-linejoin:miter;stroke-width:0.72;"/>
    </g>
    <!-- Detention &amp; Correc, 0.88% -->
    <g transform="translate(336.515294 345.373729)scale(0.1 -0.1)">
     <use xlink:href="#DejaVuSans-68"/>
     <use x="77.001953" xlink:href="#DejaVuSans-101"/>
     <use x="138.525391" xlink:href="#DejaVuSans-116"/>
     <use x="177.734375" xlink:href="#DejaVuSans-101"/>
     <use x="239.257812" xlink:href="#DejaVuSans-110"/>
     <use x="302.636719" xlink:href="#DejaVuSans-116"/>
     <use x="341.845703" xlink:href="#DejaVuSans-105"/>
     <use x="369.628906" xlink:href="#DejaVuSans-111"/>
     <use x="430.810547" xlink:href="#DejaVuSans-110"/>
     <use x="494.189453" xlink:href="#DejaVuSans-32"/>
     <use x="525.976562" xlink:href="#DejaVuSans-38"/>
     <use x="603.955078" xlink:href="#DejaVuSans-32"/>
     <use x="635.742188" xlink:href="#DejaVuSans-67"/>
     <use x="705.566406" xlink:href="#DejaVuSans-111"/>
     <use x="766.748047" xlink:href="#DejaVuSans-114"/>
     <use x="806.111328" xlink:href="#DejaVuSans-114"/>
     <use x="844.974609" xlink:href="#DejaVuSans-101"/>
     <use x="906.498047" xlink:href="#DejaVuSans-99"/>
     <use x="961.478516" xlink:href="#DejaVuSans-44"/>
     <use x="993.265625" xlink:href="#DejaVuSans-32"/>
     <use x="1025.052734" xlink:href="#DejaVuSans-48"/>
     <use x="1088.675781" xlink:href="#DejaVuSans-46"/>
     <use x="1120.462891" xlink:href="#DejaVuSans-56"/>
     <use x="1184.085938" xlink:href="#DejaVuSans-56"/>
     <use x="1247.708984" xlink:href="#DejaVuSans-37"/>
    </g>
   </g>
   <g id="patch_40">
    <path d="M 111.642054 345.315298 
L 196.0124 345.315298 
L 198.749016 354.426503 
" style="fill:none;stroke:#000000;stroke-linecap:round;"/>
   </g>
   <g id="text_15">
    <g id="patch_41">
     <path d="M 9.012831 353.154361 
L 109.284706 353.154361 
L 109.284706 337.476236 
L 9.012831 337.476236 
z
" style="fill:#ffffff;stroke:#000000;stroke-linejoin:miter;stroke-width:0.72;"/>
    </g>
    <!-- Education, 13.27% -->
    <g transform="translate(12.012831 348.074673)scale(0.1 -0.1)">
     <use xlink:href="#DejaVuSans-69"/>
     <use x="63.183594" xlink:href="#DejaVuSans-100"/>
     <use x="126.660156" xlink:href="#DejaVuSans-117"/>
     <use x="190.039062" xlink:href="#DejaVuSans-99"/>
     <use x="245.019531" xlink:href="#DejaVuSans-97"/>
     <use x="306.298828" xlink:href="#DejaVuSans-116"/>
     <use x="345.507812" xlink:href="#DejaVuSans-105"/>
     <use x="373.291016" xlink:href="#DejaVuSans-111"/>
     <use x="434.472656" xlink:href="#DejaVuSans-110"/>
     <use x="497.851562" xlink:href="#DejaVuSans-44"/>
     <use x="529.638672" xlink:href="#DejaVuSans-32"/>
     <use x="561.425781" xlink:href="#DejaVuSans-49"/>
     <use x="625.048828" xlink:href="#DejaVuSans-51"/>
     <use x="688.671875" xlink:href="#DejaVuSans-46"/>
     <use x="720.458984" xlink:href="#DejaVuSans-50"/>
     <use x="784.082031" xlink:href="#DejaVuSans-55"/>
     <use x="847.705078" xlink:href="#DejaVuSans-37"/>
    </g>
   </g>
   <g id="patch_42">
    <path d="M 111.644012 364.455757 
L 162.122211 364.455757 
L 168.511965 371.503747 
" style="fill:none;stroke:#000000;stroke-linecap:round;"/>
   </g>
   <g id="text_16">
    <g id="patch_43">
     <path d="M 5.995643 372.29482 
L 109.284706 372.29482 
L 109.284706 356.616695 
L 5.995643 356.616695 
z
" style="fill:#ffffff;stroke:#000000;stroke-linejoin:miter;stroke-width:0.72;"/>
    </g>
    <!-- Health Care, 0.88% -->
    <g transform="translate(8.995643 367.215132)scale(0.1 -0.1)">
     <use xlink:href="#DejaVuSans-72"/>
     <use x="75.195312" xlink:href="#DejaVuSans-101"/>
     <use x="136.71875" xlink:href="#DejaVuSans-97"/>
     <use x="197.998047" xlink:href="#DejaVuSans-108"/>
     <use x="225.78125" xlink:href="#DejaVuSans-116"/>
     <use x="264.990234" xlink:href="#DejaVuSans-104"/>
     <use x="328.369141" xlink:href="#DejaVuSans-32"/>
     <use x="360.15625" xlink:href="#DejaVuSans-67"/>
     <use x="429.980469" xlink:href="#DejaVuSans-97"/>
     <use x="491.259766" xlink:href="#DejaVuSans-114"/>
     <use x="530.123047" xlink:href="#DejaVuSans-101"/>
     <use x="591.646484" xlink:href="#DejaVuSans-44"/>
     <use x="623.433594" xlink:href="#DejaVuSans-32"/>
     <use x="655.220703" xlink:href="#DejaVuSans-48"/>
     <use x="718.84375" xlink:href="#DejaVuSans-46"/>
     <use x="750.630859" xlink:href="#DejaVuSans-56"/>
     <use x="814.253906" xlink:href="#DejaVuSans-56"/>
     <use x="877.876953" xlink:href="#DejaVuSans-37"/>
    </g>
   </g>
   <g id="patch_44">
    <path d="M 111.643608 371.419943 
L 155.248263 371.419943 
L 162.378983 377.717239 
" style="fill:none;stroke:#000000;stroke-linecap:round;"/>
   </g>
   <g id="text_17">
    <g id="patch_45">
     <path d="M 18.262831 379.259006 
L 109.284706 379.259006 
L 109.284706 363.580881 
L 18.262831 363.580881 
z
" style="fill:#ffffff;stroke:#000000;stroke-linejoin:miter;stroke-width:0.72;"/>
    </g>
    <!-- Industrial, 2.65% -->
    <g transform="translate(21.262831 374.179318)scale(0.1 -0.1)">
     <use xlink:href="#DejaVuSans-73"/>
     <use x="29.492188" xlink:href="#DejaVuSans-110"/>
     <use x="92.871094" xlink:href="#DejaVuSans-100"/>
     <use x="156.347656" xlink:href="#DejaVuSans-117"/>
     <use x="219.726562" xlink:href="#DejaVuSans-115"/>
     <use x="271.826172" xlink:href="#DejaVuSans-116"/>
     <use x="311.035156" xlink:href="#DejaVuSans-114"/>
     <use x="352.148438" xlink:href="#DejaVuSans-105"/>
     <use x="379.931641" xlink:href="#DejaVuSans-97"/>
     <use x="441.210938" xlink:href="#DejaVuSans-108"/>
     <use x="468.994141" xlink:href="#DejaVuSans-44"/>
     <use x="500.78125" xlink:href="#DejaVuSans-32"/>
     <use x="532.568359" xlink:href="#DejaVuSans-50"/>
     <use x="596.191406" xlink:href="#DejaVuSans-46"/>
     <use x="627.978516" xlink:href="#DejaVuSans-54"/>
     <use x="691.601562" xlink:href="#DejaVuSans-53"/>
     <use x="755.224609" xlink:href="#DejaVuSans-37"/>
    </g>
   </g>
   <g id="patch_46">
    <path d="M 111.644929 387.40838 
L 144.014517 387.40838 
L 152.356161 391.982228 
" style="fill:none;stroke:#000000;stroke-linecap:round;"/>
   </g>
   <g id="text_18">
    <g id="patch_47">
     <path d="M 10.078456 395.247442 
L 109.284706 395.247442 
L 109.284706 379.569317 
L 10.078456 379.569317 
z
" style="fill:#ffffff;stroke:#000000;stroke-linejoin:miter;stroke-width:0.72;"/>
    </g>
    <!-- Residential, 2.65% -->
    <g transform="translate(13.078456 390.167755)scale(0.1 -0.1)">
     <use xlink:href="#DejaVuSans-82"/>
     <use x="64.982422" xlink:href="#DejaVuSans-101"/>
     <use x="126.505859" xlink:href="#DejaVuSans-115"/>
     <use x="178.605469" xlink:href="#DejaVuSans-105"/>
     <use x="206.388672" xlink:href="#DejaVuSans-100"/>
     <use x="269.865234" xlink:href="#DejaVuSans-101"/>
     <use x="331.388672" xlink:href="#DejaVuSans-110"/>
     <use x="394.767578" xlink:href="#DejaVuSans-116"/>
     <use x="433.976562" xlink:href="#DejaVuSans-105"/>
     <use x="461.759766" xlink:href="#DejaVuSans-97"/>
     <use x="523.039062" xlink:href="#DejaVuSans-108"/>
     <use x="550.822266" xlink:href="#DejaVuSans-44"/>
     <use x="582.609375" xlink:href="#DejaVuSans-32"/>
     <use x="614.396484" xlink:href="#DejaVuSans-50"/>
     <use x="678.019531" xlink:href="#DejaVuSans-46"/>
     <use x="709.806641" xlink:href="#DejaVuSans-54"/>
     <use x="773.429688" xlink:href="#DejaVuSans-53"/>
     <use x="837.052734" xlink:href="#DejaVuSans-37"/>
    </g>
   </g>
   <g id="patch_48">
    <path d="M 111.645214 496.784133 
L 163.889667 496.784133 
L 170.088901 489.567998 
" style="fill:none;stroke:#000000;stroke-linecap:round;"/>
   </g>
   <g id="text_19">
    <g id="patch_49">
     <path d="M 19.670643 504.623196 
L 109.284706 504.623196 
L 109.284706 488.945071 
L 19.670643 488.945071 
z
" style="fill:#ffffff;stroke:#000000;stroke-linejoin:miter;stroke-width:0.72;"/>
    </g>
    <!-- Storage, 40.71% -->
    <g transform="translate(22.670643 499.543508)scale(0.1 -0.1)">
     <use xlink:href="#DejaVuSans-83"/>
     <use x="63.476562" xlink:href="#DejaVuSans-116"/>
     <use x="102.685547" xlink:href="#DejaVuSans-111"/>
     <use x="163.867188" xlink:href="#DejaVuSans-114"/>
     <use x="204.980469" xlink:href="#DejaVuSans-97"/>
     <use x="266.259766" xlink:href="#DejaVuSans-103"/>
     <use x="329.736328" xlink:href="#DejaVuSans-101"/>
     <use x="391.259766" xlink:href="#DejaVuSans-44"/>
     <use x="423.046875" xlink:href="#DejaVuSans-32"/>
     <use x="454.833984" xlink:href="#DejaVuSans-52"/>
     <use x="518.457031" xlink:href="#DejaVuSans-48"/>
     <use x="582.080078" xlink:href="#DejaVuSans-46"/>
     <use x="613.867188" xlink:href="#DejaVuSans-55"/>
     <use x="677.490234" xlink:href="#DejaVuSans-49"/>
     <use x="741.113281" xlink:href="#DejaVuSans-37"/>
    </g>
   </g>
   <g id="patch_50">
    <path d="M 331.151423 484.470281 
L 290.714413 484.470281 
L 283.242777 478.581498 
" style="fill:none;stroke:#000000;stroke-linecap:round;"/>
   </g>
   <g id="text_20">
    <g id="patch_51">
     <path d="M 333.515294 492.309344 
L 424.448107 492.309344 
L 424.448107 476.631219 
L 333.515294 476.631219 
z
" style="fill:#ffffff;stroke:#000000;stroke-linejoin:miter;stroke-width:0.72;"/>
    </g>
    <!-- Unusual, 10.62% -->
    <g transform="translate(336.515294 487.229656)scale(0.1 -0.1)">
     <use xlink:href="#DejaVuSans-85"/>
     <use x="73.193359" xlink:href="#DejaVuSans-110"/>
     <use x="136.572266" xlink:href="#DejaVuSans-117"/>
     <use x="199.951172" xlink:href="#DejaVuSans-115"/>
     <use x="252.050781" xlink:href="#DejaVuSans-117"/>
     <use x="315.429688" xlink:href="#DejaVuSans-97"/>
     <use x="376.708984" xlink:href="#DejaVuSans-108"/>
     <use x="404.492188" xlink:href="#DejaVuSans-44"/>
     <use x="436.279297" xlink:href="#DejaVuSans-32"/>
     <use x="468.066406" xlink:href="#DejaVuSans-49"/>
     <use x="531.689453" xlink:href="#DejaVuSans-48"/>
     <use x="595.3125" xlink:href="#DejaVuSans-46"/>
     <use x="627.099609" xlink:href="#DejaVuSans-54"/>
     <use x="690.722656" xlink:href="#DejaVuSans-50"/>
     <use x="754.345703" xlink:href="#DejaVuSans-37"/>
    </g>
   </g>
   <g id="patch_52">
    <path d="M 298.143529 429.84 
C 298.143529 423.432646 297.3411 417.050439 295.75499 410.842505 
C 294.16888 404.634571 291.81154 398.649639 288.738051 393.027553 
L 221.4 429.84 
L 298.143529 429.84 
z
" style="fill:#8c564b;"/>
   </g>
   <g id="patch_53">
    <path d="M 288.738051 393.027553 
C 283.255321 382.998436 275.600659 374.319722 266.334891 367.627261 
C 257.069122 360.9348 246.424199 356.396128 235.180029 354.343774 
L 221.4 429.84 
L 288.738051 393.027553 
z
" style="fill:#c49c94;"/>
   </g>
   <g id="patch_54">
    <path d="M 235.180029 354.343774 
C 234.484086 354.216747 233.78642 354.099348 233.087231 353.991612 
C 232.388041 353.883876 231.687395 353.785814 230.985494 353.697452 
L 221.4 429.84 
L 235.180029 354.343774 
z
" style="fill:#98df8a;"/>
   </g>
   <g id="patch_55">
    <path d="M 230.985494 353.697452 
C 220.363116 352.360214 209.577516 353.26049 199.323826 356.340259 
C 189.070137 359.420028 179.57348 364.611673 171.445915 371.580591 
L 221.4 429.84 
L 230.985494 353.697452 
z
" style="fill:#1f77b4;"/>
   </g>
   <g id="patch_56">
    <path d="M 171.445915 371.580591 
C 170.908865 372.041081 170.378209 372.508974 169.854097 372.984137 
C 169.329985 373.4593 168.812469 373.941687 168.301697 374.431161 
L 221.4 429.84 
L 171.445915 371.580591 
z
" style="fill:#ff7f0e;"/>
   </g>
   <g id="patch_57">
    <path d="M 168.301697 374.431161 
C 166.763377 375.905333 165.287116 377.442928 163.87675 379.039951 
C 162.466385 380.636973 161.123138 382.292037 159.850502 384.00084 
L 221.4 429.84 
L 168.301697 374.431161 
z
" style="fill:#aec7e8;"/>
   </g>
   <g id="patch_58">
    <path d="M 159.850502 384.00084 
C 159.427945 384.568219 159.013254 385.141413 158.606547 385.720259 
C 158.19984 386.299105 157.801157 386.883546 157.410611 387.473417 
L 221.4 429.84 
L 159.850502 384.00084 
z
" style="fill:#c5b0d5;"/>
   </g>
   <g id="patch_59">
    <path d="M 157.410611 387.473417 
C 156.234384 389.249959 155.132651 391.074714 154.108275 392.942939 
C 153.0839 394.811164 152.137769 396.721239 151.272344 398.668198 
L 221.4 429.84 
L 157.410611 387.473417 
z
" style="fill:#2ca02c;"/>
   </g>
   <g id="patch_60">
    <path d="M 151.272344 398.668198 
C 144.569738 413.74715 142.90604 430.593169 146.529565 446.69192 
C 150.153089 462.790671 158.874123 477.299284 171.391015 488.05229 
C 183.907907 498.805295 199.565321 505.239707 216.026324 506.395163 
C 232.487328 507.550618 248.890085 503.366623 262.786418 494.467654 
L 221.4 429.84 
L 151.272344 398.668198 
z
" style="fill:#ffbb78;"/>
   </g>
   <g id="patch_61">
    <path d="M 262.786418 494.467654 
C 269.992612 489.852934 276.376486 484.065273 281.673402 477.344592 
C 286.970319 470.623912 291.10606 463.06438 293.909181 454.979371 
L 221.4 429.84 
L 262.786418 494.467654 
z
" style="fill:#e377c2;"/>
   </g>
   <g id="patch_62">
    <path d="M 293.909181 454.979371 
C 295.308316 450.943863 296.368117 446.798587 297.077538 442.586744 
C 297.78696 438.374901 298.143529 434.111176 298.143529 429.840005 
L 221.4 429.84 
L 293.909181 454.979371 
z
" style="fill:#ff9896;"/>
   </g>
   <g id="matplotlib.axis_3"/>
   <g id="matplotlib.axis_4"/>
   <g id="text_21">
    <!-- In Progress -->
    <g transform="translate(188.32125 327.910588)scale(0.12 -0.12)">
     <defs>
      <path d="M 19.671875 64.796875 
L 19.671875 37.40625 
L 32.078125 37.40625 
Q 38.96875 37.40625 42.71875 40.96875 
Q 46.484375 44.53125 46.484375 51.125 
Q 46.484375 57.671875 42.71875 61.234375 
Q 38.96875 64.796875 32.078125 64.796875 
z
M 9.8125 72.90625 
L 32.078125 72.90625 
Q 44.34375 72.90625 50.609375 67.359375 
Q 56.890625 61.8125 56.890625 51.125 
Q 56.890625 40.328125 50.609375 34.8125 
Q 44.34375 29.296875 32.078125 29.296875 
L 19.671875 29.296875 
L 19.671875 0 
L 9.8125 0 
z
" id="DejaVuSans-80"/>
     </defs>
     <use xlink:href="#DejaVuSans-73"/>
     <use x="29.492188" xlink:href="#DejaVuSans-110"/>
     <use x="92.871094" xlink:href="#DejaVuSans-32"/>
     <use x="124.658203" xlink:href="#DejaVuSans-80"/>
     <use x="183.210938" xlink:href="#DejaVuSans-114"/>
     <use x="222.074219" xlink:href="#DejaVuSans-111"/>
     <use x="283.255859" xlink:href="#DejaVuSans-103"/>
     <use x="346.732422" xlink:href="#DejaVuSans-114"/>
     <use x="385.595703" xlink:href="#DejaVuSans-101"/>
     <use x="447.119141" xlink:href="#DejaVuSans-115"/>
     <use x="499.21875" xlink:href="#DejaVuSans-115"/>
    </g>
   </g>
  </g>
  <g id="axes_3">
   <g id="patch_63">
    <path d="M 331.154441 630.308584 
L 304.485369 630.308584 
L 295.529315 633.516732 
" style="fill:none;stroke:#000000;stroke-linecap:round;"/>
   </g>
   <g id="text_22">
    <g id="patch_64">
     <path d="M 333.515294 638.147647 
L 432.199669 638.147647 
L 432.199669 622.469522 
L 333.515294 622.469522 
z
" style="fill:#ffffff;stroke:#000000;stroke-linejoin:miter;stroke-width:0.72;"/>
    </g>
    <!-- Assembly, 10.95% -->
    <g transform="translate(336.515294 633.067959)scale(0.1 -0.1)">
     <use xlink:href="#DejaVuSans-65"/>
     <use x="68.408203" xlink:href="#DejaVuSans-115"/>
     <use x="120.507812" xlink:href="#DejaVuSans-115"/>
     <use x="172.607422" xlink:href="#DejaVuSans-101"/>
     <use x="234.130859" xlink:href="#DejaVuSans-109"/>
     <use x="331.542969" xlink:href="#DejaVuSans-98"/>
     <use x="395.019531" xlink:href="#DejaVuSans-108"/>
     <use x="422.802734" xlink:href="#DejaVuSans-121"/>
     <use x="481.982422" xlink:href="#DejaVuSans-44"/>
     <use x="513.769531" xlink:href="#DejaVuSans-32"/>
     <use x="545.556641" xlink:href="#DejaVuSans-49"/>
     <use x="609.179688" xlink:href="#DejaVuSans-48"/>
     <use x="672.802734" xlink:href="#DejaVuSans-46"/>
     <use x="704.589844" xlink:href="#DejaVuSans-57"/>
     <use x="768.212891" xlink:href="#DejaVuSans-53"/>
     <use x="831.835938" xlink:href="#DejaVuSans-37"/>
    </g>
   </g>
   <g id="patch_65">
    <path d="M 331.1543 588.773549 
L 273.416224 588.773549 
L 267.809219 596.458898 
" style="fill:none;stroke:#000000;stroke-linecap:round;"/>
   </g>
   <g id="text_23">
    <g id="patch_66">
     <path d="M 333.515294 596.612611 
L 421.734044 596.612611 
L 421.734044 580.934486 
L 333.515294 580.934486 
z
" style="fill:#ffffff;stroke:#000000;stroke-linejoin:miter;stroke-width:0.72;"/>
    </g>
    <!-- Business, 8.04% -->
    <g transform="translate(336.515294 591.532924)scale(0.1 -0.1)">
     <use xlink:href="#DejaVuSans-66"/>
     <use x="68.603516" xlink:href="#DejaVuSans-117"/>
     <use x="131.982422" xlink:href="#DejaVuSans-115"/>
     <use x="184.082031" xlink:href="#DejaVuSans-105"/>
     <use x="211.865234" xlink:href="#DejaVuSans-110"/>
     <use x="275.244141" xlink:href="#DejaVuSans-101"/>
     <use x="336.767578" xlink:href="#DejaVuSans-115"/>
     <use x="388.867188" xlink:href="#DejaVuSans-115"/>
     <use x="440.966797" xlink:href="#DejaVuSans-44"/>
     <use x="472.753906" xlink:href="#DejaVuSans-32"/>
     <use x="504.541016" xlink:href="#DejaVuSans-56"/>
     <use x="568.164062" xlink:href="#DejaVuSans-46"/>
     <use x="599.951172" xlink:href="#DejaVuSans-48"/>
     <use x="663.574219" xlink:href="#DejaVuSans-52"/>
     <use x="727.197266" xlink:href="#DejaVuSans-37"/>
    </g>
   </g>
   <g id="patch_67">
    <path d="M 331.155998 572.374569 
L 231.31784 572.374569 
L 230.248762 581.82762 
" style="fill:none;stroke:#000000;stroke-linecap:round;"/>
   </g>
   <g id="text_24">
    <g id="patch_68">
     <path d="M 333.515294 580.213631 
L 473.787169 580.213631 
L 473.787169 564.535506 
L 333.515294 564.535506 
z
" style="fill:#ffffff;stroke:#000000;stroke-linejoin:miter;stroke-width:0.72;"/>
    </g>
    <!-- Detention &amp; Correc, 8.44% -->
    <g transform="translate(336.515294 575.133944)scale(0.1 -0.1)">
     <use xlink:href="#DejaVuSans-68"/>
     <use x="77.001953" xlink:href="#DejaVuSans-101"/>
     <use x="138.525391" xlink:href="#DejaVuSans-116"/>
     <use x="177.734375" xlink:href="#DejaVuSans-101"/>
     <use x="239.257812" xlink:href="#DejaVuSans-110"/>
     <use x="302.636719" xlink:href="#DejaVuSans-116"/>
     <use x="341.845703" xlink:href="#DejaVuSans-105"/>
     <use x="369.628906" xlink:href="#DejaVuSans-111"/>
     <use x="430.810547" xlink:href="#DejaVuSans-110"/>
     <use x="494.189453" xlink:href="#DejaVuSans-32"/>
     <use x="525.976562" xlink:href="#DejaVuSans-38"/>
     <use x="603.955078" xlink:href="#DejaVuSans-32"/>
     <use x="635.742188" xlink:href="#DejaVuSans-67"/>
     <use x="705.566406" xlink:href="#DejaVuSans-111"/>
     <use x="766.748047" xlink:href="#DejaVuSans-114"/>
     <use x="806.111328" xlink:href="#DejaVuSans-114"/>
     <use x="844.974609" xlink:href="#DejaVuSans-101"/>
     <use x="906.498047" xlink:href="#DejaVuSans-99"/>
     <use x="961.478516" xlink:href="#DejaVuSans-44"/>
     <use x="993.265625" xlink:href="#DejaVuSans-32"/>
     <use x="1025.052734" xlink:href="#DejaVuSans-56"/>
     <use x="1088.675781" xlink:href="#DejaVuSans-46"/>
     <use x="1120.462891" xlink:href="#DejaVuSans-52"/>
     <use x="1184.085938" xlink:href="#DejaVuSans-52"/>
     <use x="1247.708984" xlink:href="#DejaVuSans-37"/>
    </g>
   </g>
   <g id="patch_69">
    <path d="M 111.645497 574.36808 
L 200.327851 574.36808 
L 202.59929 583.606244 
" style="fill:none;stroke:#000000;stroke-linecap:round;"/>
   </g>
   <g id="text_25">
    <g id="patch_70">
     <path d="M 15.375331 582.207142 
L 109.284706 582.207142 
L 109.284706 566.529017 
L 15.375331 566.529017 
z
" style="fill:#ffffff;stroke:#000000;stroke-linejoin:miter;stroke-width:0.72;"/>
    </g>
    <!-- Education, 2.82% -->
    <g transform="translate(18.375331 577.127455)scale(0.1 -0.1)">
     <use xlink:href="#DejaVuSans-69"/>
     <use x="63.183594" xlink:href="#DejaVuSans-100"/>
     <use x="126.660156" xlink:href="#DejaVuSans-117"/>
     <use x="190.039062" xlink:href="#DejaVuSans-99"/>
     <use x="245.019531" xlink:href="#DejaVuSans-97"/>
     <use x="306.298828" xlink:href="#DejaVuSans-116"/>
     <use x="345.507812" xlink:href="#DejaVuSans-105"/>
     <use x="373.291016" xlink:href="#DejaVuSans-111"/>
     <use x="434.472656" xlink:href="#DejaVuSans-110"/>
     <use x="497.851562" xlink:href="#DejaVuSans-44"/>
     <use x="529.638672" xlink:href="#DejaVuSans-32"/>
     <use x="561.425781" xlink:href="#DejaVuSans-50"/>
     <use x="625.048828" xlink:href="#DejaVuSans-46"/>
     <use x="656.835938" xlink:href="#DejaVuSans-56"/>
     <use x="720.458984" xlink:href="#DejaVuSans-50"/>
     <use x="784.082031" xlink:href="#DejaVuSans-37"/>
    </g>
   </g>
   <g id="patch_71">
    <path d="M 111.650213 581.052637 
L 182.092002 581.052637 
L 186.329144 589.57025 
" style="fill:none;stroke:#000000;stroke-linecap:round;"/>
   </g>
   <g id="text_26">
    <g id="patch_72">
     <path d="M 12.358143 588.891699 
L 109.284706 588.891699 
L 109.284706 573.213574 
L 12.358143 573.213574 
z
" style="fill:#ffffff;stroke:#000000;stroke-linejoin:miter;stroke-width:0.72;"/>
    </g>
    <!-- Health Care, 4.2% -->
    <g transform="translate(15.358143 583.812012)scale(0.1 -0.1)">
     <use xlink:href="#DejaVuSans-72"/>
     <use x="75.195312" xlink:href="#DejaVuSans-101"/>
     <use x="136.71875" xlink:href="#DejaVuSans-97"/>
     <use x="197.998047" xlink:href="#DejaVuSans-108"/>
     <use x="225.78125" xlink:href="#DejaVuSans-116"/>
     <use x="264.990234" xlink:href="#DejaVuSans-104"/>
     <use x="328.369141" xlink:href="#DejaVuSans-32"/>
     <use x="360.15625" xlink:href="#DejaVuSans-67"/>
     <use x="429.980469" xlink:href="#DejaVuSans-97"/>
     <use x="491.259766" xlink:href="#DejaVuSans-114"/>
     <use x="530.123047" xlink:href="#DejaVuSans-101"/>
     <use x="591.646484" xlink:href="#DejaVuSans-44"/>
     <use x="623.433594" xlink:href="#DejaVuSans-32"/>
     <use x="655.220703" xlink:href="#DejaVuSans-52"/>
     <use x="718.84375" xlink:href="#DejaVuSans-46"/>
     <use x="750.630859" xlink:href="#DejaVuSans-50"/>
     <use x="814.253906" xlink:href="#DejaVuSans-37"/>
    </g>
   </g>
   <g id="patch_73">
    <path d="M 111.642208 613.277968 
L 146.57082 613.277968 
L 154.636911 618.321904 
" style="fill:none;stroke:#000000;stroke-linecap:round;"/>
   </g>
   <g id="text_27">
    <g id="patch_74">
     <path d="M 11.900331 621.117031 
L 109.284706 621.117031 
L 109.284706 605.438906 
L 11.900331 605.438906 
z
" style="fill:#ffffff;stroke:#000000;stroke-linejoin:miter;stroke-width:0.72;"/>
    </g>
    <!-- Industrial, 13.32% -->
    <g transform="translate(14.900331 616.037343)scale(0.1 -0.1)">
     <use xlink:href="#DejaVuSans-73"/>
     <use x="29.492188" xlink:href="#DejaVuSans-110"/>
     <use x="92.871094" xlink:href="#DejaVuSans-100"/>
     <use x="156.347656" xlink:href="#DejaVuSans-117"/>
     <use x="219.726562" xlink:href="#DejaVuSans-115"/>
     <use x="271.826172" xlink:href="#DejaVuSans-116"/>
     <use x="311.035156" xlink:href="#DejaVuSans-114"/>
     <use x="352.148438" xlink:href="#DejaVuSans-105"/>
     <use x="379.931641" xlink:href="#DejaVuSans-97"/>
     <use x="441.210938" xlink:href="#DejaVuSans-108"/>
     <use x="468.994141" xlink:href="#DejaVuSans-44"/>
     <use x="500.78125" xlink:href="#DejaVuSans-32"/>
     <use x="532.568359" xlink:href="#DejaVuSans-49"/>
     <use x="596.191406" xlink:href="#DejaVuSans-51"/>
     <use x="659.814453" xlink:href="#DejaVuSans-46"/>
     <use x="691.601562" xlink:href="#DejaVuSans-51"/>
     <use x="755.224609" xlink:href="#DejaVuSans-50"/>
     <use x="818.847656" xlink:href="#DejaVuSans-37"/>
    </g>
   </g>
   <g id="patch_75">
    <path d="M 111.649047 650.083871 
L 133.711797 650.083871 
L 143.164006 651.160373 
" style="fill:none;stroke:#000000;stroke-linecap:round;"/>
   </g>
   <g id="text_28">
    <g id="patch_76">
     <path d="M 12.900331 657.922933 
L 109.284706 657.922933 
L 109.284706 642.244808 
L 12.900331 642.244808 
z
" style="fill:#ffffff;stroke:#000000;stroke-linejoin:miter;stroke-width:0.72;"/>
    </g>
    <!-- Mercantile, 0.86% -->
    <g transform="translate(15.900331 652.843246)scale(0.1 -0.1)">
     <use xlink:href="#DejaVuSans-77"/>
     <use x="86.279297" xlink:href="#DejaVuSans-101"/>
     <use x="147.802734" xlink:href="#DejaVuSans-114"/>
     <use x="186.666016" xlink:href="#DejaVuSans-99"/>
     <use x="241.646484" xlink:href="#DejaVuSans-97"/>
     <use x="302.925781" xlink:href="#DejaVuSans-110"/>
     <use x="366.304688" xlink:href="#DejaVuSans-116"/>
     <use x="405.513672" xlink:href="#DejaVuSans-105"/>
     <use x="433.296875" xlink:href="#DejaVuSans-108"/>
     <use x="461.080078" xlink:href="#DejaVuSans-101"/>
     <use x="522.603516" xlink:href="#DejaVuSans-44"/>
     <use x="554.390625" xlink:href="#DejaVuSans-32"/>
     <use x="586.177734" xlink:href="#DejaVuSans-48"/>
     <use x="649.800781" xlink:href="#DejaVuSans-46"/>
     <use x="681.587891" xlink:href="#DejaVuSans-56"/>
     <use x="745.210938" xlink:href="#DejaVuSans-54"/>
     <use x="808.833984" xlink:href="#DejaVuSans-37"/>
    </g>
   </g>
   <g id="patch_77">
    <path d="M 111.647925 672.422237 
L 134.013547 672.422237 
L 143.433229 671.09081 
" style="fill:none;stroke:#000000;stroke-linecap:round;"/>
   </g>
   <g id="text_29">
    <g id="patch_78">
     <path d="M 10.078456 680.261299 
L 109.284706 680.261299 
L 109.284706 664.583174 
L 10.078456 664.583174 
z
" style="fill:#ffffff;stroke:#000000;stroke-linejoin:miter;stroke-width:0.72;"/>
    </g>
    <!-- Residential, 7.18% -->
    <g transform="translate(13.078456 675.181612)scale(0.1 -0.1)">
     <use xlink:href="#DejaVuSans-82"/>
     <use x="64.982422" xlink:href="#DejaVuSans-101"/>
     <use x="126.505859" xlink:href="#DejaVuSans-115"/>
     <use x="178.605469" xlink:href="#DejaVuSans-105"/>
     <use x="206.388672" xlink:href="#DejaVuSans-100"/>
     <use x="269.865234" xlink:href="#DejaVuSans-101"/>
     <use x="331.388672" xlink:href="#DejaVuSans-110"/>
     <use x="394.767578" xlink:href="#DejaVuSans-116"/>
     <use x="433.976562" xlink:href="#DejaVuSans-105"/>
     <use x="461.759766" xlink:href="#DejaVuSans-97"/>
     <use x="523.039062" xlink:href="#DejaVuSans-108"/>
     <use x="550.822266" xlink:href="#DejaVuSans-44"/>
     <use x="582.609375" xlink:href="#DejaVuSans-32"/>
     <use x="614.396484" xlink:href="#DejaVuSans-55"/>
     <use x="678.019531" xlink:href="#DejaVuSans-46"/>
     <use x="709.806641" xlink:href="#DejaVuSans-49"/>
     <use x="773.429688" xlink:href="#DejaVuSans-56"/>
     <use x="837.052734" xlink:href="#DejaVuSans-37"/>
    </g>
   </g>
   <g id="patch_79">
    <path d="M 111.647365 740.81877 
L 185.781373 740.81877 
L 189.620826 732.114649 
" style="fill:none;stroke:#000000;stroke-linecap:round;"/>
   </g>
   <g id="text_30">
    <g id="patch_80">
     <path d="M 19.670643 748.657832 
L 109.284706 748.657832 
L 109.284706 732.979707 
L 19.670643 732.979707 
z
" style="fill:#ffffff;stroke:#000000;stroke-linejoin:miter;stroke-width:0.72;"/>
    </g>
    <!-- Storage, 25.13% -->
    <g transform="translate(22.670643 743.578145)scale(0.1 -0.1)">
     <use xlink:href="#DejaVuSans-83"/>
     <use x="63.476562" xlink:href="#DejaVuSans-116"/>
     <use x="102.685547" xlink:href="#DejaVuSans-111"/>
     <use x="163.867188" xlink:href="#DejaVuSans-114"/>
     <use x="204.980469" xlink:href="#DejaVuSans-97"/>
     <use x="266.259766" xlink:href="#DejaVuSans-103"/>
     <use x="329.736328" xlink:href="#DejaVuSans-101"/>
     <use x="391.259766" xlink:href="#DejaVuSans-44"/>
     <use x="423.046875" xlink:href="#DejaVuSans-32"/>
     <use x="454.833984" xlink:href="#DejaVuSans-50"/>
     <use x="518.457031" xlink:href="#DejaVuSans-53"/>
     <use x="582.080078" xlink:href="#DejaVuSans-46"/>
     <use x="613.867188" xlink:href="#DejaVuSans-49"/>
     <use x="677.490234" xlink:href="#DejaVuSans-51"/>
     <use x="741.113281" xlink:href="#DejaVuSans-37"/>
    </g>
   </g>
   <g id="patch_81">
    <path d="M 331.154474 710.153415 
L 294.06819 710.153415 
L 286.23504 704.754817 
" style="fill:none;stroke:#000000;stroke-linecap:round;"/>
   </g>
   <g id="text_31">
    <g id="patch_82">
     <path d="M 333.515294 717.992477 
L 424.448107 717.992477 
L 424.448107 702.314352 
L 333.515294 702.314352 
z
" style="fill:#ffffff;stroke:#000000;stroke-linejoin:miter;stroke-width:0.72;"/>
    </g>
    <!-- Unusual, 18.89% -->
    <g transform="translate(336.515294 712.91279)scale(0.1 -0.1)">
     <use xlink:href="#DejaVuSans-85"/>
     <use x="73.193359" xlink:href="#DejaVuSans-110"/>
     <use x="136.572266" xlink:href="#DejaVuSans-117"/>
     <use x="199.951172" xlink:href="#DejaVuSans-115"/>
     <use x="252.050781" xlink:href="#DejaVuSans-117"/>
     <use x="315.429688" xlink:href="#DejaVuSans-97"/>
     <use x="376.708984" xlink:href="#DejaVuSans-108"/>
     <use x="404.492188" xlink:href="#DejaVuSans-44"/>
     <use x="436.279297" xlink:href="#DejaVuSans-32"/>
     <use x="468.066406" xlink:href="#DejaVuSans-49"/>
     <use x="531.689453" xlink:href="#DejaVuSans-56"/>
     <use x="595.3125" xlink:href="#DejaVuSans-46"/>
     <use x="627.099609" xlink:href="#DejaVuSans-56"/>
     <use x="690.722656" xlink:href="#DejaVuSans-57"/>
     <use x="754.345703" xlink:href="#DejaVuSans-37"/>
    </g>
   </g>
   <g id="patch_83">
    <path d="M 298.143529 660.070588 
C 298.143529 651.249799 296.622757 642.494681 293.648147 634.190585 
C 290.673537 625.886488 286.289382 618.157062 280.688648 611.342511 
L 221.4 660.070588 
L 298.143529 660.070588 
z
" style="fill:#8c564b;"/>
   </g>
   <g id="patch_84">
    <path d="M 280.688648 611.342511 
C 276.58097 606.344598 271.857757 601.886086 266.631499 598.073162 
C 261.405241 594.260239 255.717762 591.123415 249.704519 588.737402 
L 221.4 660.070588 
L 280.688648 611.342511 
z
" style="fill:#c49c94;"/>
   </g>
   <g id="patch_85">
    <path d="M 249.704519 588.737402 
C 243.391258 586.232343 236.773283 584.576455 230.024209 583.81318 
C 223.275135 583.049904 216.454501 583.185974 209.741239 584.217819 
L 221.4 660.070588 
L 249.704519 588.737402 
z
" style="fill:#98df8a;"/>
   </g>
   <g id="patch_86">
    <path d="M 209.741239 584.217819 
C 207.501091 584.562135 205.277296 585.00552 203.076392 585.546668 
C 200.875489 586.087816 198.699638 586.726197 196.555239 587.459934 
L 221.4 660.070588 
L 209.741239 584.217819 
z
" style="fill:#1f77b4;"/>
   </g>
   <g id="patch_87">
    <path d="M 196.555239 587.459934 
C 193.360818 588.55295 190.242004 589.855578 187.219132 591.359326 
C 184.19626 592.863073 181.275913 594.564665 178.477131 596.453007 
L 221.4 660.070588 
L 196.555239 587.459934 
z
" style="fill:#ff7f0e;"/>
   </g>
   <g id="patch_88">
    <path d="M 178.477131 596.453007 
C 169.571976 602.461327 162.026806 610.27305 156.331148 619.381354 
C 150.635491 628.489657 146.915246 638.693205 145.411784 649.329996 
L 221.4 660.070588 
L 178.477131 596.453007 
z
" style="fill:#aec7e8;"/>
   </g>
   <g id="patch_89">
    <path d="M 145.411784 649.329996 
C 145.315063 650.01428 145.227591 650.699839 145.149389 651.386486 
C 145.071187 652.073133 145.002265 652.760805 144.942639 653.449314 
L 221.4 660.070588 
L 145.411784 649.329996 
z
" style="fill:#c5b0d5;"/>
   </g>
   <g id="patch_90">
    <path d="M 144.942639 653.449314 
C 144.941946 653.45732 144.941254 653.465326 144.940563 653.473332 
C 144.939872 653.481338 144.939183 653.489344 144.938494 653.49735 
L 221.4 660.070588 
L 144.942639 653.449314 
z
" style="fill:#2ca02c;"/>
   </g>
   <g id="patch_91">
    <path d="M 144.938494 653.49735 
C 144.937806 653.505356 144.937119 653.513363 144.936433 653.521369 
C 144.935748 653.529376 144.935063 653.537382 144.93438 653.545389 
L 221.4 660.070588 
L 144.938494 653.49735 
z
" style="fill:#ffbb78;"/>
   </g>
   <g id="patch_92">
    <path d="M 144.93438 653.545389 
C 144.443288 659.300256 144.603436 665.092214 145.41178 670.811152 
C 146.220124 676.53009 147.671509 682.139538 149.738342 687.532855 
L 221.4 660.070588 
L 144.93438 653.545389 
z
" style="fill:#d62728;"/>
   </g>
   <g id="patch_93">
    <path d="M 149.738342 687.532855 
C 153.363162 696.991673 158.825114 705.639893 165.808452 712.977574 
C 172.79179 720.315254 181.159304 726.198224 190.427281 730.286398 
C 199.695258 734.374572 209.6816 736.587625 219.809011 736.797624 
C 229.936423 737.007623 240.00592 735.210442 249.4354 731.509973 
L 221.4 660.070588 
L 149.738342 687.532855 
z
" style="fill:#e377c2;"/>
   </g>
   <g id="patch_94">
    <path d="M 249.4354 731.509973 
C 263.668632 725.924337 275.912986 716.210484 284.589731 703.620872 
C 293.266476 691.03126 297.985952 676.131271 298.139652 660.842039 
L 221.4 660.070588 
L 249.4354 731.509973 
z
" style="fill:#ff9896;"/>
   </g>
   <g id="patch_95">
    <path d="M 298.139652 660.842039 
C 298.140944 660.713473 298.141914 660.584904 298.14256 660.456334 
C 298.143206 660.327763 298.143529 660.199191 298.143529 660.070619 
L 221.4 660.070588 
L 298.139652 660.842039 
z
" style="fill:#9467bd;"/>
   </g>
   <g id="matplotlib.axis_5"/>
   <g id="matplotlib.axis_6"/>
   <g id="text_32">
    <!-- In Use -->
    <g transform="translate(202.711875 558.141176)scale(0.12 -0.12)">
     <use xlink:href="#DejaVuSans-73"/>
     <use x="29.492188" xlink:href="#DejaVuSans-110"/>
     <use x="92.871094" xlink:href="#DejaVuSans-32"/>
     <use x="124.658203" xlink:href="#DejaVuSans-85"/>
     <use x="197.851562" xlink:href="#DejaVuSans-115"/>
     <use x="249.951172" xlink:href="#DejaVuSans-101"/>
    </g>
   </g>
  </g>
 </g>
</svg>
